<?xml version="1.0" encoding="UTF-8"?>
<svg version="1.1" xmlns="http://www.w3.org/2000/svg" width="2047" height="2048">
<path d="M0 0 C1.54888206 0.91144643 3.13019658 1.76828887 4.7265625 2.59375 C11.54137973 6.11963596 17.24747929 10.29322554 23.09765625 15.234375 C24.97016647 16.7790648 26.84520594 18.32069327 28.72265625 19.859375 C29.6353125 20.60960937 30.54796875 21.35984375 31.48828125 22.1328125 C33.77884025 23.97760403 36.10118287 25.74588887 38.47265625 27.484375 C41.64550088 29.83510604 44.36782836 32.36805571 47.09765625 35.234375 C50.8782982 39.1052275 54.66091958 42.91540374 58.78515625 46.421875 C63.21407267 50.21934195 67.27837436 54.35949968 71.35424805 58.52807617 C73.90322693 61.1176327 76.46165691 63.590943 79.27734375 65.890625 C81.6491119 67.86162346 83.61410046 69.76605664 85.59765625 72.109375 C86.47550781 73.13417969 86.47550781 73.13417969 87.37109375 74.1796875 C88.48437367 75.50454098 89.59403348 76.83244903 90.69921875 78.1640625 C92.87348857 80.76203619 94.83917618 83.03554418 97.53515625 85.109375 C100.61617377 87.66436514 102.74253216 90.55692784 105.14453125 93.7421875 C107.19022416 96.35249165 109.35800279 98.78903908 111.59765625 101.234375 C115.04347829 105.01253521 118.24912926 108.88667914 121.3515625 112.94921875 C125.63093381 118.54973825 130.00453787 124.05914005 134.72265625 129.296875 C144.09765625 139.87877155 144.09765625 139.87877155 144.09765625 144.234375 C145.08765625 144.564375 146.07765625 144.894375 147.09765625 145.234375 C148.56469727 146.86987305 148.56469727 146.86987305 150.1015625 148.99609375 C150.67285889 149.77911865 151.24415527 150.56214355 151.83276367 151.36889648 C152.43580322 152.21137939 153.03884277 153.0538623 153.66015625 153.921875 C154.28059814 154.776604 154.90104004 155.63133301 155.5402832 156.51196289 C157.40112134 159.08018347 159.25110592 161.65586787 161.09765625 164.234375 C161.62004883 164.96205078 162.14244141 165.68972656 162.68066406 166.43945312 C164.83153752 169.4371158 166.9758276 172.43920209 169.109375 175.44921875 C170.32680266 177.15457419 171.57328426 178.840197 172.8671875 180.48828125 C174.09765625 182.234375 174.09765625 182.234375 174.09765625 184.234375 C174.75765625 184.234375 175.41765625 184.234375 176.09765625 184.234375 C177.46484375 185.95703125 177.46484375 185.95703125 178.97265625 188.296875 C179.46507812 189.05097656 179.9575 189.80507812 180.46484375 190.58203125 C181.70058206 192.58936692 182.87516318 194.6345196 184.01953125 196.6953125 C185.88889061 199.99086795 188.07564 202.85582605 190.47265625 205.796875 C195.79303944 212.50377616 200.29638618 219.67589739 204.83764648 226.92358398 C208.44219265 232.66619542 212.14545363 238.3062545 216.03515625 243.859375 C219.81450067 249.26182558 223.23464283 254.76355847 226.48828125 260.50390625 C228.5845457 264.06043259 230.94620037 267.38454529 233.34375 270.7421875 C237.5844815 276.76799306 241.47282388 282.96696109 244.91015625 289.484375 C247.33135082 294.02976427 250.0702983 298.24078828 252.97265625 302.484375 C256.67307413 307.91591028 259.91288896 313.42128548 262.91967773 319.26123047 C265.73684608 324.68363468 268.85613997 329.89238754 272.03515625 335.109375 C276.24520157 342.03415552 280.21047571 349.0272471 283.94287109 356.2199707 C286.24325386 360.64849547 288.6500236 364.98334607 291.16015625 369.296875 C293.86548723 373.97763943 296.38344687 378.71039984 298.76953125 383.5625 C301.66665416 389.40585831 304.62419873 395.2134456 307.640625 400.99609375 C308.4121645 402.47978905 309.18364863 403.96351313 309.95507812 405.44726562 C311.12320394 407.69294394 312.29333676 409.93746536 313.46948242 412.17895508 C317.81969478 420.47736514 321.82968326 428.65370854 325.05297852 437.46166992 C326.43828702 441.13845158 328.14177601 444.57642167 329.97265625 448.046875 C332.75801593 453.48151267 335.39560357 458.95342406 337.84765625 464.546875 C338.11690918 465.15571533 338.38616211 465.76455566 338.66357422 466.3918457 C340.62472481 470.91697442 342.31661514 475.52071589 343.98193359 480.16186523 C345.19374182 483.49897827 346.45327959 486.81569078 347.71875 490.1328125 C365.78614343 537.81497895 369.20928148 585.74342696 348.09765625 633.234375 C345.91563608 637.98083124 343.5435901 642.61885079 341.09765625 647.234375 C340.66453125 648.09160156 340.23140625 648.94882812 339.78515625 649.83203125 C330.18504446 668.3179608 317.56735403 685.97796302 304.609375 702.26171875 C302.44789334 705.08225684 300.52783153 708.04663489 298.578125 711.015625 C297.04604253 713.31172749 295.47096319 715.56433664 293.84765625 717.796875 C293.368125 718.45816406 292.88859375 719.11945312 292.39453125 719.80078125 C291.9665625 720.27386719 291.53859375 720.74695313 291.09765625 721.234375 C290.43765625 721.234375 289.77765625 721.234375 289.09765625 721.234375 C288.84242188 721.77835938 288.5871875 722.32234375 288.32421875 722.8828125 C284.75292633 729.72968523 280.12494223 736.09836945 275.22265625 742.046875 C262.28489516 757.92734254 247.32867868 778.90971382 249.09765625 800.234375 C251.22883141 811.538998 254.56973262 822.20075914 258.84765625 832.859375 C259.12167267 833.55227631 259.39568909 834.24517761 259.67800903 834.95907593 C265.5710805 849.79784968 272.77416569 863.86883076 280.33813477 877.91210938 C282.00599783 881.06130885 283.58907545 884.23928984 285.15234375 887.44140625 C288.0205804 893.22838514 291.31965254 898.66415712 294.78515625 904.109375 C300.75082997 913.53527491 300.75082997 913.53527491 302.58984375 917.2421875 C304.88532267 921.79746433 307.7334823 925.97708274 310.53515625 930.234375 C311.10814453 931.1109375 311.68113281 931.9875 312.27148438 932.890625 C314.61821465 936.47688254 316.97323135 940.05582879 319.375 943.60546875 C320.81385386 945.80127067 322.04195583 947.9587163 323.22265625 950.296875 C325.78646459 955.00510328 329.00523755 959.11370115 332.31201172 963.30834961 C334.85855039 966.56027855 337.18867735 969.83048563 339.34765625 973.359375 C344.23261324 981.27277326 349.9413599 988.618445 355.49267578 996.06982422 C357.51243772 998.79376844 359.49424742 1001.54277321 361.47265625 1004.296875 C365.18299911 1009.41241154 369.114893 1014.32953232 373.09765625 1019.234375 C380.69653047 1028.65411153 380.69653047 1028.65411153 384.03515625 1033.234375 C387.09288144 1037.36146856 390.52380722 1041.11206933 393.98046875 1044.90625 C400.57645865 1052.15940494 400.57645865 1052.15940494 402.09765625 1055.296875 C403.56430448 1058.13850595 405.82614401 1059.98817209 408.09765625 1062.234375 C410.07825812 1064.31809068 412.02633978 1066.43115114 413.97265625 1068.546875 C414.77243896 1069.4143335 414.77243896 1069.4143335 415.58837891 1070.29931641 C418.25730215 1073.20236998 420.89849972 1076.12151475 423.47265625 1079.109375 C428.55702462 1084.9816358 433.93488898 1090.59121443 439.24804688 1096.25537109 C441.01294118 1098.14373345 442.76805614 1100.04060017 444.51953125 1101.94140625 C450.87968268 1108.83179964 457.35373204 1115.59155576 463.97265625 1122.234375 C465.00676636 1123.27537354 465.00676636 1123.27537354 466.06176758 1124.33740234 C470.01868785 1128.28241423 474.09070073 1132.02603975 478.32080078 1135.67578125 C480.51562507 1137.60100223 482.56517726 1139.63935819 484.59765625 1141.734375 C487.92886432 1145.10537565 491.34877253 1148.2795153 494.9453125 1151.36328125 C497.47817787 1153.56517329 499.94098147 1155.83633326 502.41015625 1158.109375 C506.99808967 1162.3016869 511.72688833 1166.26031634 516.58984375 1170.12890625 C519.24993309 1172.36222113 521.64271956 1174.77943831 524.09765625 1177.234375 C525.47139135 1178.34559671 526.86685499 1179.43062772 528.28515625 1180.484375 C531.64422795 1183.04103253 534.76201701 1185.72944504 537.84765625 1188.609375 C542.08119263 1192.48737334 546.58769644 1195.73876795 551.34399414 1198.92480469 C555.54691292 1201.76939875 559.23261566 1204.93226408 562.9609375 1208.359375 C565.79662542 1210.84773003 568.83228968 1212.92404693 571.94921875 1215.04296875 C577.15671598 1218.66754189 582.22936904 1222.47637444 587.32177734 1226.26025391 C590.72253498 1228.77966882 594.10029112 1231.26851347 597.67578125 1233.53515625 C598.475 1234.09589844 599.27421875 1234.65664062 600.09765625 1235.234375 C600.09765625 1235.894375 600.09765625 1236.554375 600.09765625 1237.234375 C600.77441406 1237.29367187 601.45117188 1237.35296875 602.1484375 1237.4140625 C606.22243203 1238.54722654 608.96661118 1240.80291928 612.28515625 1243.359375 C613.62320924 1244.36393249 614.9617517 1245.36783834 616.30078125 1246.37109375 C616.94982422 1246.8614209 617.59886719 1247.35174805 618.26757812 1247.85693359 C624.00063865 1252.17202531 629.62035869 1256.15836757 636.1171875 1259.21875 C639.11070028 1260.75388476 641.81027403 1262.67701298 644.578125 1264.58203125 C648.52662929 1267.17151546 652.66064163 1269.43033693 656.7890625 1271.71875 C657.55089844 1272.21890625 658.31273437 1272.7190625 659.09765625 1273.234375 C659.09765625 1273.894375 659.09765625 1274.554375 659.09765625 1275.234375 C660.86109375 1275.6984375 660.86109375 1275.6984375 662.66015625 1276.171875 C669.35548029 1278.40016253 675.12438523 1282.3301367 681.09179688 1286.00830078 C690.5590082 1291.79509914 700.17926829 1296.87710629 710.36621094 1301.27661133 C715.5520534 1303.52033456 720.62136984 1305.92806324 725.66015625 1308.484375 C734.54209395 1312.96599835 742.83083174 1316.58512625 752.453125 1319.22265625 C757.08933128 1320.50966314 761.67101444 1321.95053251 766.2578125 1323.40234375 C782.39214861 1328.12946011 796.31965977 1324.31769422 810.74609375 1316.734375 C817.93065062 1312.7556372 824.42362388 1307.74242317 830.97412109 1302.81542969 C833.543459 1300.90245748 836.15571555 1299.05709798 838.77783203 1297.2175293 C844.56471557 1293.15674175 850.08230409 1288.85403831 855.51171875 1284.32421875 C858.79600289 1281.67000121 862.23060895 1279.28994748 865.7109375 1276.90234375 C870.16788291 1273.78758812 874.39413354 1270.37064826 878.65917969 1267.00048828 C880.36396438 1265.65676926 882.07426324 1264.32030437 883.78515625 1262.984375 C884.31987549 1262.55987061 884.85459473 1262.13536621 885.40551758 1261.69799805 C888.80892472 1259.04821376 892.24665313 1257.14430646 896.09765625 1255.234375 C897.69623691 1254.03086092 899.2597033 1252.77932657 900.78515625 1251.484375 C919.89156094 1235.92871808 944.36386383 1222.42616829 968.17919922 1215.77685547 C970.04644205 1215.2488568 971.90243688 1214.68157666 973.7578125 1214.11328125 C986.95840697 1210.12240385 999.80954865 1208.82139484 1013.53515625 1208.859375 C1014.27921722 1208.85991882 1015.0232782 1208.86046265 1015.78988647 1208.86102295 C1028.584683 1208.90381548 1040.66317711 1210.06607839 1053.09765625 1213.234375 C1053.96600098 1213.44868164 1054.8343457 1213.66298828 1055.72900391 1213.88378906 C1074.18716671 1218.52280785 1091.38045011 1225.76213665 1108.47265625 1234.03125 C1112.13264596 1235.79403302 1115.82825906 1237.44334612 1119.55859375 1239.05078125 C1130.03480856 1243.57030352 1140.08813342 1248.81805599 1150.1796875 1254.1328125 C1154.89022231 1256.61298327 1159.6310002 1259.01494169 1164.41015625 1261.359375 C1171.32659629 1264.7658307 1178.05865349 1268.48116951 1184.7956543 1272.2277832 C1189.71717546 1274.95571208 1194.66787393 1277.57506956 1199.72265625 1280.046875 C1205.38087323 1282.82971303 1210.73167124 1285.93223038 1216.09765625 1289.234375 C1221.75035387 1292.5909026 1227.42060363 1295.89231633 1233.22265625 1298.984375 C1239.02222324 1302.10979006 1244.58590279 1305.58892834 1250.18408203 1309.05664062 C1255.06690634 1312.05800033 1260.00835764 1314.850176 1265.09765625 1317.484375 C1270.20770548 1320.13595384 1274.92321408 1323.06032009 1279.578125 1326.44921875 C1286.32592788 1331.23022017 1293.48593931 1335.42045471 1300.78515625 1339.296875 C1305.29270934 1341.71047072 1309.40593784 1344.45620454 1313.5546875 1347.4375 C1319.00875344 1351.29137148 1324.66079486 1354.85959077 1330.4765625 1358.140625 C1334.22401598 1360.26698048 1337.78268375 1362.63032491 1341.34765625 1365.046875 C1345.73252517 1367.99599038 1350.12662262 1370.91655291 1354.59765625 1373.734375 C1364.50066336 1379.99743753 1374.21055588 1386.50177473 1383.64453125 1393.453125 C1385.8058383 1395.02248171 1387.99032124 1396.51887263 1390.22265625 1397.984375 C1400.53688592 1404.77395784 1410.56390272 1412.04446074 1420.515625 1419.3515625 C1422.40224935 1420.72728555 1424.30269966 1422.08410448 1426.2109375 1423.4296875 C1427.22542969 1424.14898438 1428.23992187 1424.86828125 1429.28515625 1425.609375 C1430.20683594 1426.25648437 1431.12851563 1426.90359375 1432.078125 1427.5703125 C1432.74457031 1428.11945313 1433.41101562 1428.66859375 1434.09765625 1429.234375 C1434.09765625 1429.894375 1434.09765625 1430.554375 1434.09765625 1431.234375 C1434.64550781 1431.49476562 1435.19335938 1431.75515625 1435.7578125 1432.0234375 C1438.44972762 1433.41658222 1440.9766496 1434.98413777 1443.53515625 1436.609375 C1444.46199219 1437.19460938 1445.38882812 1437.77984375 1446.34375 1438.3828125 C1449.06621499 1440.21323577 1451.63660799 1442.06365003 1454.09765625 1444.234375 C1454.09765625 1444.894375 1454.09765625 1445.554375 1454.09765625 1446.234375 C1454.62230469 1446.46125 1455.14695312 1446.688125 1455.6875 1446.921875 C1458.93836105 1448.69219803 1461.76107992 1450.95163773 1464.66015625 1453.234375 C1467.75572957 1455.65549379 1470.82492219 1458.0525523 1474.09765625 1460.234375 C1474.09765625 1460.894375 1474.09765625 1461.554375 1474.09765625 1462.234375 C1474.6596875 1462.47800781 1475.22171875 1462.72164062 1475.80078125 1462.97265625 C1478.5378541 1464.47618436 1480.55561566 1466.30137248 1482.84765625 1468.421875 C1485.86204239 1471.18579466 1488.87802846 1473.93556479 1491.97265625 1476.609375 C1501.40865555 1484.84848503 1510.46186497 1493.43320118 1519.29956055 1502.3059082 C1520.92317854 1503.93494072 1522.55215228 1505.55848228 1524.18164062 1507.18164062 C1529.13843631 1512.13528487 1534.00684001 1517.12127598 1538.5612793 1522.45288086 C1541.14436904 1525.44808281 1543.88310099 1528.29633887 1546.59765625 1531.171875 C1550.7923635 1535.65338455 1554.80042821 1540.16791424 1558.484375 1545.0859375 C1560.34082858 1547.55821224 1562.27772773 1549.95617946 1564.22265625 1552.359375 C1569.08580996 1558.45002994 1573.26124679 1564.20458373 1576.6484375 1571.24609375 C1577.74073331 1573.49840182 1578.86078445 1575.7215147 1580.015625 1577.94140625 C1588.85867509 1595.03517906 1593.55351383 1610.68291662 1593.53515625 1630.046875 C1593.53456207 1630.77802521 1593.5339679 1631.50917542 1593.53335571 1632.26248169 C1593.42924317 1654.13715384 1587.25828136 1671.26094557 1578.44921875 1691.12646484 C1576.44219923 1695.74159462 1574.61279007 1700.42103836 1572.78515625 1705.109375 C1570.34355899 1711.30432722 1567.7216071 1717.29653562 1564.6484375 1723.2109375 C1562.7730455 1726.86724332 1561.02587804 1730.57503998 1559.28515625 1734.296875 C1558.9492749 1735.01182129 1558.61339355 1735.72676758 1558.26733398 1736.46337891 C1556.46692371 1740.29820615 1554.67914957 1744.13855657 1552.90234375 1747.984375 C1548.72559791 1756.9765771 1544.28532638 1765.69481304 1539.3359375 1774.28515625 C1537.42102962 1777.62275685 1535.63590558 1781.01414621 1533.87426758 1784.43457031 C1529.75916093 1792.41571864 1525.1983123 1799.99923695 1520.33984375 1807.54980469 C1517.65772988 1811.72678228 1515.10329201 1815.90233422 1512.78515625 1820.296875 C1510.49472849 1824.63803458 1507.85678974 1828.56056594 1504.98828125 1832.5390625 C1502.89580509 1835.52213801 1500.96953938 1838.58402638 1499.03515625 1841.671875 C1494.67653721 1848.57916163 1489.85902049 1855.12251813 1484.97045898 1861.66186523 C1484.39755127 1862.42829346 1483.82464355 1863.19472168 1483.234375 1863.984375 C1482.69087402 1864.71011719 1482.14737305 1865.43585938 1481.58740234 1866.18359375 C1480.25437095 1868.01864188 1479.01836412 1869.88190071 1477.8046875 1871.796875 C1477.24136719 1872.60125 1476.67804688 1873.405625 1476.09765625 1874.234375 C1475.43765625 1874.234375 1474.77765625 1874.234375 1474.09765625 1874.234375 C1473.76507812 1875.25917969 1473.76507812 1875.25917969 1473.42578125 1876.3046875 C1471.73048332 1880.04431528 1469.41951772 1882.93229417 1466.84765625 1886.109375 C1466.34967529 1886.73360352 1465.85169434 1887.35783203 1465.33862305 1888.00097656 C1462.47245242 1891.57912588 1459.56079779 1895.10928361 1456.53125 1898.55078125 C1454.77011068 1900.61904024 1453.13333367 1902.77216374 1451.47265625 1904.921875 C1447.76515861 1909.59716473 1443.69905734 1913.75106553 1439.4440918 1917.91723633 C1436.75599924 1920.55450628 1434.18833643 1923.21069375 1431.78515625 1926.109375 C1426.69713631 1932.08064535 1420.72720127 1937.24294073 1414.95166016 1942.53320312 C1413.25756918 1944.08764425 1411.57253984 1945.65116071 1409.890625 1947.21875 C1408.94832031 1948.09015625 1408.00601562 1948.9615625 1407.03515625 1949.859375 C1405.81119141 1950.99246094 1405.81119141 1950.99246094 1404.5625 1952.1484375 C1401.87470089 1954.42305672 1399.03325163 1956.29436357 1396.09765625 1958.234375 C1394.88622509 1959.26950641 1393.69637156 1960.3307098 1392.53515625 1961.421875 C1387.09949588 1966.23776849 1381.14589443 1970.24217538 1375.09765625 1974.234375 C1374.27861816 1974.77578125 1373.45958008 1975.3171875 1372.61572266 1975.875 C1361.74345233 1983.02172414 1350.89260953 1989.64802154 1339.14306641 1995.23193359 C1334.50633211 1997.50436508 1329.9768442 1999.99869466 1325.44458008 2002.47167969 C1312.76600813 2009.25958336 1299.52125741 2014.42675763 1285.84765625 2018.796875 C1285.12042358 2019.03116211 1284.39319092 2019.26544922 1283.6439209 2019.50683594 C1269.33896004 2024.08989572 1254.92755504 2027.75344772 1240.09765625 2030.234375 C1239.36293091 2030.36321075 1238.62820557 2030.49204651 1237.87121582 2030.62478638 C1221.74019962 2033.39563459 1205.7521174 2033.75918928 1189.41397476 2033.68140793 C1187.31727227 2033.67173482 1185.22058971 2033.66643684 1183.12387085 2033.66165161 C1162.1913535 2033.59876968 1141.75115874 2032.87942058 1121.09765625 2029.234375 C1119.71724489 2029.00057768 1118.33670723 2028.76752504 1116.95605469 2028.53515625 C1106.27516931 2026.71670461 1095.67878113 2024.56019151 1085.09765625 2022.234375 C1083.80124207 2021.95013672 1083.80124207 2021.95013672 1082.4786377 2021.66015625 C1056.24613258 2015.87537569 1030.86838878 2008.61673139 1005.58557129 1999.54624939 C999.52064935 1997.37067719 993.41685486 1995.33881127 987.28515625 1993.359375 C974.0084427 1988.99853957 961.10205444 1983.75028536 948.48535156 1977.74755859 C944.95108981 1976.16890809 941.36175829 1974.83579479 937.72265625 1973.52734375 C929.19100299 1970.39044391 921.03478948 1966.60693651 912.84765625 1962.671875 C910.13593362 1961.37506238 907.42229673 1960.08234628 904.70703125 1958.79296875 C904.05539001 1958.48311539 903.40374878 1958.17326202 902.73236084 1957.85401917 C897.78349821 1955.51763803 892.7644681 1953.39325692 887.69824219 1951.32299805 C884.16394919 1949.84351884 880.75386287 1948.17250252 877.34765625 1946.421875 C875.98052652 1945.72905266 874.61333725 1945.03634779 873.24609375 1944.34375 C872.21887207 1943.82071289 872.21887207 1943.82071289 871.17089844 1943.28710938 C867.77987136 1941.5652407 864.3755925 1939.87004571 860.97265625 1938.171875 C859.6315074 1937.50000603 858.29036153 1936.8281311 856.94921875 1936.15625 C854.53239992 1934.94723968 852.110669 1933.75104486 849.68359375 1932.5625 C841.86699205 1928.71826966 834.24796799 1924.58976858 826.63525391 1920.35888672 C821.39021159 1917.45671637 816.10463265 1914.68569435 810.72265625 1912.046875 C804.7396784 1909.10761025 798.95876001 1905.92124883 793.1953125 1902.56640625 C787.87452938 1899.50234552 782.44477445 1896.6374608 777.03515625 1893.734375 C769.55815082 1889.71443025 762.24635886 1885.58859961 755.07421875 1881.046875 C751.7573007 1879.02712438 748.35294505 1877.21370435 744.91015625 1875.421875 C735.30701989 1870.4125285 726.11158621 1864.69947416 716.97802734 1858.88500977 C713.26624767 1856.52960869 709.58913867 1854.40761019 705.59765625 1852.546875 C699.90922239 1849.75982826 694.63569684 1846.5199805 689.30493164 1843.1184082 C684.63333981 1840.15201097 679.88607182 1837.39575616 675.03515625 1834.734375 C669.04472866 1831.43672478 663.3801563 1827.82041552 657.73754883 1823.96264648 C653.35296453 1820.99466431 648.86464298 1818.34070192 644.22265625 1815.796875 C634.44409798 1810.43541124 625.14435987 1804.33988594 615.921875 1798.078125 C613.34599228 1796.39649755 610.76782859 1794.95333542 608.03515625 1793.546875 C603.28245587 1790.9887101 598.90289027 1788.10089342 594.50439453 1784.97827148 C589.58265226 1781.50953993 584.51521955 1778.30053655 579.41015625 1775.109375 C573.61394226 1771.4827728 567.91129789 1767.79617127 562.3515625 1763.8125 C558.89443183 1761.39190937 555.3182718 1759.16612745 551.75 1756.9140625 C546.14567114 1753.36492935 540.67890983 1749.68252034 535.34765625 1745.734375 C528.98952246 1741.06033613 522.40034651 1736.74157961 515.79785156 1732.421875 C510.73917038 1729.08847433 505.91873953 1725.58610694 501.16992188 1721.82592773 C498.27637035 1719.60360653 495.26546894 1717.71368995 492.16015625 1715.796875 C486.97353367 1712.54161996 482.18139165 1709.03575365 477.453125 1705.1328125 C474.29671224 1702.58883804 470.98761014 1700.30534396 467.65234375 1698.00390625 C460.31326708 1692.92041737 453.19209371 1687.56289255 446.14526367 1682.08447266 C442.20582926 1679.03970621 438.17634073 1676.15127586 434.09765625 1673.296875 C428.67929683 1669.49649791 423.63677643 1665.39027193 418.63842773 1661.05664062 C415.75625185 1658.57624932 412.87793497 1656.32134464 409.66015625 1654.296875 C404.81024722 1651.23002076 400.63801899 1647.46541842 396.33154297 1643.6965332 C392.19459732 1640.10203685 387.92142541 1636.92471206 383.375 1633.859375 C380.23692694 1631.62020108 377.46756409 1629.05089886 374.625 1626.453125 C371.64449883 1623.83654901 368.5454758 1621.41119153 365.41015625 1618.984375 C359.19155129 1614.16181802 353.19754151 1609.11699015 347.25390625 1603.9609375 C342.64325317 1599.963437 337.94290245 1596.08741453 333.16015625 1592.296875 C322.9799755 1584.16495884 322.9799755 1584.16495884 318.66015625 1579.734375 C315.97956545 1577.11916446 313.16031337 1574.98554972 310.1484375 1572.7734375 C306.07602355 1569.71718779 302.27386749 1566.42977403 298.703125 1562.80078125 C296.27271808 1560.40681222 293.7842468 1558.33122616 291.09765625 1556.234375 C285.92632774 1552.07072079 281.27454557 1547.55030568 276.68945312 1542.75195312 C274.27430927 1540.25762422 272.09097034 1538.22997426 269.171875 1536.30859375 C264.45115445 1533.12345701 260.7702218 1528.99190178 256.83984375 1524.8984375 C253.05508147 1521.01983814 249.20356427 1517.64718675 244.77490234 1514.5168457 C242.45492957 1512.74292765 240.8897908 1510.53054739 239.09765625 1508.234375 C237.33928939 1506.60984709 235.51804541 1505.06828014 233.69921875 1503.51171875 C225.18325037 1496.05704974 216.99292845 1488.21605864 209.05078125 1480.15625 C207.22956467 1478.36417289 205.35746761 1476.69963507 203.41015625 1475.046875 C197.56026191 1470.03436473 192.23306224 1464.45323774 186.82348633 1458.97607422 C186.2539624 1458.40131348 185.68443848 1457.82655273 185.09765625 1457.234375 C184.36215042 1456.48840057 183.62664459 1455.74242615 182.86885071 1454.97384644 C179.98924888 1452.12720861 177.0245165 1449.38801746 174.03271484 1446.66113281 C167.57282065 1440.73246243 161.32887748 1434.61240722 155.13671875 1428.40625 C154.05120062 1427.32140873 152.96553437 1426.23671565 151.87973022 1425.15216064 C149.63125172 1422.90513806 147.38454453 1420.65636433 145.13916016 1418.40625 C142.2817559 1415.54311497 139.41983606 1412.68454214 136.55658913 1409.82725143 C134.32411836 1407.59841435 132.09405932 1405.3671764 129.8646965 1403.13523102 C128.81061222 1402.08048701 127.75580513 1401.02646478 126.70021439 1399.97322845 C121.47798643 1394.76011136 116.32525593 1389.53691122 111.57821655 1383.88018799 C110.02904333 1382.15810385 108.38582769 1380.70382332 106.59765625 1379.234375 C104.15776746 1377.21811526 102.07831598 1375.15134591 100.03515625 1372.734375 C96.59713858 1368.68047661 92.87483079 1364.96768621 89.09765625 1361.234375 C84.8872705 1357.06821141 80.82521905 1352.88149129 77 1348.35546875 C74.31611805 1345.36296793 71.45514357 1342.560237 68.59765625 1339.734375 C63.30384856 1334.49369996 58.3043507 1329.11659138 53.55859375 1323.37109375 C50.82662885 1320.0997409 48.13086688 1317.44755493 44.77734375 1314.7890625 C42.56775468 1312.74390797 40.7850043 1310.46461116 38.91015625 1308.109375 C34.86049683 1303.03198688 30.45109513 1298.54368439 25.80859375 1294.01171875 C22.31320761 1290.43071076 19.23028916 1286.59760265 16.16796875 1282.64453125 C14.011399 1280.13395854 11.68292974 1278.28859708 9.09765625 1276.234375 C7.92334371 1274.85830832 6.79630369 1273.44034568 5.72265625 1271.984375 C1.25795179 1266.09250799 -3.4436065 1260.60687513 -8.77734375 1255.484375 C-12.95725285 1251.38562919 -16.32126825 1246.81638707 -19.7265625 1242.06640625 C-21.93353577 1239.19377498 -24.30710805 1236.75707305 -26.90234375 1234.234375 C-28.43697671 1232.60140131 -29.95809325 1230.95561076 -31.46484375 1229.296875 C-32.20863281 1228.48347656 -32.95242188 1227.67007812 -33.71875 1226.83203125 C-35.90234375 1224.234375 -35.90234375 1224.234375 -37.86328125 1221.26171875 C-39.99488365 1218.09698338 -42.33325756 1215.4938586 -44.96484375 1212.734375 C-49.54192668 1207.85380066 -53.73877479 1202.77169226 -57.82177734 1197.47363281 C-61.76177439 1192.36712384 -65.89751323 1187.4530581 -70.1015625 1182.5625 C-71.90234375 1180.234375 -71.90234375 1180.234375 -71.90234375 1178.234375 C-72.89234375 1177.904375 -73.88234375 1177.574375 -74.90234375 1177.234375 C-76.41015625 1175.3359375 -76.41015625 1175.3359375 -78.02734375 1172.859375 C-81.35008742 1167.94199536 -84.98180019 1163.39656817 -88.76953125 1158.83203125 C-92.09412082 1154.78285164 -95.1848279 1150.57291353 -98.28515625 1146.3515625 C-101.23134984 1142.37500613 -104.29654943 1138.53737729 -107.46484375 1134.734375 C-116.90234375 1123.27227618 -116.90234375 1123.27227618 -116.90234375 1119.234375 C-117.89234375 1118.904375 -118.88234375 1118.574375 -119.90234375 1118.234375 C-121.48375535 1116.26586264 -122.91925127 1114.31427606 -124.33984375 1112.234375 C-124.77014893 1111.61860596 -125.2004541 1111.00283691 -125.64379883 1110.3684082 C-126.57614129 1109.03370914 -127.50529535 1107.69677852 -128.43164062 1106.35791016 C-130.96549302 1102.69930323 -133.52722892 1099.06036915 -136.08984375 1095.421875 C-136.60111816 1094.69476318 -137.11239258 1093.96765137 -137.63916016 1093.21850586 C-140.75188845 1088.80889159 -143.96208562 1084.50706026 -147.31640625 1080.27734375 C-159.90234375 1064.06442426 -159.90234375 1064.06442426 -159.90234375 1059.234375 C-160.56234375 1059.234375 -161.22234375 1059.234375 -161.90234375 1059.234375 C-163.22412109 1057.59228516 -163.22412109 1057.59228516 -164.73828125 1055.2734375 C-165.30216553 1054.41790283 -165.8660498 1053.56236816 -166.44702148 1052.6809082 C-167.05102783 1051.74980225 -167.65503418 1050.81869629 -168.27734375 1049.859375 C-169.54680015 1047.92833621 -170.81633274 1045.9973475 -172.0859375 1044.06640625 C-172.72515137 1043.08881348 -173.36436523 1042.1112207 -174.02294922 1041.10400391 C-176.77370926 1036.90389563 -179.55465991 1032.72420312 -182.33984375 1028.546875 C-182.83339355 1027.80405273 -183.32694336 1027.06123047 -183.83544922 1026.29589844 C-186.46167439 1022.35254778 -189.14153022 1018.4604461 -191.90234375 1014.609375 C-195.31860309 1009.78495023 -198.02483603 1004.86689816 -199.90234375 999.234375 C-200.56234375 999.234375 -201.22234375 999.234375 -201.90234375 999.234375 C-203.33520508 997.35766602 -203.33520508 997.35766602 -204.984375 994.73828125 C-205.58701172 993.78630859 -206.18964844 992.83433594 -206.81054688 991.85351562 C-207.75317383 990.34047852 -207.75317383 990.34047852 -208.71484375 988.796875 C-209.64006836 987.33604492 -209.64006836 987.33604492 -210.58398438 985.84570312 C-213.35459715 981.44393256 -216.05451363 977.03060871 -218.546875 972.46484375 C-220.73104066 968.46404676 -223.18600524 964.73003703 -225.77734375 960.984375 C-229.71384266 955.19962401 -233.09883726 949.33333303 -236.33984375 943.12890625 C-238.07707931 939.91067737 -240.03318194 936.94808087 -242.1015625 933.9375 C-248.1416456 924.87082428 -253.93217236 915.56691829 -258.6015625 905.71875 C-261.30553034 900.55441503 -264.65581899 895.74516099 -267.84179688 890.86816406 C-271.44634017 885.31530869 -274.71437638 879.69770221 -277.58984375 873.734375 C-281.06824758 866.62029908 -285.24229527 859.95909333 -289.4140625 853.23828125 C-289.84509277 852.54105957 -290.27612305 851.84383789 -290.72021484 851.12548828 C-291.70320937 849.55294066 -292.71522886 847.99858165 -293.734375 846.44921875 C-294.90234375 844.234375 -294.90234375 844.234375 -294.90234375 840.234375 C-295.56234375 840.234375 -296.22234375 840.234375 -296.90234375 840.234375 C-297.19890869 839.69135742 -297.49547363 839.14833984 -297.80102539 838.58886719 C-305.34345533 824.75171136 -305.34345533 824.75171136 -313.26953125 811.1328125 C-314.67301347 808.64146368 -315.95257276 806.13834854 -317.21484375 803.57421875 C-319.94429929 798.06610983 -322.95432552 792.74409735 -326.02734375 787.421875 C-326.55199219 786.50728516 -327.07664062 785.59269531 -327.6171875 784.65039062 C-329.55526479 781.27715483 -331.49262066 777.90820531 -333.51391602 774.58398438 C-334.87947418 772.27307673 -335.80289992 770.06617187 -336.71484375 767.546875 C-338.44889804 763.10091625 -340.61855442 759.23727785 -343.12890625 755.19140625 C-348.6854716 745.92638429 -353.61220921 736.34253854 -357.60546875 726.3046875 C-359.15591352 722.6340562 -360.91293064 719.09918118 -362.71484375 715.546875 C-365.61221147 709.83482307 -368.42915226 704.09420131 -371.15234375 698.296875 C-371.46921143 697.62374268 -371.7860791 696.95061035 -372.11254883 696.25708008 C-374.05007845 692.1181589 -375.92043914 687.95290308 -377.76806641 683.77319336 C-379.07436473 680.84934568 -380.41162803 677.94055414 -381.75 675.03125 C-389.06027707 659.0547482 -395.5711147 642.97034855 -401.67529297 626.49023438 C-403.72938205 621.03990968 -405.92358027 615.64517375 -408.17895508 610.27514648 C-410.40793799 604.84781342 -412.17195806 599.30356682 -413.89378357 593.69969177 C-415.46100414 588.60858103 -417.10604573 583.54872531 -418.8046875 578.5 C-419.17681366 577.39208855 -419.17681366 577.39208855 -419.55645752 576.26179504 C-420.56749958 573.25535128 -421.58091751 570.2497219 -422.59741211 567.24511719 C-429.49069076 546.84795685 -435.26065615 526.44089654 -439.96484375 505.421875 C-440.35795242 503.67698792 -440.35795242 503.67698792 -440.75900269 501.89685059 C-444.53479021 485.09039405 -448.14894288 468.29059133 -450.38085938 451.19848633 C-450.77734944 448.18453071 -451.21428578 445.18668657 -451.67382812 442.18237305 C-454.25641772 424.34748837 -454.36638133 406.637209 -454.29345703 388.65893555 C-454.27632478 384.39320792 -454.28655603 380.12804015 -454.30377769 375.86233139 C-454.3646493 358.10834939 -454.18549164 340.74767094 -450.90234375 323.234375 C-450.69303223 322.02724854 -450.4837207 320.82012207 -450.26806641 319.57641602 C-449.73830526 316.6568983 -449.15436111 313.75936278 -448.52734375 310.859375 C-448.31311768 309.85592041 -448.0988916 308.85246582 -447.87817383 307.81860352 C-446.20777313 300.20492569 -444.20102495 292.81140597 -441.65625 285.43701172 C-440.7769239 282.86794433 -439.93470673 280.28763192 -439.08984375 277.70703125 C-435.2117058 266.02638028 -430.86090504 255.00551445 -424.90234375 244.234375 C-424.52932129 243.55793945 -424.15629883 242.88150391 -423.77197266 242.18457031 C-421.86953129 238.75042793 -419.94373799 235.33056922 -417.99609375 231.921875 C-416.20391083 228.78233153 -414.48050075 225.61076469 -412.77734375 222.421875 C-408.34460758 214.27687493 -403.39060124 206.71502296 -397.5859375 199.48828125 C-395.8146039 197.11691353 -394.36478531 194.68125498 -392.90234375 192.109375 C-390.61085486 188.17163224 -388.1600261 185.32839252 -384.84765625 182.23828125 C-382.46534313 179.78421171 -380.5460078 177.12049684 -378.52734375 174.359375 C-373.5862231 167.67683355 -367.82796154 161.93260122 -361.87939453 156.14697266 C-358.81961225 153.16887847 -355.81427 150.2341466 -353.109375 146.92578125 C-351.29203662 144.70959338 -349.59112721 142.93004488 -347.40234375 141.109375 C-344.22417941 138.40673146 -341.15155534 135.6192369 -338.10766602 132.76806641 C-333.6026906 128.55138362 -329.14940203 124.49850188 -324.11328125 120.91796875 C-321.6148655 119.01546489 -319.27820266 116.97198328 -316.91870117 114.90136719 C-311.39863715 110.05850766 -305.95133022 105.75641875 -299.62792969 101.97460938 C-297.08590552 100.35157567 -294.84869252 98.62525806 -292.5390625 96.69140625 C-286.44802166 91.76045598 -280.00893498 87.40737915 -273.50756836 83.04321289 C-271.4688045 81.67453396 -269.43426993 80.2997525 -267.40039062 78.92382812 C-247.01516755 65.15953009 -247.01516755 65.15953009 -238.828125 61.23828125 C-236.75801763 60.15913806 -234.88942792 58.93045668 -232.96484375 57.609375 C-222.67420549 50.60109549 -211.78639695 44.50785531 -200.59765625 39.06640625 C-197.10996925 37.36057569 -193.69503584 35.53149949 -190.27514648 33.69433594 C-181.5360771 29.00784251 -172.66733227 24.7565022 -163.61450195 20.71044922 C-158.87858494 18.59317617 -154.20091533 16.42820923 -149.58984375 14.046875 C-139.83449583 9.06331811 -129.49283331 5.17552695 -119.2734375 1.25390625 C-117.18015378 0.35382874 -115.17793348 -0.62702154 -113.1484375 -1.66015625 C-77.30002594 -19.7321519 -35.05819625 -20.80524941 0 0 Z " fill="#000000" transform="translate(453.90234375,14.765625)"/>
</svg>
