<?xml version="1.0" encoding="UTF-8"?>
<svg version="1.1" xmlns="http://www.w3.org/2000/svg" width="612" height="612">
<path d="M0 0 C201.96 0 403.92 0 612 0 C612 201.96 612 403.92 612 612 C410.04 612 208.08 612 0 612 C0 410.04 0 208.08 0 0 Z " fill="#FEFEFE" transform="translate(0,0)"/>
<path d="M0 0 C3.0625 0.3125 3.0625 0.3125 6.0625 3.3125 C6.0625 7.2725 6.0625 11.2325 6.0625 15.3125 C14.9725 15.3125 23.8825 15.3125 33.0625 15.3125 C33.0625 11.6825 33.0625 8.0525 33.0625 4.3125 C36.0625 0.3125 36.0625 0.3125 38.5625 -0.0625 C41.0625 0.3125 41.0625 0.3125 44.0625 2.3125 C44.0625 6.6025 44.0625 10.8925 44.0625 15.3125 C52.9725 15.3125 61.8825 15.3125 71.0625 15.3125 C71.0625 11.6825 71.0625 8.0525 71.0625 4.3125 C72.6875 1.5625 72.6875 1.5625 75.0625 0.3125 C78.1875 0.375 78.1875 0.375 81.0625 1.3125 C83.0625 4.3125 83.0625 4.3125 83.0625 15.3125 C91.9725 15.3125 100.8825 15.3125 110.0625 15.3125 C110.0625 11.3525 110.0625 7.3925 110.0625 3.3125 C110.7225 2.3225 111.3825 1.3325 112.0625 0.3125 C115.5625 -0.0625 115.5625 -0.0625 119.0625 0.3125 C121.0625 3.3125 121.0625 3.3125 121.0625 15.3125 C129.9725 15.3125 138.8825 15.3125 148.0625 15.3125 C148.0625 11.3525 148.0625 7.3925 148.0625 3.3125 C149.0525 2.3225 150.0425 1.3325 151.0625 0.3125 C157.50694444 0.75694444 157.50694444 0.75694444 159.0625 2.3125 C159.13508946 4.49889453 159.14623783 6.68750389 159.125 8.875 C159.11597656 10.07253906 159.10695313 11.27007812 159.09765625 12.50390625 C159.08025391 13.89416016 159.08025391 13.89416016 159.0625 15.3125 C160.01334473 15.28893433 160.01334473 15.28893433 160.98339844 15.26489258 C191.30238534 14.61236807 191.30238534 14.61236807 202.03320312 24.83569336 C209.93595692 32.94186595 212.21593218 41.19860496 212.20294189 52.2427063 C212.20739858 53.43191171 212.20739858 53.43191171 212.2119453 54.64514148 C212.22060905 57.29875741 212.22213859 59.95232809 212.22363281 62.60595703 C212.2282627 64.51000565 212.23328759 66.41405335 212.23867798 68.31809998 C212.25178914 73.4898648 212.25824465 78.66161664 212.26268864 83.83339548 C212.26562195 87.06695002 212.26972729 90.30050104 212.27419281 93.5340538 C212.2878655 103.65801925 212.29753279 113.78197662 212.3013947 123.90595067 C212.30587245 135.57930619 212.32340823 147.25254446 212.3523953 158.92586434 C212.37404022 167.95706264 212.38410051 176.98822802 212.38543582 186.01945198 C212.386482 191.40937745 212.39234981 196.79919265 212.41025543 202.18909073 C212.42678428 207.26328586 212.42886827 212.3372884 212.42011642 217.41150093 C212.41934858 219.26778112 212.42365529 221.12407186 212.43357468 222.9803257 C212.50359739 236.9074208 212.13659169 249.58140233 202.0625 260.3125 C193.67404378 266.97392112 185.75375598 269.62287615 175.15701294 269.57319641 C174.28350185 269.57702196 173.40999077 269.58084751 172.51000965 269.58478898 C169.59531556 269.59507305 166.68082016 269.59113556 163.76611328 269.5871582 C161.67133401 269.59150722 159.57655633 269.59669101 157.48178101 269.60264587 C151.7999363 269.61602682 146.11815815 269.61661552 140.43630075 269.61408257 C135.68981545 269.61301222 130.94334357 269.61789789 126.19686115 269.622688 C114.99727871 269.63378012 103.79772981 269.63422227 92.59814453 269.62817383 C81.05163719 269.62213382 69.5052517 269.63444648 57.95876515 269.6557439 C48.03838771 269.67336788 38.11804903 269.67935998 28.19765651 269.67610615 C22.27575103 269.67429439 16.35393246 269.67691891 10.43204117 269.69082069 C4.86207136 269.70340725 -0.70770869 269.70144695 -6.27767563 269.68840981 C-8.31862452 269.68604628 -10.35958679 269.68877068 -12.40052032 269.69703293 C-15.19324765 269.70752096 -17.98534069 269.69938316 -20.77804565 269.6867218 C-21.57971818 269.69409609 -22.3813907 269.70147037 -23.20735633 269.70906812 C-33.58088804 269.61058003 -41.24740557 265.7923369 -48.62890625 258.68359375 C-56.26057791 250.4398582 -58.08742538 241.22772342 -58.08467102 230.25531006 C-58.08834771 229.46094646 -58.0920244 228.66658286 -58.0958125 227.84814763 C-58.10679594 225.19530791 -58.11068404 222.54250743 -58.11450195 219.88964844 C-58.12077054 217.98382952 -58.12741769 216.07801182 -58.13441467 214.17219543 C-58.15540697 207.9220972 -58.16581119 201.67199886 -58.17578125 195.421875 C-58.17983033 193.26696002 -58.1839473 191.11204516 -58.18813133 188.95713043 C-58.20717082 178.83370664 -58.22140558 168.71029008 -58.2297433 158.58685184 C-58.23951738 146.91346184 -58.26584668 135.24026138 -58.30624419 123.56693816 C-58.33642555 114.53488689 -58.35121402 105.50288991 -58.35452431 96.47078919 C-58.35687206 91.08031178 -58.36579723 85.69003714 -58.39098549 80.29961395 C-58.41430712 75.22700998 -58.41848293 70.15474175 -58.40822411 65.08209801 C-58.40772967 63.22539082 -58.41402284 61.36866686 -58.42778015 59.51201057 C-58.55335685 41.55297668 -58.55335685 41.55297668 -53.9375 33.3125 C-53.380625 32.28125 -52.82375 31.25 -52.25 30.1875 C-45.86797817 22.25309448 -39.08366577 16.99248939 -28.9375 15.3125 C-27.02606637 15.23418326 -25.11222879 15.20461375 -23.19921875 15.21484375 C-22.13251953 15.21806641 -21.06582031 15.22128906 -19.96679688 15.22460938 C-18.31260742 15.23717773 -18.31260742 15.23717773 -16.625 15.25 C-15.50287109 15.25451172 -14.38074219 15.25902344 -13.22460938 15.26367188 C-10.4621849 15.27542687 -7.69987002 15.29185923 -4.9375 15.3125 C-4.96070313 14.39726562 -4.98390625 13.48203125 -5.0078125 12.5390625 C-5.02585938 11.35054687 -5.04390625 10.16203125 -5.0625 8.9375 C-5.08570313 7.75414062 -5.10890625 6.57078125 -5.1328125 5.3515625 C-4.86781099 1.22813895 -4.10542954 0.43674782 0 0 Z " fill="#FDFCFD" transform="translate(228.9375,173.6875)"/>
<path d="M0 0 C2.46501227 0.74868873 4.93712871 1.47062918 7.41015625 2.19238281 C26.97080806 7.96291265 46.19958128 14.67311748 65.25390625 21.93457031 C66.30940674 22.33458252 67.36490723 22.73459473 68.45239258 23.14672852 C86.40709161 30.08066981 86.40709161 30.08066981 90.25390625 34.68457031 C91.42843324 38.20815127 91.33087346 40.94444596 91.2890625 44.66113281 C91.29277875 46.06869219 91.29871106 47.47624712 91.30664062 48.88378906 C91.31714577 51.08986959 91.31670113 53.29273046 91.27807617 55.49853516 C91.03913293 66.0392515 91.03913293 66.0392515 96.1875 74.98535156 C96.8983374 75.63157471 97.6091748 76.27779785 98.34155273 76.94360352 C102.22145748 80.47578796 103.0787809 84.34923951 103.75390625 89.49707031 C103.35654932 98.05680085 97.97367397 104.53404535 92.0234375 110.18847656 C89.82660498 112.04584269 88.47141333 112.64314039 85.62890625 113.18457031 C80.4773953 112.4213835 77.69182313 109.45496064 74.25390625 105.68457031 C68.88005941 98.31207601 67.41495218 92.87761635 68.25390625 83.68457031 C69.96621148 78.42045481 74.23846505 73.45908504 78.25390625 69.68457031 C78.91390625 69.68457031 79.57390625 69.68457031 80.25390625 69.68457031 C80.25390625 64.07457031 80.25390625 58.46457031 80.25390625 52.68457031 C79.13371094 53.26207031 78.01351562 53.83957031 76.859375 54.43457031 C75.38687975 55.18488636 73.91421461 55.93486907 72.44140625 56.68457031 C71.70341797 57.06613281 70.96542969 57.44769531 70.20507812 57.84082031 C69.49287109 58.20175781 68.78066406 58.56269531 68.046875 58.93457031 C67.39227295 59.26972656 66.7376709 59.60488281 66.06323242 59.95019531 C64.25390625 60.68457031 64.25390625 60.68457031 61.25390625 60.68457031 C61.2627887 61.40596191 61.27167114 62.12735352 61.28082275 62.87060547 C61.36124365 69.69631219 61.42200969 76.52194734 61.46115494 83.3480072 C61.48195733 86.8567235 61.51013788 90.36504564 61.55566406 93.87353516 C61.60776982 97.91475024 61.62691202 101.9555566 61.64453125 105.99707031 C61.66517639 107.24633301 61.68582153 108.4955957 61.70709229 109.78271484 C61.70921938 118.09483543 60.82691352 123.63471433 55.17578125 130.04003906 C39.76609423 143.03849808 22.90374684 148.4526465 3.25390625 151.68457031 C2.29693848 151.86109131 1.3399707 152.0376123 0.35400391 152.21948242 C-14.09010337 154.38643977 -30.43733915 153.50099938 -44.74609375 150.68457031 C-45.40158203 150.56629883 -46.05707031 150.44802734 -46.73242188 150.32617188 C-61.72623318 147.5752065 -76.37731936 142.15310239 -87.74609375 131.68457031 C-88.69484375 130.81832031 -89.64359375 129.95207031 -90.62109375 129.05957031 C-94.53460202 124.6856493 -96.11626674 121.51813588 -96.1784668 115.60913086 C-96.19826096 114.4082634 -96.21805511 113.20739594 -96.2384491 111.97013855 C-96.24483902 110.68351822 -96.25122894 109.39689789 -96.2578125 108.07128906 C-96.27466933 106.73320374 -96.29282093 105.39513416 -96.31221008 104.05708313 C-96.35960796 100.54728107 -96.38948284 97.03754284 -96.41564941 93.52752686 C-96.4455069 89.94107461 -96.49201927 86.35484205 -96.53710938 82.76855469 C-96.62302583 75.74068527 -96.69042269 68.71274263 -96.74609375 61.68457031 C-97.49338745 61.34837677 -98.24068115 61.01218323 -99.01062012 60.665802 C-99.99518188 60.2209848 -100.97974365 59.7761676 -101.99414062 59.31787109 C-102.96830933 58.87855255 -103.94247803 58.43923401 -104.94616699 57.98660278 C-108.48371689 56.34155803 -111.87378266 54.5164389 -115.24609375 52.55957031 C-115.8390625 52.22570312 -116.43203125 51.89183594 -117.04296875 51.54785156 C-124.15277899 47.4645146 -124.15277899 47.4645146 -125.74609375 42.68457031 C-126.09341672 38.93348228 -126.23850087 36.53980374 -124.3359375 33.23535156 C-120.69710067 29.65139915 -116.69063083 28.13501724 -111.99609375 26.24707031 C-110.72185547 25.71243164 -110.72185547 25.71243164 -109.421875 25.16699219 C-95.94765194 19.577465 -82.21138478 14.71395012 -68.37109375 10.12207031 C-67.65574463 9.88367432 -66.94039551 9.64527832 -66.20336914 9.3996582 C-56.58698254 6.19919951 -46.95313906 3.17186609 -37.14453125 0.61035156 C-34.2981406 -0.16504451 -31.62012194 -1.07172412 -28.87109375 -2.12792969 C-19.13479152 -5.41110137 -9.49345891 -2.88796344 0 0 Z " fill="#332D51" transform="translate(320.74609375,258.3154296875)"/>
<path d="M0 0 C3.0625 0.3125 3.0625 0.3125 6.0625 3.3125 C6.0625 7.2725 6.0625 11.2325 6.0625 15.3125 C14.9725 15.3125 23.8825 15.3125 33.0625 15.3125 C33.0625 11.6825 33.0625 8.0525 33.0625 4.3125 C36.0625 0.3125 36.0625 0.3125 38.5625 -0.0625 C41.0625 0.3125 41.0625 0.3125 44.0625 2.3125 C44.0625 6.6025 44.0625 10.8925 44.0625 15.3125 C52.9725 15.3125 61.8825 15.3125 71.0625 15.3125 C71.0625 11.6825 71.0625 8.0525 71.0625 4.3125 C72.6875 1.5625 72.6875 1.5625 75.0625 0.3125 C78.1875 0.375 78.1875 0.375 81.0625 1.3125 C83.0625 4.3125 83.0625 4.3125 83.0625 15.3125 C91.9725 15.3125 100.8825 15.3125 110.0625 15.3125 C110.0625 11.3525 110.0625 7.3925 110.0625 3.3125 C110.7225 2.3225 111.3825 1.3325 112.0625 0.3125 C115.5625 -0.0625 115.5625 -0.0625 119.0625 0.3125 C121.0625 3.3125 121.0625 3.3125 121.0625 15.3125 C129.9725 15.3125 138.8825 15.3125 148.0625 15.3125 C148.0625 11.3525 148.0625 7.3925 148.0625 3.3125 C149.0525 2.3225 150.0425 1.3325 151.0625 0.3125 C157.50694444 0.75694444 157.50694444 0.75694444 159.0625 2.3125 C159.13508946 4.49889453 159.14623783 6.68750389 159.125 8.875 C159.11597656 10.07253906 159.10695313 11.27007812 159.09765625 12.50390625 C159.08025391 13.89416016 159.08025391 13.89416016 159.0625 15.3125 C160.01334473 15.28893433 160.01334473 15.28893433 160.98339844 15.26489258 C191.30238534 14.61236807 191.30238534 14.61236807 202.03320312 24.83569336 C209.93595692 32.94186595 212.21593218 41.19860496 212.20294189 52.2427063 C212.20739858 53.43191171 212.20739858 53.43191171 212.2119453 54.64514148 C212.22060905 57.29875741 212.22213859 59.95232809 212.22363281 62.60595703 C212.2282627 64.51000565 212.23328759 66.41405335 212.23867798 68.31809998 C212.25178914 73.4898648 212.25824465 78.66161664 212.26268864 83.83339548 C212.26562195 87.06695002 212.26972729 90.30050104 212.27419281 93.5340538 C212.2878655 103.65801925 212.29753279 113.78197662 212.3013947 123.90595067 C212.30587245 135.57930619 212.32340823 147.25254446 212.3523953 158.92586434 C212.37404022 167.95706264 212.38410051 176.98822802 212.38543582 186.01945198 C212.386482 191.40937745 212.39234981 196.79919265 212.41025543 202.18909073 C212.42678428 207.26328586 212.42886827 212.3372884 212.42011642 217.41150093 C212.41934858 219.26778112 212.42365529 221.12407186 212.43357468 222.9803257 C212.50359739 236.9074208 212.13659169 249.58140233 202.0625 260.3125 C193.67404378 266.97392112 185.75375598 269.62287615 175.15701294 269.57319641 C174.28350185 269.57702196 173.40999077 269.58084751 172.51000965 269.58478898 C169.59531556 269.59507305 166.68082016 269.59113556 163.76611328 269.5871582 C161.67133401 269.59150722 159.57655633 269.59669101 157.48178101 269.60264587 C151.7999363 269.61602682 146.11815815 269.61661552 140.43630075 269.61408257 C135.68981545 269.61301222 130.94334357 269.61789789 126.19686115 269.622688 C114.99727871 269.63378012 103.79772981 269.63422227 92.59814453 269.62817383 C81.05163719 269.62213382 69.5052517 269.63444648 57.95876515 269.6557439 C48.03838771 269.67336788 38.11804903 269.67935998 28.19765651 269.67610615 C22.27575103 269.67429439 16.35393246 269.67691891 10.43204117 269.69082069 C4.86207136 269.70340725 -0.70770869 269.70144695 -6.27767563 269.68840981 C-8.31862452 269.68604628 -10.35958679 269.68877068 -12.40052032 269.69703293 C-15.19324765 269.70752096 -17.98534069 269.69938316 -20.77804565 269.6867218 C-21.57971818 269.69409609 -22.3813907 269.70147037 -23.20735633 269.70906812 C-33.58088804 269.61058003 -41.24740557 265.7923369 -48.62890625 258.68359375 C-56.26057791 250.4398582 -58.08742538 241.22772342 -58.08467102 230.25531006 C-58.08834771 229.46094646 -58.0920244 228.66658286 -58.0958125 227.84814763 C-58.10679594 225.19530791 -58.11068404 222.54250743 -58.11450195 219.88964844 C-58.12077054 217.98382952 -58.12741769 216.07801182 -58.13441467 214.17219543 C-58.15540697 207.9220972 -58.16581119 201.67199886 -58.17578125 195.421875 C-58.17983033 193.26696002 -58.1839473 191.11204516 -58.18813133 188.95713043 C-58.20717082 178.83370664 -58.22140558 168.71029008 -58.2297433 158.58685184 C-58.23951738 146.91346184 -58.26584668 135.24026138 -58.30624419 123.56693816 C-58.33642555 114.53488689 -58.35121402 105.50288991 -58.35452431 96.47078919 C-58.35687206 91.08031178 -58.36579723 85.69003714 -58.39098549 80.29961395 C-58.41430712 75.22700998 -58.41848293 70.15474175 -58.40822411 65.08209801 C-58.40772967 63.22539082 -58.41402284 61.36866686 -58.42778015 59.51201057 C-58.55335685 41.55297668 -58.55335685 41.55297668 -53.9375 33.3125 C-53.380625 32.28125 -52.82375 31.25 -52.25 30.1875 C-45.86797817 22.25309448 -39.08366577 16.99248939 -28.9375 15.3125 C-27.02606637 15.23418326 -25.11222879 15.20461375 -23.19921875 15.21484375 C-22.13251953 15.21806641 -21.06582031 15.22128906 -19.96679688 15.22460938 C-18.31260742 15.23717773 -18.31260742 15.23717773 -16.625 15.25 C-15.50287109 15.25451172 -14.38074219 15.25902344 -13.22460938 15.26367188 C-10.4621849 15.27542687 -7.69987002 15.29185923 -4.9375 15.3125 C-4.96070313 14.39726562 -4.98390625 13.48203125 -5.0078125 12.5390625 C-5.02585938 11.35054687 -5.04390625 10.16203125 -5.0625 8.9375 C-5.08570313 7.75414062 -5.10890625 6.57078125 -5.1328125 5.3515625 C-4.86781099 1.22813895 -4.10542954 0.43674782 0 0 Z M-45.9375 66.3125 C-46.040625 95.1875 -46.14375 124.0625 -46.25 153.8125 C-46.29552002 162.92810547 -46.34104004 172.04371094 -46.38793945 181.43554688 C-46.40466216 189.61040788 -46.40466216 189.61040788 -46.41471863 197.78527832 C-46.41937489 201.42508193 -46.43810348 205.06452051 -46.46537781 208.70422363 C-46.49973214 213.35045208 -46.50994525 217.99615148 -46.50286138 222.64249516 C-46.50434213 224.34545383 -46.51422315 226.04843143 -46.53357565 227.75128078 C-46.84047823 239.96712499 -46.84047823 239.96712499 -40.9375 250.3125 C-40.31746094 250.98023438 -39.69742188 251.64796875 -39.05859375 252.3359375 C-38.22521484 253.00496094 -38.22521484 253.00496094 -37.375 253.6875 C-36.53775391 254.37972656 -36.53775391 254.37972656 -35.68359375 255.0859375 C-31.01508659 258.36538101 -27.10135232 258.60154078 -21.46870422 258.57992554 C-20.17453316 258.58672221 -20.17453316 258.58672221 -18.85421723 258.59365618 C-15.95785172 258.60633488 -13.06167342 258.60467756 -10.1652832 258.60302734 C-8.09065 258.60901054 -6.01601902 258.6158156 -3.94139099 258.62338257 C1.69930429 258.64107386 7.33993891 258.64573935 12.98065925 258.64701414 C17.68971518 258.64891235 22.39875696 258.65626923 27.10780746 258.66335833 C38.22056056 258.67965279 49.33328125 258.68452643 60.44604492 258.68310547 C71.90561116 258.68190466 83.36498887 258.70299212 94.82450742 258.7345928 C104.66414675 258.76075866 114.50372454 258.77147259 124.34339839 258.77019465 C130.21955125 258.76968499 136.09553671 258.7753704 141.97165489 258.79655075 C147.50140782 258.81593746 153.03083381 258.8160544 158.56059837 258.80151749 C160.58703591 258.79942865 162.61349393 258.80413473 164.63989639 258.8162384 C167.41324145 258.83172666 170.18546427 258.82235904 172.95878601 258.80697632 C173.754723 258.81726344 174.55065998 258.82755057 175.37071627 258.83814943 C182.42120157 258.75213711 187.76285634 256.18729753 193.8125 252.75 C201.9138802 243.97350479 201.76064396 233.38957715 201.63012695 222.18286133 C201.62859268 220.44939321 201.62926716 218.71592197 201.63195324 216.98245525 C201.63307527 212.36878807 201.60424119 207.75577828 201.56890106 203.14226532 C201.54028137 198.8023029 201.53907769 194.46249485 201.53552246 190.12243652 C201.50935705 177.45653835 201.4395507 164.79076071 201.375 152.125 C201.271875 123.806875 201.16875 95.48875 201.0625 66.3125 C119.5525 66.3125 38.0425 66.3125 -45.9375 66.3125 Z " fill="#322C51" transform="translate(228.9375,173.6875)"/>
<path d="M0 0 C3.0625 0.3125 3.0625 0.3125 6.0625 3.3125 C6.0625 7.2725 6.0625 11.2325 6.0625 15.3125 C14.9725 15.3125 23.8825 15.3125 33.0625 15.3125 C33.0625 11.6825 33.0625 8.0525 33.0625 4.3125 C36.0625 0.3125 36.0625 0.3125 38.5625 -0.0625 C41.0625 0.3125 41.0625 0.3125 44.0625 2.3125 C44.0625 6.6025 44.0625 10.8925 44.0625 15.3125 C52.9725 15.3125 61.8825 15.3125 71.0625 15.3125 C71.0625 11.6825 71.0625 8.0525 71.0625 4.3125 C72.6875 1.5625 72.6875 1.5625 75.0625 0.3125 C78.1875 0.375 78.1875 0.375 81.0625 1.3125 C83.0625 4.3125 83.0625 4.3125 83.0625 15.3125 C91.9725 15.3125 100.8825 15.3125 110.0625 15.3125 C110.0625 11.3525 110.0625 7.3925 110.0625 3.3125 C110.7225 2.3225 111.3825 1.3325 112.0625 0.3125 C115.5625 -0.0625 115.5625 -0.0625 119.0625 0.3125 C121.0625 3.3125 121.0625 3.3125 121.0625 15.3125 C129.9725 15.3125 138.8825 15.3125 148.0625 15.3125 C148.0625 11.3525 148.0625 7.3925 148.0625 3.3125 C149.0525 2.3225 150.0425 1.3325 151.0625 0.3125 C157.50694444 0.75694444 157.50694444 0.75694444 159.0625 2.3125 C159.13508946 4.49889453 159.14623783 6.68750389 159.125 8.875 C159.11597656 10.07253906 159.10695313 11.27007812 159.09765625 12.50390625 C159.08025391 13.89416016 159.08025391 13.89416016 159.0625 15.3125 C160.01334473 15.28893433 160.01334473 15.28893433 160.98339844 15.26489258 C190.9515666 14.61991838 190.9515666 14.61991838 202.14526367 25.11254883 C204.98135608 27.92817811 207.27991054 30.7290068 209.0625 34.3125 C208.75 36.625 208.75 36.625 208.0625 38.3125 C205.4225 38.6425 202.7825 38.9725 200.0625 39.3125 C200.0625 39.9725 200.0625 40.6325 200.0625 41.3125 C200.7225 41.6425 201.3825 41.9725 202.0625 42.3125 C201.0725 42.3125 200.0825 42.3125 199.0625 42.3125 C198.67771484 41.42498047 198.67771484 41.42498047 198.28515625 40.51953125 C195.12988694 34.00714038 191.70078265 31.09709797 185.0625 28.3125 C182.07882274 27.31794091 179.8620808 27.11690368 176.73828125 26.99609375 C175.71025391 26.95419922 174.68222656 26.91230469 173.62304688 26.86914062 C172.01526367 26.81016602 172.01526367 26.81016602 170.375 26.75 C169.29154297 26.70681641 168.20808594 26.66363281 167.09179688 26.61914062 C164.41549209 26.51303162 161.73909474 26.41097639 159.0625 26.3125 C159.09730469 27.43269531 159.13210938 28.55289063 159.16796875 29.70703125 C159.19610839 31.17967251 159.22340837 32.65232998 159.25 34.125 C159.27513672 34.86298828 159.30027344 35.60097656 159.32617188 36.36132812 C159.4001414 41.81041653 159.4001414 41.81041653 157.70703125 44.328125 C156.0625 45.3125 156.0625 45.3125 153.5625 45.25 C150.44635496 44.08144561 149.69717749 43.2002732 148.0625 40.3125 C147.66396266 35.61507317 147.93129151 31.03600556 148.0625 26.3125 C139.1525 26.3125 130.2425 26.3125 121.0625 26.3125 C121.14153295 31.48824802 121.14153295 31.48824802 121.24267578 36.66357422 C121.25727217 38.54745049 121.16193482 40.43119312 121.0625 42.3125 C119.0625 44.3125 119.0625 44.3125 115.5625 44.5625 C112.0625 44.3125 112.0625 44.3125 110.0625 42.3125 C109.91698125 39.55928525 109.87627887 36.93486578 109.9375 34.1875 C109.97875 31.58875 110.02 28.99 110.0625 26.3125 C100.8225 26.3125 91.5825 26.3125 82.0625 26.3125 C82.14153295 31.48824802 82.14153295 31.48824802 82.24267578 36.66357422 C82.25727217 38.54745049 82.16193482 40.43119312 82.0625 42.3125 C80.0625 44.3125 80.0625 44.3125 77.0625 44.5 C74.0625 44.3125 74.0625 44.3125 72.0625 43.3125 C72.0625 37.7025 72.0625 32.0925 72.0625 26.3125 C62.8225 26.3125 53.5825 26.3125 44.0625 26.3125 C44.22036155 31.443853 44.22036155 31.443853 44.42285156 36.57348633 C44.50461378 41.82934613 44.50461378 41.82934613 42.2109375 44.3359375 C39.39277879 45.61691873 37.9575176 45.30290076 35.0625 44.3125 C33.0625 42.3125 33.0625 42.3125 32.8671875 38.6171875 C32.8786291 37.14048332 32.90460093 35.66388199 32.9375 34.1875 C32.97875 31.58875 33.02 28.99 33.0625 26.3125 C24.1525 26.3125 15.2425 26.3125 6.0625 26.3125 C6.124375 28.54 6.18625 30.7675 6.25 33.0625 C6.43247654 39.63165559 6.43247654 39.63165559 4.7421875 42.7421875 C3.0625 44.3125 3.0625 44.3125 0 44.6875 C-2.9375 44.3125 -2.9375 44.3125 -4.9375 42.3125 C-5.08257695 39.56764407 -5.12402423 36.92769457 -5.0625 34.1875 C-5.05347656 33.43339844 -5.04445312 32.67929688 -5.03515625 31.90234375 C-5.0115687 30.03892746 -4.97569719 28.17567407 -4.9375 26.3125 C-8.77190637 26.36480376 -12.6041335 26.45997973 -16.4375 26.5625 C-17.51515625 26.57667969 -18.5928125 26.59085938 -19.703125 26.60546875 C-26.91427828 26.82532098 -33.28949087 27.55904411 -38.52539062 32.94628906 C-39.9375 34.3125 -39.9375 34.3125 -41.9375 34.3125 C-42.22625 35.034375 -42.515 35.75625 -42.8125 36.5 C-43.50082674 38.22081685 -44.21390076 39.93230777 -44.96875 41.625 C-46.01662656 44.53201239 -46.34015077 47.04916904 -46.5625 50.125 C-46.63726562 51.10082031 -46.71203125 52.07664063 -46.7890625 53.08203125 C-46.83804688 53.81808594 -46.88703125 54.55414063 -46.9375 55.3125 C-45.67152544 55.31065641 -44.40555088 55.30881283 -43.10121346 55.30691338 C-13.0750782 55.26363308 16.95104904 55.23063673 46.97720783 55.21036934 C50.66986387 55.20786781 54.36251984 55.20527918 58.05517578 55.20263672 C58.79034239 55.2021121 59.52550901 55.20158748 60.2829534 55.20104696 C72.19942074 55.19233536 84.11586885 55.17656125 96.03232478 55.15819441 C108.25228733 55.13951632 120.47223979 55.12838772 132.69221604 55.12432301 C140.23754955 55.1215736 147.78282873 55.11287808 155.32814552 55.09666707 C161.10594869 55.08488303 166.88371675 55.08358335 172.66152954 55.08628464 C175.03760234 55.085732 177.4136771 55.08172197 179.7897377 55.07408905 C183.02086238 55.06421382 186.25175006 55.06650382 189.48287964 55.07199097 C190.43422724 55.06616528 191.38557483 55.0603396 192.36575115 55.05433738 C193.65709726 55.06031053 193.65709726 55.06031053 194.97453117 55.06640434 C195.72106134 55.0656449 196.46759151 55.06488546 197.23674381 55.06410301 C199.0625 55.3125 199.0625 55.3125 201.0625 57.3125 C198.5875 58.7975 198.5875 58.7975 196.0625 60.3125 C196.3925 60.9725 196.7225 61.6325 197.0625 62.3125 C196.0725 62.6425 195.0825 62.9725 194.0625 63.3125 C194.3925 63.9725 194.7225 64.6325 195.0625 65.3125 C115.2025 65.3125 35.3425 65.3125 -46.9375 65.3125 C-46.77916017 120.89949153 -46.77916017 120.89949153 -46.57714844 176.48632812 C-46.55908203 187.24121094 -46.55908203 187.24121094 -46.5557251 192.27722168 C-46.55200085 195.79197301 -46.53702063 199.30648229 -46.51519775 202.82116699 C-46.48770724 207.30827794 -46.47954524 211.79503826 -46.4852109 216.28222561 C-46.48402664 217.9265613 -46.47612639 219.57090958 -46.46063948 221.21517277 C-46.32457499 236.36862198 -46.32457499 236.36862198 -50.9375 243.3125 C-51.9275 242.9825 -52.9175 242.6525 -53.9375 242.3125 C-54.68796835 236.96572981 -55.0832762 231.75948059 -55.07121277 226.35647583 C-55.07347833 225.59715535 -55.07574388 224.83783487 -55.07807809 224.05550468 C-55.0843642 221.53324378 -55.08359223 219.01103736 -55.08276367 216.48876953 C-55.0857585 214.67132498 -55.08916177 212.85388107 -55.09294128 211.03643799 C-55.10175172 206.11490622 -55.10411813 201.19339186 -55.10475707 196.27185297 C-55.10546915 193.19357149 -55.10760645 190.1152944 -55.11025429 187.03701401 C-55.11949732 176.28818227 -55.1235904 165.53936292 -55.12280273 154.79052734 C-55.12220194 144.78626515 -55.13275673 134.78205686 -55.1485464 124.77780831 C-55.16163884 116.17458694 -55.16698593 107.57138317 -55.16634732 98.96815193 C-55.16609288 93.83598868 -55.16891482 88.7038734 -55.17952538 83.57172012 C-55.18923526 78.74374944 -55.18926575 73.91587231 -55.18200874 69.08789825 C-55.18096655 67.32150256 -55.18330395 65.55510095 -55.1893692 63.78871536 C-55.21733795 55.07539363 -55.1022803 46.81900892 -52.9375 38.3125 C-53.9275 38.8075 -53.9275 38.8075 -54.9375 39.3125 C-55.28821572 34.24465785 -53.86349074 32.21243906 -50.77734375 28.37109375 C-44.48654821 21.332348 -38.38987658 16.86599344 -28.9375 15.3125 C-27.02606637 15.23418326 -25.11222879 15.20461375 -23.19921875 15.21484375 C-22.13251953 15.21806641 -21.06582031 15.22128906 -19.96679688 15.22460938 C-18.31260742 15.23717773 -18.31260742 15.23717773 -16.625 15.25 C-15.50287109 15.25451172 -14.38074219 15.25902344 -13.22460938 15.26367188 C-10.4621849 15.27542687 -7.69987002 15.29185923 -4.9375 15.3125 C-4.96070313 14.39726562 -4.98390625 13.48203125 -5.0078125 12.5390625 C-5.02585938 11.35054687 -5.04390625 10.16203125 -5.0625 8.9375 C-5.08570313 7.75414062 -5.10890625 6.57078125 -5.1328125 5.3515625 C-4.86781099 1.22813895 -4.10542954 0.43674782 0 0 Z " fill="#302A50" transform="translate(228.9375,173.6875)"/>
<path d="M0 0 C2.5957331 0.84467031 5.19351802 1.68279592 7.79150391 2.52050781 C16.98757967 5.50038397 26.09059391 8.64210045 35.12011719 12.09423828 C40.30253831 14.07292995 45.51693871 15.96059808 50.73291016 17.84863281 C52.19857422 18.38037109 52.19857422 18.38037109 53.69384766 18.92285156 C56.03992484 19.77387956 58.38627474 20.6241456 60.73291016 21.47363281 C60.73291016 22.13363281 60.73291016 22.79363281 60.73291016 23.47363281 C33.82316049 37.29602419 6.53205084 49.23967996 -21.80224609 59.77050781 C-22.84715714 60.16017227 -22.84715714 60.16017227 -23.91317749 60.55770874 C-34.10524086 64.31337978 -40.85920867 64.15291592 -50.76708984 59.84863281 C-52.5489856 59.10357161 -54.33154608 58.3600983 -56.11474609 57.61816406 C-56.99018066 57.25029785 -57.86561523 56.88243164 -58.76757812 56.50341797 C-62.21284718 55.08398596 -65.70226362 53.80629653 -69.20458984 52.53613281 C-83.55483532 47.24765554 -97.53564957 40.95677985 -111.33691406 34.38134766 C-113.51458337 33.35724261 -115.70431877 32.36192275 -117.89599609 31.36816406 C-118.67555664 31.01117432 -119.45511719 30.65418457 -120.25830078 30.28637695 C-121.77295035 29.59293253 -123.29042774 28.90562229 -124.81103516 28.2253418 C-128.29954444 26.61567217 -130.09116369 25.73752205 -132.26708984 22.47363281 C-128.3519908 19.93592999 -124.32250338 18.23609651 -119.95458984 16.66113281 C-118.50265059 16.12889798 -117.05083056 15.59633782 -115.59912109 15.06347656 C-114.86773926 14.79647949 -114.13635742 14.52948242 -113.3828125 14.25439453 C-111.48731641 13.55490267 -109.60111761 12.8303366 -107.71630859 12.10253906 C-87.24415325 4.20453815 -66.30769961 -2.63185028 -45.03759766 -8.02075195 C-29.98465171 -12.31951796 -14.46965781 -4.71358006 0 0 Z " fill="#FCFCFD" transform="translate(339.26708984375,275.5263671875)"/>
<path d="M0 0 C3.38113812 0.63986468 6.26486798 1.42439906 9.39453125 2.86328125 C10.25199951 3.25016113 11.10946777 3.63704102 11.99291992 4.03564453 C12.92338135 4.45700684 13.85384277 4.87836914 14.8125 5.3125 C23.98730623 9.36164481 33.23308317 13.20447762 42.58969116 16.81185913 C43.97240382 17.34781844 45.35241067 17.89081918 46.72940063 18.4413147 C57.10378479 22.57693247 66.9766213 25.23410258 77.9375 21.5 C79.56945312 20.94505859 79.56945312 20.94505859 81.234375 20.37890625 C82.49056329 19.92195585 83.74569536 19.46209581 85 19 C86.09151367 18.60530518 86.09151367 18.60530518 87.20507812 18.20263672 C99.52819904 13.72219337 111.61041023 8.70686764 123.64526367 3.50561523 C124.70463135 3.05001221 125.76399902 2.59440918 126.85546875 2.125 C127.80059326 1.71507812 128.74571777 1.30515625 129.71948242 0.8828125 C132 0 132 0 134 0 C134.17787979 7.27705227 134.30023786 14.55354163 134.38452148 21.83227539 C134.41966553 24.30677236 134.46739155 26.78112458 134.52807617 29.25512695 C134.61325446 32.81758361 134.65275096 36.37811507 134.68359375 39.94140625 C134.71972275 41.04271378 134.75585175 42.1440213 134.79307556 43.27870178 C134.79584453 48.72821012 134.58619822 52.10372096 130.68139648 56.11254883 C127.28834329 59.01386094 123.64814 61.21569602 119.625 63.125 C118.93801025 63.45773926 118.25102051 63.79047852 117.54321289 64.13330078 C87.99709983 77.93464375 52.61705627 77.29478323 22.19091797 66.81005859 C14.39290095 63.92686041 3.9104234 58.8208468 0 51 C-0.0902835 49.36582405 -0.11755658 47.72797163 -0.11352539 46.09130859 C-0.11344986 45.07040131 -0.11337433 44.04949402 -0.11329651 42.99765015 C-0.10813522 41.89240997 -0.10297394 40.7871698 -0.09765625 39.6484375 C-0.0962413 38.5192691 -0.09482635 37.39010071 -0.09336853 36.22671509 C-0.08775744 32.60945012 -0.07520303 28.99224636 -0.0625 25.375 C-0.05748643 22.92708423 -0.05292328 20.47916748 -0.04882812 18.03125 C-0.0377844 12.02081234 -0.02103544 6.01041054 0 0 Z " fill="#FDFDFD" transform="translate(236,326)"/>
<path d="M0 0 C1.60004883 0.00966797 1.60004883 0.00966797 3.23242188 0.01953125 C4.33521484 0.03628906 5.43800781 0.05304688 6.57421875 0.0703125 C7.69634766 0.07933594 8.81847656 0.08835938 9.97460938 0.09765625 C12.73719784 0.12116764 15.49934807 0.15403095 18.26171875 0.1953125 C18.32230469 1.33871094 18.38289063 2.48210937 18.4453125 3.66015625 C18.52970303 5.15105555 18.61435177 6.64194025 18.69921875 8.1328125 C18.73853516 8.88755859 18.77785156 9.64230469 18.81835938 10.41992188 C18.70209899 14.11475437 18.70209899 14.11475437 20.26171875 17.1953125 C23.21976448 17.52871721 23.21976448 17.52871721 26.26171875 17.1953125 C28.68651611 13.55811645 28.64834452 11.33827768 28.88671875 7.0078125 C29.07234375 3.635625 29.07234375 3.635625 29.26171875 0.1953125 C38.17171875 0.1953125 47.08171875 0.1953125 56.26171875 0.1953125 C56.57421875 8.0703125 56.57421875 8.0703125 56.6496582 10.54638672 C56.74680985 12.4378892 57.0019215 14.31921936 57.26171875 16.1953125 C60.03159951 18.51074457 60.03159951 18.51074457 62.88671875 17.8828125 C65.1967384 17.4211611 65.1967384 17.4211611 66.26171875 16.1953125 C66.49867023 13.50108645 66.68340477 10.83196639 66.82421875 8.1328125 C66.96859375 5.5134375 67.11296875 2.8940625 67.26171875 0.1953125 C76.50171875 0.1953125 85.74171875 0.1953125 95.26171875 0.1953125 C95.26171875 5.8053125 95.26171875 11.4153125 95.26171875 17.1953125 C97.90171875 17.1953125 100.54171875 17.1953125 103.26171875 17.1953125 C105.30409967 15.15293158 104.6768033 10.95850496 104.82421875 8.1328125 C104.96859375 5.5134375 105.11296875 2.8940625 105.26171875 0.1953125 C114.50171875 0.1953125 123.74171875 0.1953125 133.26171875 0.1953125 C133.69921875 8.1328125 133.69921875 8.1328125 133.82983398 10.63647461 C133.72376698 14.21575542 133.72376698 14.21575542 135.26171875 17.1953125 C138.76171875 17.36197917 138.76171875 17.36197917 142.26171875 17.1953125 C144.30409967 15.15293158 143.6768033 10.95850496 143.82421875 8.1328125 C143.96859375 5.5134375 144.11296875 2.8940625 144.26171875 0.1953125 C153.17171875 0.1953125 162.08171875 0.1953125 171.26171875 0.1953125 C171.42447917 3.7109375 171.58723958 7.2265625 171.75 10.7421875 C172.26627776 14.22607713 172.88704435 15.67421046 175.26171875 18.1953125 C178.55247871 17.81627042 178.55247871 17.81627042 181.26171875 16.1953125 C181.49850591 13.50295474 181.683699 10.83033094 181.82421875 8.1328125 C181.88899414 6.99489258 181.88899414 6.99489258 181.95507812 5.83398438 C182.06145508 3.95465812 182.16211809 2.07501006 182.26171875 0.1953125 C185.90727433 0.07775769 189.55233349 0.00761438 193.19921875 -0.0546875 C194.7315918 -0.10496094 194.7315918 -0.10496094 196.29492188 -0.15625 C204.53470373 -0.26155073 210.6474993 1.22362095 217.07421875 6.5078125 C223.38213114 14.25753343 224.26171875 18.70448531 224.26171875 29.1953125 C142.42171875 29.1953125 60.58171875 29.1953125 -23.73828125 29.1953125 C-23.73828125 15.05829327 -23.73828125 15.05829327 -18.73828125 8.1953125 C-13.30401008 2.90347182 -7.66754407 -0.08200582 0 0 Z " fill="#F6F6F7" transform="translate(205.73828125,199.8046875)"/>
<path d="M0 0 C1.69161796 5.14056269 2.28873668 9.74831735 2.26069641 15.17071533 C2.26452196 15.96522779 2.26834751 16.75974025 2.27228898 17.57832885 C2.28256165 20.22579023 2.27863775 22.87303241 2.2746582 25.52050781 C2.27900793 27.42485249 2.28419195 29.32919543 2.29014587 31.23353577 C2.3035211 36.39693807 2.30411603 41.56026711 2.30158257 46.72368336 C2.30051156 51.04001888 2.30539974 55.35633967 2.310188 59.67267203 C2.32127874 69.86073141 2.32172345 80.04875392 2.31567383 90.23681641 C2.30963782 100.73128382 2.32193661 111.22561703 2.3432439 121.72006154 C2.36088654 130.74281391 2.36685693 139.76552367 2.36360615 148.78829265 C2.36179692 154.17147263 2.36439328 159.55455695 2.37832069 164.93772125 C2.39093723 170.00374718 2.38891879 175.0695648 2.37590981 180.13558769 C2.37355255 181.98863993 2.37624801 183.84170699 2.38453293 185.6947422 C2.44225578 199.61569807 2.05845818 212.27097794 -8 223 C-11.43393019 225.79765741 -14.84979586 228.39838983 -19 230 C-21.33203125 229.171875 -21.33203125 229.171875 -23 228 C-23 227.34 -23 226.68 -23 226 C-22.01 226 -21.02 226 -20 226 C-20 225.34 -20 224.68 -20 224 C-20.66 224 -21.32 224 -22 224 C-21.67 222.68 -21.34 221.36 -21 220 C-22.32 219.67 -23.64 219.34 -25 219 C-23.6696875 218.4121875 -23.6696875 218.4121875 -22.3125 217.8125 C-16.59169379 214.68224755 -13.37082243 210.84785846 -10.84313202 204.94003487 C-9.00346501 198.52504287 -9.43176593 191.71950941 -9.45410156 185.09741211 C-9.44529373 183.3641775 -9.43474411 181.63095102 -9.42260361 179.89773655 C-9.39499999 175.2758663 -9.39108887 170.65426648 -9.39224243 166.03232574 C-9.38969181 161.68784031 -9.36556493 157.34357633 -9.34326172 152.99914551 C-9.29060328 140.31200153 -9.27238514 127.62473351 -9.25 114.9375 C-9.12625 72.3984375 -9.12625 72.3984375 -9 29 C-90.51 29 -172.02 29 -256 29 C-256 86.09 -256 143.18 -256 202 C-256.33 202 -256.66 202 -257 202 C-257.04666562 179.34776874 -257.08196211 156.69554537 -257.10362434 134.04327583 C-257.11394864 123.52606731 -257.12803092 113.00888861 -257.15087891 102.49169922 C-257.17077757 93.32776968 -257.18370804 84.16386173 -257.18817699 74.99991119 C-257.19079036 70.14509718 -257.19695671 65.29034495 -257.21146011 60.43555069 C-257.22498843 55.87036618 -257.22923232 51.30526918 -257.22621536 46.74006653 C-257.22676766 45.06061707 -257.23077331 43.38116482 -257.23841095 41.70173264 C-257.24829803 39.41645326 -257.24599198 37.13150834 -257.24050903 34.84622192 C-257.24235262 33.56492968 -257.24419621 32.28363743 -257.24609566 30.96351814 C-257 28 -257 28 -255 26 C-251.87716785 25.80925966 -248.84333439 25.74586813 -245.71977234 25.76863098 C-244.7456223 25.76777754 -243.77147227 25.7669241 -242.76780254 25.7660448 C-239.48273787 25.76542772 -236.19787762 25.77897943 -232.9128418 25.79223633 C-230.5660102 25.79439622 -228.21917754 25.79558399 -225.87234497 25.79586792 C-220.80805574 25.79792775 -215.7438167 25.8056475 -210.67954063 25.8173008 C-202.67581369 25.8344061 -194.67214769 25.83128127 -186.66841125 25.82365417 C-183.93115909 25.82129884 -181.19390683 25.81905911 -178.45665455 25.81683636 C-177.43049064 25.81598956 -177.43049064 25.81598956 -176.38359615 25.81512565 C-168.59305219 25.80892983 -160.8025092 25.80658401 -153.01196289 25.80639648 C-152.29964852 25.80637305 -151.58733414 25.80634961 -150.85343448 25.80632546 C-139.31091676 25.80657587 -127.76848902 25.82568666 -116.22600045 25.84999315 C-104.37992523 25.87430426 -92.5340507 25.87189533 -80.68797809 25.84631175 C-74.03494001 25.83283292 -67.38234735 25.8334425 -60.72934532 25.8641758 C-54.47224249 25.89302075 -48.21599465 25.88974055 -41.95889664 25.86156845 C-39.65986714 25.85705948 -37.36077852 25.86458433 -35.06183434 25.88489723 C-31.9272326 25.91085966 -28.79569773 25.8939981 -25.66117859 25.86628723 C-24.29016629 25.893082 -24.29016629 25.893082 -22.89145678 25.92041808 C-18.15854114 25.90190439 -18.15854114 25.90190439 -14.36552393 23.38383424 C-13.15922701 21.64486737 -12.07077546 19.82554046 -11 18 C-10.34 18 -9.68 18 -9 18 C-9.33 12.72 -9.66 7.44 -10 2 C-5.7900275 0.316011 -4.21047434 -0.24059853 0 0 Z " fill="#403B5D" transform="translate(439,211)"/>
<path d="M0 0 C0.74252014 0.26594971 1.48504028 0.53189941 2.25006104 0.8059082 C11.56247079 4.14216019 20.82134602 7.59168706 29.9375 11.4375 C30.77337646 11.78627197 31.60925293 12.13504395 32.47045898 12.49438477 C36.53866204 14.27080037 39.75289434 15.86425793 42.5625 19.4375 C43.73702699 22.96108096 43.63946721 25.69737564 43.59765625 29.4140625 C43.6013725 30.82162187 43.60730481 32.22917681 43.61523438 33.63671875 C43.62573952 35.84279928 43.62529488 38.04566015 43.58666992 40.25146484 C43.34772668 50.79218119 43.34772668 50.79218119 48.49609375 59.73828125 C49.20693115 60.38450439 49.91776855 61.03072754 50.65014648 61.6965332 C54.53005123 65.22871764 55.38737465 69.1021692 56.0625 74.25 C55.66514307 82.80973053 50.28226772 89.28697504 44.33203125 94.94140625 C42.13519873 96.79877238 40.78000708 97.39607008 37.9375 97.9375 C32.78598905 97.17431319 30.00041688 94.20789032 26.5625 90.4375 C21.18865316 83.0650057 19.72354593 77.63054603 20.5625 68.4375 C22.27480523 63.1733845 26.5470588 58.21201472 30.5625 54.4375 C31.2225 54.4375 31.8825 54.4375 32.5625 54.4375 C32.5625 48.8275 32.5625 43.2175 32.5625 37.4375 C26.9525 40.0775 21.3425 42.7175 15.5625 45.4375 C15.5625 44.1175 15.5625 42.7975 15.5625 41.4375 C14.2425 41.4375 12.9225 41.4375 11.5625 41.4375 C10.9025 39.4575 10.2425 37.4775 9.5625 35.4375 C12.85091876 33.76436677 16.14374682 32.10010393 19.4375 30.4375 C20.37464844 29.96054687 21.31179688 29.48359375 22.27734375 28.9921875 C23.62119141 28.31542969 23.62119141 28.31542969 24.9921875 27.625 C26.23331299 26.99658203 26.23331299 26.99658203 27.49951172 26.35546875 C29.5625 25.4375 29.5625 25.4375 31.5625 25.4375 C31.5625 24.7775 31.5625 24.1175 31.5625 23.4375 C30.24221802 23.2509082 30.24221802 23.2509082 28.89526367 23.06054688 C25.77605593 22.47742343 23.17340115 21.64952389 20.23828125 20.46875 C19.22209717 20.06664307 18.20591309 19.66453613 17.15893555 19.25024414 C16.07523682 18.81703857 14.99153809 18.38383301 13.875 17.9375 C3.12586751 13.70555203 -7.71011495 9.90511444 -18.71557617 6.39453125 C-19.78525635 6.0490625 -20.85493652 5.70359375 -21.95703125 5.34765625 C-22.89651611 5.04996338 -23.83600098 4.75227051 -24.80395508 4.44555664 C-27.60216619 3.37446981 -29.98019169 2.15236029 -32.4375 0.4375 C-32.4375 -0.2225 -32.4375 -0.8825 -32.4375 -1.5625 C-31.7775 -1.5625 -31.1175 -1.5625 -30.4375 -1.5625 C-30.4375 -2.2225 -30.4375 -2.8825 -30.4375 -3.5625 C-31.0975 -3.8925 -31.7575 -4.2225 -32.4375 -4.5625 C-28.28498375 -12.8675325 -6.85030014 -2.48354539 0 0 Z " fill="#322C51" transform="translate(368.4375,273.5625)"/>
<path d="M0 0 C0.99 0.33 1.98 0.66 3 1 C2.96182125 8.55475149 2.90228389 16.10908497 2.81609726 23.66343689 C2.77672684 27.17196416 2.74448793 30.6802444 2.72900391 34.18896484 C2.71084656 38.23054558 2.66085047 42.27120524 2.609375 46.3125 C2.60814636 47.5617627 2.60691772 48.81102539 2.60565186 50.09814453 C2.46773986 58.35539656 1.53618317 63.99188261 -4.078125 70.35546875 C-19.48781202 83.35392776 -36.35015941 88.76807619 -56 92 C-56.95696777 92.176521 -57.91393555 92.35304199 -58.89990234 92.53491211 C-73.34400962 94.70186945 -89.6912454 93.81642907 -104 91 C-104.98323242 90.82259277 -104.98323242 90.82259277 -105.98632812 90.64160156 C-119.7971309 88.10768677 -132.4529403 83.04522977 -144 75 C-143.67 74.01 -143.34 73.02 -143 72 C-142.34 72 -141.68 72 -141 72 C-141 69.03 -141 66.06 -141 63 C-140.14019531 63.58910156 -139.28039062 64.17820312 -138.39453125 64.78515625 C-112.74445706 81.83769168 -79.61149366 84.53533813 -49.8671875 79.109375 C-38.23212117 76.65741512 -25.48475631 72.34422765 -16 65 C-15.14817139 64.38761475 -14.29634277 63.77522949 -13.41870117 63.14428711 C-9.76549594 58.39515718 -10.27231165 53.97580248 -10.29296875 48.13671875 C-10.27028679 46.41603935 -10.27028679 46.41603935 -10.24714661 44.66059875 C-10.20421583 41.00270004 -10.19542582 37.34562572 -10.1875 33.6875 C-10.16436008 31.20505612 -10.13899582 28.72263192 -10.11132812 26.24023438 C-10.04842237 20.16014848 -10.01353099 14.08038544 -10 8 C-9.67 8 -9.34 8 -9 8 C-8.67 27.14 -8.34 46.28 -8 66 C-8.99 66 -9.98 66 -11 66 C-11.33 67.32 -11.66 68.64 -12 70 C-11.01 68.515 -11.01 68.515 -10 67 C-9.01 66.67 -8.02 66.34 -7 66 C-6.67 65.01 -6.34 64.02 -6 63 C-4.68 63.66 -3.36 64.32 -2 65 C-0.92429907 61.7728972 -0.8428884 59.3634259 -0.79467773 55.96801758 C-0.77473251 54.72695755 -0.75478729 53.48589752 -0.73423767 52.20722961 C-0.71725473 50.8529981 -0.70037587 49.49876527 -0.68359375 48.14453125 C-0.66301772 46.75875741 -0.64202108 45.37298975 -0.62062073 43.98722839 C-0.56546699 40.34259047 -0.51602826 36.69789654 -0.46777344 33.05316162 C-0.41750944 29.3329165 -0.36184896 25.61275257 -0.30664062 21.89257812 C-0.19914101 14.59512087 -0.09767793 7.29759603 0 0 Z " fill="#352F53" transform="translate(380,318)"/>
<path d="M0 0 C0.66 0.33 1.32 0.66 2 1 C2 2.32 2 3.64 2 5 C3.32 5 4.64 5 6 5 C5.67 6.32 5.34 7.64 5 9 C4.01 8.67 3.02 8.34 2 8 C2.00444122 8.77007889 2.00888245 9.54015778 2.01345825 10.33357239 C2.05351759 17.58768956 2.0839755 24.84175316 2.10362434 32.09595203 C2.11406556 35.8254906 2.12823083 39.55493783 2.15087891 43.28442383 C2.17259539 46.88298631 2.18456608 50.4814609 2.18975449 54.08008385 C2.1934524 55.45362418 2.20067345 56.82715966 2.21146011 58.20066261 C2.22595829 60.12306662 2.22681678 62.04555891 2.22705078 63.96801758 C2.231492 65.06277908 2.23593323 66.15754059 2.24050903 67.28547668 C2 70 2 70 0 73 C-1.32 72.67 -2.64 72.34 -4 72 C-3.67 73.32 -3.34 74.64 -3 76 C-4.65 75.67 -6.3 75.34 -8 75 C-8.33 76.32 -8.66 77.64 -9 79 C-9.66 79 -10.32 79 -11 79 C-10.34 77.02 -9.68 75.04 -9 73 C-8.34 73 -7.68 73 -7 73 C-7 54.19 -7 35.38 -7 16 C-11.95 17.485 -11.95 17.485 -17 19 C-17.66 18.01 -18.32 17.02 -19 16 C-16.95301586 13.95301586 -12.69588759 14.29954307 -10 14 C-10 13.01 -10 12.02 -10 11 C-10 9 -10 9 -8 7 C-7.01 6.67 -6.02 6.34 -5 6 C-4.34 5.67 -3.68 5.34 -3 5 C-2.67 4.01 -2.34 3.02 -2 2 C-1.34 2 -0.68 2 0 2 C0 1.34 0 0.68 0 0 Z " fill="#2F284F" transform="translate(378,310)"/>
<path d="M0 0 C1.32 0.33 2.64 0.66 4 1 C3.85825914 1.64809757 3.71651829 2.29619514 3.57048225 2.96393204 C1.69595255 12.60406016 1.73139266 22.02958845 1.77294922 31.80371094 C1.77351434 33.67737827 1.77319481 35.55104605 1.77206421 37.42471313 C1.77149362 42.47759984 1.78320001 47.53039034 1.79721212 52.58325481 C1.80976882 57.87631929 1.81089386 63.16938631 1.81326294 68.46246338 C1.81946325 78.47063722 1.83585436 88.47876704 1.85596192 98.48692155 C1.87836615 109.88721859 1.8893257 121.2875178 1.89935279 132.6878314 C1.92022194 156.12524528 1.95536959 179.56262017 2 203 C-0.48945728 200.51054272 -0.23827206 199.06019449 -0.25816154 195.66360664 C-0.25233622 194.91480169 -0.24651089 194.16599674 -0.24050903 193.39450073 C-0.24222107 192.60250275 -0.24393311 191.81050476 -0.24569702 190.99450684 C-0.24902184 188.31769975 -0.23793712 185.64113989 -0.22705078 182.96435547 C-0.22643847 181.02172415 -0.22670448 179.07909238 -0.2277813 177.13646126 C-0.22823405 171.9195753 -0.2166164 166.70278052 -0.20256042 161.48591614 C-0.19119663 156.59615786 -0.19063561 151.70642211 -0.18920898 146.81665039 C-0.17870139 132.50275478 -0.15077926 118.18887625 -0.125 103.875 C-0.08375 71.90625 -0.0425 39.9375 0 7 C-0.33 71.02 -0.66 135.04 -1 201 C-1.33 201 -1.66 201 -2 201 C-2.04670765 175.67879082 -2.0819828 150.3575881 -2.10362434 125.03634453 C-2.11393968 113.27942338 -2.12800497 101.52252898 -2.15087891 89.765625 C-2.17080485 79.5190689 -2.18371456 69.27253217 -2.18817699 59.02595723 C-2.19078571 53.59980885 -2.19692276 48.17371592 -2.21146011 42.7475853 C-2.22503141 37.64067873 -2.22922353 32.53385046 -2.22621536 27.42692757 C-2.22676573 25.55242678 -2.23074584 23.67792338 -2.23841095 21.80343819 C-2.24836508 19.24368968 -2.24596715 16.68423659 -2.24050903 14.1244812 C-2.24633472 13.38322333 -2.2521604 12.64196546 -2.25816262 11.87824523 C-2.23319384 7.54418951 -1.59283598 4.03027999 0 0 Z " fill="#494466" transform="translate(173,211)"/>
<path d="M0 0 C4.22510673 1.50896669 5.71822849 4.27310654 8 8 C8.99 9.485 8.99 9.485 10 11 C10.4140625 13.48046875 10.4140625 13.48046875 10.625 16.1875 C10.69976562 17.08855469 10.77453125 17.98960937 10.8515625 18.91796875 C10.92503906 19.94857422 10.92503906 19.94857422 11 21 C11.66 21 12.32 21 13 21 C13.99 21 14.98 21 16 21 C6.10605897 32.74727292 6.10605897 32.74727292 0.875 33.375 C-2 33 -2 33 -5 31 C-5.51171875 28.8359375 -5.51171875 28.8359375 -5.6875 26.375 C-5.75324219 25.55773437 -5.81898438 24.74046875 -5.88671875 23.8984375 C-5.92410156 23.27195312 -5.96148437 22.64546875 -6 22 C-4.68 22 -3.36 22 -2 22 C-2 21.34 -2 20.68 -2 20 C-2.66 20 -3.32 20 -4 20 C-6.09730336 15.80539328 -5.55748342 10.55475815 -5 6 C-3.60531523 3.34717302 -2.26098104 2.03488293 0 0 Z " fill="#342F52" transform="translate(405,338)"/>
<path d="M0 0 C1.485 0.495 1.485 0.495 3 1 C2.96182125 8.55475149 2.90228389 16.10908497 2.81609726 23.66343689 C2.77672684 27.17196416 2.74448793 30.6802444 2.72900391 34.18896484 C2.71084656 38.23054558 2.66085047 42.27120524 2.609375 46.3125 C2.60814636 47.5617627 2.60691772 48.81102539 2.60565186 50.09814453 C2.46773986 58.35539656 1.53618317 63.99188261 -4.078125 70.35546875 C-16.8560794 81.13399504 -16.8560794 81.13399504 -22 80.8125 C-22.66 80.544375 -23.32 80.27625 -24 80 C-23.01 79.01 -23.01 79.01 -22 78 C-22.66 77.34 -23.32 76.68 -24 76 C-23.030625 75.87625 -22.06125 75.7525 -21.0625 75.625 C-19.5465625 75.315625 -19.5465625 75.315625 -18 75 C-17.505 74.01 -17.505 74.01 -17 73 C-17.763125 73.165 -18.52625 73.33 -19.3125 73.5 C-22 74 -22 74 -25 74 C-26.0209375 74.309375 -26.0209375 74.309375 -27.0625 74.625 C-27.701875 74.74875 -28.34125 74.8725 -29 75 C-29.66 74.34 -30.32 73.68 -31 73 C-30.05898438 72.56429687 -29.11796875 72.12859375 -28.1484375 71.6796875 C-26.89030739 71.07878954 -25.63251261 70.47718914 -24.375 69.875 C-23.75753906 69.59140625 -23.14007813 69.3078125 -22.50390625 69.015625 C-17.96992915 66.82022556 -13.74030857 64.34569229 -11 60 C-10.12208255 56.01395192 -10.16186924 52.10814041 -10.1953125 48.0390625 C-10.17475296 46.32050552 -10.17475296 46.32050552 -10.15377808 44.56723022 C-10.11648348 40.91942052 -10.12019308 37.27297328 -10.125 33.625 C-10.10687308 31.14711414 -10.08607042 28.66924631 -10.0625 26.19140625 C-10.01065378 20.12747068 -9.99243957 14.06413686 -10 8 C-9.67 8 -9.34 8 -9 8 C-8.67 27.14 -8.34 46.28 -8 66 C-8.99 66 -9.98 66 -11 66 C-11.33 67.32 -11.66 68.64 -12 70 C-11.34 69.01 -10.68 68.02 -10 67 C-8.515 66.505 -8.515 66.505 -7 66 C-6.505 64.515 -6.505 64.515 -6 63 C-4.68 63.66 -3.36 64.32 -2 65 C-0.92429907 61.7728972 -0.8428884 59.3634259 -0.79467773 55.96801758 C-0.77473251 54.72695755 -0.75478729 53.48589752 -0.73423767 52.20722961 C-0.71725473 50.8529981 -0.70037587 49.49876527 -0.68359375 48.14453125 C-0.66301772 46.75875741 -0.64202108 45.37298975 -0.62062073 43.98722839 C-0.56546699 40.34259047 -0.51602826 36.69789654 -0.46777344 33.05316162 C-0.41750944 29.3329165 -0.36184896 25.61275257 -0.30664062 21.89257812 C-0.19914101 14.59512087 -0.09767793 7.29759603 0 0 Z " fill="#4E4A67" transform="translate(380,318)"/>
<path d="M0 0 C0.66 0 1.32 0 2 0 C2.33 1.32 2.66 2.64 3 4 C2.34 4 1.68 4 1 4 C1 4.66 1 5.32 1 6 C0.34 6 -0.32 6 -1 6 C-1 6.66 -1 7.32 -1 8 C-0.34 8 0.32 8 1 8 C1 9.32 1 10.64 1 12 C2.32 12.66 3.64 13.32 5 14 C4.67 14.66 4.34 15.32 4 16 C3.01 16 2.02 16 1 16 C1.66 16.66 2.32 17.32 3 18 C2.67 18.99 2.34 19.98 2 21 C-3.06017356 20.5535141 -5.43305514 18.404811 -9 15 C-10.4441984 10.66740481 -10.82283601 6.78281135 -8.875 2.5625 C-6.25240097 0.37700081 -4.31695762 0.78367668 -1 1 C-0.67 0.67 -0.34 0.34 0 0 Z " fill="#312A50" transform="translate(205,289)"/>
<path d="M0 0 C1.32 0.66 2.64 1.32 4 2 C3.67 2.33 3.34 2.66 3 3 C5.475 3.495 5.475 3.495 8 4 C8 4.66 8 5.32 8 6 C5.03313346 7.21994802 2.05018388 8.39456699 -0.9375 9.5625 C-1.76830078 9.90474609 -2.59910156 10.24699219 -3.45507812 10.59960938 C-9.08588376 12.76867458 -14.08743886 13.84667448 -20 12 C-21.21333397 9.57333205 -21 7.66500278 -21 5 C-18.36 4.67 -15.72 4.34 -13 4 C-13 4.66 -13 5.32 -13 6 C-12.34 6 -11.68 6 -11 6 C-10.34 4.68 -9.68 3.36 -9 2 C-8.443125 2.20625 -7.88625 2.4125 -7.3125 2.625 C-4.340462 3.10695211 -2.68020059 2.26565028 0 1 C0 0.67 0 0.34 0 0 Z " fill="#302A4F" transform="translate(332,333)"/>
<path d="M0 0 C4.22604452 1.50930162 5.96936766 4.08915253 8 8 C8.11093103 13.21375828 5.52093515 17.29259788 2 21 C1.34 21 0.68 21 0 21 C-3.31626244 17.28176635 -4.8101008 14.67744291 -5.375 9.6875 C-4.88221492 4.84178003 -3.3425135 3.42607634 0 0 Z " fill="#F1F0F2" transform="translate(405,338)"/>
<path d="M0 0 C1.32 0 2.64 0 4 0 C4 0.66 4 1.32 4 2 C4.66 2 5.32 2 6 2 C6.33 20.81 6.66 39.62 7 59 C6.34 59 5.68 59 5 59 C4.34 59.99 3.68 60.98 3 62 C2.99191315 61.25275665 2.98382629 60.50551331 2.97549438 59.73562622 C2.89763091 52.70178056 2.81036564 45.6681296 2.71247292 38.63453865 C2.6624757 35.01827982 2.61614629 31.40205068 2.578125 27.78564453 C2.54131498 24.29716911 2.49496736 20.80894014 2.44193649 17.3206749 C2.41431889 15.33871227 2.39664221 13.35661928 2.37905884 11.37454224 C2.35918915 10.17344818 2.33931946 8.97235413 2.31884766 7.73486328 C2.30552399 6.67341095 2.29220032 5.61195862 2.2784729 4.51834106 C2.24678719 1.83004968 2.24678719 1.83004968 0 0 Z " fill="#352E55" transform="translate(222,318)"/>
<path d="M0 0 C1.98 0.66 3.96 1.32 6 2 C6.33 3.98 6.66 5.96 7 8 C7.66 8 8.32 8 9 8 C11.47967312 11.71950967 11.41836124 14.69436557 11 19 C9.86506738 22.49937557 8.0269812 23.98201253 5 26 C2.62124245 23.62124245 2.71596941 22.87533968 2.5 19.625 C2.27072404 16.19732436 1.53969065 14.04371279 0 11 C-0.44921875 8.7109375 -0.44921875 8.7109375 -0.6875 6.375 C-0.77386719 5.59898437 -0.86023438 4.82296875 -0.94921875 4.0234375 C-1 2 -1 2 0 0 Z " fill="#2F294D" transform="translate(412,335)"/>
<path d="M0 0 C7.24997422 -0.28307925 13.90961228 0.49025965 21 2 C20.34 2.66 19.68 3.32 19 4 C19.33 4.66 19.66 5.32 20 6 C18.02 6.99 18.02 6.99 16 8 C16 8.99 16 9.98 16 11 C11.83861737 11.08159574 8.0527516 10.98248524 4 10 C4 9.34 4 8.68 4 8 C3.34 7.67 2.68 7.34 2 7 C0 5 0 5 -0.125 2.375 C-0.08375 1.59125 -0.0425 0.8075 0 0 Z " fill="#2E284E" transform="translate(288,338)"/>
<path d="M0 0 C0.33 0 0.66 0 1 0 C0.98839844 0.92224365 0.97679687 1.8444873 0.96484375 2.79467773 C0.94049945 6.25700175 0.95235452 9.71545495 0.98779297 13.17749023 C0.99584391 14.66804122 0.98996838 16.15874135 0.96923828 17.64916992 C0.75642233 28.28462602 0.75642233 28.28462602 5.9375 37.3125 C7.00291016 38.27929688 7.00291016 38.27929688 8.08984375 39.265625 C11.43709061 42.30484301 12.82212526 45.65867202 13.16796875 50.2109375 C13.18490231 52.14136283 13.10146481 54.07216869 13 56 C11.5 54.875 11.5 54.875 10 53 C9.8125 49.8125 9.8125 49.8125 10 47 C9.34 47 8.68 47 8 47 C6.5 44 6.5 44 5 41 C3.68 41 2.36 41 1 41 C-1.43006017 39.28995766 -1.94460116 38.21655911 -2.6875 35.3125 C-2.8421875 34.1678125 -2.8421875 34.1678125 -3 33 C-2.01 33 -1.02 33 0 33 C0 22.11 0 11.22 0 0 Z " fill="#524D6D" transform="translate(411,296)"/>
<path d="M0 0 C-0.50603992 2.16874252 -0.99983813 3.99967627 -2 6 C-2.66 6 -3.32 6 -4 6 C-4 5.34 -4 4.68 -4 4 C-6.64 4.33 -9.28 4.66 -12 5 C-12 5.66 -12 6.32 -12 7 C-11.01 7.33 -10.02 7.66 -9 8 C-9.66 8 -10.32 8 -11 8 C-11 8.99 -11 9.98 -11 11 C-9.02 11.66 -7.04 12.32 -5 13 C-11.69656007 17.46437338 -19.12591229 17.78280404 -27 17 C-27.99 16.34 -28.98 15.68 -30 15 C-26.37 15.33 -22.74 15.66 -19 16 C-19 15.34 -19 14.68 -19 14 C-20.32 13.67 -21.64 13.34 -23 13 C-22.21625 12.731875 -21.4325 12.46375 -20.625 12.1875 C-17.71885077 11.15185568 -17.71885077 11.15185568 -16 8 C-16.33 7.01 -16.66 6.02 -17 5 C-14.54285453 4.16301614 -12.08441143 3.33027576 -9.625 2.5 C-8.92632812 2.26152344 -8.22765625 2.02304687 -7.5078125 1.77734375 C-2.2265625 0 -2.2265625 0 0 0 Z " fill="#3D3859" transform="translate(323,333)"/>
<path d="M0 0 C0.99 0 1.98 0 3 0 C3.12375 0.928125 3.12375 0.928125 3.25 1.875 C3.81258459 4.18437567 3.81258459 4.18437567 6.0625 5.25 C6.701875 5.4975 7.34125 5.745 8 6 C7.4409112 9.24271506 6.5867822 10.93057424 4 13 C3.34 13 2.68 13 2 13 C1.34 14.32 0.68 15.64 0 17 C-0.89868727 14.48367565 -1.1616905 13.39267692 -0.125 10.875 C0.24625 10.25625 0.6175 9.6375 1 9 C1.33 8.34 1.66 7.68 2 7 C0.00016466 7.79117904 0.00016466 7.79117904 -2 9 C-2.33 9.99 -2.66 10.98 -3 12 C-3 11.34 -3 10.68 -3 10 C-3.66 10 -4.32 10 -5 10 C-5.2475 10.639375 -5.495 11.27875 -5.75 11.9375 C-7 14 -7 14 -9.125 14.75 C-10.053125 14.87375 -10.053125 14.87375 -11 15 C-9.2645544 8.82952674 -4.42122925 4.42122925 0 0 Z " fill="#302A51" transform="translate(185,195)"/>
<path d="M0 0 C2.0625 0.4375 2.0625 0.4375 4 1 C2.88233946 4.35298161 1.45275901 5.54724099 -1 8 C-1 8.66 -1 9.32 -1 10 C-5.05431692 11.15837626 -7.21812119 10.83691257 -11 9 C-11 7.68 -11 6.36 -11 5 C-11.66 4.67 -12.32 4.34 -13 4 C-9.06781617 2.31477836 -5.31682198 1 -1 1 C-0.67 0.67 -0.34 0.34 0 0 Z " fill="#2D274C" transform="translate(359,390)"/>
<path d="M0 0 C0.66 0 1.32 0 2 0 C2 3.3 2 6.6 2 10 C5.74691447 11.39770584 5.74691447 11.39770584 8 10 C8.33 10.33 8.66 10.66 9 11 C9 10.01 9 9.02 9 8 C9.66 8 10.32 8 11 8 C11.125 11.375 11.125 11.375 11 15 C9 17 9 17 5.5 17.25 C2 17 2 17 0 15 C-0.14497985 12.41935871 -0.18677545 9.95056116 -0.125 7.375 C-0.11597656 6.66859375 -0.10695313 5.9621875 -0.09765625 5.234375 C-0.07407603 3.48943902 -0.03820461 1.74467705 0 0 Z " fill="#393456" transform="translate(339,201)"/>
<path d="M0 0 C0.99 0.33 1.98 0.66 3 1 C2.34 1 1.68 1 1 1 C1.09228786 8.190178 1.19959629 15.380019 1.31738281 22.56982422 C1.35568134 25.01606145 1.39053264 27.46235516 1.421875 29.90869141 C1.46750605 33.42370806 1.52550457 36.93833555 1.5859375 40.453125 C1.59748871 41.5480426 1.60903992 42.64296021 1.62094116 43.77105713 C1.64081085 44.79181335 1.66068054 45.81256958 1.68115234 46.86425781 C1.69447601 47.76138489 1.70779968 48.65851196 1.7215271 49.58282471 C2.015534 52.13483686 2.71325866 53.79561156 4 56 C3.34 56.99 2.68 57.98 2 59 C1.34 58.67 0.68 58.34 0 58 C-0.15373908 50.73316444 -0.30192054 43.46623813 -0.4429636 36.19914436 C-0.50862772 32.82491975 -0.57622188 29.4507566 -0.64819336 26.07666016 C-0.72994239 22.19962343 -0.80508895 18.32250733 -0.87890625 14.4453125 C-0.90594131 13.23070343 -0.93297638 12.01609436 -0.96083069 10.76467896 C-0.99097511 9.08316238 -0.99097511 9.08316238 -1.02172852 7.36767578 C-1.04171402 6.37728302 -1.06169952 5.38689026 -1.08229065 4.3664856 C-1 2 -1 2 0 0 Z " fill="#3B3654" transform="translate(235,325)"/>
<path d="M0 0 C2.4375 -0.4375 2.4375 -0.4375 5 0 C6.8125 2 6.8125 2 8 4 C7.01 4 6.02 4 5 4 C5.33 5.32 5.66 6.64 6 8 C4 9 2 10 0 11 C-1.5625 9.8125 -1.5625 9.8125 -3 8 C-2.73897585 4.51967799 -1.96602468 2.94903702 0 0 Z " fill="#2D274E" transform="translate(259,267)"/>
<path d="M0 0 C0 4 0 4 -1.3125 5.6875 C-3 7 -3 7 -6 8 C-6.804375 8.391875 -7.60875 8.78375 -8.4375 9.1875 C-11 10 -11 10 -13.3125 9.125 C-13.869375 8.75375 -14.42625 8.3825 -15 8 C-15 7.34 -15 6.68 -15 6 C-12.87717331 4.99539469 -10.75166979 3.99644398 -8.625 3 C-7.44164062 2.443125 -6.25828125 1.88625 -5.0390625 1.3125 C-2 0 -2 0 0 0 Z " fill="#342E52" transform="translate(378,310)"/>
<path d="M0 0 C5.38341884 3.38386327 7.90432683 8.14957908 10 14 C10.36382938 16.82877345 10.2649565 19.13846978 10 22 C8.5 20.875 8.5 20.875 7 19 C6.8125 15.8125 6.8125 15.8125 7 13 C6.34 13 5.68 13 5 13 C4.71125 12.38125 4.4225 11.7625 4.125 11.125 C3.06279958 8.86674235 3.06279958 8.86674235 1 7 C0.59952556 4.67724823 0.2602896 2.34260643 0 0 Z " fill="#3E395A" transform="translate(414,330)"/>
<path d="M0 0 C0.66 0.33 1.32 0.66 2 1 C0.25 6.75 0.25 6.75 -2 9 C-2.33 9.99 -2.66 10.98 -3 12 C-3 11.34 -3 10.68 -3 10 C-3.66 10 -4.32 10 -5 10 C-5.2475 10.639375 -5.495 11.27875 -5.75 11.9375 C-7 14 -7 14 -9.125 14.75 C-10.053125 14.87375 -10.053125 14.87375 -11 15 C-9.2645544 8.82952674 -4.42122925 4.42122925 0 0 Z " fill="#413B5D" transform="translate(185,195)"/>
<path d="M0 0 C2.475 0.495 2.475 0.495 5 1 C4.01 1.66 3.02 2.32 2 3 C1.52454116 5.13331595 1.52454116 5.13331595 1.56762695 7.63330078 C1.54783279 8.59414581 1.52803864 9.55499084 1.50764465 10.54495239 C1.50125473 11.58457123 1.49486481 12.62419006 1.48828125 13.6953125 C1.47033005 14.75789276 1.45237885 15.82047302 1.43388367 16.91525269 C1.37957998 20.31846107 1.34582037 23.72152764 1.3125 27.125 C1.27934468 29.42840524 1.24485671 31.73179172 1.20898438 34.03515625 C1.12384223 39.68997699 1.05557768 45.34481564 1 51 C0.67 51 0.34 51 0 51 C0 34.17 0 17.34 0 0 Z " fill="#E9E8F1" transform="translate(236,326)"/>
<path d="M0 0 C0.495 0.391875 0.99 0.78375 1.5 1.1875 C1.5 2.1775 1.5 3.1675 1.5 4.1875 C0.51 4.5175 -0.48 4.8475 -1.5 5.1875 C-3.2325 5.7753125 -3.2325 5.7753125 -5 6.375 C-6.155 6.643125 -7.31 6.91125 -8.5 7.1875 C-9.49 6.5275 -10.48 5.8675 -11.5 5.1875 C-10.5 2.1875 -10.5 2.1875 -8.79296875 1.16796875 C-3.05529847 -0.992972 -3.05529847 -0.992972 0 0 Z " fill="#3A3457" transform="translate(334.5,329.8125)"/>
<path d="M0 0 C0.33 1.65 0.66 3.3 1 5 C-0.32 5.33 -1.64 5.66 -3 6 C-3 7.65 -3 9.3 -3 11 C-3.99 11 -4.98 11 -6 11 C-6 10.34 -6 9.68 -6 9 C-6.66 8.67 -7.32 8.34 -8 8 C-8.625 5.4375 -8.625 5.4375 -9 3 C-4.5 0 -4.5 0 0 0 Z " fill="#2B254A" transform="translate(345,395)"/>
<path d="M0 0 C0 1.32 0 2.64 0 4 C-6.09339169 5.88341198 -10.72532201 6.0748291 -17 5 C-14.71636622 2.71636622 -13.25204532 2.2847151 -10.1875 1.375 C-9.33542969 1.11460937 -8.48335937 0.85421875 -7.60546875 0.5859375 C-4.98020834 -0.0044509 -2.68079363 -0.10588413 0 0 Z " fill="#342F52" transform="translate(245,273)"/>
<path d="M0 0 C0.94875 0.350625 1.8975 0.70125 2.875 1.0625 C2.875 1.7225 2.875 2.3825 2.875 3.0625 C3.205 3.3925 3.535 3.7225 3.875 4.0625 C3.545 5.0525 3.215 6.0425 2.875 7.0625 C1.555 6.7325 0.235 6.4025 -1.125 6.0625 C-1.125 5.4025 -1.125 4.7425 -1.125 4.0625 C-1.785 4.0625 -2.445 4.0625 -3.125 4.0625 C-3.455 5.3825 -3.785 6.7025 -4.125 8.0625 C-5.115 8.0625 -6.105 8.0625 -7.125 8.0625 C-6.939375 7.44375 -6.75375 6.825 -6.5625 6.1875 C-5.88813824 4.02089822 -5.88813824 4.02089822 -7.125 2.0625 C-6.465 2.0625 -5.805 2.0625 -5.125 2.0625 C-5.125 1.4025 -5.125 0.7425 -5.125 0.0625 C-3.125 -0.9375 -3.125 -0.9375 0 0 Z " fill="#2E284E" transform="translate(391.125,282.9375)"/>
<path d="M0 0 C6.625 -0.25 6.625 -0.25 10 2 C10 2.66 10 3.32 10 4 C10.66 4 11.32 4 12 4 C11.67 4.99 11.34 5.98 11 7 C9.68 6.67 8.36 6.34 7 6 C7 6.99 7 7.98 7 9 C5.35 8.67 3.7 8.34 2 8 C2 7.01 2 6.02 2 5 C2.66 5 3.32 5 4 5 C4 4.34 4 3.68 4 3 C3.34 3 2.68 3 2 3 C2 2.34 2 1.68 2 1 C1.34 0.67 0.68 0.34 0 0 Z " fill="#2D274C" transform="translate(278,261)"/>
<path d="M0 0 C0.99 0.66 1.98 1.32 3 2 C2.0409375 2.4640625 2.0409375 2.4640625 1.0625 2.9375 C-0.93610821 3.8345163 -0.93610821 3.8345163 -2 5 C-9.88161058 5.51682692 -9.88161058 5.51682692 -14 2 C-12.42085985 1.46658816 -10.83645613 0.94874237 -9.25 0.4375 C-8.36828125 0.14746094 -7.4865625 -0.14257812 -6.578125 -0.44140625 C-3.85640871 -1.03111145 -2.56911383 -0.98770553 0 0 Z " fill="#413B5C" transform="translate(293,258)"/>
<path d="M0 0 C0.66 0 1.32 0 2 0 C2 0.66 2 1.32 2 2 C2.66 2.33 3.32 2.66 4 3 C3.67 3.66 3.34 4.32 3 5 C4.65 5 6.3 5 8 5 C8.33 5.66 8.66 6.32 9 7 C9.66 7.66 10.32 8.32 11 9 C9 10 9 10 5.9609375 9.00390625 C4.77757812 8.52824219 3.59421875 8.05257813 2.375 7.5625 C1.18648438 7.08941406 -0.00203125 6.61632812 -1.2265625 6.12890625 C-2.14179688 5.75636719 -3.05703125 5.38382812 -4 5 C-3.34 4.01 -2.68 3.02 -2 2 C-1.34 2 -0.68 2 0 2 C0 1.34 0 0.68 0 0 Z " fill="#3C3757" transform="translate(388,287)"/>
<path d="M0 0 C3.375 -0.1875 3.375 -0.1875 7 0 C9.4294516 3.6441774 9.16179575 5.71241272 9 10 C6.35261084 11.4606285 5.10551666 12 2 12 C3.2125738 8.27566618 4.50859979 4.62197194 6 1 C5.38125 1.20625 4.7625 1.4125 4.125 1.625 C3.42375 1.74875 2.7225 1.8725 2 2 C1.34 1.34 0.68 0.68 0 0 Z " fill="#3E395A" transform="translate(341,174)"/>
<path d="M0 0 C1.67013418 0.65793165 3.3357865 1.32723284 5 2 C5.61230469 2.22945313 6.22460938 2.45890625 6.85546875 2.6953125 C8.60506322 3.38072064 10.30649294 4.18581391 12 5 C12.33 5.99 12.66 6.98 13 8 C11.68 8.33 10.36 8.66 9 9 C8.67 8.34 8.34 7.68 8 7 C6.02 7 4.04 7 2 7 C0.5393715 4.35261084 0 3.10551666 0 0 Z " fill="#3C3658" transform="translate(238,314)"/>
<path d="M0 0 C1.65 0.33 3.3 0.66 5 1 C5.33 1.99 5.66 2.98 6 4 C5.34 4 4.68 4 4 4 C2.98888907 7.04913228 2.98888907 7.04913228 4 10 C2.35 9.67 0.7 9.34 -1 9 C-1.33 10.32 -1.66 11.64 -2 13 C-2.66 13 -3.32 13 -4 13 C-3.34 11.02 -2.68 9.04 -2 7 C-1.34 7 -0.68 7 0 7 C0 4.69 0 2.38 0 0 Z " fill="#292349" transform="translate(371,376)"/>
<path d="M0 0 C0.33 0 0.66 0 1 0 C1.33 3.96 1.66 7.92 2 12 C3.32 12 4.64 12 6 12 C6 13.65 6 15.3 6 17 C6.99 17.33 7.98 17.66 9 18 C7.35 18.33 5.7 18.66 4 19 C1.17820323 16.09488246 0.05880657 14.53455169 -0.390625 10.44921875 C-0.34421875 9.20785156 -0.2978125 7.96648437 -0.25 6.6875 C-0.21390625 5.43324219 -0.1778125 4.17898437 -0.140625 2.88671875 C-0.07101562 1.45779297 -0.07101562 1.45779297 0 0 Z " fill="#544F6D" transform="translate(377,200)"/>
<path d="M0 0 C1.4540625 0.0309375 1.4540625 0.0309375 2.9375 0.0625 C2.6075 2.7025 2.2775 5.3425 1.9375 8.0625 C-1.0625 9.0625 -1.0625 9.0625 -4.0625 9.0625 C-4.16015625 2.91015625 -4.16015625 2.91015625 -4.0625 1.0625 C-3.0625 0.0625 -3.0625 0.0625 0 0 Z " fill="#2C264A" transform="translate(344.0625,174.9375)"/>
<path d="M0 0 C0 1.32 0 2.64 0 4 C-0.33 4.33 -0.66 4.66 -1 5 C-3.69082872 4.82364548 -6.32851446 4.38164079 -9 4 C-9 3.34 -9 2.68 -9 2 C-8.01 2 -7.02 2 -6 2 C-6.99 1.34 -7.98 0.68 -9 0 C-5.52176885 -1.15941038 -3.54104422 -0.70820884 0 0 Z " fill="#2D274D" transform="translate(329,261)"/>
<path d="M0 0 C1.9375 0.3125 1.9375 0.3125 4 1 C4.33 1.99 4.66 2.98 5 4 C5.33 4.33 5.66 4.66 6 5 C6.66 5.66 7.32 6.32 8 7 C5.33333333 8.33333333 2.66666667 9.66666667 0 11 C-0.125 5.25 -0.125 5.25 1 3 C0.34 3 -0.32 3 -1 3 C-0.67 2.01 -0.34 1.02 0 0 Z " fill="#2B254A" transform="translate(242,385)"/>
<path d="M0 0 C2.31 0.33 4.62 0.66 7 1 C7 1.99 7 2.98 7 4 C6.34 4.66 5.68 5.32 5 6 C3.68 6 2.36 6 1 6 C1 5.01 1 4.02 1 3 C0.01 3.33 -0.98 3.66 -2 4 C-1.34 2.68 -0.68 1.36 0 0 Z " fill="#3B3657" transform="translate(380,174)"/>
<path d="M0 0 C0 0.99 0 1.98 0 3 C0.66 3 1.32 3 2 3 C2 3.66 2 4.32 2 5 C0.06115111 4.71743908 -1.87605961 4.4236207 -3.8125 4.125 C-4.89144531 3.96257812 -5.97039062 3.80015625 -7.08203125 3.6328125 C-10 3 -10 3 -13 1 C-11.39602723 0.83147753 -9.7918131 0.66525114 -8.1875 0.5 C-7.29417969 0.4071875 -6.40085937 0.314375 -5.48046875 0.21875 C-3 0 -3 0 0 0 Z " fill="#474264" transform="translate(272,403)"/>
<path d="M0 0 C1.32 0.66 2.64 1.32 4 2 C3.67 2.33 3.34 2.66 3 3 C4.65 3.33 6.3 3.66 8 4 C4.38692786 6.36239332 2.11871234 5.80583502 -2 5 C-2.99 5.495 -2.99 5.495 -4 6 C-5.67654729 5.72057545 -7.34608154 5.39171753 -9 5 C-6.06279492 3.47700477 -3.0831351 2.19899698 0 1 C0 0.67 0 0.34 0 0 Z " fill="#2B254B" transform="translate(332,333)"/>
<path d="M0 0 C0.804375 0.12375 1.60875 0.2475 2.4375 0.375 C3.0975 1.365 3.7575 2.355 4.4375 3.375 C3.1175 3.705 1.7975 4.035 0.4375 4.375 C1.0975 5.035 1.7575 5.695 2.4375 6.375 C2.1075 7.365 1.7775 8.355 1.4375 9.375 C0.4475 9.375 -0.5425 9.375 -1.5625 9.375 C-1.5625 8.055 -1.5625 6.735 -1.5625 5.375 C-2.8825 4.715 -4.2025 4.055 -5.5625 3.375 C-3.76123295 1.09971531 -2.9258843 0.42817819 0 0 Z " fill="#2C2649" transform="translate(205.5625,300.625)"/>
<path d="M0 0 C2.4375 1.3125 2.4375 1.3125 3.25 3.4375 C3.311875 4.05625 3.37375 4.675 3.4375 5.3125 C2.4475 5.8075 2.4475 5.8075 1.4375 6.3125 C-0.59394641 5.37803465 -2.59783587 4.38025224 -4.5625 3.3125 C-4.5625 2.3225 -4.5625 1.3325 -4.5625 0.3125 C-2.5625 -0.6875 -2.5625 -0.6875 0 0 Z " fill="#E8E7EB" transform="translate(212.5625,296.6875)"/>
<path d="M0 0 C3.96 0.99 3.96 0.99 8 2 C8 2.66 8 3.32 8 4 C4.88228073 5.60339848 3.60988311 6.18974141 0.1875 5.125 C-0.534375 4.75375 -1.25625 4.3825 -2 4 C-1.34 2.68 -0.68 1.36 0 0 Z " fill="#ECEBEE" transform="translate(392,295)"/>
<path d="M0 0 C3.63 0.33 7.26 0.66 11 1 C8.14415227 2.90389849 6.0688238 3.69462177 2.8125 4.625 C1.91144531 4.88539063 1.01039063 5.14578125 0.08203125 5.4140625 C-0.94857422 5.70410156 -0.94857422 5.70410156 -2 6 C-1.49396008 3.83125748 -1.00016187 2.00032373 0 0 Z " fill="#3E385A" transform="translate(329,337)"/>
<path d="M0 0 C0.66 0 1.32 0 2 0 C2 0.66 2 1.32 2 2 C1.34 2 0.68 2 0 2 C0.5259375 2.86625 0.5259375 2.86625 1.0625 3.75 C2 6 2 6 1.5 7.9375 C0.80861846 10.78944884 1.77607763 12.40816439 3 15 C1.68 14.34 0.36 13.68 -1 13 C-1.02686553 11.02090602 -1.04633375 9.04171029 -1.0625 7.0625 C-1.07410156 5.96035156 -1.08570313 4.85820312 -1.09765625 3.72265625 C-1 1 -1 1 0 0 Z M-4 13 C-3.01 13 -2.02 13 -1 13 C-1 13.66 -1 14.32 -1 15 C-1.99 14.67 -2.98 14.34 -4 14 C-4 13.67 -4 13.34 -4 13 Z " fill="#2B2549" transform="translate(302,177)"/>
<path d="M0 0 C0.33 0.66 0.66 1.32 1 2 C-3 8 -3 8 -6 9 C-6.66 9.66 -7.32 10.32 -8 11 C-11.125 10.625 -11.125 10.625 -14 10 C-14 9.67 -14 9.34 -14 9 C-12.989375 8.814375 -11.97875 8.62875 -10.9375 8.4375 C-6.07348268 7.09741359 -3.24494783 3.68878568 0 0 Z " fill="#DBDAE1" transform="translate(418,362)"/>
<path d="M0 0 C-0.50603992 2.16874252 -0.99983813 3.99967627 -2 6 C-2.66 6 -3.32 6 -4 6 C-4 5.34 -4 4.68 -4 4 C-8.455 4.495 -8.455 4.495 -13 5 C-10.54278328 3.36185552 -8.65432189 2.38047801 -5.9375 1.375 C-5.24527344 1.11460937 -4.55304688 0.85421875 -3.83984375 0.5859375 C-2 0 -2 0 0 0 Z " fill="#4A4465" transform="translate(323,333)"/>
<path d="M0 0 C3.465 1.98 3.465 1.98 7 4 C4.24075815 5.80411967 3.11027897 6.0127245 -0.25 5.625 C-1.1575 5.41875 -2.065 5.2125 -3 5 C-2.67 4.01 -2.34 3.02 -2 2 C-1.34 2 -0.68 2 0 2 C0 1.34 0 0.68 0 0 Z " fill="#3C365A" transform="translate(190,426)"/>
<path d="M0 0 C0.99 0.33 1.98 0.66 3 1 C3.33 0.67 3.66 0.34 4 0 C4.66 0 5.32 0 6 0 C6.33 2.31 6.66 4.62 7 7 C6.67 6.34 6.34 5.68 6 5 C4.35 5.66 2.7 6.32 1 7 C0.67 4.69 0.34 2.38 0 0 Z " fill="#2C264C" transform="translate(408,359)"/>
<path d="M0 0 C-0.99 0 -1.98 0 -3 0 C-3.2475 0.804375 -3.495 1.60875 -3.75 2.4375 C-5 5 -5 5 -6.875 5.9375 C-9.44782067 6.0131712 -10.82311446 5.32168051 -13 4 C-12.401875 3.71125 -11.80375 3.4225 -11.1875 3.125 C-8.80672208 1.95257974 -8.80672208 1.95257974 -6 0 C-3.50907189 -1.24546405 -2.58919267 -0.7767578 0 0 Z " fill="#2B254A" transform="translate(265,327)"/>
<path d="M0 0 C-3.28463659 2.18975773 -6.20696275 2.99806563 -10 4 C-10.66 3.01 -11.32 2.02 -12 1 C-9.22036907 -1.77963093 -3.39894022 -1.13298007 0 0 Z " fill="#3A3557" transform="translate(371,325)"/>
<path d="M0 0 C0 1.32 0 2.64 0 4 C-2.75078884 4.91692961 -4.35948913 5.10886083 -7.1875 5.0625 C-9.0746875 5.0315625 -9.0746875 5.0315625 -11 5 C-7.72709962 2.33319229 -4.35126896 0 0 0 Z " fill="#454060" transform="translate(378,310)"/>
<path d="M0 0 C0.33 0.66 0.66 1.32 1 2 C1.61875 1.79375 2.2375 1.5875 2.875 1.375 C3.57625 1.25125 4.2775 1.1275 5 1 C5.66 1.66 6.32 2.32 7 3 C2.25 7 2.25 7 0 7 C-0.93423645 3.98968256 -1.04449911 3.13349732 0 0 Z " fill="#2F294D" transform="translate(178,423)"/>
<path d="M0 0 C0.7425 0.45375 1.485 0.9075 2.25 1.375 C4.46930578 2.68640796 6.67967822 3.88280803 9 5 C9 5.66 9 6.32 9 7 C7.18504338 6.55149342 5.37306866 6.09090429 3.5625 5.625 C2.55316406 5.36976563 1.54382813 5.11453125 0.50390625 4.8515625 C-2 4 -2 4 -3 2 C-2.01 2 -1.02 2 0 2 C0 1.34 0 0.68 0 0 Z " fill="#403B59" transform="translate(343,273)"/>
<path d="M0 0 C1.65 0.99 3.3 1.98 5 3 C4.34 3.66 3.68 4.32 3 5 C2.3574765 7.06874034 2.3574765 7.06874034 2 9 C1.34 9 0.68 9 0 9 C0 6.03 0 3.06 0 0 Z M-2 9 C-1.34 9 -0.68 9 0 9 C-0.33 10.32 -0.66 11.64 -1 13 C-1.66 12.34 -2.32 11.68 -3 11 C-2.67 10.34 -2.34 9.68 -2 9 Z " fill="#3B3558" transform="translate(239,381)"/>
<path d="M0 0 C3.875 1.75 3.875 1.75 5 4 C5.13415472 6.6723621 5.04318541 9.32250488 5 12 C3.5 10.875 3.5 10.875 2 9 C1.8125 5.8125 1.8125 5.8125 2 3 C1.34 3 0.68 3 0 3 C0 2.01 0 1.02 0 0 Z " fill="#524D6D" transform="translate(419,340)"/>
<path d="M0 0 C0.99 0.33 1.98 0.66 3 1 C3 1.66 3 2.32 3 3 C3.66 3 4.32 3 5 3 C5.33 2.34 5.66 1.68 6 1 C6 1.99 6 2.98 6 4 C1.58937864 5.0257259 -0.92630576 5.03684712 -5 3 C-4.360625 2.690625 -3.72125 2.38125 -3.0625 2.0625 C-1.06389179 1.1654837 -1.06389179 1.1654837 0 0 Z " fill="#3C3758" transform="translate(250,327)"/>
<path d="M0 0 C2.64 0.99 5.28 1.98 8 3 C5.08235 4.9451 3.37462715 5.45276317 0 6 C-0.33 5.34 -0.66 4.68 -1 4 C-0.34 4 0.32 4 1 4 C0.67 2.68 0.34 1.36 0 0 Z " fill="#3A3455" transform="translate(256,322)"/>
<path d="M0 0 C-1.485 2.475 -1.485 2.475 -3 5 C-5.93703384 4.37063561 -8.33788628 3.37579827 -11 2 C-9.54494642 1.47007308 -8.08581873 0.9513211 -6.625 0.4375 C-5.81289063 0.14746094 -5.00078125 -0.14257812 -4.1640625 -0.44140625 C-2 -1 -2 -1 0 0 Z " fill="#45405F" transform="translate(271,264)"/>
<path d="M0 0 C0.66 0.99 1.32 1.98 2 3 C1.67 3.99 1.34 4.98 1 6 C-1.31 6.33 -3.62 6.66 -6 7 C-6 5.35 -6 3.7 -6 2 C-3.525 2.495 -3.525 2.495 -1 3 C-0.67 2.01 -0.34 1.02 0 0 Z " fill="#2B254A" transform="translate(348,182)"/>
<path d="M0 0 C0.99 0 1.98 0 3 0 C2.979375 0.928125 2.95875 1.85625 2.9375 2.8125 C2.84230396 6.02286011 2.84230396 6.02286011 4 9 C3.01 9 2.02 9 1 9 C0.34 8.34 -0.32 7.68 -1 7 C-0.625 3.375 -0.625 3.375 0 0 Z " fill="#2B244A" transform="translate(382,208)"/>
<path d="M0 0 C0.8125 1.6875 0.8125 1.6875 1 4 C-1.4375 6.75 -1.4375 6.75 -4 9 C-4 5.00095031 -2.27413033 3.19799578 0 0 Z M-7 9 C-6.34 9.33 -5.68 9.66 -5 10 C-6.98 10.99 -6.98 10.99 -9 12 C-8.34 11.01 -7.68 10.02 -7 9 Z " fill="#DEDDE4" transform="translate(436,425)"/>
<path d="M0 0 C3.3 0.99 6.6 1.98 10 3 C10 3.33 10 3.66 10 4 C9.06027344 3.98259766 9.06027344 3.98259766 8.1015625 3.96484375 C6.87566406 3.95130859 6.87566406 3.95130859 5.625 3.9375 C4.40683594 3.92009766 4.40683594 3.92009766 3.1640625 3.90234375 C0.95062858 3.85533666 0.95062858 3.85533666 -1 5 C-0.67 3.35 -0.34 1.7 0 0 Z " fill="#443F5F" transform="translate(286,334)"/>
<path d="M0 0 C0.33 1.32 0.66 2.64 1 4 C-1.8125 4.625 -1.8125 4.625 -5 5 C-5.99 4.34 -6.98 3.68 -8 3 C-2.25 0 -2.25 0 0 0 Z M1 2 C3 3 3 3 3 3 Z " fill="#433E5D" transform="translate(362,317)"/>
<path d="M0 0 C0.99 0.33 1.98 0.66 3 1 C3 1.33 3 1.66 3 2 C3.66 2.33 4.32 2.66 5 3 C3.68 4.32 2.36 5.64 1 7 C0.01 5.68 -0.98 4.36 -2 3 C-1.34 2.01 -0.68 1.02 0 0 Z " fill="#362F55" transform="translate(234,385)"/>
<path d="M0 0 C0.99 0 1.98 0 3 0 C3 0.66 3 1.32 3 2 C4.65 2 6.3 2 8 2 C8.33 2.66 8.66 3.32 9 4 C8.67 4.66 8.34 5.32 8 6 C4.08597051 4.73058503 2.20927127 3.48832306 0 0 Z " fill="#383355" transform="translate(196,303)"/>
<path d="M0 0 C0.33 0.66 0.66 1.32 1 2 C1.66 2.144375 2.32 2.28875 3 2.4375 C3.66 2.623125 4.32 2.80875 5 3 C5.33 3.99 5.66 4.98 6 6 C4.02 6.33 2.04 6.66 0 7 C0 4.69 0 2.38 0 0 Z " fill="#3B3559" transform="translate(195,294)"/>
<path d="M0 0 C0.66 0.33 1.32 0.66 2 1 C0.35 2.98 -1.3 4.96 -3 7 C-3.66 6.01 -4.32 5.02 -5 4 C-4.67 3.01 -4.34 2.02 -4 1 C-3.01 1 -2.02 1 -1 1 C-0.67 0.67 -0.34 0.34 0 0 Z " fill="#433D5D" transform="translate(419,358)"/>
<path d="M0 0 C2.31 0.66 4.62 1.32 7 2 C4.64046906 4.35953094 3.22104383 4.49141413 0 5 C-0.33 4.01 -0.66 3.02 -1 2 C-0.67 1.34 -0.34 0.68 0 0 Z " fill="#3C3758" transform="translate(347,330)"/>
<path d="M0 0 C1.98 0.495 1.98 0.495 4 1 C3.75 2.875 3.75 2.875 3 5 C0.9375 6.25 0.9375 6.25 -1 7 C-0.67 4.69 -0.34 2.38 0 0 Z " fill="#3F395C" transform="translate(173,211)"/>
<path d="M0 0 C0.66 0 1.32 0 2 0 C2.33 0.66 2.66 1.32 3 2 C3.66 2.33 4.32 2.66 5 3 C3.515 5.475 3.515 5.475 2 8 C1.67 7.34 1.34 6.68 1 6 C0.34 5.67 -0.32 5.34 -1 5 C-0.67 3.35 -0.34 1.7 0 0 Z " fill="#2A234A" transform="translate(421,194)"/>
<path d="M0 0 C-0.33 1.32 -0.66 2.64 -1 4 C-3.875 4.125 -3.875 4.125 -7 4 C-7.66 3.34 -8.32 2.68 -9 2 C-2.25 0 -2.25 0 0 0 Z " fill="#E9E8EB" transform="translate(348,404)"/>
<path d="M0 0 C1.98 0.66 3.96 1.32 6 2 C5.67 2.99 5.34 3.98 5 5 C2.69 4.67 0.38 4.34 -2 4 C-2 3.34 -2 2.68 -2 2 C-1.34 2 -0.68 2 0 2 C0 1.34 0 0.68 0 0 Z " fill="#3B3559" transform="translate(247,387)"/>
<path d="M0 0 C2.0625 0.1875 2.0625 0.1875 4 1 C4.33 1.99 4.66 2.98 5 4 C4.01 4.33 3.02 4.66 2 5 C-0.1875 3.5625 -0.1875 3.5625 -2 2 C-1.34 1.34 -0.68 0.68 0 0 Z " fill="#3D375A" transform="translate(241,324)"/>
<path d="M0 0 C0 0.99 0 1.98 0 3 C-2.3125 4.125 -2.3125 4.125 -5 5 C-5.99 4.34 -6.98 3.68 -8 3 C-2.25 0 -2.25 0 0 0 Z " fill="#484363" transform="translate(207,286)"/>
<path d="M0 0 C1.65 0.33 3.3 0.66 5 1 C4.01 2.485 4.01 2.485 3 4 C2.34 4 1.68 4 1 4 C0.34 5.32 -0.32 6.64 -1 8 C-1.93065133 5.39417629 -2.14917407 4.35801776 -1.0625 1.75 C-0.711875 1.1725 -0.36125 0.595 0 0 Z " fill="#443E60" transform="translate(186,204)"/>
<path d="M0 0 C0.66 1.98 1.32 3.96 2 6 C1.01 6.495 1.01 6.495 0 7 C-1.32 5.02 -2.64 3.04 -4 1 C-2 0 -2 0 0 0 Z " fill="#403B5B" transform="translate(411,337)"/>
<path d="M0 0 C-0.66 0 -1.32 0 -2 0 C-2 0.66 -2 1.32 -2 2 C-1.34 2.33 -0.68 2.66 0 3 C-0.33 3.66 -0.66 4.32 -1 5 C-3.475 4.01 -3.475 4.01 -6 3 C-6 2.01 -6 1.02 -6 0 C-3 -1 -3 -1 0 0 Z " fill="#2A2449" transform="translate(391,311)"/>
<path d="M0 0 C0.33 1.65 0.66 3.3 1 5 C-2 5 -2 5 -5 3 C-5 2.34 -5 1.68 -5 1 C-3 0 -3 0 0 0 Z " fill="#403B5C" transform="translate(422,200)"/>
<path d="M0 0 C2 1.3125 2 1.3125 4 3 C4 3.99 4 4.98 4 6 C1.03 5.505 1.03 5.505 -2 5 C-1.34 3.35 -0.68 1.7 0 0 Z " fill="#474262" transform="translate(427,418)"/>
<path d="M0 0 C0.99 0.495 0.99 0.495 2 1 C1.34 1.66 0.68 2.32 0 3 C0 2.01 0 1.02 0 0 Z M-4 3 C-1.525 3.495 -1.525 3.495 1 4 C0.34 5.32 -0.32 6.64 -1 8 C-1.99 6.35 -2.98 4.7 -4 3 Z " fill="#403A5D" transform="translate(231,380)"/>
<path d="M0 0 C2.64 0 5.28 0 8 0 C8.33 0.99 8.66 1.98 9 3 C6 4 6 4 2.8125 2.5625 C1.884375 2.046875 0.95625 1.53125 0 1 C0 0.67 0 0.34 0 0 Z " fill="#59546F" transform="translate(213,314)"/>
<path d="M0 0 C0 0.99 0 1.98 0 3 C-2.60582371 3.93065133 -3.64198224 4.14917407 -6.25 3.0625 C-6.8275 2.711875 -7.405 2.36125 -8 2 C-2.25 0 -2.25 0 0 0 Z " fill="#4E4A64" transform="translate(236,275)"/>
<path d="M0 0 C4.75 1.875 4.75 1.875 7 3 C7 3.66 7 4.32 7 5 C1.25 3.25 1.25 3.25 -1 1 C-0.67 0.67 -0.34 0.34 0 0 Z " fill="#3F3A59" transform="translate(243,395)"/>
</svg>
