<?xml version="1.0" encoding="UTF-8"?>
<svg version="1.1" xmlns="http://www.w3.org/2000/svg" width="640" height="480">
<path d="M0 0 C211.2 0 422.4 0 640 0 C640 158.4 640 316.8 640 480 C428.8 480 217.6 480 0 480 C0 321.6 0 163.2 0 0 Z " fill="#FEFEFE" transform="translate(0,0)"/>
<path d="M0 0 C0.7597345 0.02038989 1.51946901 0.04077978 2.30222577 0.06178755 C3.52757433 0.05281608 3.52757433 0.05281608 4.77767742 0.04366338 C7.51333022 0.03213809 10.24597325 0.07061543 12.98134869 0.10889143 C14.94265168 0.11086606 16.90395985 0.10975738 18.86525983 0.10579389 C24.18962686 0.1037839 29.51289197 0.14496302 34.83700269 0.1938116 C40.40098642 0.23754527 45.96499489 0.24168071 51.52912396 0.24998945 C62.0654516 0.27175378 72.60127134 0.32920748 83.13737524 0.39943588 C95.1323544 0.47765432 107.12735771 0.51615962 119.12252837 0.55130392 C143.79734846 0.62448903 168.47171759 0.7476284 193.14614362 0.90356916 C191.42461057 4.37901821 189.70895789 7.74902766 187.58754987 10.99731916 C187.11897565 11.7179051 186.65040143 12.43849104 186.16762799 13.18091291 C185.68616315 13.91438947 185.2046983 14.64786604 184.70864362 15.40356916 C184.23104596 16.13704572 183.7534483 16.87052229 183.26137799 17.62622541 C181.89473319 19.72212238 180.52412152 21.81510481 179.14614362 23.90356916 C178.68232281 24.96591779 178.21850201 26.02826643 177.74062604 27.12280744 C174.70473001 30.37667549 174.01025841 30.3530508 169.7350108 30.58472151 C167.47079115 30.58377212 165.2064328 30.54990339 162.94301862 30.48950666 C161.15362866 30.47677213 161.15362866 30.47677213 159.32808942 30.46378034 C155.51652363 30.43018356 151.70707037 30.35488369 147.89614362 30.27856916 C145.31284082 30.24847808 142.72950489 30.2211008 140.14614362 30.19653791 C133.81208905 30.13037114 127.47926723 30.02995651 121.14614362 29.90356916 C121.46529233 30.41545789 121.78444104 30.92734663 122.11326092 31.45474714 C123.57297163 33.80196553 125.02560756 36.15348651 126.47817487 38.50513166 C127.23137006 39.71278181 127.23137006 39.71278181 127.99978131 40.94482893 C132.25954917 47.85969372 136.14614362 54.61335391 136.14614362 62.90356916 C154.95614362 62.90356916 173.76614362 62.90356916 193.14614362 62.90356916 C191.60112594 66.76611336 190.26015863 69.47510679 187.99379987 72.84497541 C187.38213971 73.75827619 186.77047955 74.67157697 186.14028424 75.61255354 C185.50284283 76.55421369 184.86540143 77.49587385 184.20864362 78.46606916 C183.5750694 79.41159651 182.94149518 80.35712385 182.28872174 81.33130354 C180.58642729 83.86416016 178.88320365 86.39442333 177.14614362 88.90356916 C176.75636334 89.65468977 176.36658307 90.40581037 175.96499127 91.17969221 C173.0259862 93.96523782 169.58523086 93.39368992 165.75942487 93.29419416 C164.94241605 93.28853437 164.12540723 93.28287458 163.28364056 93.27704328 C160.67471159 93.25465614 158.06715726 93.20445762 155.45864362 93.15356916 C153.68978325 93.13350709 151.92090134 93.1152558 150.15200299 93.09888166 C145.81618705 93.05478396 141.48139837 92.9857421 137.14614362 92.90356916 C137.05811978 93.80482023 137.05811978 93.80482023 136.96831769 94.72427839 C136.88600903 95.52159376 136.80370038 96.31890913 136.71889752 97.14038557 C136.59993619 98.32007414 136.59993619 98.32007414 136.47857159 99.5235948 C135.95460183 103.27488739 134.80829566 106.72784764 133.52114362 110.27856916 C133.25535504 111.01534895 132.98956647 111.75212873 132.71572369 112.51123518 C128.63113679 123.37692562 122.10702422 131.5697464 114.14614362 139.90356916 C113.60602643 140.51845197 113.06590924 141.13333479 112.50942487 141.76685041 C103.66852568 151.45398176 91.20240322 157.33922364 79.14614362 161.90356916 C77.99887799 162.3560301 76.85161237 162.80849104 75.66958112 163.27466291 C62.77051928 168.00993943 48.88453745 170.2060367 35.14614362 169.90356916 C39.3613034 175.93040221 43.72952295 181.70493575 48.52114362 187.27856916 C52.56863969 191.98698021 56.4163344 196.79788532 60.16738385 201.74902815 C63.69330523 206.37486651 67.37134361 210.86397125 71.08364362 215.34106916 C75.35969026 220.49886374 79.58935077 225.68208402 83.70864362 230.96606916 C91.23415828 240.61766354 98.99806133 250.07594588 106.77114362 259.52856916 C110.50598582 264.08507665 114.14479497 268.71090793 117.7728526 273.35229963 C122.47920323 279.35821978 127.29855039 285.27024671 132.11879987 291.18481916 C135.82519293 295.73299534 139.5180905 300.292546 143.14614362 304.90356916 C143.99305768 305.83942854 143.99305768 305.83942854 144.85708112 306.79419416 C146.56090916 309.58227642 146.23639449 311.69063786 146.14614362 314.90356916 C139.76088954 315.18393799 133.37723475 315.37568266 126.98720807 315.50781721 C124.81700857 315.56292466 122.64721365 315.63783915 120.47841901 315.73340315 C101.4486838 316.55052381 101.4486838 316.55052381 96.85195416 312.6279344 C94.56673964 309.83008618 92.84570674 307.08367245 91.14614362 303.90356916 C90.22777364 302.73244786 89.27842892 301.5840319 88.28286237 300.47778791 C87.00997331 298.97752473 85.73714028 297.47721382 84.46499127 295.97632307 C81.50954087 292.49401829 78.53596692 289.02758504 75.55752057 285.56494612 C70.78870809 280.02015017 66.0995857 274.42592535 61.48989362 268.74731916 C58.24650598 264.81200884 54.91467564 260.95537615 51.5853526 257.09277815 C48.57369352 253.59121615 45.61555412 250.0557036 42.70864362 246.46606916 C38.60828447 241.41662146 34.36245012 236.505839 30.09267682 231.60010237 C23.17939884 223.65381743 16.35396997 215.63850822 9.70864362 207.46606916 C6.75555417 203.83678035 3.75656843 200.25514127 0.69961041 196.71338362 C-0.33785093 195.50472403 -1.36635822 194.28832194 -2.38583881 193.06445783 C-4.68816361 190.3146546 -6.87636406 187.88443128 -9.61948138 185.55200666 C-15.02500514 180.60544247 -16.0581307 177.23187588 -16.40463763 169.99341291 C-16.50652955 162.95125156 -16.27290393 155.93282313 -15.85385638 148.90356916 C-14.21525653 148.88169538 -14.21525653 148.88169538 -12.54355365 148.85937971 C-8.40377115 148.80042743 -4.26447914 148.7232233 -0.12509662 148.64111799 C1.65021169 148.60831599 3.42561315 148.58015285 5.20107526 148.55713362 C17.15963703 148.39804717 28.43411985 147.31264816 40.14614362 144.90356916 C41.32201031 144.69143781 42.49787701 144.47930647 43.70937604 144.2607469 C59.53599339 141.3865765 74.61957013 132.50274944 84.35708112 119.70044416 C89.98839826 110.89690033 91.42642017 102.22190986 93.14614362 91.90356916 C53.87614362 91.90356916 14.60614362 91.90356916 -25.85385638 91.90356916 C-20.22638425 81.77411932 -20.22638425 81.77411932 -17.55698138 77.90356916 C-16.99108295 77.07985822 -16.42518451 76.25614729 -15.84213763 75.40747541 C-15.26850482 74.58118635 -14.69487201 73.75489729 -14.10385638 72.90356916 C-13.51475482 72.0463426 -12.92565326 71.18911604 -12.31870013 70.30591291 C-8.01863636 64.06834914 -8.01863636 64.06834914 -6.85385638 62.90356916 C-3.87087425 62.80828696 -0.91109293 62.77804742 2.07216901 62.79004377 C3.00865781 62.78989774 3.94514661 62.78975172 4.91001385 62.78960127 C8.02129901 62.79030079 11.1325251 62.79809501 14.24379987 62.80591291 C16.39471404 62.80777695 18.54562864 62.80920092 20.6965434 62.81020063 C26.36996119 62.81402692 32.04335357 62.82385814 37.71676129 62.83490461 C43.50116128 62.84511636 49.28556535 62.84969774 55.06997174 62.85474104 C66.42870689 62.86548031 77.78742314 62.88255805 89.14614362 62.90356916 C88.05604692 61.14397912 86.95979142 59.38820368 85.86098737 57.63403791 C85.25118024 56.65588117 84.64137311 55.67772444 84.01308697 54.66992658 C75.19495163 41.60358794 58.28039579 36.12226264 43.54189557 32.9338426 C31.53545755 30.73164805 19.13315367 31.11077023 6.96334332 31.0966844 C3.36201468 31.08718902 -0.23902706 31.04967897 -3.84018451 31.01489729 C-10.84469945 30.95118712 -17.8490493 30.91724108 -24.85385638 30.90356916 C-23.55830503 27.57560673 -22.20668065 24.68828577 -20.20932513 21.72388166 C-19.69692279 20.9594676 -19.18452045 20.19505354 -18.65659076 19.40747541 C-18.12356342 18.62243635 -17.59053607 17.83739729 -17.04135638 17.02856916 C-16.5199306 16.25126447 -15.99850482 15.47395979 -15.46127826 14.67310041 C-13.93675857 12.40820849 -12.40681938 10.1490791 -10.85385638 7.90356916 C-10.53477276 7.33172059 -10.21568913 6.75987202 -9.88693631 6.17069471 C-7.24001666 1.79117714 -5.42015424 0.1074343 0 0 Z " fill="#020202" transform="translate(224.85385638475418,76.09643083810806)"/>
<path d="M0 0 C17.82 0 35.64 0 54 0 C53.34 1.65 52.68 3.3 52 5 C51.01 5 50.02 5 49 5 C48.505 3.515 48.505 3.515 48 2 C32.16 1.67 16.32 1.34 0 1 C0 0.67 0 0.34 0 0 Z " fill="#0C0C0C" transform="translate(364,139)"/>
<path d="M0 0 C4.29 0.33 8.58 0.66 13 1 C13 1.33 13 1.66 13 2 C11.86111328 2.07347656 11.86111328 2.07347656 10.69921875 2.1484375 C9.70535156 2.22320312 8.71148437 2.29796875 7.6875 2.375 C6.20830078 2.47941406 6.20830078 2.47941406 4.69921875 2.5859375 C1.78471567 2.83865472 1.78471567 2.83865472 -1 5 C-1.33 4.34 -1.66 3.68 -2 3 C-1.34 2.01 -0.68 1.02 0 0 Z " fill="#101010" transform="translate(218,78)"/>
</svg>
