<?xml version="1.0" encoding="UTF-8"?>
<svg version="1.1" xmlns="http://www.w3.org/2000/svg" width="348" height="348">
<path d="M0 0 C114.84 0 229.68 0 348 0 C348 114.84 348 229.68 348 348 C233.16 348 118.32 348 0 348 C0 233.16 0 118.32 0 0 Z " fill="#242D88" transform="translate(0,0)"/>
<path d="M0 0 C114.84 0 229.68 0 348 0 C348 114.84 348 229.68 348 348 C233.16 348 118.32 348 0 348 C0 233.16 0 118.32 0 0 Z M27 45 C26.89758575 47.9284713 26.86114945 50.83350571 26.86628723 53.76255798 C26.86402167 54.69305121 26.86175612 55.62354445 26.85942191 56.58223444 C26.85305099 59.72532683 26.85391324 62.86837645 26.85473633 66.01147461 C26.85174677 68.2546545 26.84834472 70.49783388 26.84455872 72.74101257 C26.83569402 78.85246573 26.83337958 84.96390491 26.83274293 91.07536387 C26.83179595 96.16766464 26.82812011 101.2599621 26.82457083 106.3522616 C26.81688331 117.67392631 26.81390306 128.99558232 26.81457619 140.31724875 C26.81463612 141.33716497 26.81463612 141.33716497 26.81469727 142.37768555 C26.81473815 143.05845559 26.81477903 143.73922564 26.81482115 144.44062508 C26.81522774 155.47758569 26.80565602 166.5145122 26.7915589 177.55146294 C26.77721318 188.87197203 26.77047108 200.19245928 26.77115268 211.51297957 C26.77140837 217.87348012 26.76851814 224.23394212 26.75797462 230.59443474 C26.74833413 236.57383052 26.74818647 242.55315054 26.75549126 248.5325489 C26.75654215 250.73285151 26.75414458 252.93315873 26.7481308 255.13345337 C26.74047885 258.12587914 26.7450102 261.11803884 26.75276184 264.11045837 C26.74761828 264.99108678 26.74247471 265.87171519 26.73717529 266.77902931 C26.55183642 271.36772446 26.55183642 271.36772446 29 275 C31.34564438 275.29254562 31.34564438 275.29254562 34.09228516 275.22705078 C35.68370834 275.22682419 35.68370834 275.22682419 37.30728149 275.22659302 C39.03076309 275.21110916 39.03076309 275.21110916 40.7890625 275.1953125 C41.96262299 275.1924826 43.13618347 275.18965271 44.3453064 275.18673706 C48.10530662 275.17551355 51.86507139 275.15040492 55.625 275.125 C58.1692674 275.11497301 60.71353852 275.10584668 63.2578125 275.09765625 C69.5052891 275.07556714 75.75262773 275.04206824 82 275 C81.99476318 275.93384521 81.98952637 276.86769043 81.98413086 277.82983398 C81.9671238 281.28312796 81.95456698 284.73637767 81.94506836 288.18969727 C81.94002879 289.68644918 81.93319713 291.18319616 81.92456055 292.67993164 C81.91247841 294.82699807 81.90676809 296.97399962 81.90234375 299.12109375 C81.89710693 300.4145874 81.89187012 301.70808105 81.88647461 303.04077148 C81.66003068 305.88652404 81.66003068 305.88652404 83 307 C85.42619594 307.09989636 87.82398318 307.13442062 90.25073242 307.12698364 C91.40251748 307.12932363 91.40251748 307.12932363 92.57757092 307.13171089 C95.17022261 307.13572388 97.76281654 307.1325301 100.35546875 307.12939453 C102.20618728 307.13074844 104.05690554 307.13252831 105.90762329 307.13470459 C110.94879944 307.13928016 115.98995522 307.13748886 121.03113174 307.1343255 C126.29443672 307.13180254 131.55773989 307.13413926 136.82104492 307.13571167 C145.6616243 307.13753355 154.50219533 307.13512657 163.34277344 307.13037109 C173.57938016 307.12492844 183.81596697 307.12669108 194.0525732 307.1321975 C202.82451263 307.1367281 211.59644605 307.13737944 220.36838627 307.13475883 C225.61492807 307.13319576 230.8614605 307.1330031 236.10800171 307.13629532 C241.03924878 307.13917326 245.97047005 307.13719976 250.90171432 307.13140106 C252.71703422 307.13007305 254.53235627 307.13046827 256.34767532 307.13266373 C258.81490257 307.13537363 261.28204577 307.13199609 263.74926758 307.12698364 C264.4771709 307.12921436 265.20507421 307.13144509 265.95503521 307.13374341 C269.26032547 307.40759363 269.26032547 307.40759363 272 306 C272.09101049 304.27377576 272.11131088 302.54379339 272.10438538 300.81518555 C272.10261292 299.69090652 272.10084045 298.5666275 272.09901428 297.40827942 C272.09220139 296.1636644 272.08538849 294.91904938 272.07836914 293.63671875 C272.07383938 291.63733936 272.06932334 289.63795989 272.06532085 287.63857937 C272.06044229 285.48168253 272.05347838 283.32479838 272.04640388 281.16790771 C272.03324775 276.67067012 272.03495311 272.17351849 272.04063416 267.67626953 C272.04155424 266.91755177 272.04247432 266.158834 272.04342228 265.37712479 C272.04639441 263.03917675 272.04955965 260.70122902 272.05273438 258.36328125 C272.06551884 248.67611118 272.067621 238.98934472 272.02416992 229.30224609 C271.99261173 222.243156 271.98942613 215.18468266 272.01892942 208.12557507 C272.03344835 204.39075665 272.03375403 200.6571708 271.99952888 196.92245483 C271.96159884 192.74695105 271.98632165 188.57400949 272.01586914 184.3984375 C271.99488663 183.17001633 271.97390411 181.94159515 271.95228577 180.6759491 C272.07088038 173.10573705 273.47286029 169.15179543 278.89397335 163.79067993 C281 162 281 162 283.26178074 160.3843689 C283.8353931 159.92752716 284.40900545 159.47068542 285 159 C285 158.34 285 157.68 285 157 C285.5775 156.7525 286.155 156.505 286.75 156.25 C289.32939979 154.81700012 291.06121592 153.21575324 293 151 C293 150.34 293 149.68 293 149 C293.57073242 148.75378906 294.14146484 148.50757813 294.72949219 148.25390625 C297.3784281 146.79101003 299.18548546 145.07354681 301.328125 142.9375 C302.12734375 142.14085937 302.9265625 141.34421875 303.75 140.5234375 C304.575 139.69070312 305.4 138.85796875 306.25 138 C307.51070313 136.75089844 307.51070313 136.75089844 308.796875 135.4765625 C309.98796875 134.28160156 309.98796875 134.28160156 311.203125 133.0625 C312.29608887 131.96615234 312.29608887 131.96615234 313.41113281 130.84765625 C315.21733721 129.15340858 315.21733721 129.15340858 315 127 C315.556875 126.79375 316.11375 126.5875 316.6875 126.375 C320.7748058 123.94471007 323.50461882 120.48614354 325 116 C325.23295726 113.88349603 325.23295726 113.88349603 325.25 111.625 C325.27578125 110.87476562 325.3015625 110.12453125 325.328125 109.3515625 C324.61516606 104.24202341 321.02544103 100.76985615 317.5078125 97.2421875 C316.63769531 96.36949219 315.76757812 95.49679688 314.87109375 94.59765625 C313.96488281 93.69917969 313.05867188 92.80070312 312.125 91.875 C311.22652344 90.96878906 310.32804687 90.06257813 309.40234375 89.12890625 C308.52964844 88.25878906 307.65695312 87.38867188 306.7578125 86.4921875 C305.9652002 85.70183105 305.17258789 84.91147461 304.35595703 84.09716797 C299.72905581 79.97850667 296.31128196 78.40192614 290.19140625 78.6640625 C283.01009533 79.76494082 277.79369745 87.01455465 273 92 C272.95101562 91.01257813 272.90203125 90.02515625 272.8515625 89.0078125 C272.73941406 87.08582031 272.73941406 87.08582031 272.625 85.125 C272.55539062 83.84882812 272.48578125 82.57265625 272.4140625 81.2578125 C272.32758894 77.91938301 272.32758894 77.91938301 270 76 C267.69503976 75.70756747 267.69503976 75.70756747 264.99951172 75.77294922 C263.95858368 75.77310028 262.91765564 75.77325134 261.84518433 75.77340698 C260.71807037 75.78372955 259.59095642 75.79405212 258.4296875 75.8046875 C257.27832306 75.8075174 256.12695862 75.81034729 254.94070435 75.81326294 C251.25203188 75.82448592 247.56359947 75.84959444 243.875 75.875 C241.37890975 75.88502706 238.8828157 75.89415338 236.38671875 75.90234375 C230.25773016 75.92443216 224.12888223 75.95793053 218 76 C218.00523682 75.06615479 218.01047363 74.13230957 218.01586914 73.17016602 C218.0328762 69.71687204 218.04543302 66.26362233 218.05493164 62.81030273 C218.05997121 61.31355082 218.06680287 59.81680384 218.07543945 58.32006836 C218.08752159 56.17300193 218.09323191 54.02600038 218.09765625 51.87890625 C218.10289307 50.5854126 218.10812988 49.29191895 218.11352539 47.95922852 C218.33996932 45.11347596 218.33996932 45.11347596 217 44 C214.56119823 43.90009511 212.15065736 43.8655805 209.71130371 43.87301636 C208.93936346 43.87145637 208.1674232 43.86989638 207.37209082 43.86828911 C204.76561969 43.86427608 202.15920602 43.86746992 199.55273438 43.87060547 C197.69216375 43.86925156 195.8315934 43.86747169 193.97102356 43.86529541 C188.9029888 43.86071981 183.8349743 43.86251115 178.76693916 43.8656745 C173.47560698 43.86819745 168.18427659 43.86586074 162.89294434 43.86428833 C154.00528653 43.86246644 145.11763702 43.86487344 136.22998047 43.86962891 C125.93884221 43.87507156 115.64772376 43.87330892 105.35658598 43.8678025 C96.53793782 43.86327191 87.71929564 43.86262056 78.90064669 43.86524117 C73.62615922 43.86680424 68.35168109 43.86699689 63.07719421 43.86370468 C58.11968237 43.86082675 53.16219618 43.86280022 48.20468712 43.86859894 C46.37969188 43.86992696 44.55469449 43.86953172 42.72970009 43.86733627 C40.24933582 43.8646264 37.76905515 43.86800388 35.28869629 43.87301636 C34.55690202 43.87078564 33.82510776 43.86855491 33.07113791 43.86625659 C29.75212111 43.5899968 29.75212111 43.5899968 27 45 Z " fill="#F8F8F8" transform="translate(0,0)"/>
<path d="M0 0 C59.07 0 118.14 0 179 0 C179 20.04960329 179 20.04960329 172.62692261 26.43490601 C171.21746872 27.70958237 171.21746872 27.70958237 169.77954102 29.01000977 C168.78525577 29.97292801 167.79505287 30.94007636 166.80860901 31.911026 C164.69198077 33.97791723 162.55081848 36.01360859 160.38510323 38.02899361 C156.94309411 41.23429556 153.57232017 44.50867422 150.20799255 47.79515076 C143.65119829 54.18251793 137.0324722 60.50324466 130.4010849 66.81301117 C121.99133223 74.81523525 113.59639507 82.83073049 105.28815788 90.93849224 C102.49691345 93.65832462 99.69138087 96.358447 96.84155464 99.01693916 C82.84993432 112.0753984 73.43054667 123.71716901 68.68519497 142.86080837 C68 145 68 145 66 147 C64.515 146.01 64.515 146.01 63 145 C60.42164261 144.79257351 57.95386335 144.69594892 55.375 144.69921875 C54.2600415 144.69279106 54.2600415 144.69279106 53.12255859 144.68623352 C51.55241921 144.68049549 49.98225325 144.67998609 48.41210938 144.68432617 C46.00865451 144.68748861 43.6064279 144.66401383 41.203125 144.63867188 C39.67708489 144.63639907 38.15104146 144.6356953 36.625 144.63671875 C35.54677979 144.62290413 35.54677979 144.62290413 34.44677734 144.60881042 C31.70129654 144.63430406 29.50076731 144.73508319 27.04833984 146.0324707 C25.37717451 149.1689219 25.57313472 152.37640974 25.6015625 155.84375 C25.59869232 156.60925171 25.59582214 157.37475342 25.59286499 158.16345215 C25.590825 159.78068787 25.59635037 161.3979483 25.60888672 163.01513672 C25.62494242 165.49112091 25.60903703 167.96547285 25.58984375 170.44140625 C25.59182619 172.01302444 25.5956699 173.58464161 25.6015625 175.15625 C25.59548981 175.89693726 25.58941711 176.63762451 25.5831604 177.40075684 C25.62161522 180.20996551 25.71232904 182.4681486 27.06420898 184.9675293 C30.0642559 186.56762999 33.05582264 186.40728917 36.37109375 186.36328125 C37.44920067 186.36402901 37.44920067 186.36402901 38.54908752 186.36479187 C40.06799079 186.36245334 41.58689806 186.35273767 43.10571289 186.33618164 C45.42564737 186.31262038 47.74442963 186.31561799 50.06445312 186.32226562 C51.54167349 186.31668743 53.01888903 186.30957666 54.49609375 186.30078125 C55.53376137 186.30214836 55.53376137 186.30214836 56.59239197 186.30354309 C60.18432339 186.25092536 63.01461786 186.11394816 66 184 C66.65602521 181.91297873 66.65602521 181.91297873 66.8125 179.5625 C67.26953125 177.12109375 67.26953125 177.12109375 68 175 C70.59758677 173.37650827 72.13251778 172.72628537 75 172 C76.43809579 171.56446242 77.87554211 171.12677728 79.3125 170.6875 C80.15425781 170.44257813 80.99601562 170.19765625 81.86328125 169.9453125 C91.76143688 166.96230669 101.66306459 163.78110425 111.15234375 159.6640625 C113 159 113 159 116 159 C116.32139954 158.19160675 116.32139954 158.19160675 116.64929199 157.36688232 C118.48897459 154.14315654 120.99780357 151.72386264 123.61132812 149.12988281 C124.47013832 148.26581566 124.47013832 148.26581566 125.34629822 147.3842926 C127.2362881 145.4855142 129.13348298 143.59412809 131.03125 141.703125 C132.34668788 140.38634002 133.66182873 139.06925826 134.97668457 137.75189209 C137.73072645 134.99490316 140.48835014 132.24156091 143.24853516 129.49072266 C146.79309114 125.95758329 150.32856402 122.41551214 153.86142731 118.87068558 C156.5737708 116.15113133 159.29083963 113.43633859 162.00938416 110.72298431 C163.31545512 109.41825086 164.62003283 108.1120209 165.92311096 106.8042984 C167.74018158 104.98217305 169.56349708 103.16654158 171.38867188 101.35253906 C171.93003281 100.80712967 172.47139374 100.26172028 173.02915955 99.69978333 C176.77146868 96 176.77146868 96 179 96 C179 136.92 179 177.84 179 220 C119.93 220 60.86 220 0 220 C0 147.4 0 74.8 0 0 Z " fill="#FDFEFE" transform="translate(87,82)"/>
<path d="M0 0 C59.07 0 118.14 0 179 0 C179 8.91 179 17.82 179 27 C136.1 27 93.2 27 49 27 C49 29.64 49 32.28 49 35 C48.35450195 35.01458252 47.70900391 35.02916504 47.04394531 35.04418945 C44.11203427 35.1187787 41.18124835 35.2154024 38.25 35.3125 C37.23421875 35.33505859 36.2184375 35.35761719 35.171875 35.38085938 C34.1921875 35.41630859 33.2125 35.45175781 32.203125 35.48828125 C30.85202637 35.52755737 30.85202637 35.52755737 29.47363281 35.56762695 C26.5381268 36.08073208 25.14599801 36.95502916 23 39 C21.30933684 44.07198948 21.7746798 49.46083808 21.75976562 54.76904297 C21.75006605 56.86075706 21.71903238 58.95148537 21.6875 61.04296875 C21.6809686 62.38020253 21.67571867 63.7174433 21.671875 65.0546875 C21.6625293 66.26624512 21.65318359 67.47780273 21.64355469 68.72607422 C22.03150363 72.28935873 22.85728665 74.15761185 25 77 C27.46120841 78.23060421 29.25776866 78.2057723 32.0078125 78.31640625 C32.99394531 78.35830078 33.98007813 78.40019531 34.99609375 78.44335938 C36.02863281 78.48267578 37.06117187 78.52199219 38.125 78.5625 C39.68541016 78.62727539 39.68541016 78.62727539 41.27734375 78.69335938 C43.8513983 78.79962768 46.42568131 78.90033527 49 79 C49 82.63 49 86.26 49 90 C46.56173828 90.05607422 46.56173828 90.05607422 44.07421875 90.11328125 C41.94528904 90.17893106 39.81638383 90.24537874 37.6875 90.3125 C36.61564453 90.33505859 35.54378906 90.35761719 34.43945312 90.38085938 C33.41142578 90.41630859 32.38339844 90.45175781 31.32421875 90.48828125 C30.37635498 90.51446533 29.42849121 90.54064941 28.4519043 90.56762695 C25.6097748 91.06881299 24.73916589 91.74706027 23 94 C20.80937584 98.38124831 21.73167198 104.25331344 21.70483398 109.12084961 C21.68764551 111.29410239 21.64376193 113.46582346 21.59960938 115.63867188 C21.58947974 117.0260305 21.58096448 118.41340204 21.57421875 119.80078125 C21.55963623 121.06059814 21.54505371 122.32041504 21.5300293 123.6184082 C22.0900267 127.6477713 22.99587436 129.27912684 26 132 C28.58517004 132.77060197 28.58517004 132.77060197 31.421875 132.70703125 C32.44667969 132.73603516 33.47148438 132.76503906 34.52734375 132.79492188 C35.59082031 132.80072266 36.65429688 132.80652344 37.75 132.8125 C38.82894531 132.83763672 39.90789062 132.86277344 41.01953125 132.88867188 C43.67929547 132.94751622 46.3396876 132.97662665 49 133 C49 137.62 49 142.24 49 147 C46.57914063 147.02126953 46.57914063 147.02126953 44.109375 147.04296875 C41.98955466 147.08986743 39.86976387 147.13811482 37.75 147.1875 C36.15478516 147.19620117 36.15478516 147.19620117 34.52734375 147.20507812 C33.50253906 147.23408203 32.47773437 147.26308594 31.421875 147.29296875 C30.47924805 147.3086792 29.53662109 147.32438965 28.56542969 147.34057617 C25.82282181 147.83208682 25.82282181 147.83208682 23.69433594 150.10083008 C21.60612803 153.6739524 21.48374938 155.96892012 21.46875 160.09375 C21.46300964 161.09746643 21.46300964 161.09746643 21.45715332 162.12145996 C21.45444277 163.53004469 21.46174408 164.93868048 21.47851562 166.34716797 C21.49994325 168.49431339 21.47869088 170.63811397 21.453125 172.78515625 C21.45576844 174.1588615 21.46089375 175.53256467 21.46875 176.90625 C21.47326172 178.14697266 21.47777344 179.38769531 21.48242188 180.66601562 C22.09930784 184.63969238 23.03723912 186.30044924 26 189 C28.58517004 189.77060197 28.58517004 189.77060197 31.421875 189.70703125 C32.34581055 189.73514893 33.26974609 189.7632666 34.22167969 189.79223633 C35.96819824 189.80226685 35.96819824 189.80226685 37.75 189.8125 C41.4625 189.874375 45.175 189.93625 49 190 C49 199.9 49 209.8 49 220 C32.83 220 16.66 220 0 220 C0 147.4 0 74.8 0 0 Z " fill="#FEFEFE" transform="translate(33,49)"/>
<path d="M0 0 C5.94 0 11.88 0 18 0 C18 114.84 18 229.68 18 348 C-96.84 348 -211.68 348 -330 348 C-330 342.06 -330 336.12 -330 330 C-325.05 330 -320.1 330 -315 330 C-315 334.95 -315 339.9 -315 345 C-310.05 345 -305.1 345 -300 345 C-300 340.05 -300 335.1 -300 330 C-295.05 330 -290.1 330 -285 330 C-285 334.95 -285 339.9 -285 345 C-280.05 345 -275.1 345 -270 345 C-270 340.05 -270 335.1 -270 330 C-265.05 330 -260.1 330 -255 330 C-255 334.95 -255 339.9 -255 345 C-250.05 345 -245.1 345 -240 345 C-240 340.05 -240 335.1 -240 330 C-235.05 330 -230.1 330 -225 330 C-225 334.95 -225 339.9 -225 345 C-220.05 345 -215.1 345 -210 345 C-210 340.05 -210 335.1 -210 330 C-205.05 330 -200.1 330 -195 330 C-195 334.95 -195 339.9 -195 345 C-190.05 345 -185.1 345 -180 345 C-180 340.05 -180 335.1 -180 330 C-175.05 330 -170.1 330 -165 330 C-165 334.95 -165 339.9 -165 345 C-160.05 345 -155.1 345 -150 345 C-150 340.05 -150 335.1 -150 330 C-145.05 330 -140.1 330 -135 330 C-135 334.95 -135 339.9 -135 345 C-130.05 345 -125.1 345 -120 345 C-120 340.05 -120 335.1 -120 330 C-115.05 330 -110.1 330 -105 330 C-105 334.95 -105 339.9 -105 345 C-100.05 345 -95.1 345 -90 345 C-90 340.05 -90 335.1 -90 330 C-85.05 330 -80.1 330 -75 330 C-75 334.95 -75 339.9 -75 345 C-70.05 345 -65.1 345 -60 345 C-60 340.05 -60 335.1 -60 330 C-55.05 330 -50.1 330 -45 330 C-45 334.95 -45 339.9 -45 345 C-40.05 345 -35.1 345 -30 345 C-30 340.05 -30 335.1 -30 330 C-25.05 330 -20.1 330 -15 330 C-15 334.95 -15 339.9 -15 345 C-10.05 345 -5.1 345 0 345 C0 340.05 0 335.1 0 330 C4.95 330 9.9 330 15 330 C15 325.05 15 320.1 15 315 C10.05 315 5.1 315 0 315 C0 310.05 0 305.1 0 300 C4.95 300 9.9 300 15 300 C15 295.05 15 290.1 15 285 C10.05 285 5.1 285 0 285 C0 280.05 0 275.1 0 270 C4.95 270 9.9 270 15 270 C15 265.05 15 260.1 15 255 C10.05 255 5.1 255 0 255 C0 250.05 0 245.1 0 240 C4.95 240 9.9 240 15 240 C15 235.05 15 230.1 15 225 C10.05 225 5.1 225 0 225 C0 220.05 0 215.1 0 210 C4.95 210 9.9 210 15 210 C15 205.05 15 200.1 15 195 C10.05 195 5.1 195 0 195 C0 190.05 0 185.1 0 180 C4.95 180 9.9 180 15 180 C15 175.05 15 170.1 15 165 C10.05 165 5.1 165 0 165 C0 160.05 0 155.1 0 150 C4.95 150 9.9 150 15 150 C15 145.05 15 140.1 15 135 C10.05 135 5.1 135 0 135 C0 130.05 0 125.1 0 120 C4.95 120 9.9 120 15 120 C15 115.05 15 110.1 15 105 C10.05 105 5.1 105 0 105 C0 100.05 0 95.1 0 90 C4.95 90 9.9 90 15 90 C15 85.05 15 80.1 15 75 C10.05 75 5.1 75 0 75 C0 70.05 0 65.1 0 60 C4.95 60 9.9 60 15 60 C15 55.05 15 50.1 15 45 C10.05 45 5.1 45 0 45 C0 40.05 0 35.1 0 30 C4.95 30 9.9 30 15 30 C15 25.05 15 20.1 15 15 C10.05 15 5.1 15 0 15 C0 10.05 0 5.1 0 0 Z " fill="#FFFFFF" transform="translate(330,0)"/>
<path d="M0 0 C3.3247945 1.57588004 5.51631617 3.2817149 8.109375 5.9140625 C9.24052734 7.05488281 9.24052734 7.05488281 10.39453125 8.21875 C11.17183594 9.0128125 11.94914062 9.806875 12.75 10.625 C13.93916016 11.82769531 13.93916016 11.82769531 15.15234375 13.0546875 C17.10614493 15.03202846 19.05512103 17.01388909 21 19 C19.36725953 23.17181451 16.30994726 25.93579029 13.17333984 29.00610352 C12.28045006 29.89220306 12.28045006 29.89220306 11.36952209 30.79620361 C10.079055 32.07572742 8.78632059 33.35296768 7.49158859 34.62817574 C5.44484975 36.64475695 3.40485608 38.66793973 1.36660767 40.69309998 C-4.42879038 46.44873028 -10.23684401 52.19153102 -16.04785156 57.93139648 C-19.60307474 61.44400831 -23.15104208 64.96381804 -26.69477463 68.48801994 C-28.04833673 69.83098854 -29.40480718 71.17103222 -30.76417923 72.50811958 C-32.66026168 74.37315604 -34.54709635 76.24709663 -36.43212891 78.12329102 C-36.99938187 78.67661606 -37.56663483 79.2299411 -38.15107727 79.80003357 C-41.3517198 82.80559946 -41.3517198 82.80559946 -42 87 C-36.81318943 86.66256439 -34.18579937 83.72808746 -30.7409668 80.19506836 C-29.83278954 79.28776726 -29.83278954 79.28776726 -28.90626526 78.36213684 C-26.91095326 76.36404212 -24.93017639 74.35216217 -22.94921875 72.33984375 C-21.56718404 70.95034737 -20.18426249 69.56173255 -18.80049133 68.17396545 C-15.16335912 64.52157128 -11.53839946 60.85732406 -7.91583252 57.19049072 C-4.21613002 53.44984819 -0.50505786 49.72052362 3.20507812 45.99023438 C10.48123387 38.67119776 17.74458213 31.33959066 25 24 C27.31 25.98 29.62 27.96 32 30 C27.51789015 35.33007658 22.83806841 40.40734511 18.00805664 45.42285156 C17.22792206 46.23525803 16.44778748 47.04766449 15.64401245 47.88468933 C8.42830435 55.3834167 1.15702305 62.82790081 -6.13448238 70.25285721 C-11.01076452 75.22059816 -15.86643098 80.20542844 -20.67504883 85.23876953 C-62.24715802 128.71567191 -62.24715802 128.71567191 -90 133 C-90.71446289 132.38402954 -90.71446289 132.38402954 -91.44335938 131.75561523 C-92.07048828 131.21622314 -92.69761719 130.67683105 -93.34375 130.12109375 C-94.27477539 129.31949829 -94.27477539 129.31949829 -95.22460938 128.50170898 C-96.62105305 127.32053118 -98.05433196 126.18289273 -99.5 125.0625 C-101 123 -101 123 -100.79771423 120.09239197 C-97.09387243 98.7231693 -87.11110391 84.76873033 -71.71190715 70.08960414 C-69.15605011 67.63584561 -66.64736763 65.13464275 -64.13270569 62.6388092 C-59.39410167 57.94934412 -54.61637808 53.30207467 -49.82201248 48.66970783 C-44.35309997 43.3815231 -38.931192 38.04616299 -33.51214397 32.70696628 C-22.39179709 21.75251342 -11.21581024 10.85674617 0 0 Z " fill="#FEC406" transform="translate(259,114)"/>
<path d="M0 0 C4.95 0 9.9 0 15 0 C15 4.95 15 9.9 15 15 C19.95 15 24.9 15 30 15 C30 19.95 30 24.9 30 30 C34.95 30 39.9 30 45 30 C45 34.95 45 39.9 45 45 C49.95 45 54.9 45 60 45 C60 49.95 60 54.9 60 60 C64.95 60 69.9 60 75 60 C75 55.05 75 50.1 75 45 C79.95 45 84.9 45 90 45 C90 49.95 90 54.9 90 60 C76.21510694 61.29297003 62.45792958 61.1112075 48.625 61.0625 C46.13541757 61.05747545 43.64583415 61.05291423 41.15625 61.04882812 C35.104145 61.03789706 29.05207716 61.02123451 23 61 C22.97494385 60.06615479 22.9498877 59.13230957 22.92407227 58.17016602 C22.82913072 54.71674811 22.72988742 51.2635104 22.62768555 47.81030273 C22.58428187 46.31360731 22.54261087 44.81686061 22.50268555 43.32006836 C22.44511384 41.17285688 22.38138284 39.02590479 22.31640625 36.87890625 C22.27974854 35.5854126 22.24309082 34.29191895 22.20532227 32.95922852 C22.3332722 30.11444992 22.3332722 30.11444992 21 29 C18.57190849 28.88993812 16.17164473 28.84504263 13.74253845 28.84178162 C12.58969505 28.83437465 12.58969505 28.83437465 11.41356188 28.82681805 C8.81859759 28.81136675 6.22365817 28.80306191 3.62866211 28.79467773 C1.77631915 28.7851052 -0.07602158 28.77509549 -1.92835999 28.76467896 C-6.97358031 28.73755614 -12.01881006 28.71658665 -17.06406331 28.69667697 C-22.33052253 28.67486275 -27.59695245 28.64745181 -32.86338806 28.62062073 C-42.84355835 28.57063192 -52.82374484 28.52571613 -62.80394691 28.48259836 C-74.1629027 28.43327875 -85.5218291 28.37834112 -96.8807565 28.32291877 C-120.25381027 28.20900377 -143.62689221 28.10218557 -167 28 C-166.34 27.67 -165.68 27.34 -165 27 C-165 23.04 -165 19.08 -165 15 C-160.05 15 -155.1 15 -150 15 C-150 18.96 -150 22.92 -150 27 C-145.05 27 -140.1 27 -135 27 C-135 23.04 -135 19.08 -135 15 C-130.05 15 -125.1 15 -120 15 C-120 18.96 -120 22.92 -120 27 C-115.05 27 -110.1 27 -105 27 C-105 23.04 -105 19.08 -105 15 C-100.05 15 -95.1 15 -90 15 C-90 18.96 -90 22.92 -90 27 C-85.05 27 -80.1 27 -75 27 C-75 23.04 -75 19.08 -75 15 C-70.05 15 -65.1 15 -60 15 C-60 18.96 -60 22.92 -60 27 C-55.05 27 -50.1 27 -45 27 C-45 23.04 -45 19.08 -45 15 C-40.05 15 -35.1 15 -30 15 C-30 18.96 -30 22.92 -30 27 C-25.05 27 -20.1 27 -15 27 C-15 23.04 -15 19.08 -15 15 C-10.05 15 -5.1 15 0 15 C0 10.05 0 5.1 0 0 Z " fill="#FFFFFF" transform="translate(195,15)"/>
<path d="M0 0 C0.19840443 5.15927821 0.3432153 10.31631888 0.43945312 15.47851562 C0.47958095 17.23248993 0.53410049 18.98619831 0.60351562 20.73925781 C1.16219558 35.21564128 1.16219558 35.21564128 -1.53735352 39.36035156 C-3.62499279 40.96760165 -5.57706562 41.97730909 -8 43 C-9.32781385 43.77066663 -10.64965019 44.55173827 -11.96484375 45.34375 C-13.28633864 46.0674959 -14.61060489 46.78620296 -15.9375 47.5 C-21.19525853 50.38664837 -26.2876695 53.35794399 -31.203125 56.80859375 C-33 58 -33 58 -37 60 C-34.03 60.33 -31.06 60.66 -28 61 C-27.61781233 62.65614657 -27.28604898 64.32457024 -27 66 C-28 67 -28 67 -30.06616211 67.11010742 C-30.96085205 67.10857666 -31.85554199 67.1070459 -32.77734375 67.10546875 C-48.06731215 66.82465804 -48.06731215 66.82465804 -61 74 C-60.67 74.33 -60.34 74.66 -60 75 C-59.95936168 76.66617115 -59.957279 78.33388095 -60 80 C-65.03539677 80.02477487 -70.07075781 80.04289549 -75.10620117 80.05493164 C-76.81812152 80.05995099 -78.53003761 80.06676785 -80.24194336 80.07543945 C-82.70687922 80.08761021 -85.17175825 80.09325238 -87.63671875 80.09765625 C-88.77919319 80.10539818 -88.77919319 80.10539818 -89.94474792 80.11329651 C-93.76780456 80.11369736 -97.27909653 79.87873735 -101 79 C-102.43628457 78.93733488 -103.8750555 78.91313653 -105.3125 78.9375 C-107.1378125 78.9684375 -107.1378125 78.9684375 -109 79 C-105.8330864 76.88872427 -103.10956859 75.93321171 -99.49609375 74.7578125 C-98.85817398 74.54816864 -98.22025421 74.33852478 -97.56300354 74.12252808 C-95.52255318 73.45236515 -93.48023975 72.7881489 -91.4375 72.125 C-88.76822972 71.25653236 -86.10017177 70.38451266 -83.43359375 69.5078125 C-82.78941498 69.29650696 -82.14523621 69.08520142 -81.48153687 68.86749268 C-76.87736717 67.33879646 -72.39180162 65.61465196 -67.93774414 63.69482422 C-66 63 -66 63 -63 63 C-62.78573364 62.46107117 -62.57146729 61.92214233 -62.35070801 61.36688232 C-60.51102541 58.14315654 -58.00219643 55.72386264 -55.38867188 53.12988281 C-54.81613174 52.55383804 -54.24359161 51.97779327 -53.65370178 51.3842926 C-51.7637119 49.4855142 -49.86651702 47.59412809 -47.96875 45.703125 C-46.65331212 44.38634002 -45.33817127 43.06925826 -44.02331543 41.75189209 C-41.26927355 38.99490316 -38.51164986 36.24156091 -35.75146484 33.49072266 C-32.20690886 29.95758329 -28.67143598 26.41551214 -25.13857269 22.87068558 C-22.4262292 20.15113133 -19.70916037 17.43633859 -16.99061584 14.72298431 C-15.68454488 13.41825086 -14.37996717 12.1120209 -13.07688904 10.8042984 C-11.25981842 8.98217305 -9.43650292 7.16654158 -7.61132812 5.35253906 C-7.06996719 4.80712967 -6.52860626 4.26172028 -5.97084045 3.69978333 C-2.22853132 0 -2.22853132 0 0 0 Z " fill="#D3D5E6" transform="translate(266,178)"/>
<path d="M0 0 C0.66914429 -0.00004028 1.33828857 -0.00008057 2.02770996 -0.00012207 C3.43637533 0.00521721 4.84504154 0.02273242 6.25341797 0.05175781 C8.40034748 0.09363487 10.5441368 0.09282135 12.69140625 0.0859375 C24.40890626 0.17544666 24.40890626 0.17544666 28.90625 3.59375 C32.2001215 8.53455725 31.27812315 14.43032409 31.27685547 20.21728516 C31.28122166 22.45422902 31.31752697 24.68918738 31.35546875 26.92578125 C31.36133877 28.35415995 31.36530693 29.78254798 31.3671875 31.2109375 C31.37540527 32.50628418 31.38362305 33.80163086 31.39208984 35.13623047 C30.82724016 39.15603006 29.78987087 40.78709526 26.90625 43.59375 C21.70845096 45.32634968 16.15188104 44.8982725 10.70996094 44.94384766 C9.26090436 44.96041016 7.8119296 44.98770506 6.36328125 45.02587891 C4.26519784 45.08081506 2.16901937 45.10254062 0.0703125 45.1171875 C-1.80986572 45.1469165 -1.80986572 45.1469165 -3.72802734 45.17724609 C-8.11911296 44.41598869 -9.52719363 43.21194806 -12.09375 39.59375 C-12.59436116 36.80090648 -12.79793481 34.62747951 -12.7578125 31.84375 C-12.76259613 31.10801758 -12.76737976 30.37228516 -12.77230835 29.61425781 C-12.7756988 28.06443127 -12.76655592 26.51453239 -12.74560547 24.96484375 C-12.71882002 22.59993214 -12.74537417 20.23976498 -12.77734375 17.875 C-12.77403949 16.36457292 -12.7676329 14.85414877 -12.7578125 13.34375 C-12.76793365 12.6415332 -12.77805481 11.93931641 -12.78848267 11.21582031 C-12.70112243 7.53429801 -12.14598703 5.66712741 -9.99560547 2.64648438 C-6.39370027 0.09854403 -4.38495105 -0.02505686 0 0 Z " fill="#252E87" transform="translate(124.09375,170.40625)"/>
<path d="M0 0 C1.0759845 0.00137466 1.0759845 0.00137466 2.17370605 0.0027771 C3.68667234 0.0088051 5.19962714 0.02452737 6.71240234 0.04931641 C9.0235611 0.08581607 11.33311436 0.09033565 13.64453125 0.08984375 C15.1172013 0.09967624 16.58986053 0.11133382 18.0625 0.125 C18.75114136 0.12722565 19.43978271 0.12945129 20.14929199 0.13174438 C23.74605829 0.20262572 26.54460402 0.35990769 29.53125 2.4609375 C32.82425496 7.40044494 31.86403056 13.29986173 31.84692383 19.08447266 C31.84377086 21.32113685 31.86720255 23.55646874 31.89257812 25.79296875 C31.89485202 27.22135251 31.8955542 28.6497398 31.89453125 30.078125 C31.89751221 31.37347168 31.90049316 32.66881836 31.90356445 34.00341797 C31.508992 37.66763765 30.74878565 39.55310391 28.53125 42.4609375 C25.50676729 43.97317886 22.35908864 43.6651961 19.0390625 43.69921875 C17.92553909 43.71132637 17.92553909 43.71132637 16.78952026 43.72367859 C15.21761407 43.73751467 13.64567788 43.74823896 12.07373047 43.75610352 C9.6722717 43.77332262 7.27218782 43.8172103 4.87109375 43.86132812 C3.34376012 43.87145479 1.81641479 43.87997098 0.2890625 43.88671875 C-0.42772675 43.90422684 -1.14451599 43.92173492 -1.88302612 43.93977356 C-5.10208507 43.92579982 -7.17054433 43.64733832 -9.92041016 41.9284668 C-12.05507613 38.52653224 -12.04306601 35.45012589 -12 31.5546875 C-12.0038269 30.79297241 -12.00765381 30.03125732 -12.01159668 29.24645996 C-12.01431313 27.63939082 -12.00697044 26.03227726 -11.99023438 24.42529297 C-11.96881786 21.96872163 -11.99004178 19.51507439 -12.015625 17.05859375 C-12.01298167 15.49478523 -12.00785658 13.93097852 -12 12.3671875 C-12.00809692 11.63479858 -12.01619385 10.90240967 -12.02453613 10.14782715 C-11.96474733 6.88771388 -11.66417999 4.76852043 -9.90234375 1.99560547 C-6.62299491 -0.07241086 -3.7564576 -0.07839229 0 0 Z " fill="#1D2685" transform="translate(123.46875,116.5390625)"/>
<path d="M0 0 C1.16527725 -0.00274933 2.3305545 -0.00549866 3.53114319 -0.0083313 C4.81075928 -0.00114075 6.09037537 0.0060498 7.4087677 0.01345825 C8.76879874 0.01402235 10.1288304 0.01370583 11.48886108 0.01257324 C15.18283371 0.01199867 18.87667685 0.02376977 22.57061934 0.03772116 C26.43034318 0.05021119 30.29006987 0.05139765 34.14981079 0.05377197 C41.45959521 0.05999183 48.76931991 0.07640947 56.07907802 0.09647095 C64.40062536 0.11881424 72.72217553 0.12981943 81.0437454 0.13986182 C98.16260673 0.16077527 115.28140616 0.19636322 132.40022278 0.24050903 C132.40022278 3.87050903 132.40022278 7.50050903 132.40022278 11.24050903 C89.50022278 11.24050903 46.60022278 11.24050903 2.40022278 11.24050903 C2.40022278 13.88050903 2.40022278 16.52050903 2.40022278 19.24050903 C1.74022278 18.91050903 1.08022278 18.58050903 0.40022278 18.24050903 C-1.14001718 18.17100362 -2.6831271 18.15598546 -4.22477722 18.17800903 C-5.04204285 18.18703247 -5.85930847 18.19605591 -6.70133972 18.20535278 C-7.3278241 18.21695435 -7.95430847 18.22855591 -8.59977722 18.24050903 C-8.68051925 15.61489794 -8.74013952 12.99175227 -8.78727722 10.36550903 C-8.81241394 9.61914185 -8.83755066 8.87277466 -8.8634491 8.10379028 C-8.89274597 5.93582153 -8.89274597 5.93582153 -8.59977722 2.24050903 C-5.18710599 -0.03460512 -4.00536147 -0.00727586 0 0 Z " fill="#D6D8E8" transform="translate(79.59977722167969,64.75949096679688)"/>
<path d="M0 0 C4.95 0 9.9 0 15 0 C15 3.96 15 7.92 15 12 C76.38 12.33 137.76 12.66 201 13 C201 13.33 201 13.66 201 14 C138.96 14.33 76.92 14.66 13 15 C12.67 24.57 12.34 34.14 12 44 C11 45 11 45 8.49609375 45.09765625 C5.6640625 45.06510417 2.83203125 45.03255208 0 45 C0 49.95 0 54.9 0 60 C-4.95 60 -9.9 60 -15 60 C-15 45.15 -15 30.3 -15 15 C-10.05 15 -5.1 15 0 15 C0 10.05 0 5.1 0 0 Z " fill="#FFFFFF" transform="translate(15,30)"/>
<path d="M0 0 C2.31 1.98 4.62 3.96 7 6 C2.42894581 11.48332769 -2.42594541 16.56298829 -7.48388672 21.59741211 C-8.31381638 22.42748779 -9.14374603 23.25756348 -9.99882507 24.11279297 C-12.72341379 26.83668894 -15.45151995 29.55703263 -18.1796875 32.27734375 C-20.07705199 34.17284179 -21.97421834 36.06853607 -23.87112427 37.9644928 C-28.34195434 42.43222586 -32.81532534 46.89740564 -37.28963482 51.36165386 C-42.38719227 56.44799929 -47.48188019 61.53721486 -52.57633948 66.62666309 C-63.04772258 77.08761876 -73.52267093 87.54499952 -84 98 C-86.23558321 96.92878304 -88.06601411 95.94636354 -90 94.375 C-92.14485112 92.62231412 -92.14485112 92.62231412 -96 93 C-96.30313039 89.93460647 -96.31624602 88.4509907 -94.51879883 85.88769531 C-93.83841553 85.20803711 -93.15803223 84.52837891 -92.45703125 83.828125 C-91.34038086 82.70857422 -91.34038086 82.70857422 -90.20117188 81.56640625 C-89.41291016 80.80199219 -88.62464844 80.03757812 -87.8125 79.25 C-87.04357422 78.47011719 -86.27464844 77.69023437 -85.48242188 76.88671875 C-79.32233428 70.80594558 -79.32233428 70.80594558 -74 70 C-72.11937784 68.69840962 -72.11937784 68.69840962 -70.5 67.0625 C-68.58168916 65.22110257 -67.32443034 64.10534109 -64.7759552 63.27786255 C-61.06516302 61.5696641 -58.56177921 58.95651426 -55.7409668 56.08154297 C-55.13551529 55.47652954 -54.53006378 54.87151611 -53.90626526 54.24816895 C-51.91338655 52.25320573 -49.93133567 50.24783877 -47.94921875 48.2421875 C-46.56696548 46.8543371 -45.18404694 45.46714901 -43.80049133 44.08059692 C-40.16559755 40.43426372 -36.53980413 36.77901045 -32.91583252 33.12182617 C-29.21431654 29.38959011 -25.50426465 25.66586074 -21.79492188 21.94140625 C-14.52156844 14.63590455 -7.25780059 7.32095091 0 0 Z " fill="#D2A521" transform="translate(284,138)"/>
<path d="M0 0 C1.29349365 0.00523682 2.5869873 0.01047363 3.91967773 0.01586914 C4.9496714 0.01799156 4.9496714 0.01799156 6.00047302 0.02015686 C8.20144949 0.0257706 10.40232557 0.03832532 12.60327148 0.05102539 C14.09220231 0.05603863 15.58113473 0.06060184 17.07006836 0.06469727 C20.72700223 0.07574446 24.38387707 0.09301826 28.04077148 0.11352539 C28.09523639 2.31897565 28.13377307 4.52482228 28.16577148 6.73071289 C28.18897461 7.95902832 28.21217773 9.18734375 28.23608398 10.45288086 C27.99167492 15.03371773 26.73994228 18.64111434 24.91577148 22.80883789 C23.80414427 25.32591796 23.80414427 25.32591796 24.04077148 29.11352539 C25.36077148 29.11352539 26.68077148 29.11352539 28.04077148 29.11352539 C27.71077148 30.43352539 27.38077148 31.75352539 27.04077148 33.11352539 C22.78662526 33.13818161 18.53251651 33.15636438 14.27832031 33.16845703 C12.83007076 33.1734964 11.38182632 33.18032792 9.93359375 33.18896484 C7.8560256 33.20104786 5.77852451 33.2067575 3.70092773 33.21118164 C2.44932861 33.21641846 1.19772949 33.22165527 -0.09179688 33.22705078 C-2.95922852 33.11352539 -2.95922852 33.11352539 -3.95922852 32.11352539 C-4.05943781 29.83404748 -4.09004155 27.55145404 -4.09204102 25.26977539 C-4.09299774 24.58548462 -4.09395447 23.90119385 -4.09494019 23.19616699 C-4.09562181 21.74690662 -4.09376874 20.29764321 -4.08959961 18.84838867 C-4.08425104 16.62289611 -4.08954511 14.39760538 -4.09594727 12.17211914 C-4.09528648 10.76717078 -4.09400531 9.36222254 -4.09204102 7.95727539 C-4.09091309 6.67014648 -4.08978516 5.38301758 -4.08862305 4.05688477 C-3.91688209 0.15026402 -3.91688209 0.15026402 0 0 Z " fill="#83D688" transform="translate(120.959228515625,230.886474609375)"/>
<path d="M0 0 C4.28348729 1.07559942 5.99580731 2.48952643 9.11083984 5.58056641 C9.82489487 6.28601089 9.82489487 6.28601089 10.55337524 7.00570679 C11.55045427 7.99872389 12.54008093 8.99927498 13.52246094 10.00683594 C15.02129983 11.53782412 16.54949571 13.03412249 18.08349609 14.52978516 C19.05287348 15.50312777 20.02038776 16.47833018 20.98583984 17.45556641 C21.85772949 18.33422363 22.72961914 19.21288086 23.62792969 20.11816406 C26.06252479 23.48755903 26.51339139 25.79050536 26.64990234 29.91650391 C24.18515368 34.74741129 20.5330318 38.20988033 16.64990234 41.91650391 C13.84020767 40.63627516 11.79597854 39.30936262 9.62548828 37.11914062 C9.06520935 36.55871063 8.50493042 35.99828064 7.92767334 35.42086792 C7.33585266 34.81872467 6.74403198 34.21658142 6.13427734 33.59619141 C5.51844788 32.97753204 4.90261841 32.35887268 4.26812744 31.72146606 C2.30729898 29.74946577 0.35354934 27.77061654 -1.60009766 25.79150391 C-2.93036564 24.45120227 -4.26108965 23.11135308 -5.59228516 21.77197266 C-8.85019916 18.49203802 -12.10178299 15.20594449 -15.35009766 11.91650391 C-14.41265599 10.81118201 -13.47351872 9.70729807 -12.53369141 8.60400391 C-12.010896 7.98912109 -11.48810059 7.37423828 -10.94946289 6.74072266 C-4.93183532 -0.1229185 -4.93183532 -0.1229185 0 0 Z " fill="#F3877D" transform="translate(293.35009765625,84.08349609375)"/>
<path d="M0 0 C0.66209473 -0.00095673 1.32418945 -0.00191345 2.00634766 -0.00289917 C3.40852961 -0.00358076 4.8107147 -0.00172792 6.21289062 0.00244141 C8.36595713 0.00779004 10.51881502 0.0024958 12.671875 -0.00390625 C14.03125046 -0.00324546 15.3906258 -0.00196429 16.75 0 C18.61785156 0.00169189 18.61785156 0.00169189 20.5234375 0.00341797 C23.375 0.1328125 23.375 0.1328125 24.375 1.1328125 C24.41592937 3.46578683 24.41741723 5.79986475 24.375 8.1328125 C22.725 8.1328125 21.075 8.1328125 19.375 8.1328125 C19.045 9.1228125 18.715 10.1128125 18.375 11.1328125 C17.715 11.1328125 17.055 11.1328125 16.375 11.1328125 C16.375 11.7928125 16.375 12.4528125 16.375 13.1328125 C13.29274326 16.47926267 9.97352875 19.3568046 6.375 22.1328125 C4.91015625 20.83072917 3.4453125 19.52864583 1.98046875 18.2265625 C0.285552 16.85130009 0.285552 16.85130009 -2.625 17.1328125 C-2.40460279 20.98976375 -1.60953876 22.14897652 1.125 25.0078125 C4.04221009 27.31680641 4.04221009 27.31680641 6.625 27.20703125 C10.90020432 25.53702956 13.51678568 22.36875985 16.625 19.0703125 C17.87825559 17.76504934 19.13336069 16.46155856 20.390625 15.16015625 C20.94008789 14.57999756 21.48955078 13.99983887 22.05566406 13.40209961 C23.375 12.1328125 23.375 12.1328125 24.375 12.1328125 C24.375 19.0628125 24.375 25.9928125 24.375 33.1328125 C19.97836967 33.15572488 15.58194512 33.17565083 11.18530273 33.18774414 C9.68855082 33.19278371 8.19180384 33.19961537 6.69506836 33.20825195 C4.54800193 33.22033409 2.40100038 33.22604441 0.25390625 33.23046875 C-1.68633423 33.23832397 -1.68633423 33.23832397 -3.66577148 33.24633789 C-6.625 33.1328125 -6.625 33.1328125 -7.625 32.1328125 C-7.7252093 29.85333458 -7.75581303 27.57074115 -7.7578125 25.2890625 C-7.75876923 24.60477173 -7.75972595 23.92048096 -7.76071167 23.2154541 C-7.7613933 21.76619373 -7.75954023 20.31693032 -7.75537109 18.86767578 C-7.75002252 16.64218322 -7.7553166 14.41689249 -7.76171875 12.19140625 C-7.76105797 10.78645789 -7.7597768 9.38150965 -7.7578125 7.9765625 C-7.75668457 6.68943359 -7.75555664 5.40230469 -7.75439453 4.07617188 C-7.51795619 -1.30213124 -4.77417634 0.00432444 0 0 Z " fill="#82D588" transform="translate(124.625,121.8671875)"/>
<path d="M0 0 C4.39656173 -0.02465504 8.7930872 -0.04283842 13.18969727 -0.05493164 C14.68644918 -0.05997121 16.18319616 -0.06680287 17.67993164 -0.07543945 C19.82699807 -0.08752159 21.97399962 -0.09323191 24.12109375 -0.09765625 C26.06133423 -0.10551147 26.06133423 -0.10551147 28.04077148 -0.11352539 C31 0 31 0 32 1 C32.04092937 3.33297433 32.04241723 5.66705225 32 8 C31.154375 8.165 30.30875 8.33 29.4375 8.5 C25.30425468 10.30359796 23.47621848 12.55451435 20.7109375 16.02734375 C18.95274609 18.05448225 17.25231837 19.54585555 15 21 C11.57909891 20.79267266 10.32705578 19.32705578 8 17 C5.89667109 16.28552357 5.89667109 16.28552357 4 16 C5.31316991 21.6466306 7.24934893 23.92604931 12 27 C16.04984469 26.73736156 17.97220663 25.50986773 20.734375 22.62109375 C21.71857422 21.61079102 21.71857422 21.61079102 22.72265625 20.58007812 C23.39167969 19.87302734 24.06070313 19.16597656 24.75 18.4375 C26.09701037 17.03848641 27.44586516 15.64124549 28.796875 14.24609375 C29.38823242 13.62404053 29.97958984 13.0019873 30.58886719 12.36108398 C32 11 32 11 33 11 C33.02888146 14.31248187 33.04675799 17.62493167 33.0625 20.9375 C33.07087891 21.88302734 33.07925781 22.82855469 33.08789062 23.80273438 C33.09111328 24.70185547 33.09433594 25.60097656 33.09765625 26.52734375 C33.10289307 27.35999756 33.10812988 28.19265137 33.11352539 29.05053711 C33 31 33 31 32 32 C29.72052208 32.1002093 27.43792865 32.13081303 25.15625 32.1328125 C24.47195923 32.13376923 23.78766846 32.13472595 23.0826416 32.13571167 C21.63338123 32.1363933 20.18411782 32.13454023 18.73486328 32.13037109 C16.50937072 32.12502252 14.28407999 32.1303166 12.05859375 32.13671875 C10.65364539 32.13605797 9.24869715 32.1347768 7.84375 32.1328125 C6.55662109 32.13168457 5.26949219 32.13055664 3.94335938 32.12939453 C1 32 1 32 0 31 C-0.08790975 28.70848583 -0.10694038 26.41427476 -0.09765625 24.12109375 C-0.0962413 23.4344313 -0.09482635 22.74776886 -0.09336853 22.04029846 C-0.08775479 19.83932199 -0.07520007 17.63844591 -0.0625 15.4375 C-0.05748676 13.94856917 -0.05292355 12.45963676 -0.04882812 10.97070312 C-0.03778093 7.31376925 -0.02050713 3.65689442 0 0 Z " fill="#84D888" transform="translate(117,177)"/>
<path d="M0 0 C4.8492843 3.94709187 9.4256581 8.17464348 13.9375 12.5 C14.52942139 13.04551514 15.12134277 13.59103027 15.73120117 14.15307617 C19.91417959 18.22850101 19.91417959 18.22850101 20.37890625 22.40625 C20.19134766 23.69015625 20.19134766 23.69015625 20 25 C20.721875 24.731875 21.44375 24.46375 22.1875 24.1875 C25 24 25 24 27.8125 26.3125 C30 29 30 29 30 31 C15.15 35.95 15.15 35.95 0 41 C-3.3 37.7 -6.6 34.4 -10 31 C-9.31437999 26.20065994 -8.73585111 22.72555646 -7.1875 18.3203125 C-6.83429688 17.3096875 -6.48109375 16.2990625 -6.1171875 15.2578125 C-5.56417969 13.70707031 -5.56417969 13.70707031 -5 12.125 C-4.44699219 10.53945312 -4.44699219 10.53945312 -3.8828125 8.921875 C-1.14332217 1.14332217 -1.14332217 1.14332217 0 0 Z " fill="#FDFCFA" transform="translate(168,206)"/>
<path d="M0 0 C0.87454834 0.00523682 1.74909668 0.01047363 2.65014648 0.01586914 C3.50036377 0.0183667 4.35058105 0.02086426 5.2265625 0.0234375 C6.85742798 0.03709351 6.85742798 0.03709351 8.52124023 0.05102539 C11.96561523 0.07165039 15.40999023 0.09227539 18.95874023 0.11352539 C18.95874023 11.00352539 18.95874023 21.89352539 18.95874023 33.11352539 C13.79217773 33.14446289 13.79217773 33.14446289 8.52124023 33.17602539 C7.43399658 33.18512939 6.34675293 33.1942334 5.2265625 33.20361328 C3.95123657 33.20735962 3.95123657 33.20735962 2.65014648 33.21118164 C1.77559814 33.21641846 0.9010498 33.22165527 0 33.22705078 C-2.04125977 33.11352539 -2.04125977 33.11352539 -3.04125977 32.11352539 C-3.14146906 29.83404748 -3.1720728 27.55145404 -3.17407227 25.26977539 C-3.17502899 24.58548462 -3.17598572 23.90119385 -3.17697144 23.19616699 C-3.17765306 21.74690662 -3.17579999 20.29764321 -3.17163086 18.84838867 C-3.16628229 16.62289611 -3.17157636 14.39760538 -3.17797852 12.17211914 C-3.17731773 10.76717078 -3.17603656 9.36222254 -3.17407227 7.95727539 C-3.17294434 6.67014648 -3.17181641 5.38301758 -3.1706543 4.05688477 C-2.99964143 0.16682613 -2.99964143 0.16682613 0 0 Z " fill="#6EB087" transform="translate(63.041259765625,200.886474609375)"/>
<path d="M0 0 C0.87454834 0.00523682 1.74909668 0.01047363 2.65014648 0.01586914 C3.50036377 0.0183667 4.35058105 0.02086426 5.2265625 0.0234375 C6.85742798 0.03709351 6.85742798 0.03709351 8.52124023 0.05102539 C11.96561523 0.07165039 15.40999023 0.09227539 18.95874023 0.11352539 C18.95874023 11.00352539 18.95874023 21.89352539 18.95874023 33.11352539 C13.79217773 33.14446289 13.79217773 33.14446289 8.52124023 33.17602539 C7.43399658 33.18512939 6.34675293 33.1942334 5.2265625 33.20361328 C3.95123657 33.20735962 3.95123657 33.20735962 2.65014648 33.21118164 C1.77559814 33.21641846 0.9010498 33.22165527 0 33.22705078 C-2.04125977 33.11352539 -2.04125977 33.11352539 -3.04125977 32.11352539 C-3.14146906 29.83404748 -3.1720728 27.55145404 -3.17407227 25.26977539 C-3.17502899 24.58548462 -3.17598572 23.90119385 -3.17697144 23.19616699 C-3.17765306 21.74690662 -3.17579999 20.29764321 -3.17163086 18.84838867 C-3.16628229 16.62289611 -3.17157636 14.39760538 -3.17797852 12.17211914 C-3.17731773 10.76717078 -3.17603656 9.36222254 -3.17407227 7.95727539 C-3.17294434 6.67014648 -3.17181641 5.38301758 -3.1706543 4.05688477 C-2.99964143 0.16682613 -2.99964143 0.16682613 0 0 Z " fill="#6EB087" transform="translate(63.041259765625,143.886474609375)"/>
<path d="M0 0 C0.87454834 0.00523682 1.74909668 0.01047363 2.65014648 0.01586914 C3.50036377 0.0183667 4.35058105 0.02086426 5.2265625 0.0234375 C6.85742798 0.03709351 6.85742798 0.03709351 8.52124023 0.05102539 C11.96561523 0.07165039 15.40999023 0.09227539 18.95874023 0.11352539 C18.95874023 10.67352539 18.95874023 21.23352539 18.95874023 32.11352539 C13.79217773 32.14446289 13.79217773 32.14446289 8.52124023 32.17602539 C7.43399658 32.18512939 6.34675293 32.1942334 5.2265625 32.20361328 C3.95123657 32.20735962 3.95123657 32.20735962 2.65014648 32.21118164 C1.77559814 32.21641846 0.9010498 32.22165527 0 32.22705078 C-2.04125977 32.11352539 -2.04125977 32.11352539 -3.04125977 31.11352539 C-3.14138378 28.90701883 -3.17207156 26.69730153 -3.17407227 24.48852539 C-3.17502899 23.82643066 -3.17598572 23.16433594 -3.17697144 22.48217773 C-3.17765303 21.07999578 -3.17580018 19.67781069 -3.17163086 18.27563477 C-3.16628223 16.12256826 -3.17157646 13.96971037 -3.17797852 11.81665039 C-3.17731773 10.45727493 -3.17603656 9.0978996 -3.17407227 7.73852539 C-3.17294434 6.49329102 -3.17181641 5.24805664 -3.1706543 3.96508789 C-2.99829828 0.16675143 -2.99829828 0.16675143 0 0 Z " fill="#84D989" transform="translate(63.041259765625,89.886474609375)"/>
<path d="M0 0 C0.33 0 0.66 0 1 0 C1 2.97 1 5.94 1 9 C4.96 9 8.92 9 13 9 C13 13.95 13 18.9 13 24 C17.95 24 22.9 24 28 24 C28 28.95 28 33.9 28 39 C18.76 39 9.52 39 0 39 C0 26.13 0 13.26 0 0 Z " fill="#FFFFFF" transform="translate(272,171)"/>
<path d="M0 0 C2.80969467 1.28022875 4.8539238 2.60714129 7.02441406 4.79736328 C7.86483246 5.63800827 7.86483246 5.63800827 8.722229 6.49563599 C9.31404968 7.09777924 9.90587036 7.69992249 10.515625 8.3203125 C11.13145447 8.93897186 11.74728394 9.55763123 12.3817749 10.19503784 C14.34260336 12.16703814 16.29635301 14.14588737 18.25 16.125 C19.58026799 17.46530164 20.910992 18.80515083 22.2421875 20.14453125 C25.5001015 23.42446589 28.75168533 26.71055942 32 30 C31.06409496 31.1055189 30.12620142 32.20935453 29.1875 33.3125 C28.66542969 33.92738281 28.14335937 34.54226562 27.60546875 35.17578125 C26.12827531 36.85424679 24.59960869 38.43882034 23 40 C20.19030533 38.71977125 18.1460762 37.39285871 15.97558594 35.20263672 C15.41530701 34.64220673 14.85502808 34.08177673 14.277771 33.50436401 C13.68595032 32.90222076 13.09412964 32.30007751 12.484375 31.6796875 C11.86854553 31.06102814 11.25271606 30.44236877 10.6182251 29.80496216 C8.65739664 27.83296186 6.70364699 25.85411263 4.75 23.875 C3.41973201 22.53469836 2.089008 21.19484917 0.7578125 19.85546875 C-2.5001015 16.57553411 -5.75168533 13.28944058 -9 10 C-8.06409496 8.8944811 -7.12620142 7.79064547 -6.1875 6.6875 C-5.66542969 6.07261719 -5.14335937 5.45773438 -4.60546875 4.82421875 C-3.12827531 3.14575321 -1.59960869 1.56117966 0 0 Z " fill="#D5D7E8" transform="translate(273,100)"/>
<path d="M0 0 C2.31 0 4.62 0 7 0 C7 4.95 7 9.9 7 15 C11.95 15 16.9 15 22 15 C22 10.05 22 5.1 22 0 C26.95 0 31.9 0 37 0 C37 4.95 37 9.9 37 15 C41.95 15 46.9 15 52 15 C52 10.05 52 5.1 52 0 C56.95 0 61.9 0 67 0 C67 4.95 67 9.9 67 15 C53.21510694 16.29297003 39.45792958 16.1112075 25.625 16.0625 C23.13541757 16.05747545 20.64583415 16.05291423 18.15625 16.04882812 C12.10414213 16.03789706 6.05208207 16.0206849 0 16 C0 10.72 0 5.44 0 0 Z " fill="#FFFFFF" transform="translate(218,60)"/>
<path d="M0 0 C0.02465622 4.25414623 0.04283899 8.50825498 0.05493164 12.76245117 C0.05997101 14.21070073 0.06680253 15.65894517 0.07543945 17.10717773 C0.08752247 19.18474588 0.09323211 21.26224697 0.09765625 23.33984375 C0.10551147 25.21724243 0.10551147 25.21724243 0.11352539 27.13256836 C0 30 0 30 -1 31 C-2.92667507 31.08748207 -4.85651861 31.10697334 -6.78515625 31.09765625 C-7.95498047 31.09443359 -9.12480469 31.09121094 -10.33007812 31.08789062 C-12.17762695 31.07532227 -12.17762695 31.07532227 -14.0625 31.0625 C-15.91584961 31.05573242 -15.91584961 31.05573242 -17.80664062 31.04882812 C-20.87111413 31.03699618 -23.93556293 31.01906008 -27 31 C-27 26.05 -27 21.1 -27 16 C-22.05 16 -17.1 16 -12 16 C-12 11.05 -12 6.1 -12 1 C-1.125 0 -1.125 0 0 0 Z " fill="#FFFFFF" transform="translate(27,194)"/>
<path d="M0 0 C0.02465622 4.25414623 0.04283899 8.50825498 0.05493164 12.76245117 C0.05997101 14.21070073 0.06680253 15.65894517 0.07543945 17.10717773 C0.08752247 19.18474588 0.09323211 21.26224697 0.09765625 23.33984375 C0.10551147 25.21724243 0.10551147 25.21724243 0.11352539 27.13256836 C0 30 0 30 -1 31 C-2.92667507 31.08748207 -4.85651861 31.10697334 -6.78515625 31.09765625 C-7.95498047 31.09443359 -9.12480469 31.09121094 -10.33007812 31.08789062 C-12.17762695 31.07532227 -12.17762695 31.07532227 -14.0625 31.0625 C-15.91584961 31.05573242 -15.91584961 31.05573242 -17.80664062 31.04882812 C-20.87111413 31.03699618 -23.93556293 31.01906008 -27 31 C-27 26.05 -27 21.1 -27 16 C-22.05 16 -17.1 16 -12 16 C-12 11.05 -12 6.1 -12 1 C-1.125 0 -1.125 0 0 0 Z " fill="#FFFFFF" transform="translate(27,74)"/>
<path d="M0 0 C3.5057621 -0.10016463 6.58237805 0.23103506 10 1 C10.928125 1.185625 11.85625 1.37125 12.8125 1.5625 C13.534375 1.706875 14.25625 1.85125 15 2 C14.61310915 4.36656609 14.32610068 5.68288281 12.58203125 7.37890625 C11.99808594 7.76949219 11.41414063 8.16007813 10.8125 8.5625 C10.18859375 8.98015625 9.5646875 9.3978125 8.921875 9.828125 C6.35816808 11.39136093 3.72322297 12.73801862 1 14 C1.495 14.495 1.495 14.495 2 15 C2.04063832 16.66617115 2.042721 18.33388095 2 20 C-3.03539677 20.02477487 -8.07075781 20.04289549 -13.10620117 20.05493164 C-14.81812152 20.05995099 -16.53003761 20.06676785 -18.24194336 20.07543945 C-20.70687922 20.08761021 -23.17175825 20.09325238 -25.63671875 20.09765625 C-26.77919319 20.10539818 -26.77919319 20.10539818 -27.94474792 20.11329651 C-31.76780456 20.11369736 -35.27909653 19.87873735 -39 19 C-40.43628457 18.93733488 -41.8750555 18.91313653 -43.3125 18.9375 C-44.529375 18.958125 -45.74625 18.97875 -47 19 C-43.8330864 16.88872427 -41.10956859 15.93321171 -37.49609375 14.7578125 C-36.85817398 14.54816864 -36.22025421 14.33852478 -35.56300354 14.12252808 C-33.52255318 13.45236515 -31.48023975 12.7881489 -29.4375 12.125 C-26.76822972 11.25653236 -24.10017177 10.38451266 -21.43359375 9.5078125 C-20.78941498 9.29650696 -20.14523621 9.08520142 -19.48153687 8.86749268 C-14.87736717 7.33879646 -10.39180162 5.61465196 -5.93774414 3.69482422 C-4 3 -4 3 -1 3 C-0.67 2.01 -0.34 1.02 0 0 Z " fill="#CCCEE3" transform="translate(204,238)"/>
<path d="M0 0 C4.95 0 9.9 0 15 0 C15 3.96 15 7.92 15 12 C76.38 12.33 137.76 12.66 201 13 C201 13.33 201 13.66 201 14 C134.67 14.33 68.34 14.66 0 15 C0 10.05 0 5.1 0 0 Z " fill="#C2C4DA" transform="translate(15,30)"/>
<path d="M0 0 C0.33 0 0.66 0 1 0 C1.33 10.23 1.66 20.46 2 31 C63.71 31.33 125.42 31.66 189 32 C189 32.33 189 32.66 189 33 C129.6 33.33 70.2 33.66 9 34 C9 35.98 9 37.96 9 40 C4.05 40 -0.9 40 -6 40 C-6 35.05 -6 30.1 -6 25 C-4.35 25 -2.7 25 -1 25 C-0.67 16.75 -0.34 8.5 0 0 Z " fill="#DADCE8" transform="translate(81,275)"/>
<path d="M0 0 C0.8146875 0.00257813 1.629375 0.00515625 2.46875 0.0078125 C3.2834375 0.00523437 4.098125 0.00265625 4.9375 0 C6.96875 0.1328125 6.96875 0.1328125 7.96875 1.1328125 C8.0689593 3.41229042 8.09956303 5.69488385 8.1015625 7.9765625 C8.10251923 8.66085327 8.10347595 9.34514404 8.10446167 10.0501709 C8.1051433 11.49943127 8.10329023 12.94869468 8.09912109 14.39794922 C8.09377252 16.62344178 8.0990666 18.84873251 8.10546875 21.07421875 C8.10480797 22.47916711 8.1035268 23.88411535 8.1015625 25.2890625 C8.10043457 26.57619141 8.09930664 27.86332031 8.09814453 29.18945312 C7.96875 32.1328125 7.96875 32.1328125 6.96875 33.1328125 C5.47136876 33.2307182 3.96932108 33.26256114 2.46875 33.2578125 C1.6540625 33.26039063 0.839375 33.26296875 0 33.265625 C-2.03125 33.1328125 -2.03125 33.1328125 -3.03125 32.1328125 C-3.1314593 29.85333458 -3.16206303 27.57074115 -3.1640625 25.2890625 C-3.16501923 24.60477173 -3.16597595 23.92048096 -3.16696167 23.2154541 C-3.1676433 21.76619373 -3.16579023 20.31693032 -3.16162109 18.86767578 C-3.15627252 16.64218322 -3.1615666 14.41689249 -3.16796875 12.19140625 C-3.16730797 10.78645789 -3.1660268 9.38150965 -3.1640625 7.9765625 C-3.16293457 6.68943359 -3.16180664 5.40230469 -3.16064453 4.07617188 C-2.99004445 0.19550291 -2.99004445 0.19550291 0 0 Z " fill="#83D789" transform="translate(63.03125,200.8671875)"/>
<path d="M0 0 C3.3 0 6.6 0 10 0 C10 10.56 10 21.12 10 32 C6.37 32 2.74 32 -1 32 C-1.02465504 27.60343827 -1.04283842 23.2069128 -1.05493164 18.81030273 C-1.05997121 17.31355082 -1.06680287 15.81680384 -1.07543945 14.32006836 C-1.08752159 12.17300193 -1.09323191 10.02600038 -1.09765625 7.87890625 C-1.10289307 6.5854126 -1.10812988 5.29191895 -1.11352539 3.95922852 C-1 1 -1 1 0 0 Z " fill="#84D889" transform="translate(61,144)"/>
<path d="M0 0 C0.33 0 0.66 0 1 0 C1 10.56 1 21.12 1 32 C-2.63 32 -6.26 32 -10 32 C-10 21.77 -10 11.54 -10 1 C-7.03 1 -4.06 1 -1 1 C-0.67 0.67 -0.34 0.34 0 0 Z " fill="#6EB187" transform="translate(81,90)"/>
<path d="M0 0 C1.18802719 0.00222061 2.37605438 0.00444122 3.6000824 0.00672913 C4.58053528 0.00651009 4.58053528 0.00651009 5.58079529 0.00628662 C7.75058766 0.00698569 9.92029517 0.01477774 12.09007263 0.02259827 C13.59079949 0.02446247 15.09152696 0.02588636 16.59225464 0.02688599 C20.54934865 0.03071099 24.50640616 0.04054112 28.46348572 0.05158997 C32.49851488 0.06180446 36.53354991 0.06638369 40.56858826 0.07142639 C48.49113108 0.08216341 56.41364419 0.09923962 64.33616638 0.12025452 C62.78114979 2.97466854 61.96218433 4.31255633 59.33616638 6.12025452 C54.66025532 6.9354349 50.00836354 6.6772816 45.28538513 6.48744202 C43.90253812 6.45378844 42.51962307 6.42283177 41.13665771 6.39445496 C37.5073105 6.31276611 33.88004518 6.19459054 30.2519989 6.06867981 C26.54559117 5.94655079 22.83838134 5.85909979 19.13108826 5.76869202 C11.86488948 5.58639862 4.60054072 5.36553602 -2.66383362 5.12025452 C-3.22633362 3.18275452 -3.22633362 3.18275452 -3.66383362 1.12025452 C-2.66383362 0.12025452 -2.66383362 0.12025452 0 0 Z " fill="#D3D5E7" transform="translate(172.66383361816406,127.87974548339844)"/>
<path d="M0 0 C6.93 0 13.86 0 21 0 C21 9.9 21 19.8 21 30 C20.67 30 20.34 30 20 30 C20 20.43 20 10.86 20 1 C18.70454552 2.07029129 18.70454552 2.07029129 18.88647461 4.59204102 C18.89432983 6.28091431 18.89432983 6.28091431 18.90234375 8.00390625 C18.90717773 9.82631836 18.90717773 9.82631836 18.91210938 11.68554688 C18.92048828 12.96494141 18.92886719 14.24433594 18.9375 15.5625 C18.94201172 16.84576172 18.94652344 18.12902344 18.95117188 19.45117188 C18.96300455 22.63416022 18.97948932 25.81705762 19 29 C16.03 29 13.06 29 10 29 C10 19.76 10 10.52 10 1 C6.7 1 3.4 1 0 1 C0 0.67 0 0.34 0 0 Z " fill="#CBCDE3" transform="translate(61,239)"/>
<path d="M0 0 C4.95 0 9.9 0 15 0 C15 4.95 15 9.9 15 15 C10.05 15 5.1 15 0 15 C0 10.05 0 5.1 0 0 Z " fill="#EEEEEF" transform="translate(315,330)"/>
<path d="M0 0 C4.95 0 9.9 0 15 0 C15 4.95 15 9.9 15 15 C10.05 15 5.1 15 0 15 C0 10.05 0 5.1 0 0 Z " fill="#EEEEEF" transform="translate(285,330)"/>
<path d="M0 0 C4.95 0 9.9 0 15 0 C15 4.95 15 9.9 15 15 C10.05 15 5.1 15 0 15 C0 10.05 0 5.1 0 0 Z " fill="#EEEEEF" transform="translate(255,330)"/>
<path d="M0 0 C4.95 0 9.9 0 15 0 C15 4.95 15 9.9 15 15 C10.05 15 5.1 15 0 15 C0 10.05 0 5.1 0 0 Z " fill="#EEEEEF" transform="translate(225,330)"/>
<path d="M0 0 C4.95 0 9.9 0 15 0 C15 4.95 15 9.9 15 15 C10.05 15 5.1 15 0 15 C0 10.05 0 5.1 0 0 Z " fill="#EEEEEF" transform="translate(195,330)"/>
<path d="M0 0 C4.95 0 9.9 0 15 0 C15 4.95 15 9.9 15 15 C10.05 15 5.1 15 0 15 C0 10.05 0 5.1 0 0 Z " fill="#EEEEEF" transform="translate(165,330)"/>
<path d="M0 0 C4.95 0 9.9 0 15 0 C15 4.95 15 9.9 15 15 C10.05 15 5.1 15 0 15 C0 10.05 0 5.1 0 0 Z " fill="#EEEEEF" transform="translate(135,330)"/>
<path d="M0 0 C4.95 0 9.9 0 15 0 C15 4.95 15 9.9 15 15 C10.05 15 5.1 15 0 15 C0 10.05 0 5.1 0 0 Z " fill="#EEEEEF" transform="translate(105,330)"/>
<path d="M0 0 C4.95 0 9.9 0 15 0 C15 4.95 15 9.9 15 15 C10.05 15 5.1 15 0 15 C0 10.05 0 5.1 0 0 Z " fill="#FFFFFF" transform="translate(90,330)"/>
<path d="M0 0 C4.95 0 9.9 0 15 0 C15 4.95 15 9.9 15 15 C10.05 15 5.1 15 0 15 C0 10.05 0 5.1 0 0 Z " fill="#EEEEEF" transform="translate(75,330)"/>
<path d="M0 0 C4.95 0 9.9 0 15 0 C15 4.95 15 9.9 15 15 C10.05 15 5.1 15 0 15 C0 10.05 0 5.1 0 0 Z " fill="#FFFFFF" transform="translate(60,330)"/>
<path d="M0 0 C4.95 0 9.9 0 15 0 C15 4.95 15 9.9 15 15 C10.05 15 5.1 15 0 15 C0 10.05 0 5.1 0 0 Z " fill="#EEEEEF" transform="translate(45,330)"/>
<path d="M0 0 C4.95 0 9.9 0 15 0 C15 4.95 15 9.9 15 15 C10.05 15 5.1 15 0 15 C0 10.05 0 5.1 0 0 Z " fill="#FFFFFF" transform="translate(30,330)"/>
<path d="M0 0 C4.95 0 9.9 0 15 0 C15 4.95 15 9.9 15 15 C10.05 15 5.1 15 0 15 C0 10.05 0 5.1 0 0 Z " fill="#EEEEEF" transform="translate(15,330)"/>
<path d="M0 0 C4.95 0 9.9 0 15 0 C15 4.95 15 9.9 15 15 C10.05 15 5.1 15 0 15 C0 10.05 0 5.1 0 0 Z " fill="#EEEEEF" transform="translate(330,315)"/>
<path d="M0 0 C4.95 0 9.9 0 15 0 C15 4.95 15 9.9 15 15 C10.05 15 5.1 15 0 15 C0 10.05 0 5.1 0 0 Z " fill="#FFFFFF" transform="translate(315,315)"/>
<path d="M0 0 C4.95 0 9.9 0 15 0 C15 4.95 15 9.9 15 15 C10.05 15 5.1 15 0 15 C0 10.05 0 5.1 0 0 Z " fill="#EEEEEF" transform="translate(300,315)"/>
<path d="M0 0 C4.95 0 9.9 0 15 0 C15 4.95 15 9.9 15 15 C10.05 15 5.1 15 0 15 C0 10.05 0 5.1 0 0 Z " fill="#FFFFFF" transform="translate(285,315)"/>
<path d="M0 0 C4.95 0 9.9 0 15 0 C15 4.95 15 9.9 15 15 C10.05 15 5.1 15 0 15 C0 10.05 0 5.1 0 0 Z " fill="#EEEEEF" transform="translate(270,315)"/>
<path d="M0 0 C4.95 0 9.9 0 15 0 C15 4.95 15 9.9 15 15 C10.05 15 5.1 15 0 15 C0 10.05 0 5.1 0 0 Z " fill="#FFFFFF" transform="translate(255,315)"/>
<path d="M0 0 C4.95 0 9.9 0 15 0 C15 4.95 15 9.9 15 15 C10.05 15 5.1 15 0 15 C0 10.05 0 5.1 0 0 Z " fill="#EEEEEF" transform="translate(240,315)"/>
<path d="M0 0 C4.95 0 9.9 0 15 0 C15 4.95 15 9.9 15 15 C10.05 15 5.1 15 0 15 C0 10.05 0 5.1 0 0 Z " fill="#FFFFFF" transform="translate(225,315)"/>
<path d="M0 0 C4.95 0 9.9 0 15 0 C15 4.95 15 9.9 15 15 C10.05 15 5.1 15 0 15 C0 10.05 0 5.1 0 0 Z " fill="#EEEEEF" transform="translate(210,315)"/>
<path d="M0 0 C4.95 0 9.9 0 15 0 C15 4.95 15 9.9 15 15 C10.05 15 5.1 15 0 15 C0 10.05 0 5.1 0 0 Z " fill="#FFFFFF" transform="translate(195,315)"/>
<path d="M0 0 C4.95 0 9.9 0 15 0 C15 4.95 15 9.9 15 15 C10.05 15 5.1 15 0 15 C0 10.05 0 5.1 0 0 Z " fill="#EEEEEF" transform="translate(180,315)"/>
<path d="M0 0 C4.95 0 9.9 0 15 0 C15 4.95 15 9.9 15 15 C10.05 15 5.1 15 0 15 C0 10.05 0 5.1 0 0 Z " fill="#FFFFFF" transform="translate(165,315)"/>
<path d="M0 0 C4.95 0 9.9 0 15 0 C15 4.95 15 9.9 15 15 C10.05 15 5.1 15 0 15 C0 10.05 0 5.1 0 0 Z " fill="#EEEEEF" transform="translate(150,315)"/>
<path d="M0 0 C4.95 0 9.9 0 15 0 C15 4.95 15 9.9 15 15 C10.05 15 5.1 15 0 15 C0 10.05 0 5.1 0 0 Z " fill="#FFFFFF" transform="translate(135,315)"/>
<path d="M0 0 C4.95 0 9.9 0 15 0 C15 4.95 15 9.9 15 15 C10.05 15 5.1 15 0 15 C0 10.05 0 5.1 0 0 Z " fill="#EEEEEF" transform="translate(120,315)"/>
<path d="M0 0 C4.95 0 9.9 0 15 0 C15 4.95 15 9.9 15 15 C10.05 15 5.1 15 0 15 C0 10.05 0 5.1 0 0 Z " fill="#FFFFFF" transform="translate(105,315)"/>
<path d="M0 0 C4.95 0 9.9 0 15 0 C15 4.95 15 9.9 15 15 C10.05 15 5.1 15 0 15 C0 10.05 0 5.1 0 0 Z " fill="#EEEEEF" transform="translate(90,315)"/>
<path d="M0 0 C4.95 0 9.9 0 15 0 C15 4.95 15 9.9 15 15 C10.05 15 5.1 15 0 15 C0 10.05 0 5.1 0 0 Z " fill="#FFFFFF" transform="translate(75,315)"/>
<path d="M0 0 C4.95 0 9.9 0 15 0 C15 4.95 15 9.9 15 15 C10.05 15 5.1 15 0 15 C0 10.05 0 5.1 0 0 Z " fill="#EEEEEF" transform="translate(60,315)"/>
<path d="M0 0 C4.95 0 9.9 0 15 0 C15 4.95 15 9.9 15 15 C10.05 15 5.1 15 0 15 C0 10.05 0 5.1 0 0 Z " fill="#FFFFFF" transform="translate(45,315)"/>
<path d="M0 0 C4.95 0 9.9 0 15 0 C15 4.95 15 9.9 15 15 C10.05 15 5.1 15 0 15 C0 10.05 0 5.1 0 0 Z " fill="#EEEEEF" transform="translate(30,315)"/>
<path d="M0 0 C4.95 0 9.9 0 15 0 C15 4.95 15 9.9 15 15 C10.05 15 5.1 15 0 15 C0 10.05 0 5.1 0 0 Z " fill="#FFFFFF" transform="translate(15,315)"/>
<path d="M0 0 C4.95 0 9.9 0 15 0 C15 4.95 15 9.9 15 15 C10.05 15 5.1 15 0 15 C0 10.05 0 5.1 0 0 Z " fill="#EEEEEF" transform="translate(0,315)"/>
<path d="M0 0 C4.95 0 9.9 0 15 0 C15 4.95 15 9.9 15 15 C10.05 15 5.1 15 0 15 C0 10.05 0 5.1 0 0 Z " fill="#EEEEEF" transform="translate(315,300)"/>
<path d="M0 0 C4.95 0 9.9 0 15 0 C15 4.95 15 9.9 15 15 C10.05 15 5.1 15 0 15 C0 10.05 0 5.1 0 0 Z " fill="#FFFFFF" transform="translate(300,300)"/>
<path d="M0 0 C4.95 0 9.9 0 15 0 C15 4.95 15 9.9 15 15 C10.05 15 5.1 15 0 15 C0 10.05 0 5.1 0 0 Z " fill="#EEEEEF" transform="translate(285,300)"/>
<path d="M0 0 C4.95 0 9.9 0 15 0 C15 4.95 15 9.9 15 15 C10.05 15 5.1 15 0 15 C0 10.05 0 5.1 0 0 Z " fill="#FFFFFF" transform="translate(60,300)"/>
<path d="M0 0 C4.95 0 9.9 0 15 0 C15 4.95 15 9.9 15 15 C10.05 15 5.1 15 0 15 C0 10.05 0 5.1 0 0 Z " fill="#EEEEEF" transform="translate(45,300)"/>
<path d="M0 0 C4.95 0 9.9 0 15 0 C15 4.95 15 9.9 15 15 C10.05 15 5.1 15 0 15 C0 10.05 0 5.1 0 0 Z " fill="#FFFFFF" transform="translate(30,300)"/>
<path d="M0 0 C4.95 0 9.9 0 15 0 C15 4.95 15 9.9 15 15 C10.05 15 5.1 15 0 15 C0 10.05 0 5.1 0 0 Z " fill="#EEEEEF" transform="translate(15,300)"/>
<path d="M0 0 C4.95 0 9.9 0 15 0 C15 4.95 15 9.9 15 15 C10.05 15 5.1 15 0 15 C0 10.05 0 5.1 0 0 Z " fill="#FFFFFF" transform="translate(0,300)"/>
<path d="M0 0 C4.95 0 9.9 0 15 0 C15 4.95 15 9.9 15 15 C10.05 15 5.1 15 0 15 C0 10.05 0 5.1 0 0 Z " fill="#EEEEEF" transform="translate(330,285)"/>
<path d="M0 0 C4.95 0 9.9 0 15 0 C15 4.95 15 9.9 15 15 C10.05 15 5.1 15 0 15 C0 10.05 0 5.1 0 0 Z " fill="#FFFFFF" transform="translate(315,285)"/>
<path d="M0 0 C4.95 0 9.9 0 15 0 C15 4.95 15 9.9 15 15 C10.05 15 5.1 15 0 15 C0 10.05 0 5.1 0 0 Z " fill="#EEEEEF" transform="translate(300,285)"/>
<path d="M0 0 C4.95 0 9.9 0 15 0 C15 4.95 15 9.9 15 15 C10.05 15 5.1 15 0 15 C0 10.05 0 5.1 0 0 Z " fill="#FFFFFF" transform="translate(285,285)"/>
<path d="M0 0 C4.95 0 9.9 0 15 0 C15 4.95 15 9.9 15 15 C10.05 15 5.1 15 0 15 C0 10.05 0 5.1 0 0 Z " fill="#EEEEEF" transform="translate(60,285)"/>
<path d="M0 0 C4.95 0 9.9 0 15 0 C15 4.95 15 9.9 15 15 C10.05 15 5.1 15 0 15 C0 10.05 0 5.1 0 0 Z " fill="#FFFFFF" transform="translate(45,285)"/>
<path d="M0 0 C4.95 0 9.9 0 15 0 C15 4.95 15 9.9 15 15 C10.05 15 5.1 15 0 15 C0 10.05 0 5.1 0 0 Z " fill="#EEEEEF" transform="translate(30,285)"/>
<path d="M0 0 C4.95 0 9.9 0 15 0 C15 4.95 15 9.9 15 15 C10.05 15 5.1 15 0 15 C0 10.05 0 5.1 0 0 Z " fill="#FFFFFF" transform="translate(15,285)"/>
<path d="M0 0 C4.95 0 9.9 0 15 0 C15 4.95 15 9.9 15 15 C10.05 15 5.1 15 0 15 C0 10.05 0 5.1 0 0 Z " fill="#EEEEEF" transform="translate(0,285)"/>
<path d="M0 0 C4.95 0 9.9 0 15 0 C15 4.95 15 9.9 15 15 C10.05 15 5.1 15 0 15 C0 10.05 0 5.1 0 0 Z " fill="#EEEEEF" transform="translate(315,270)"/>
<path d="M0 0 C4.95 0 9.9 0 15 0 C15 4.95 15 9.9 15 15 C10.05 15 5.1 15 0 15 C0 10.05 0 5.1 0 0 Z " fill="#FFFFFF" transform="translate(300,270)"/>
<path d="M0 0 C4.95 0 9.9 0 15 0 C15 4.95 15 9.9 15 15 C10.05 15 5.1 15 0 15 C0 10.05 0 5.1 0 0 Z " fill="#EEEEEF" transform="translate(285,270)"/>
<path d="M0 0 C4.95 0 9.9 0 15 0 C15 4.95 15 9.9 15 15 C10.05 15 5.1 15 0 15 C0 10.05 0 5.1 0 0 Z " fill="#FFFFFF" transform="translate(0,270)"/>
<path d="M0 0 C4.95 0 9.9 0 15 0 C15 4.95 15 9.9 15 15 C10.05 15 5.1 15 0 15 C0 10.05 0 5.1 0 0 Z " fill="#EEEEEF" transform="translate(330,255)"/>
<path d="M0 0 C4.95 0 9.9 0 15 0 C15 4.95 15 9.9 15 15 C10.05 15 5.1 15 0 15 C0 10.05 0 5.1 0 0 Z " fill="#FFFFFF" transform="translate(315,255)"/>
<path d="M0 0 C4.95 0 9.9 0 15 0 C15 4.95 15 9.9 15 15 C10.05 15 5.1 15 0 15 C0 10.05 0 5.1 0 0 Z " fill="#EEEEEF" transform="translate(300,255)"/>
<path d="M0 0 C4.95 0 9.9 0 15 0 C15 4.95 15 9.9 15 15 C10.05 15 5.1 15 0 15 C0 10.05 0 5.1 0 0 Z " fill="#FFFFFF" transform="translate(285,255)"/>
<path d="M0 0 C4.95 0 9.9 0 15 0 C15 4.95 15 9.9 15 15 C10.05 15 5.1 15 0 15 C0 10.05 0 5.1 0 0 Z " fill="#EEEEEF" transform="translate(0,255)"/>
<path d="M0 0 C4.95 0 9.9 0 15 0 C15 4.95 15 9.9 15 15 C10.05 15 5.1 15 0 15 C0 10.05 0 5.1 0 0 Z " fill="#EEEEEF" transform="translate(315,240)"/>
<path d="M0 0 C4.95 0 9.9 0 15 0 C15 4.95 15 9.9 15 15 C10.05 15 5.1 15 0 15 C0 10.05 0 5.1 0 0 Z " fill="#FFFFFF" transform="translate(300,240)"/>
<path d="M0 0 C4.95 0 9.9 0 15 0 C15 4.95 15 9.9 15 15 C10.05 15 5.1 15 0 15 C0 10.05 0 5.1 0 0 Z " fill="#EEEEEF" transform="translate(285,240)"/>
<path d="M0 0 C4.95 0 9.9 0 15 0 C15 4.95 15 9.9 15 15 C10.05 15 5.1 15 0 15 C0 10.05 0 5.1 0 0 Z " fill="#FFFFFF" transform="translate(0,240)"/>
<path d="M0 0 C4.95 0 9.9 0 15 0 C15 4.95 15 9.9 15 15 C10.05 15 5.1 15 0 15 C0 10.05 0 5.1 0 0 Z " fill="#EEEEEF" transform="translate(330,225)"/>
<path d="M0 0 C4.95 0 9.9 0 15 0 C15 4.95 15 9.9 15 15 C10.05 15 5.1 15 0 15 C0 10.05 0 5.1 0 0 Z " fill="#FFFFFF" transform="translate(315,225)"/>
<path d="M0 0 C4.95 0 9.9 0 15 0 C15 4.95 15 9.9 15 15 C10.05 15 5.1 15 0 15 C0 10.05 0 5.1 0 0 Z " fill="#EEEEEF" transform="translate(300,225)"/>
<path d="M0 0 C4.95 0 9.9 0 15 0 C15 4.95 15 9.9 15 15 C10.05 15 5.1 15 0 15 C0 10.05 0 5.1 0 0 Z " fill="#FFFFFF" transform="translate(285,225)"/>
<path d="M0 0 C4.95 0 9.9 0 15 0 C15 4.95 15 9.9 15 15 C10.05 15 5.1 15 0 15 C0 10.05 0 5.1 0 0 Z " fill="#EEEEEF" transform="translate(0,225)"/>
<path d="M0 0 C4.95 0 9.9 0 15 0 C15 4.95 15 9.9 15 15 C10.05 15 5.1 15 0 15 C0 10.05 0 5.1 0 0 Z " fill="#EEEEEF" transform="translate(315,210)"/>
<path d="M0 0 C4.95 0 9.9 0 15 0 C15 4.95 15 9.9 15 15 C10.05 15 5.1 15 0 15 C0 10.05 0 5.1 0 0 Z " fill="#FFFFFF" transform="translate(300,210)"/>
<path d="M0 0 C4.95 0 9.9 0 15 0 C15 4.95 15 9.9 15 15 C10.05 15 5.1 15 0 15 C0 10.05 0 5.1 0 0 Z " fill="#EEEEEF" transform="translate(285,210)"/>
<path d="M0 0 C4.95 0 9.9 0 15 0 C15 4.95 15 9.9 15 15 C10.05 15 5.1 15 0 15 C0 10.05 0 5.1 0 0 Z " fill="#FFFFFF" transform="translate(0,210)"/>
<path d="M0 0 C4.95 0 9.9 0 15 0 C15 4.95 15 9.9 15 15 C10.05 15 5.1 15 0 15 C0 10.05 0 5.1 0 0 Z " fill="#EEEEEF" transform="translate(330,195)"/>
<path d="M0 0 C4.95 0 9.9 0 15 0 C15 4.95 15 9.9 15 15 C10.05 15 5.1 15 0 15 C0 10.05 0 5.1 0 0 Z " fill="#FFFFFF" transform="translate(315,195)"/>
<path d="M0 0 C4.95 0 9.9 0 15 0 C15 4.95 15 9.9 15 15 C10.05 15 5.1 15 0 15 C0 10.05 0 5.1 0 0 Z " fill="#EEEEEF" transform="translate(300,195)"/>
<path d="M0 0 C4.95 0 9.9 0 15 0 C15 4.95 15 9.9 15 15 C10.05 15 5.1 15 0 15 C0 10.05 0 5.1 0 0 Z " fill="#FFFFFF" transform="translate(285,195)"/>
<path d="M0 0 C4.95 0 9.9 0 15 0 C15 4.95 15 9.9 15 15 C10.05 15 5.1 15 0 15 C0 10.05 0 5.1 0 0 Z " fill="#EEEEEF" transform="translate(0,195)"/>
<path d="M0 0 C4.95 0 9.9 0 15 0 C15 4.95 15 9.9 15 15 C10.05 15 5.1 15 0 15 C0 10.05 0 5.1 0 0 Z " fill="#EEEEEF" transform="translate(315,180)"/>
<path d="M0 0 C4.95 0 9.9 0 15 0 C15 4.95 15 9.9 15 15 C10.05 15 5.1 15 0 15 C0 10.05 0 5.1 0 0 Z " fill="#FFFFFF" transform="translate(300,180)"/>
<path d="M0 0 C4.95 0 9.9 0 15 0 C15 4.95 15 9.9 15 15 C10.05 15 5.1 15 0 15 C0 10.05 0 5.1 0 0 Z " fill="#EEEEEF" transform="translate(285,180)"/>
<path d="M0 0 C4.95 0 9.9 0 15 0 C15 4.95 15 9.9 15 15 C10.05 15 5.1 15 0 15 C0 10.05 0 5.1 0 0 Z " fill="#FFFFFF" transform="translate(0,180)"/>
<path d="M0 0 C4.95 0 9.9 0 15 0 C15 4.95 15 9.9 15 15 C10.05 15 5.1 15 0 15 C0 10.05 0 5.1 0 0 Z " fill="#EEEEEF" transform="translate(330,165)"/>
<path d="M0 0 C4.95 0 9.9 0 15 0 C15 4.95 15 9.9 15 15 C10.05 15 5.1 15 0 15 C0 10.05 0 5.1 0 0 Z " fill="#FFFFFF" transform="translate(315,165)"/>
<path d="M0 0 C4.95 0 9.9 0 15 0 C15 4.95 15 9.9 15 15 C10.05 15 5.1 15 0 15 C0 10.05 0 5.1 0 0 Z " fill="#EEEEEF" transform="translate(300,165)"/>
<path d="M0 0 C4.95 0 9.9 0 15 0 C15 4.95 15 9.9 15 15 C10.05 15 5.1 15 0 15 C0 10.05 0 5.1 0 0 Z " fill="#FFFFFF" transform="translate(285,165)"/>
<path d="M0 0 C4.95 0 9.9 0 15 0 C15 4.95 15 9.9 15 15 C10.05 15 5.1 15 0 15 C0 10.05 0 5.1 0 0 Z " fill="#EEEEEF" transform="translate(0,165)"/>
<path d="M0 0 C4.95 0 9.9 0 15 0 C15 4.95 15 9.9 15 15 C10.05 15 5.1 15 0 15 C0 10.05 0 5.1 0 0 Z " fill="#FFFFFF" transform="translate(300,150)"/>
<path d="M0 0 C4.95 0 9.9 0 15 0 C15 4.95 15 9.9 15 15 C10.05 15 5.1 15 0 15 C0 10.05 0 5.1 0 0 Z " fill="#FFFFFF" transform="translate(0,150)"/>
<path d="M0 0 C4.95 0 9.9 0 15 0 C15 4.95 15 9.9 15 15 C10.05 15 5.1 15 0 15 C0 10.05 0 5.1 0 0 Z " fill="#FFFFFF" transform="translate(315,135)"/>
<path d="M0 0 C4.95 0 9.9 0 15 0 C15 4.95 15 9.9 15 15 C10.05 15 5.1 15 0 15 C0 10.05 0 5.1 0 0 Z " fill="#EEEEEF" transform="translate(0,135)"/>
<path d="M0 0 C4.95 0 9.9 0 15 0 C15 4.95 15 9.9 15 15 C10.05 15 5.1 15 0 15 C0 10.05 0 5.1 0 0 Z " fill="#FFFFFF" transform="translate(0,120)"/>
<path d="M0 0 C4.95 0 9.9 0 15 0 C15 4.95 15 9.9 15 15 C10.05 15 5.1 15 0 15 C0 10.05 0 5.1 0 0 Z " fill="#EEEEEF" transform="translate(0,105)"/>
<path d="M0 0 C4.95 0 9.9 0 15 0 C15 4.95 15 9.9 15 15 C10.05 15 5.1 15 0 15 C0 10.05 0 5.1 0 0 Z " fill="#FFFFFF" transform="translate(330,90)"/>
<path d="M0 0 C4.95 0 9.9 0 15 0 C15 4.95 15 9.9 15 15 C10.05 15 5.1 15 0 15 C0 10.05 0 5.1 0 0 Z " fill="#FFFFFF" transform="translate(0,90)"/>
<path d="M0 0 C4.95 0 9.9 0 15 0 C15 4.95 15 9.9 15 15 C10.05 15 5.1 15 0 15 C0 10.05 0 5.1 0 0 Z " fill="#EEEEEF" transform="translate(330,75)"/>
<path d="M0 0 C4.95 0 9.9 0 15 0 C15 4.95 15 9.9 15 15 C10.05 15 5.1 15 0 15 C0 10.05 0 5.1 0 0 Z " fill="#FFFFFF" transform="translate(315,75)"/>
<path d="M0 0 C4.95 0 9.9 0 15 0 C15 4.95 15 9.9 15 15 C10.05 15 5.1 15 0 15 C0 10.05 0 5.1 0 0 Z " fill="#EEEEEF" transform="translate(0,75)"/>
<path d="M0 0 C4.95 0 9.9 0 15 0 C15 4.95 15 9.9 15 15 C10.05 15 5.1 15 0 15 C0 10.05 0 5.1 0 0 Z " fill="#FFFFFF" transform="translate(330,60)"/>
<path d="M0 0 C4.95 0 9.9 0 15 0 C15 4.95 15 9.9 15 15 C10.05 15 5.1 15 0 15 C0 10.05 0 5.1 0 0 Z " fill="#EEEEEF" transform="translate(315,60)"/>
<path d="M0 0 C4.95 0 9.9 0 15 0 C15 4.95 15 9.9 15 15 C10.05 15 5.1 15 0 15 C0 10.05 0 5.1 0 0 Z " fill="#FFFFFF" transform="translate(300,60)"/>
<path d="M0 0 C4.95 0 9.9 0 15 0 C15 4.95 15 9.9 15 15 C10.05 15 5.1 15 0 15 C0 10.05 0 5.1 0 0 Z " fill="#EEEEEF" transform="translate(255,60)"/>
<path d="M0 0 C4.95 0 9.9 0 15 0 C15 4.95 15 9.9 15 15 C10.05 15 5.1 15 0 15 C0 10.05 0 5.1 0 0 Z " fill="#EEEEEF" transform="translate(225,60)"/>
<path d="M0 0 C4.95 0 9.9 0 15 0 C15 4.95 15 9.9 15 15 C10.05 15 5.1 15 0 15 C0 10.05 0 5.1 0 0 Z " fill="#FFFFFF" transform="translate(0,60)"/>
<path d="M0 0 C4.95 0 9.9 0 15 0 C15 4.95 15 9.9 15 15 C10.05 15 5.1 15 0 15 C0 10.05 0 5.1 0 0 Z " fill="#EEEEEF" transform="translate(330,45)"/>
<path d="M0 0 C4.95 0 9.9 0 15 0 C15 4.95 15 9.9 15 15 C10.05 15 5.1 15 0 15 C0 10.05 0 5.1 0 0 Z " fill="#FFFFFF" transform="translate(315,45)"/>
<path d="M0 0 C4.95 0 9.9 0 15 0 C15 4.95 15 9.9 15 15 C10.05 15 5.1 15 0 15 C0 10.05 0 5.1 0 0 Z " fill="#EEEEEF" transform="translate(300,45)"/>
<path d="M0 0 C4.95 0 9.9 0 15 0 C15 4.95 15 9.9 15 15 C10.05 15 5.1 15 0 15 C0 10.05 0 5.1 0 0 Z " fill="#FFFFFF" transform="translate(285,45)"/>
<path d="M0 0 C4.95 0 9.9 0 15 0 C15 4.95 15 9.9 15 15 C10.05 15 5.1 15 0 15 C0 10.05 0 5.1 0 0 Z " fill="#EEEEEF" transform="translate(270,45)"/>
<path d="M0 0 C4.95 0 9.9 0 15 0 C15 4.95 15 9.9 15 15 C10.05 15 5.1 15 0 15 C0 10.05 0 5.1 0 0 Z " fill="#FFFFFF" transform="translate(255,45)"/>
<path d="M0 0 C4.95 0 9.9 0 15 0 C15 4.95 15 9.9 15 15 C10.05 15 5.1 15 0 15 C0 10.05 0 5.1 0 0 Z " fill="#EEEEEF" transform="translate(240,45)"/>
<path d="M0 0 C4.95 0 9.9 0 15 0 C15 4.95 15 9.9 15 15 C10.05 15 5.1 15 0 15 C0 10.05 0 5.1 0 0 Z " fill="#FFFFFF" transform="translate(225,45)"/>
<path d="M0 0 C4.95 0 9.9 0 15 0 C15 4.95 15 9.9 15 15 C10.05 15 5.1 15 0 15 C0 10.05 0 5.1 0 0 Z " fill="#EEEEEF" transform="translate(0,45)"/>
<path d="M0 0 C4.95 0 9.9 0 15 0 C15 4.95 15 9.9 15 15 C10.05 15 5.1 15 0 15 C0 10.05 0 5.1 0 0 Z " fill="#FFFFFF" transform="translate(330,30)"/>
<path d="M0 0 C4.95 0 9.9 0 15 0 C15 4.95 15 9.9 15 15 C10.05 15 5.1 15 0 15 C0 10.05 0 5.1 0 0 Z " fill="#EEEEEF" transform="translate(315,30)"/>
<path d="M0 0 C4.95 0 9.9 0 15 0 C15 4.95 15 9.9 15 15 C10.05 15 5.1 15 0 15 C0 10.05 0 5.1 0 0 Z " fill="#FFFFFF" transform="translate(300,30)"/>
<path d="M0 0 C4.95 0 9.9 0 15 0 C15 4.95 15 9.9 15 15 C10.05 15 5.1 15 0 15 C0 10.05 0 5.1 0 0 Z " fill="#EEEEEF" transform="translate(285,30)"/>
<path d="M0 0 C4.95 0 9.9 0 15 0 C15 4.95 15 9.9 15 15 C10.05 15 5.1 15 0 15 C0 10.05 0 5.1 0 0 Z " fill="#FFFFFF" transform="translate(270,30)"/>
<path d="M0 0 C4.95 0 9.9 0 15 0 C15 4.95 15 9.9 15 15 C10.05 15 5.1 15 0 15 C0 10.05 0 5.1 0 0 Z " fill="#EEEEEF" transform="translate(255,30)"/>
<path d="M0 0 C4.95 0 9.9 0 15 0 C15 4.95 15 9.9 15 15 C10.05 15 5.1 15 0 15 C0 10.05 0 5.1 0 0 Z " fill="#FFFFFF" transform="translate(240,30)"/>
<path d="M0 0 C4.95 0 9.9 0 15 0 C15 4.95 15 9.9 15 15 C10.05 15 5.1 15 0 15 C0 10.05 0 5.1 0 0 Z " fill="#EEEEEF" transform="translate(225,30)"/>
<path d="M0 0 C4.95 0 9.9 0 15 0 C15 4.95 15 9.9 15 15 C10.05 15 5.1 15 0 15 C0 10.05 0 5.1 0 0 Z " fill="#FFFFFF" transform="translate(0,30)"/>
<path d="M0 0 C4.95 0 9.9 0 15 0 C15 4.95 15 9.9 15 15 C10.05 15 5.1 15 0 15 C0 10.05 0 5.1 0 0 Z " fill="#EEEEEF" transform="translate(330,15)"/>
<path d="M0 0 C4.95 0 9.9 0 15 0 C15 4.95 15 9.9 15 15 C10.05 15 5.1 15 0 15 C0 10.05 0 5.1 0 0 Z " fill="#FFFFFF" transform="translate(315,15)"/>
<path d="M0 0 C4.95 0 9.9 0 15 0 C15 4.95 15 9.9 15 15 C10.05 15 5.1 15 0 15 C0 10.05 0 5.1 0 0 Z " fill="#EEEEEF" transform="translate(300,15)"/>
<path d="M0 0 C4.95 0 9.9 0 15 0 C15 4.95 15 9.9 15 15 C10.05 15 5.1 15 0 15 C0 10.05 0 5.1 0 0 Z " fill="#FFFFFF" transform="translate(285,15)"/>
<path d="M0 0 C4.95 0 9.9 0 15 0 C15 4.95 15 9.9 15 15 C10.05 15 5.1 15 0 15 C0 10.05 0 5.1 0 0 Z " fill="#EEEEEF" transform="translate(270,15)"/>
<path d="M0 0 C4.95 0 9.9 0 15 0 C15 4.95 15 9.9 15 15 C10.05 15 5.1 15 0 15 C0 10.05 0 5.1 0 0 Z " fill="#FFFFFF" transform="translate(255,15)"/>
<path d="M0 0 C4.95 0 9.9 0 15 0 C15 4.95 15 9.9 15 15 C10.05 15 5.1 15 0 15 C0 10.05 0 5.1 0 0 Z " fill="#EEEEEF" transform="translate(240,15)"/>
<path d="M0 0 C4.95 0 9.9 0 15 0 C15 4.95 15 9.9 15 15 C10.05 15 5.1 15 0 15 C0 10.05 0 5.1 0 0 Z " fill="#FFFFFF" transform="translate(225,15)"/>
<path d="M0 0 C4.95 0 9.9 0 15 0 C15 4.95 15 9.9 15 15 C10.05 15 5.1 15 0 15 C0 10.05 0 5.1 0 0 Z " fill="#EEEEEF" transform="translate(210,15)"/>
<path d="M0 0 C4.95 0 9.9 0 15 0 C15 4.95 15 9.9 15 15 C10.05 15 5.1 15 0 15 C0 10.05 0 5.1 0 0 Z " fill="#FFFFFF" transform="translate(195,15)"/>
<path d="M0 0 C4.95 0 9.9 0 15 0 C15 4.95 15 9.9 15 15 C10.05 15 5.1 15 0 15 C0 10.05 0 5.1 0 0 Z " fill="#EEEEEF" transform="translate(180,15)"/>
<path d="M0 0 C4.95 0 9.9 0 15 0 C15 4.95 15 9.9 15 15 C10.05 15 5.1 15 0 15 C0 10.05 0 5.1 0 0 Z " fill="#EEEEEF" transform="translate(150,15)"/>
<path d="M0 0 C4.95 0 9.9 0 15 0 C15 4.95 15 9.9 15 15 C10.05 15 5.1 15 0 15 C0 10.05 0 5.1 0 0 Z " fill="#EEEEEF" transform="translate(120,15)"/>
<path d="M0 0 C4.95 0 9.9 0 15 0 C15 4.95 15 9.9 15 15 C10.05 15 5.1 15 0 15 C0 10.05 0 5.1 0 0 Z " fill="#EEEEEF" transform="translate(90,15)"/>
<path d="M0 0 C4.95 0 9.9 0 15 0 C15 4.95 15 9.9 15 15 C10.05 15 5.1 15 0 15 C0 10.05 0 5.1 0 0 Z " fill="#EEEEEF" transform="translate(60,15)"/>
<path d="M0 0 C4.95 0 9.9 0 15 0 C15 4.95 15 9.9 15 15 C10.05 15 5.1 15 0 15 C0 10.05 0 5.1 0 0 Z " fill="#EEEEEF" transform="translate(30,15)"/>
<path d="M0 0 C4.95 0 9.9 0 15 0 C15 4.95 15 9.9 15 15 C10.05 15 5.1 15 0 15 C0 10.05 0 5.1 0 0 Z " fill="#FFFFFF" transform="translate(15,15)"/>
<path d="M0 0 C4.95 0 9.9 0 15 0 C15 4.95 15 9.9 15 15 C10.05 15 5.1 15 0 15 C0 10.05 0 5.1 0 0 Z " fill="#EEEEEF" transform="translate(0,15)"/>
<path d="M0 0 C4.95 0 9.9 0 15 0 C15 4.95 15 9.9 15 15 C10.05 15 5.1 15 0 15 C0 10.05 0 5.1 0 0 Z " fill="#EEEEEF" transform="translate(315,0)"/>
<path d="M0 0 C4.95 0 9.9 0 15 0 C15 4.95 15 9.9 15 15 C10.05 15 5.1 15 0 15 C0 10.05 0 5.1 0 0 Z " fill="#FFFFFF" transform="translate(300,0)"/>
<path d="M0 0 C4.95 0 9.9 0 15 0 C15 4.95 15 9.9 15 15 C10.05 15 5.1 15 0 15 C0 10.05 0 5.1 0 0 Z " fill="#EEEEEF" transform="translate(285,0)"/>
<path d="M0 0 C4.95 0 9.9 0 15 0 C15 4.95 15 9.9 15 15 C10.05 15 5.1 15 0 15 C0 10.05 0 5.1 0 0 Z " fill="#FFFFFF" transform="translate(270,0)"/>
<path d="M0 0 C4.95 0 9.9 0 15 0 C15 4.95 15 9.9 15 15 C10.05 15 5.1 15 0 15 C0 10.05 0 5.1 0 0 Z " fill="#EEEEEF" transform="translate(255,0)"/>
<path d="M0 0 C4.95 0 9.9 0 15 0 C15 4.95 15 9.9 15 15 C10.05 15 5.1 15 0 15 C0 10.05 0 5.1 0 0 Z " fill="#FFFFFF" transform="translate(240,0)"/>
<path d="M0 0 C4.95 0 9.9 0 15 0 C15 4.95 15 9.9 15 15 C10.05 15 5.1 15 0 15 C0 10.05 0 5.1 0 0 Z " fill="#EEEEEF" transform="translate(225,0)"/>
<path d="M0 0 C4.95 0 9.9 0 15 0 C15 4.95 15 9.9 15 15 C10.05 15 5.1 15 0 15 C0 10.05 0 5.1 0 0 Z " fill="#FFFFFF" transform="translate(210,0)"/>
<path d="M0 0 C4.95 0 9.9 0 15 0 C15 4.95 15 9.9 15 15 C10.05 15 5.1 15 0 15 C0 10.05 0 5.1 0 0 Z " fill="#EEEEEF" transform="translate(195,0)"/>
<path d="M0 0 C4.95 0 9.9 0 15 0 C15 4.95 15 9.9 15 15 C10.05 15 5.1 15 0 15 C0 10.05 0 5.1 0 0 Z " fill="#FFFFFF" transform="translate(180,0)"/>
<path d="M0 0 C4.95 0 9.9 0 15 0 C15 4.95 15 9.9 15 15 C10.05 15 5.1 15 0 15 C0 10.05 0 5.1 0 0 Z " fill="#EEEEEF" transform="translate(165,0)"/>
<path d="M0 0 C4.95 0 9.9 0 15 0 C15 4.95 15 9.9 15 15 C10.05 15 5.1 15 0 15 C0 10.05 0 5.1 0 0 Z " fill="#FFFFFF" transform="translate(150,0)"/>
<path d="M0 0 C4.95 0 9.9 0 15 0 C15 4.95 15 9.9 15 15 C10.05 15 5.1 15 0 15 C0 10.05 0 5.1 0 0 Z " fill="#EEEEEF" transform="translate(135,0)"/>
<path d="M0 0 C4.95 0 9.9 0 15 0 C15 4.95 15 9.9 15 15 C10.05 15 5.1 15 0 15 C0 10.05 0 5.1 0 0 Z " fill="#FFFFFF" transform="translate(120,0)"/>
<path d="M0 0 C4.95 0 9.9 0 15 0 C15 4.95 15 9.9 15 15 C10.05 15 5.1 15 0 15 C0 10.05 0 5.1 0 0 Z " fill="#EEEEEF" transform="translate(105,0)"/>
<path d="M0 0 C4.95 0 9.9 0 15 0 C15 4.95 15 9.9 15 15 C10.05 15 5.1 15 0 15 C0 10.05 0 5.1 0 0 Z " fill="#FFFFFF" transform="translate(90,0)"/>
<path d="M0 0 C4.95 0 9.9 0 15 0 C15 4.95 15 9.9 15 15 C10.05 15 5.1 15 0 15 C0 10.05 0 5.1 0 0 Z " fill="#EEEEEF" transform="translate(75,0)"/>
<path d="M0 0 C4.95 0 9.9 0 15 0 C15 4.95 15 9.9 15 15 C10.05 15 5.1 15 0 15 C0 10.05 0 5.1 0 0 Z " fill="#FFFFFF" transform="translate(60,0)"/>
<path d="M0 0 C4.95 0 9.9 0 15 0 C15 4.95 15 9.9 15 15 C10.05 15 5.1 15 0 15 C0 10.05 0 5.1 0 0 Z " fill="#EEEEEF" transform="translate(45,0)"/>
<path d="M0 0 C4.95 0 9.9 0 15 0 C15 4.95 15 9.9 15 15 C10.05 15 5.1 15 0 15 C0 10.05 0 5.1 0 0 Z " fill="#FFFFFF" transform="translate(30,0)"/>
<path d="M0 0 C4.95 0 9.9 0 15 0 C15 4.95 15 9.9 15 15 C10.05 15 5.1 15 0 15 C0 10.05 0 5.1 0 0 Z " fill="#FFFFFF" transform="translate(0,0)"/>
<path d="M0 0 C1.47583955 0.0001591 2.95168467 0.00585225 4.42749023 0.01586914 C5.20293686 0.01728409 5.97838348 0.01869904 6.77732849 0.02015686 C9.26361893 0.02577194 11.74982059 0.03832693 14.23608398 0.05102539 C15.91772331 0.05603845 17.59936405 0.06060169 19.28100586 0.06469727 C23.41189965 0.07574626 27.54272674 0.09302094 31.67358398 0.11352539 C32.33358398 1.43352539 32.99358398 2.75352539 33.67358398 4.11352539 C31.67358398 6.11352539 31.67358398 6.11352539 28.23364258 6.34057617 C26.76306419 6.34025908 25.29246257 6.32893526 23.82202148 6.30883789 C23.04798981 6.306008 22.27395813 6.3031781 21.47647095 6.30026245 C19.00035242 6.28905293 16.52459348 6.26394742 14.04858398 6.23852539 C12.37150587 6.22849657 10.69442209 6.21937055 9.01733398 6.21118164 C4.90261176 6.18911113 0.78815887 6.15457641 -3.32641602 6.11352539 C-3.70860369 4.45737882 -4.04036703 2.78895515 -4.32641602 1.11352539 C-3.32641602 0.11352539 -3.32641602 0.11352539 0 0 Z " fill="#D6D8E8" transform="translate(173.326416015625,140.886474609375)"/>
<path d="M0 0 C0.33 0 0.66 0 1 0 C1 9.57 1 19.14 1 29 C0.67 29 0.34 29 0 29 C-0.33 23.06 -0.66 17.12 -1 11 C-2.02480469 12.09441406 -3.04960937 13.18882812 -4.10546875 14.31640625 C-5.46533853 15.7325465 -6.8260602 17.14786906 -8.1875 18.5625 C-9.19780273 19.64821289 -9.19780273 19.64821289 -10.22851562 20.75585938 C-11.21948242 21.77583008 -11.21948242 21.77583008 -12.23046875 22.81640625 C-13.13381958 23.76688843 -13.13381958 23.76688843 -14.05541992 24.73657227 C-16 26 -16 26 -18.609375 25.78710938 C-21.28063294 24.90760206 -22.75377285 23.83475835 -24.8125 21.9375 C-25.41707031 21.38964844 -26.02164063 20.84179688 -26.64453125 20.27734375 C-27.09183594 19.85582031 -27.53914063 19.43429688 -28 19 C-27.67 17.35 -27.34 15.7 -27 14 C-23.12867972 14.57352893 -20.91827204 16.48704352 -18 19 C-17.05125 18.236875 -16.1025 17.47375 -15.125 16.6875 C-14.59132812 16.25824219 -14.05765625 15.82898438 -13.5078125 15.38671875 C-11.74707893 13.87729455 -11.74707893 13.87729455 -10 11 C-9.34 11 -8.68 11 -8 11 C-8 10.34 -8 9.68 -8 9 C-6.8125 7.375 -6.8125 7.375 -5 6 C-2.3125 5.8125 -2.3125 5.8125 0 6 C0 4.02 0 2.04 0 0 Z " fill="#2A3685" transform="translate(149,124)"/>
<path d="M0 0 C4.29 0 8.58 0 13 0 C13 4.95 13 9.9 13 15 C9.04 15 5.08 15 1 15 C1 19.95 1 24.9 1 30 C0.67 30 0.34 30 0 30 C0 20.1 0 10.2 0 0 Z " fill="#FFFFFF" transform="translate(272,270)"/>
<path d="M0 0 C3.63 0 7.26 0 11 0 C11 0.99 11 1.98 11 3 C11.99 3.33 12.98 3.66 14 4 C15.71466036 7.42932071 15.05404056 11.21716065 15 15 C10.05 15 5.1 15 0 15 C0 10.05 0 5.1 0 0 Z " fill="#EDEDEF" transform="translate(15,270)"/>
<path d="M0 0 C0 6.6 0 13.2 0 20 C-6.27 20 -12.54 20 -19 20 C-19.33 19.01 -19.66 18.02 -20 17 C-19.32453125 16.65324219 -18.6490625 16.30648437 -17.953125 15.94921875 C-14.03636935 13.36395279 -11.00157546 10.17538458 -7.75 6.8125 C-6.49696625 5.52522343 -5.24187322 4.23994698 -3.984375 2.95703125 C-3.43491211 2.38960205 -2.88544922 1.82217285 -2.31933594 1.23754883 C-1 0 -1 0 0 0 Z " fill="#7DCA87" transform="translate(150,188)"/>
<path d="M0 0 C0 6.27 0 12.54 0 19 C-0.33 18.01 -0.66 17.02 -1 16 C-4.63 16 -8.26 16 -12 16 C-12 11.05 -12 6.1 -12 1 C-1.125 0 -1.125 0 0 0 Z " fill="#FFFFFF" transform="translate(27,254)"/>
<path d="M0 0 C3.96 0 7.92 0 12 0 C12 4.95 12 9.9 12 15 C8.04 15 4.08 15 0 15 C0 10.05 0 5.1 0 0 Z " fill="#EEEEEF" transform="translate(273,285)"/>
<path d="M0 0 C3.96 0 7.92 0 12 0 C12 4.95 12 9.9 12 15 C8.04 15 4.08 15 0 15 C0 10.05 0 5.1 0 0 Z " fill="#EEEEEF" transform="translate(273,255)"/>
<path d="M0 0 C3.96 0 7.92 0 12 0 C12 4.95 12 9.9 12 15 C8.04 15 4.08 15 0 15 C0 10.05 0 5.1 0 0 Z " fill="#EEEEEF" transform="translate(273,225)"/>
<path d="M0 0 C3.96 0 7.92 0 12 0 C12 4.95 12 9.9 12 15 C8.04 15 4.08 15 0 15 C0 10.05 0 5.1 0 0 Z " fill="#EEEEEF" transform="translate(273,195)"/>
<path d="M0 0 C4.95 0 9.9 0 15 0 C15 4.95 15 9.9 15 15 C13.35 15.33 11.7 15.66 10 16 C7.83203125 14.41796875 7.83203125 14.41796875 5.8125 12.1875 C5.13832031 11.45917969 4.46414063 10.73085937 3.76953125 9.98046875 C3.18558594 9.32691406 2.60164063 8.67335938 2 8 C1.34 7.34 0.68 6.68 0 6 C0 4.02 0 2.04 0 0 Z " fill="#EDEDEF" transform="translate(300,75)"/>
<path d="M0 0 C4.95 0 9.9 0 15 0 C15 3.96 15 7.92 15 12 C10.05 12 5.1 12 0 12 C0 8.04 0 4.08 0 0 Z " fill="#EEEEEF" transform="translate(195,30)"/>
<path d="M0 0 C4.95 0 9.9 0 15 0 C15 3.96 15 7.92 15 12 C10.05 12 5.1 12 0 12 C0 8.04 0 4.08 0 0 Z " fill="#EEEEEF" transform="translate(165,30)"/>
<path d="M0 0 C4.95 0 9.9 0 15 0 C15 3.96 15 7.92 15 12 C10.05 12 5.1 12 0 12 C0 8.04 0 4.08 0 0 Z " fill="#EEEEEF" transform="translate(135,30)"/>
<path d="M0 0 C4.95 0 9.9 0 15 0 C15 3.96 15 7.92 15 12 C10.05 12 5.1 12 0 12 C0 8.04 0 4.08 0 0 Z " fill="#EEEEEF" transform="translate(105,30)"/>
<path d="M0 0 C4.95 0 9.9 0 15 0 C15 3.96 15 7.92 15 12 C10.05 12 5.1 12 0 12 C0 8.04 0 4.08 0 0 Z " fill="#EEEEEF" transform="translate(75,30)"/>
<path d="M0 0 C4.95 0 9.9 0 15 0 C15 3.96 15 7.92 15 12 C10.05 12 5.1 12 0 12 C0 8.04 0 4.08 0 0 Z " fill="#EEEEEF" transform="translate(45,30)"/>
<path d="M0 0 C10.56 0 21.12 0 32 0 C32 0.33 32 0.66 32 1 C27.05 1 22.1 1 17 1 C17 3.97 17 6.94 17 10 C12.05 10 7.1 10 2 10 C2 7.03 2 4.06 2 1 C1.34 0.67 0.68 0.34 0 0 Z " fill="#FFFFFF" transform="translate(28,275)"/>
<path d="M0 0 C3.63 0 7.26 0 11 0 C11 4.95 11 9.9 11 15 C7.37 15 3.74 15 0 15 C0 10.05 0 5.1 0 0 Z " fill="#EEEEEF" transform="translate(15,240)"/>
<path d="M0 0 C3.63 0 7.26 0 11 0 C11 4.95 11 9.9 11 15 C7.37 15 3.74 15 0 15 C0 10.05 0 5.1 0 0 Z " fill="#EEEEEF" transform="translate(15,210)"/>
<path d="M0 0 C3.63 0 7.26 0 11 0 C11 4.95 11 9.9 11 15 C7.37 15 3.74 15 0 15 C0 10.05 0 5.1 0 0 Z " fill="#EEEEEF" transform="translate(15,180)"/>
<path d="M0 0 C3.63 0 7.26 0 11 0 C11 4.95 11 9.9 11 15 C7.37 15 3.74 15 0 15 C0 10.05 0 5.1 0 0 Z " fill="#EEEEEF" transform="translate(15,150)"/>
<path d="M0 0 C3.63 0 7.26 0 11 0 C11 4.95 11 9.9 11 15 C7.37 15 3.74 15 0 15 C0 10.05 0 5.1 0 0 Z " fill="#EEEEEF" transform="translate(15,120)"/>
<path d="M0 0 C3.63 0 7.26 0 11 0 C11 4.95 11 9.9 11 15 C7.37 15 3.74 15 0 15 C0 10.05 0 5.1 0 0 Z " fill="#EEEEEF" transform="translate(15,90)"/>
<path d="M0 0 C3.63 0 7.26 0 11 0 C11 4.95 11 9.9 11 15 C7.37 15 3.74 15 0 15 C0 10.05 0 5.1 0 0 Z " fill="#EEEEEF" transform="translate(15,60)"/>
<path d="M0 0 C3.63 0 7.26 0 11 0 C11 4.62 11 9.24 11 14 C4.07 14 -2.86 14 -10 14 C-10 13.67 -10 13.34 -10 13 C-6.7 13 -3.4 13 0 13 C0 8.71 0 4.42 0 0 Z " fill="#CFD1E4" transform="translate(71,182)"/>
<path d="M0 0 C0.73822998 0.23605957 1.47645996 0.47211914 2.23706055 0.71533203 C1.36061983 6.3682559 -3.18217466 9.60725698 -7.07543945 13.46533203 C-7.84823242 14.25810547 -8.62102539 15.05087891 -9.41723633 15.86767578 C-10.16682617 16.61662109 -10.91641602 17.36556641 -11.6887207 18.13720703 C-12.37361572 18.82395508 -13.05851074 19.51070312 -13.76416016 20.21826172 C-15.76293945 21.71533203 -15.76293945 21.71533203 -19.76293945 21.71533203 C-20.06762999 18.64020835 -20.06614898 17.15422869 -18.28173828 14.57128906 C-16.06097177 12.31134029 -13.8371177 10.05947667 -11.57543945 7.84033203 C-10.80651367 7.04369141 -10.03758789 6.24705078 -9.24536133 5.42626953 C-8.49448242 4.67861328 -7.74360352 3.93095703 -6.9699707 3.16064453 C-6.28394775 2.47502441 -5.5979248 1.7894043 -4.89111328 1.08300781 C-2.76293945 -0.28466797 -2.76293945 -0.28466797 0 0 Z " fill="#2A3585" transform="translate(207.762939453125,209.28466796875)"/>
<path d="M0 0 C4.95 0 9.9 0 15 0 C15 2.97 15 5.94 15 9 C10.05 9 5.1 9 0 9 C0 6.03 0 3.06 0 0 Z " fill="#EEEEEF" transform="translate(45,276)"/>
<path d="M0 0 C3.63 0 7.26 0 11 0 C11 3.63 11 7.26 11 11 C7.04 11 3.08 11 -1 11 C-0.67 7.37 -0.34 3.74 0 0 Z " fill="#D3D5E7" transform="translate(71,128)"/>
<path d="M0 0 C9.57 0 19.14 0 29 0 C29 0.33 29 0.66 29 1 C24.38 1 19.76 1 15 1 C15 2.98 15 4.96 15 7 C10.05 7 5.1 7 0 7 C0 4.69 0 2.38 0 0 Z " fill="#FFFFFF" transform="translate(240,308)"/>
<path d="M0 0 C7.48291572 6.15034169 7.48291572 6.15034169 10 10 C4.70201036 12.08135307 -0.45563871 13.71291613 -6 15 C-5.38062492 13.06069452 -4.75429312 11.12360987 -4.125 9.1875 C-3.77695313 8.10855469 -3.42890625 7.02960938 -3.0703125 5.91796875 C-2 3 -2 3 0 0 Z " fill="#595FA0" transform="translate(158,237)"/>
<path d="M0 0 C0.99 0 1.98 0 3 0 C3 5.94 3 11.88 3 18 C-2.94 18 -8.88 18 -15 18 C-15 17.01 -15 16.02 -15 15 C-10.05 15 -5.1 15 0 15 C0 10.05 0 5.1 0 0 Z " fill="#EFEFF0" transform="translate(345,330)"/>
<path d="M0 0 C0 2.31 0 4.62 0 7 C-4.95 7 -9.9 7 -15 7 C-15 5.02 -15 3.04 -15 1 C-12.68753088 0.83290546 -10.37502385 0.66633538 -8.0625 0.5 C-6.77472656 0.4071875 -5.48695313 0.314375 -4.16015625 0.21875 C-1 0 -1 0 0 0 Z " fill="#EEEEEF" transform="translate(270,308)"/>
<path d="M0 0 C4.95 0 9.9 0 15 0 C15 1.98 15 3.96 15 6 C10.05 6 5.1 6 0 6 C0 4.02 0 2.04 0 0 Z " fill="#EEEEEF" transform="translate(225,309)"/>
<path d="M0 0 C4.95 0 9.9 0 15 0 C15 1.98 15 3.96 15 6 C10.05 6 5.1 6 0 6 C0 4.02 0 2.04 0 0 Z " fill="#EEEEEF" transform="translate(195,309)"/>
<path d="M0 0 C4.95 0 9.9 0 15 0 C15 1.98 15 3.96 15 6 C10.05 6 5.1 6 0 6 C0 4.02 0 2.04 0 0 Z " fill="#EEEEEF" transform="translate(165,309)"/>
<path d="M0 0 C4.95 0 9.9 0 15 0 C15 1.98 15 3.96 15 6 C10.05 6 5.1 6 0 6 C0 4.02 0 2.04 0 0 Z " fill="#EEEEEF" transform="translate(135,309)"/>
<path d="M0 0 C4.95 0 9.9 0 15 0 C15 1.98 15 3.96 15 6 C10.05 6 5.1 6 0 6 C0 4.02 0 2.04 0 0 Z " fill="#EEEEEF" transform="translate(105,309)"/>
<path d="M0 0 C1.98 0 3.96 0 6 0 C6 4.95 6 9.9 6 15 C4.02 15 2.04 15 0 15 C0 10.05 0 5.1 0 0 Z " fill="#EEEEEF" transform="translate(219,45)"/>
<path d="M0 0 C2.97 0.495 2.97 0.495 6 1 C6 5.95 6 10.9 6 16 C3.69 16 1.38 16 -1 16 C-0.83628906 15.46890625 -0.67257812 14.9378125 -0.50390625 14.390625 C0.11356377 11.46123236 0.09501925 8.74177064 0.0625 5.75 C0.05347656 4.67234375 0.04445313 3.5946875 0.03515625 2.484375 C0.02355469 1.66453125 0.01195312 0.8446875 0 0 Z " fill="#FCFDFD" transform="translate(324,104)"/>
<path d="M0 0 C4.95 0 9.9 0 15 0 C15 1.65 15 3.3 15 5 C15.66 5.33 16.32 5.66 17 6 C16.360625 5.835 15.72125 5.67 15.0625 5.5 C9.36865509 4.57039267 3.61059324 4.55210497 -2 6 C-1.34 5.67 -0.68 5.34 0 5 C0 3.35 0 1.7 0 0 Z " fill="#FDFDFE" transform="translate(285,75)"/>
<path d="M0 0 C1.79244141 0.01740234 1.79244141 0.01740234 3.62109375 0.03515625 C5.41740234 0.04869141 5.41740234 0.04869141 7.25 0.0625 C8.17683594 0.07410156 9.10367188 0.08570313 10.05859375 0.09765625 C7.2399409 4.32563552 7.2399409 4.32563552 5.05859375 6.09765625 C2.20212896 6.63621338 -0.0064253 6.39612889 -2.94140625 6.09765625 C-3.32359392 4.44150968 -3.65535727 2.77308601 -3.94140625 1.09765625 C-2.94140625 0.09765625 -2.94140625 0.09765625 0 0 Z " fill="#D6D8E8" transform="translate(172.94140625,181.90234375)"/>
<path d="M0 0 C0 1.98 0 3.96 0 6 C-0.825 6.165 -1.65 6.33 -2.5 6.5 C-7.34127691 8.57483296 -10.82956797 11.80050172 -14 16 C-14.76962569 18.65226904 -14.76962569 18.65226904 -15 21 C-17.31 21.33 -19.62 21.66 -22 22 C-22 21.34 -22 20.68 -22 20 C-20.70703125 18.73046875 -20.70703125 18.73046875 -18.8125 17.1875 C-14.03297565 13.1472546 -9.68017055 8.73619852 -5.3059082 4.26831055 C-1.10122 0 -1.10122 0 0 0 Z " fill="#F8F8FA" transform="translate(315,129)"/>
<path d="M0 0 C3.63 0 7.26 0 11 0 C11 3.63 11 7.26 11 11 C7.04 11 3.08 11 -1 11 C-0.67 10.34 -0.34 9.68 0 9 C2.97 9 5.94 9 9 9 C9 6.36 9 3.72 9 1 C6.03 1 3.06 1 0 1 C0 0.67 0 0.34 0 0 Z " fill="#C5C7DC" transform="translate(71,128)"/>
<path d="M0 0 C4.95 0 9.9 0 15 0 C15 0.99 15 1.98 15 3 C10.05 3 5.1 3 0 3 C0 2.01 0 1.02 0 0 Z " fill="#FFFFFF" transform="translate(315,345)"/>
<path d="M0 0 C4.95 0 9.9 0 15 0 C15 0.99 15 1.98 15 3 C10.05 3 5.1 3 0 3 C0 2.01 0 1.02 0 0 Z " fill="#EEEEEF" transform="translate(300,345)"/>
<path d="M0 0 C4.95 0 9.9 0 15 0 C15 0.99 15 1.98 15 3 C10.05 3 5.1 3 0 3 C0 2.01 0 1.02 0 0 Z " fill="#FFFFFF" transform="translate(285,345)"/>
<path d="M0 0 C4.95 0 9.9 0 15 0 C15 0.99 15 1.98 15 3 C10.05 3 5.1 3 0 3 C0 2.01 0 1.02 0 0 Z " fill="#EEEEEF" transform="translate(270,345)"/>
<path d="M0 0 C4.95 0 9.9 0 15 0 C15 0.99 15 1.98 15 3 C10.05 3 5.1 3 0 3 C0 2.01 0 1.02 0 0 Z " fill="#FFFFFF" transform="translate(255,345)"/>
<path d="M0 0 C4.95 0 9.9 0 15 0 C15 0.99 15 1.98 15 3 C10.05 3 5.1 3 0 3 C0 2.01 0 1.02 0 0 Z " fill="#EEEEEF" transform="translate(240,345)"/>
<path d="M0 0 C4.95 0 9.9 0 15 0 C15 0.99 15 1.98 15 3 C10.05 3 5.1 3 0 3 C0 2.01 0 1.02 0 0 Z " fill="#FFFFFF" transform="translate(225,345)"/>
<path d="M0 0 C4.95 0 9.9 0 15 0 C15 0.99 15 1.98 15 3 C10.05 3 5.1 3 0 3 C0 2.01 0 1.02 0 0 Z " fill="#EEEEEF" transform="translate(210,345)"/>
<path d="M0 0 C4.95 0 9.9 0 15 0 C15 0.99 15 1.98 15 3 C10.05 3 5.1 3 0 3 C0 2.01 0 1.02 0 0 Z " fill="#FFFFFF" transform="translate(195,345)"/>
<path d="M0 0 C4.95 0 9.9 0 15 0 C15 0.99 15 1.98 15 3 C10.05 3 5.1 3 0 3 C0 2.01 0 1.02 0 0 Z " fill="#EEEEEF" transform="translate(180,345)"/>
<path d="M0 0 C4.95 0 9.9 0 15 0 C15 0.99 15 1.98 15 3 C10.05 3 5.1 3 0 3 C0 2.01 0 1.02 0 0 Z " fill="#FFFFFF" transform="translate(165,345)"/>
<path d="M0 0 C4.95 0 9.9 0 15 0 C15 0.99 15 1.98 15 3 C10.05 3 5.1 3 0 3 C0 2.01 0 1.02 0 0 Z " fill="#EEEEEF" transform="translate(150,345)"/>
<path d="M0 0 C4.95 0 9.9 0 15 0 C15 0.99 15 1.98 15 3 C10.05 3 5.1 3 0 3 C0 2.01 0 1.02 0 0 Z " fill="#FFFFFF" transform="translate(135,345)"/>
<path d="M0 0 C4.95 0 9.9 0 15 0 C15 0.99 15 1.98 15 3 C10.05 3 5.1 3 0 3 C0 2.01 0 1.02 0 0 Z " fill="#EEEEEF" transform="translate(120,345)"/>
<path d="M0 0 C4.95 0 9.9 0 15 0 C15 0.99 15 1.98 15 3 C10.05 3 5.1 3 0 3 C0 2.01 0 1.02 0 0 Z " fill="#FFFFFF" transform="translate(105,345)"/>
<path d="M0 0 C4.95 0 9.9 0 15 0 C15 0.99 15 1.98 15 3 C10.05 3 5.1 3 0 3 C0 2.01 0 1.02 0 0 Z " fill="#EEEEEF" transform="translate(90,345)"/>
<path d="M0 0 C4.95 0 9.9 0 15 0 C15 0.99 15 1.98 15 3 C10.05 3 5.1 3 0 3 C0 2.01 0 1.02 0 0 Z " fill="#FFFFFF" transform="translate(75,345)"/>
<path d="M0 0 C4.95 0 9.9 0 15 0 C15 0.99 15 1.98 15 3 C10.05 3 5.1 3 0 3 C0 2.01 0 1.02 0 0 Z " fill="#EEEEEF" transform="translate(60,345)"/>
<path d="M0 0 C4.95 0 9.9 0 15 0 C15 0.99 15 1.98 15 3 C10.05 3 5.1 3 0 3 C0 2.01 0 1.02 0 0 Z " fill="#EEEEEF" transform="translate(30,345)"/>
<path d="M0 0 C4.95 0 9.9 0 15 0 C15 0.99 15 1.98 15 3 C10.05 3 5.1 3 0 3 C0 2.01 0 1.02 0 0 Z " fill="#EEEEEF" transform="translate(0,345)"/>
<path d="M0 0 C0.99 0 1.98 0 3 0 C3 4.95 3 9.9 3 15 C2.01 15 1.02 15 0 15 C0 10.05 0 5.1 0 0 Z " fill="#FFFFFF" transform="translate(345,315)"/>
<path d="M0 0 C0.99 0 1.98 0 3 0 C3 4.95 3 9.9 3 15 C2.01 15 1.02 15 0 15 C0 10.05 0 5.1 0 0 Z " fill="#EEEEEF" transform="translate(345,300)"/>
<path d="M0 0 C0.99 0 1.98 0 3 0 C3 4.95 3 9.9 3 15 C2.01 15 1.02 15 0 15 C0 10.05 0 5.1 0 0 Z " fill="#FFFFFF" transform="translate(345,285)"/>
<path d="M0 0 C1.65 0 3.3 0 5 0 C5 2.97 5 5.94 5 9 C3.35 9 1.7 9 0 9 C0 6.03 0 3.06 0 0 Z " fill="#EEEEEF" transform="translate(75,276)"/>
<path d="M0 0 C0.99 0 1.98 0 3 0 C3 4.95 3 9.9 3 15 C2.01 15 1.02 15 0 15 C0 10.05 0 5.1 0 0 Z " fill="#EEEEEF" transform="translate(345,270)"/>
<path d="M0 0 C0.99 0 1.98 0 3 0 C3 4.95 3 9.9 3 15 C2.01 15 1.02 15 0 15 C0 10.05 0 5.1 0 0 Z " fill="#FFFFFF" transform="translate(345,255)"/>
<path d="M0 0 C0.99 0 1.98 0 3 0 C3 4.95 3 9.9 3 15 C2.01 15 1.02 15 0 15 C0 10.05 0 5.1 0 0 Z " fill="#EEEEEF" transform="translate(345,240)"/>
<path d="M0 0 C0.99 0 1.98 0 3 0 C3 4.95 3 9.9 3 15 C2.01 15 1.02 15 0 15 C0 10.05 0 5.1 0 0 Z " fill="#FFFFFF" transform="translate(345,225)"/>
<path d="M0 0 C0.99 0 1.98 0 3 0 C3 4.95 3 9.9 3 15 C2.01 15 1.02 15 0 15 C0 10.05 0 5.1 0 0 Z " fill="#EEEEEF" transform="translate(345,210)"/>
<path d="M0 0 C0.99 0 1.98 0 3 0 C3 4.95 3 9.9 3 15 C2.01 15 1.02 15 0 15 C0 10.05 0 5.1 0 0 Z " fill="#FFFFFF" transform="translate(345,195)"/>
<path d="M0 0 C0.99 0 1.98 0 3 0 C3 4.95 3 9.9 3 15 C2.01 15 1.02 15 0 15 C0 10.05 0 5.1 0 0 Z " fill="#EEEEEF" transform="translate(345,180)"/>
<path d="M0 0 C0.99 0 1.98 0 3 0 C3 4.95 3 9.9 3 15 C2.01 15 1.02 15 0 15 C0 10.05 0 5.1 0 0 Z " fill="#FFFFFF" transform="translate(345,165)"/>
<path d="M0 0 C0.99 0 1.98 0 3 0 C3 4.95 3 9.9 3 15 C2.01 15 1.02 15 0 15 C0 10.05 0 5.1 0 0 Z " fill="#EEEEEF" transform="translate(345,150)"/>
<path d="M0 0 C0.99 0 1.98 0 3 0 C3 4.95 3 9.9 3 15 C2.01 15 1.02 15 0 15 C0 10.05 0 5.1 0 0 Z " fill="#FFFFFF" transform="translate(345,135)"/>
<path d="M0 0 C0.99 0 1.98 0 3 0 C3 4.95 3 9.9 3 15 C2.01 15 1.02 15 0 15 C0 10.05 0 5.1 0 0 Z " fill="#EEEEEF" transform="translate(345,120)"/>
<path d="M0 0 C0.99 0 1.98 0 3 0 C3 4.95 3 9.9 3 15 C2.01 15 1.02 15 0 15 C0 10.05 0 5.1 0 0 Z " fill="#FFFFFF" transform="translate(345,105)"/>
<path d="M0 0 C0.99 0 1.98 0 3 0 C3 4.95 3 9.9 3 15 C2.01 15 1.02 15 0 15 C0 10.05 0 5.1 0 0 Z " fill="#EEEEEF" transform="translate(345,90)"/>
<path d="M0 0 C0.99 0 1.98 0 3 0 C3 4.95 3 9.9 3 15 C2.01 15 1.02 15 0 15 C0 10.05 0 5.1 0 0 Z " fill="#FFFFFF" transform="translate(345,75)"/>
<path d="M0 0 C0.99 0 1.98 0 3 0 C3 4.95 3 9.9 3 15 C2.01 15 1.02 15 0 15 C0 10.05 0 5.1 0 0 Z " fill="#EEEEEF" transform="translate(345,60)"/>
<path d="M0 0 C0.99 0 1.98 0 3 0 C3 4.95 3 9.9 3 15 C2.01 15 1.02 15 0 15 C0 10.05 0 5.1 0 0 Z " fill="#EEEEEF" transform="translate(345,30)"/>
<path d="M0 0 C0.99 0 1.98 0 3 0 C3 4.95 3 9.9 3 15 C2.01 15 1.02 15 0 15 C0 10.05 0 5.1 0 0 Z " fill="#EEEEEF" transform="translate(345,0)"/>
<path d="M0 0 C2 2 2 2 2 5 C2.66 5 3.32 5 4 5 C4.66 4.34 5.32 3.68 6 3 C8.625 3.375 8.625 3.375 11 4 C10 6 10 6 7.8203125 6.8515625 C6.48613281 7.23441406 6.48613281 7.23441406 5.125 7.625 C4.24070313 7.88539063 3.35640625 8.14578125 2.4453125 8.4140625 C0 9 0 9 -3 9 C-2.01 6.03 -1.02 3.06 0 0 Z " fill="#676CAB" transform="translate(155,242)"/>
<path d="M0 0 C1.2065625 0.0309375 1.2065625 0.0309375 2.4375 0.0625 C2.7675 0.7225 3.0975 1.3825 3.4375 2.0625 C2.5 4.6875 2.5 4.6875 1.4375 7.0625 C0.1175 6.7325 -1.2025 6.4025 -2.5625 6.0625 C-2.94468767 4.40635343 -3.27645102 2.73792976 -3.5625 1.0625 C-2.5625 0.0625 -2.5625 0.0625 0 0 Z " fill="#ABAED1" transform="translate(206.5625,237.9375)"/>
<path d="M0 0 C1.32 0 2.64 0 4 0 C4.185625 0.680625 4.37125 1.36125 4.5625 2.0625 C6.58082253 6.18689821 9.66287393 8.90378945 13 12 C12.67 12.66 12.34 13.32 12 14 C9.99387601 12.04761147 7.99507567 10.08862178 6 8.125 C5.42765625 7.56941406 4.8553125 7.01382813 4.265625 6.44140625 C2.80549218 4.99865596 1.39850702 3.5025626 0 2 C0 1.34 0 0.68 0 0 Z " fill="#F5F5F8" transform="translate(311,90)"/>
<path d="M0 0 C0.33 0 0.66 0 1 0 C1 1.98 1 3.96 1 6 C-0.98 6 -2.96 6 -5 6 C-3.35830472 3.97945196 -1.69088222 1.97956942 0 0 Z " fill="#FFFFFF" transform="translate(314,129)"/>
<path d="M0 0 C2.31 1.98 4.62 3.96 7 6 C6.34 6.66 5.68 7.32 5 8 C4.34 6.68 3.68 5.36 3 4 C2.34 4 1.68 4 1 4 C1 3.34 1 2.68 1 2 C0.34 1.67 -0.32 1.34 -1 1 C-0.67 0.67 -0.34 0.34 0 0 Z " fill="#C99D29" transform="translate(284,138)"/>
<path d="M0 0 C0 0.66 0 1.32 0 2 C-1.98 2.33 -3.96 2.66 -6 3 C-6 2.01 -6 1.02 -6 0 C-3 -1 -3 -1 0 0 Z " fill="#A8ACD0" transform="translate(203,242)"/>
</svg>
