<?xml version="1.0" encoding="UTF-8"?>
<svg version="1.1" xmlns="http://www.w3.org/2000/svg" width="325" height="325">
<path d="M0 0 C107.25 0 214.5 0 325 0 C325 107.25 325 214.5 325 325 C217.75 325 110.5 325 0 325 C0 217.75 0 110.5 0 0 Z " fill="#EEF0F3" transform="translate(0,0)"/>
<path d="M0 0 C21.94427183 18.6818214 37.78445163 44.12839545 42 73 C42.11085938 73.74894531 42.22171875 74.49789062 42.3359375 75.26953125 C46.16356385 106.45951357 38.41536442 138.47266951 19.11328125 163.4609375 C-0.53086119 187.06295706 -25.81204346 204.5346715 -57 208 C-57 180.94 -57 153.88 -57 126 C-47.76 126 -38.52 126 -29 126 C-28.8453125 123.15375 -28.8453125 123.15375 -28.6875 120.25 C-28.02365212 110.74135533 -26.48304169 101.41409075 -25 92 C-35.56 92 -46.12 92 -57 92 C-57.0825 87.359375 -57.165 82.71875 -57.25 77.9375 C-57.28641602 76.48722412 -57.32283203 75.03694824 -57.36035156 73.54272461 C-57.42098332 66.5021067 -57.43509191 61.62479723 -53 56 C-48.4894842 51.71500999 -45.09711802 50.86526148 -39.015625 50.90234375 C-38.17290039 50.90484131 -37.33017578 50.90733887 -36.46191406 50.90991211 C-35.40198242 50.91901611 -34.34205078 50.92812012 -33.25 50.9375 C-29.8675 50.958125 -26.485 50.97875 -23 51 C-23 41.1 -23 31.2 -23 21 C-25.97 21 -28.94 21 -32 21 C-34.33501306 20.67864415 -36.66842508 20.34541851 -39 20 C-53.45291541 19.07135427 -67.0855596 19.87800657 -79 29 C-87.56824409 36.78170606 -92.74126532 47.6381507 -93.31884766 59.21289062 C-93.35970754 60.69378685 -93.39113113 62.17496768 -93.4140625 63.65625 C-93.43342865 64.44398804 -93.4527948 65.23172607 -93.4727478 66.04333496 C-93.53193546 68.52878412 -93.57868226 71.01428115 -93.625 73.5 C-93.66323595 75.19793548 -93.70229084 76.89585273 -93.7421875 78.59375 C-93.83910895 82.72906506 -93.91915647 86.86421525 -94 91 C-103.9 91 -113.8 91 -124 91 C-124 102.55 -124 114.1 -124 126 C-114.1 126 -104.2 126 -94 126 C-94 153.06 -94 180.12 -94 208 C-123.30216809 204.74420355 -150.650472 187.8773336 -169 165 C-188.75412457 138.82128173 -197.33780823 106.81354282 -193.05004883 74.19067383 C-188.31632259 42.62869675 -171.1264188 14.51208977 -145.5234375 -4.51171875 C-102.19036333 -35.73029939 -41.03809274 -34.74124253 0 0 Z " fill="#FEFEFE" transform="translate(238,71)"/>
<path d="M0 0 C0 9.9 0 19.8 0 30 C-10.0625 30.3125 -10.0625 30.3125 -13.19165039 30.38793945 C-20.02584166 30.65888115 -25.46072561 31.32707959 -30.375 36.5 C-33.02800989 40.58155368 -33.17038883 43.85986323 -33.31640625 48.63671875 C-33.35451416 49.80678467 -33.39262207 50.97685059 -33.43188477 52.18237305 C-33.47498779 53.66906494 -33.51809082 55.15575684 -33.5625 56.6875 C-33.706875 61.410625 -33.85125 66.13375 -34 71 C-23.44 71 -12.88 71 -2 71 C-2 76.23743116 -2.07060096 80.44125598 -2.875 85.46875 C-3.03742188 86.50451172 -3.19984375 87.54027344 -3.3671875 88.60742188 C-3.57601562 89.89197266 -3.78484375 91.17652344 -4 92.5 C-4.66 96.625 -5.32 100.75 -6 105 C-15.24 105 -24.48 105 -34 105 C-34 132.39 -34 159.78 -34 188 C-37.94157992 188.78831598 -41.01414093 189.12846458 -44.96484375 189.1328125 C-46.09470703 189.13410156 -47.22457031 189.13539063 -48.38867188 189.13671875 C-49.55978516 189.13285156 -50.73089844 189.12898437 -51.9375 189.125 C-53.10474609 189.12886719 -54.27199219 189.13273438 -55.47460938 189.13671875 C-57.17133789 189.13478516 -57.17133789 189.13478516 -58.90234375 189.1328125 C-59.92835693 189.13168457 -60.95437012 189.13055664 -62.01147461 189.12939453 C-65 189 -65 189 -71 188 C-71 160.61 -71 133.22 -71 105 C-80.9 105 -90.8 105 -101 105 C-101 93.45 -101 81.9 -101 70 C-91.1 70 -81.2 70 -71 70 C-71.04640625 67.55207031 -71.0928125 65.10414063 -71.140625 62.58203125 C-71.17197282 60.16579249 -71.19617333 57.74957786 -71.21972656 55.33325195 C-71.23963061 53.67591934 -71.26676414 52.01865494 -71.30175781 50.36157227 C-71.61767449 34.99780092 -69.94373125 21.44998019 -58.9296875 9.8125 C-54.08313376 5.21925046 -49.32950147 2.12099696 -43 0 C-42.04287109 -0.33644531 -42.04287109 -0.33644531 -41.06640625 -0.6796875 C-28.07248142 -4.37776357 -13.08569454 -1.90337375 0 0 Z " fill="#0F8CF0" transform="translate(215,92)"/>
</svg>
