<?xml version="1.0" encoding="UTF-8"?>
<svg version="1.1" xmlns="http://www.w3.org/2000/svg" width="225" height="225">
<path d="M0 0 C74.25 0 148.5 0 225 0 C225 74.25 225 148.5 225 225 C150.75 225 76.5 225 0 225 C0 150.75 0 76.5 0 0 Z " fill="#C55A88" transform="translate(0,0)"/>
<path d="M0 0 C1.73814088 -0.00457457 3.47627996 -0.00988387 5.2144165 -0.0158844 C8.8419127 -0.0247695 12.46918822 -0.02244675 16.09667969 -0.01245117 C20.7001285 -0.00099022 25.30280687 -0.02115243 29.90615463 -0.05036831 C33.49258101 -0.06889434 37.07882851 -0.06840519 40.66529083 -0.06273079 C42.36022265 -0.06257945 44.0551681 -0.06846529 45.75005341 -0.08102226 C61.60129951 -0.18191493 77.88969714 1.21149921 90.09765625 12.46875 C102.86571995 25.90008974 104.36531305 41.90557824 104.32421875 59.54296875 C104.32879332 61.28110963 104.33410262 63.01924871 104.34010315 64.75738525 C104.34898825 68.38488145 104.3466655 72.01215697 104.33666992 75.63964844 C104.32520897 80.24309725 104.34537118 84.84577562 104.37458706 89.44912338 C104.39311309 93.03554976 104.39262394 96.62179726 104.38694954 100.20825958 C104.3867982 101.9031914 104.39268404 103.59813685 104.40524101 105.29302216 C104.51030528 121.79966798 102.84632399 137.96835112 90.90625 150.51953125 C77.36781228 162.95600311 60.73343176 164.05921782 43.25 163.9296875 C41.50799499 163.92984304 39.76598965 163.93134114 38.02398682 163.93409729 C34.40352762 163.93546919 30.78347044 163.92312383 27.16308594 163.90014648 C22.55496031 163.87167985 17.94749642 163.87453873 13.33932114 163.8872366 C9.75305661 163.89423361 6.16694152 163.88636028 2.58069611 163.87397957 C0.88247503 163.86951006 -0.81576233 163.86908819 -2.51398468 163.87304497 C-17.63402658 163.89180424 -30.52825768 162.00887034 -43.296875 153.24609375 C-57.67052155 138.8724472 -59.42839744 122.8293413 -59.4453125 103.484375 C-59.45175494 101.74098099 -59.45848433 99.99758802 -59.46548462 98.25419617 C-59.47740912 94.61060077 -59.48117054 90.96709983 -59.47998047 87.32348633 C-59.47977777 82.69525553 -59.50705137 78.06764206 -59.54152489 73.43955708 C-59.5639596 69.84032 -59.56781296 66.2412275 -59.56676102 62.64192772 C-59.56909324 60.9377855 -59.57777942 59.2336378 -59.59342575 57.52956581 C-59.7299908 41.11824278 -57.80718884 26.03868748 -46.23046875 13.37890625 C-33.22155711 1.13213287 -16.92963603 -0.03944527 0 0 Z " fill="#E14F6D" transform="translate(90.109375,30.56640625)"/>
<path d="M0 0 C1.73814088 -0.00457457 3.47627996 -0.00988387 5.2144165 -0.0158844 C8.8419127 -0.0247695 12.46918822 -0.02244675 16.09667969 -0.01245117 C20.7001285 -0.00099022 25.30280687 -0.02115243 29.90615463 -0.05036831 C33.49258101 -0.06889434 37.07882851 -0.06840519 40.66529083 -0.06273079 C42.36022265 -0.06257945 44.0551681 -0.06846529 45.75005341 -0.08102226 C61.60129951 -0.18191493 77.88969714 1.21149921 90.09765625 12.46875 C102.86571995 25.90008974 104.36531305 41.90557824 104.32421875 59.54296875 C104.32879332 61.28110963 104.33410262 63.01924871 104.34010315 64.75738525 C104.34898825 68.38488145 104.3466655 72.01215697 104.33666992 75.63964844 C104.32520897 80.24309725 104.34537118 84.84577562 104.37458706 89.44912338 C104.39311309 93.03554976 104.39262394 96.62179726 104.38694954 100.20825958 C104.3867982 101.9031914 104.39268404 103.59813685 104.40524101 105.29302216 C104.51030528 121.79966798 102.84632399 137.96835112 90.90625 150.51953125 C77.36781228 162.95600311 60.73343176 164.05921782 43.25 163.9296875 C41.50799499 163.92984304 39.76598965 163.93134114 38.02398682 163.93409729 C34.40352762 163.93546919 30.78347044 163.92312383 27.16308594 163.90014648 C22.55496031 163.87167985 17.94749642 163.87453873 13.33932114 163.8872366 C9.75305661 163.89423361 6.16694152 163.88636028 2.58069611 163.87397957 C0.88247503 163.86951006 -0.81576233 163.86908819 -2.51398468 163.87304497 C-17.63402658 163.89180424 -30.52825768 162.00887034 -43.296875 153.24609375 C-57.67052155 138.8724472 -59.42839744 122.8293413 -59.4453125 103.484375 C-59.45175494 101.74098099 -59.45848433 99.99758802 -59.46548462 98.25419617 C-59.47740912 94.61060077 -59.48117054 90.96709983 -59.47998047 87.32348633 C-59.47977777 82.69525553 -59.50705137 78.06764206 -59.54152489 73.43955708 C-59.5639596 69.84032 -59.56781296 66.2412275 -59.56676102 62.64192772 C-59.56909324 60.9377855 -59.57777942 59.2336378 -59.59342575 57.52956581 C-59.7299908 41.11824278 -57.80718884 26.03868748 -46.23046875 13.37890625 C-33.22155711 1.13213287 -16.92963603 -0.03944527 0 0 Z M-37.234375 25.62109375 C-42.23320039 33.11933183 -44.25659165 40.13481497 -44.27050781 49.07275391 C-44.27547272 49.83756073 -44.28043762 50.60236755 -44.28555298 51.39035034 C-44.30014254 53.91779487 -44.30697282 56.44517654 -44.3125 58.97265625 C-44.31825603 60.73660279 -44.3240137 62.50054932 -44.32977295 64.26449585 C-44.34027518 67.96490774 -44.34612229 71.66529796 -44.34960938 75.36572266 C-44.355079 80.08641369 -44.3790774 84.8068141 -44.40758133 89.52741432 C-44.42629447 93.17362273 -44.431418 96.81976251 -44.43294525 100.46601486 C-44.435955 102.20498612 -44.44392623 103.94395667 -44.45713043 105.6828804 C-44.58442611 121.57624604 -44.58442611 121.57624604 -38.546875 136.05859375 C-38.13308594 136.71085937 -37.71929687 137.363125 -37.29296875 138.03515625 C-36.90238281 138.49664062 -36.51179688 138.958125 -36.109375 139.43359375 C-35.449375 139.43359375 -34.789375 139.43359375 -34.109375 139.43359375 C-33.779375 140.42359375 -33.449375 141.41359375 -33.109375 142.43359375 C-30.96468838 143.8673892 -30.96468838 143.8673892 -28.359375 145.05859375 C-27.49828125 145.48398438 -26.6371875 145.909375 -25.75 146.34765625 C-20.67848757 148.43327822 -15.78203037 148.58623692 -10.35668945 148.59472656 C-9.5917366 148.59969147 -8.82678375 148.60465637 -8.03865051 148.60977173 C-5.51664313 148.62433392 -2.99469871 148.63118632 -0.47265625 148.63671875 C1.28986104 148.64247621 3.05237834 148.64823386 4.81489563 148.6539917 C8.50933116 148.66448558 12.20374503 148.67033842 15.89819336 148.67382812 C20.61100861 148.67930166 25.32353334 148.70331206 30.03625774 148.73180008 C33.67817495 148.75051125 37.32002344 148.75563661 40.96198463 148.757164 C42.69816484 148.76017324 44.43434433 148.76814272 46.17047691 148.78134918 C59.49655425 148.87546228 70.09613935 148.30016444 80.515625 139.12109375 C87.24778339 131.50312505 89.19407972 123.36234414 89.18115234 113.37207031 C89.18786957 112.60989197 89.19458679 111.84771362 89.20150757 111.06243896 C89.22035775 108.56629748 89.2244053 106.07042679 89.2265625 103.57421875 C89.23300004 101.82077936 89.2397291 100.06734102 89.24673462 98.31390381 C89.25867542 94.64576734 89.26241881 90.97772482 89.26123047 87.30957031 C89.2610276 82.63839098 89.28831052 77.96782223 89.32277489 73.29678726 C89.34515258 69.67622175 89.34906468 66.05580058 89.34801102 62.43517303 C89.35035139 60.71459605 89.35908539 58.99401411 89.37467575 57.27350616 C89.47783147 44.71284881 89.11053879 32.61056272 79.80859375 23.05078125 C72.44102123 16.83861216 63.23141402 15.13090659 53.81323242 15.14306641 C53.04944778 15.13634918 52.28566315 15.12963196 51.49873352 15.12271118 C48.99778566 15.10386289 46.49710802 15.09981374 43.99609375 15.09765625 C42.24025873 15.09121925 40.48442476 15.08449023 38.72859192 15.07748413 C35.05625932 15.06554432 31.38402055 15.06179991 27.71166992 15.06298828 C23.03142489 15.0631913 18.35178822 15.03589227 13.67168713 15.00144386 C10.04687292 14.97908653 6.4222031 14.97515343 2.79732704 14.97620773 C1.0731325 14.97386494 -0.65106684 14.96511685 -2.37519264 14.949543 C-15.41167234 14.84280412 -27.5569681 15.65905723 -37.234375 25.62109375 Z " fill="#FDFBFC" transform="translate(90.109375,30.56640625)"/>
<path d="M0 0 C9.59527908 7.00430579 16.28622345 15.34171329 19 27 C20.33746993 39.48255787 19.31685617 51.51350953 11.6875 61.875 C4.89413363 69.83171241 -3.39841119 76.15707148 -14 78 C-32.14665171 78.97180833 -32.14665171 78.97180833 -40 75 C-40.81726563 74.5978125 -41.63453125 74.195625 -42.4765625 73.78125 C-51.5377182 68.8537333 -58.23254282 61.6424523 -62 52 C-62.35707031 51.11183594 -62.71414062 50.22367188 -63.08203125 49.30859375 C-65.69671908 39.88459123 -65.44405099 26.78336003 -61 18 C-55.27460155 8.29290958 -47.01496713 -0.54429278 -36.15234375 -4.37109375 C-24.09852443 -6.77588298 -10.71412857 -6.42558923 0 0 Z " fill="#FCFAFA" transform="translate(135,76)"/>
<path d="M0 0 C74.25 0 148.5 0 225 0 C225 74.25 225 148.5 225 225 C150.75 225 76.5 225 0 225 C0 150.75 0 76.5 0 0 Z M13.8125 17.82421875 C0.33858549 33.99872389 1.38937536 53.15517083 1.46269798 73.08543396 C1.47295485 76.75390757 1.46339765 80.42234476 1.45715332 84.09082031 C1.44991328 90.24681897 1.45936799 96.40262453 1.47851562 102.55859375 C1.50027746 109.63594161 1.49322348 116.71282824 1.47121 123.79016495 C1.45295117 129.90958679 1.45054842 136.02887128 1.46096468 142.14831161 C1.46714253 145.78437589 1.4681956 149.42022471 1.45481873 153.05627441 C0.48436271 180.18387226 0.48436271 180.18387226 11.48828125 204.16796875 C12.17760742 204.91916992 12.17760742 204.91916992 12.88085938 205.68554688 C13.35330078 206.18119141 13.82574219 206.67683594 14.3125 207.1875 C14.77333984 207.69474609 15.23417969 208.20199219 15.70898438 208.72460938 C20.40955595 213.76513884 24.93643817 217.32727983 32 218 C32 218.66 32 219.32 32 220 C46.39613522 223.76812494 60.86701039 223.44472837 75.64690375 223.40297651 C79.23489001 223.39527564 82.82285551 223.40245351 86.4108429 223.40713501 C92.42799073 223.41256058 98.44502733 223.4054836 104.4621582 223.39111328 C111.38442553 223.37477055 118.3064279 223.38009991 125.2286889 223.3965925 C131.21390134 223.41027263 137.19903475 223.41209603 143.18425781 223.40427649 C146.74084516 223.39963845 150.29730854 223.39886724 153.85388756 223.40888596 C157.82025579 223.41928325 161.78633463 223.40481226 165.75268555 223.38818359 C166.90575699 223.39425629 168.05882843 223.40032898 169.24684143 223.40658569 C185.60103653 223.28047122 198.62234362 219.0018226 210.515625 207.6796875 C219.12909025 198.38906303 223.10206037 186.80686006 223.14044189 174.23410034 C223.14615204 173.10728348 223.15186218 171.98046661 223.15774536 170.81950378 C223.15886322 169.59757828 223.15998108 168.37565277 223.16113281 167.11669922 C223.16609772 165.81836655 223.17106262 164.52003387 223.17617798 163.18235779 C223.18925068 159.63036823 223.1957372 156.07839753 223.20018864 152.52638769 C223.20312847 150.30206522 223.20723502 148.0777478 223.21169281 145.85342789 C223.225356 138.8791522 223.23502767 131.90488818 223.2388947 124.93060005 C223.24336873 116.90785405 223.26089101 108.885279 223.2898953 100.86258495 C223.31159129 94.64321612 223.32160323 88.4238951 223.32293582 82.20448887 C223.32397846 78.49853177 223.32976952 74.7927356 223.34775543 71.0868187 C223.36746996 66.94433159 223.3629158 62.80219702 223.35644531 58.65966797 C223.37026749 56.84499779 223.37026749 56.84499779 223.3843689 54.9936676 C223.314439 40.63217843 219.80110631 26.65968657 209.625 16.0625 C199.63499639 6.86904153 187.09213405 1.9134673 173.4125061 1.85282898 C171.74346725 1.84209602 171.74346725 1.84209602 170.04071045 1.83114624 C168.82925354 1.82845734 167.61779663 1.82576843 166.36962891 1.82299805 C165.08601471 1.81642685 163.80240051 1.80985565 162.47988892 1.80308533 C158.22879269 1.78210386 153.97769638 1.77168281 149.7265625 1.76171875 C148.25680905 1.75766783 146.78705578 1.75355081 145.3173027 1.74936867 C138.40442331 1.73032346 131.4915545 1.71609567 124.57865393 1.7077567 C116.63341654 1.69801138 108.68845974 1.67176034 100.74332106 1.63125581 C94.58167575 1.60093682 88.4201101 1.58627267 82.25839174 1.58297569 C78.58859361 1.58064152 74.9190954 1.57189845 71.2493782 1.54651451 C39.659581 1.17954686 39.659581 1.17954686 13.8125 17.82421875 Z " fill="#FCF8FA" transform="translate(0,0)"/>
<path d="M0 0 C6.26565086 5.10837579 9.93764747 11.40192139 10.89453125 19.46484375 C11.18264976 27.68380336 8.58574755 34.41793432 3.46875 40.83203125 C-2.08283171 46.59354672 -7.27353415 48.56569688 -15.27978516 48.92578125 C-23.34312888 49.04427815 -29.13907227 48.23514748 -35.23046875 42.76171875 C-40.80985423 36.98348724 -44.40060393 30.06231581 -44.84375 21.95703125 C-44.39944408 13.83053262 -40.78275495 7.00060947 -35.2734375 1.1484375 C-24.97084559 -7.881972 -11.14645196 -7.33808088 0 0 Z " fill="#EF4C5C" transform="translate(129.34375,90.54296875)"/>
<path d="M0 0 C8.83149412 5.88766274 11.92950455 15.69711377 14.35531998 25.6199646 C15.43240009 31.26705893 15.41718761 36.83139875 15.38818359 42.56445312 C15.39344055 43.86366196 15.39869751 45.16287079 15.40411377 46.50144958 C15.4176564 50.02837926 15.41254353 53.55504229 15.40297651 57.08197594 C15.39531144 60.79590886 15.40244433 64.50982094 15.40713501 68.22375488 C15.41257283 74.45731652 15.40545311 80.69077107 15.39111328 86.92431641 C15.37479053 94.10213381 15.38008045 101.27969544 15.3965925 108.45750666 C15.41026397 114.65153754 15.41209953 120.84549202 15.40427649 127.03953314 C15.39963091 130.72525561 15.39888824 134.41085839 15.40888596 138.09657288 C15.41926642 142.209715 15.40482642 146.32242528 15.38818359 150.43554688 C15.39729263 152.23607765 15.39729263 152.23607765 15.40658569 154.07298279 C15.33353819 163.87426147 14.00437083 173.42107858 9 182 C8.67 182 8.34 182 8 182 C8 169.46 8 156.92 8 144 C8.66 144 9.32 144 10 144 C9.51080078 142.53433594 9.51080078 142.53433594 9.01171875 141.0390625 C7.80250421 136.7721254 7.73993484 132.78560139 7.8125 128.375 C7.81894531 127.52381592 7.82539063 126.67263184 7.83203125 125.7956543 C7.91880494 118.13041899 8.21500593 110.47241157 8.5 102.8125 C9.24016055 82.84501657 9.06852559 62.9764497 8.3581543 43.01391602 C8.03025207 33.66899809 7.87496198 24.350065 8 15 C7.34 15 6.68 15 6 15 C5.525625 14.34 5.05125 13.68 4.5625 13 C4.046875 12.34 3.53125 11.68 3 11 C2.01 11 1.02 11 0 11 C0 7.37 0 3.74 0 0 Z " fill="#CE3887" transform="translate(208,16)"/>
<path d="M0 0 C3.67473884 0.01402236 7.34945344 0.00737137 11.0242095 0.00386691 C17.18860732 0.00117885 23.35280886 0.0145207 29.51715994 0.03781772 C36.61039331 0.0644423 43.7032994 0.06616177 50.79656565 0.05442935 C57.66674826 0.04359501 64.53681426 0.04988122 71.40698767 0.06398463 C74.31016615 0.06969327 77.21325786 0.06970274 80.11643744 0.06491923 C84.18117771 0.05919508 88.24544234 0.07860434 92.31012869 0.10031772 C94.08417074 0.09356524 94.08417074 0.09356524 95.89405203 0.08667636 C110.33254767 0.21394278 124.13402405 3.35362206 134.84870291 13.50437045 C134.84870291 13.83437045 134.84870291 14.16437045 134.84870291 14.50437045 C129.56870291 14.50437045 124.28870291 14.50437045 118.84870291 14.50437045 C119.84870291 12.50437045 120.84870291 10.50437045 121.84870291 8.50437045 C117.9093226 6.65840556 114.80039433 6.2550211 110.46587515 6.25713229 C109.1774169 6.2529378 107.88895864 6.24874331 106.5614562 6.24442172 C105.14084692 6.24990463 103.7202384 6.2555876 102.29963064 6.26145053 C100.79801237 6.26037715 99.2963945 6.25843765 97.79477835 6.25569797 C93.72258066 6.25085572 89.65049276 6.25849734 85.57830834 6.26865101 C81.31606994 6.27744111 77.05383488 6.27567388 72.79158926 6.27529025 C65.63523413 6.27622642 58.47892143 6.28490442 51.32257986 6.2985599 C43.04794591 6.3142909 34.7733584 6.31955776 26.49871057 6.31882435 C18.53825593 6.31821407 10.57781641 6.32331918 2.61736631 6.33161616 C-0.77049932 6.33514717 -4.1583596 6.33697915 -7.54622698 6.33750987 C-11.53447275 6.33851421 -15.52267952 6.34461835 -19.51091242 6.35467601 C-20.97504866 6.35759726 -22.43918938 6.35882713 -23.90332842 6.35824847 C-25.90070749 6.35775778 -27.89808483 6.3640316 -29.89545298 6.37065768 C-31.01354632 6.37233353 -32.13163967 6.37400937 -33.28361464 6.375736 C-35.75226121 6.48647106 -37.79948763 6.78576042 -40.15129709 7.50437045 C-40.48129709 9.81437045 -40.81129709 12.12437045 -41.15129709 14.50437045 C-46.10129709 14.50437045 -51.05129709 14.50437045 -56.15129709 14.50437045 C-40.31520682 -1.33171982 -21.10712324 -0.10075019 0 0 Z " fill="#763AC7" transform="translate(73.15129709243774,1.4956295490264893)"/>
<path d="M0 0 C1.16273437 -0.01417969 2.32546875 -0.02835938 3.5234375 -0.04296875 C6.625 0.1875 6.625 0.1875 9.625 2.1875 C9.625 1.5275 9.625 0.8675 9.625 0.1875 C14.78449111 0.13789685 19.943842 0.10168441 25.10351562 0.07763672 C26.85712097 0.06760687 28.6107097 0.05397971 30.36425781 0.03662109 C32.89131785 0.0122397 35.4181559 0.0009866 37.9453125 -0.0078125 C38.72367462 -0.01813507 39.50203674 -0.02845764 40.3039856 -0.03909302 C44.80865862 -0.0400122 48.37939088 0.48098952 52.625 2.1875 C52.955 1.5275 53.285 0.8675 53.625 0.1875 C53.625 0.8475 53.625 1.5075 53.625 2.1875 C61.01241247 2.07021584 68.39966907 1.94537986 75.78686523 1.81518555 C78.30213496 1.77175994 80.81743563 1.73009071 83.33276367 1.69018555 C86.93938544 1.63266707 90.54585031 1.56892033 94.15234375 1.50390625 C95.28461899 1.48719376 96.41689423 1.47048126 97.58348083 1.45326233 C98.62448441 1.43331711 99.66548798 1.41337189 100.73803711 1.39282227 C101.65959091 1.37727798 102.58114471 1.3617337 103.53062439 1.34571838 C105.61250471 1.41727244 105.61250471 1.41727244 106.625 0.1875 C109.29558851 0.04634839 111.94932238 0.14502893 114.625 0.1875 C114.625 0.5175 114.625 0.8475 114.625 1.1875 C115.56819092 1.1467334 116.51138184 1.1059668 117.4831543 1.06396484 C120.99593074 0.91735589 124.50880849 0.78058695 128.0222168 0.65039062 C129.54027587 0.59213444 131.05819162 0.53000519 132.57592773 0.46386719 C134.76259246 0.36926222 136.9494009 0.28878134 139.13671875 0.2109375 C140.45115967 0.15856934 141.76560059 0.10620117 143.11987305 0.05224609 C146.51296095 0.1831767 148.5634368 0.84366954 151.625 2.1875 C153.65827085 1.3375831 153.65827085 1.3375831 155.625 0.1875 C158.375 0.0625 158.375 0.0625 160.625 0.1875 C159.625 2.1875 159.625 2.1875 156.859375 3.22265625 C155.13460937 3.73119141 155.13460937 3.73119141 153.375 4.25 C151.66570312 4.76240234 151.66570312 4.76240234 149.921875 5.28515625 C145.24114489 6.56625655 141.0180387 7.31257314 136.15812683 7.32794189 C135.07212189 7.33365204 133.98611694 7.33936218 132.86720276 7.34524536 C131.68536911 7.34636322 130.50353546 7.34748108 129.28588867 7.34863281 C127.40676788 7.35608017 127.40676788 7.35608017 125.48968506 7.36367798 C122.05718254 7.37576938 118.62474083 7.38324159 115.19222426 7.38768864 C113.04074263 7.39062804 110.88926623 7.3947347 108.73778725 7.39919281 C101.98668513 7.41286582 95.23559509 7.42253047 88.48448008 7.4263947 C80.72947365 7.43085931 72.97464488 7.44833322 65.21969241 7.4773953 C59.20325186 7.49914688 53.18686075 7.50910629 47.17038137 7.51043582 C43.58835809 7.51147532 40.00650184 7.51719641 36.42452049 7.53525543 C7.83133364 7.67154384 7.83133364 7.67154384 -5.375 4.1875 C-5.375 3.5275 -5.375 2.8675 -5.375 2.1875 C-6.035 1.8575 -6.695 1.5275 -7.375 1.1875 C-5.51059425 -0.67690575 -2.4925383 0.01375573 0 0 Z " fill="#FBD853" transform="translate(37.375,215.8125)"/>
<path d="M0 0 C26.4 0 52.8 0 80 0 C80 1.32 80 2.64 80 4 C80.66 4 81.32 4 82 4 C82 4.66 82 5.32 82 6 C82.99 6.66 83.98 7.32 85 8 C83.94336655 7.99111755 82.88673309 7.98223511 81.79808044 7.9730835 C71.78111959 7.89156859 61.76422709 7.83183032 51.74700832 7.79275131 C46.59853091 7.77198415 41.45032384 7.74386803 36.30200195 7.69824219 C31.32230582 7.65439303 26.34286772 7.63078143 21.36299324 7.62049103 C19.47461963 7.61316911 17.58625818 7.59887381 15.69799614 7.57707977 C-1.1944951 7.39007876 -16.67054247 8.75759063 -29.83203125 20.65625 C-36.98476164 28.33411756 -39.87565792 37.94823505 -42 48 C-42.66 48 -43.32 48 -44 48 C-44 50.64 -44 53.28 -44 56 C-45.98 56 -47.96 56 -50 56 C-50 53.36 -50 50.72 -50 48 C-49.195625 47.71125 -48.39125 47.4225 -47.5625 47.125 C-44.8673532 46.26737432 -44.8673532 46.26737432 -44 44 C-44.99 43.67 -45.98 43.34 -47 43 C-45.625 41.5 -45.625 41.5 -44 40 C-43.34 40 -42.68 40 -42 40 C-42 34.72 -42 29.44 -42 24 C-39.36 24 -36.72 24 -34 24 C-34 21.36 -34 18.72 -34 16 C-31.36 16 -28.72 16 -26 16 C-26 13.36 -26 10.72 -26 8 C-24.66195312 8.03480469 -24.66195312 8.03480469 -23.296875 8.0703125 C-22.12640625 8.08835937 -20.9559375 8.10640625 -19.75 8.125 C-18.58984375 8.14820313 -17.4296875 8.17140625 -16.234375 8.1953125 C-12.32191365 7.95905276 -10.15232243 7.2483493 -7.5 4.375 C-6 3 -6 3 -2 3 C-1.34 2.67 -0.68 2.34 0 2 C0 1.34 0 0.68 0 0 Z " fill="#7640C8" transform="translate(74,24)"/>
<path d="M0 0 C7.72089982 0.32170416 12.28632991 4.07758605 17.4375 9.625 C18.89166154 11.83532554 19.61531255 13.40335972 20 16 C17.69 16.33 15.38 16.66 13 17 C12.67 21.95 12.34 26.9 12 32 C9.36 32 6.72 32 4 32 C4 31.01 4 30.02 4 29 C5.32 28.67 6.64 28.34 8 28 C9.18051797 21.34888791 9.18051797 21.34888791 7.6875 14.9375 C5.16520599 12.04153281 4.12855354 12.01475205 0.1875 11.5625 C-3.5555686 11.61022583 -3.95107056 11.95718674 -7 14.625 C-9.17817423 18.30066901 -9.79812987 19.83198845 -9 24 C-6.81805066 27.84023084 -5.45821287 28.83962549 -1.25 30.3125 C-0.1775 30.539375 0.895 30.76625 2 31 C2 31.33 2 31.66 2 32 C0.02 32.66 -1.96 33.32 -4 34 C-4 38.62 -4 43.24 -4 48 C-6.37622231 45.02972211 -8.54930932 42.21991864 -10.6875 39.125 C-16.56646405 31.33537264 -24.35619647 25.86050547 -34 24 C-44.32037972 22.99135724 -54.7836649 22.66309898 -64 28 C-66.95664519 29.4783226 -69.74229737 29.06032783 -73 29 C-73.33 29.99 -73.66 30.98 -74 32 C-74.66 31.67 -75.32 31.34 -76 31 C-76 28.69 -76 26.38 -76 24 C-74.64455078 24.03480469 -74.64455078 24.03480469 -73.26171875 24.0703125 C-71.49248047 24.09738281 -71.49248047 24.09738281 -69.6875 24.125 C-68.51574219 24.14820312 -67.34398438 24.17140625 -66.13671875 24.1953125 C-62.83606339 24.25320618 -62.83606339 24.25320618 -60 22 C-59.67 21.34 -59.34 20.68 -59 20 C-58.01 19.67 -57.02 19.34 -56 19 C-56 18.01 -56 17.02 -56 16 C-47.66666667 16 -39.33333333 16 -31 16 C-30.505 18.475 -30.505 18.475 -30 21 C-29.34 20.67 -28.68 20.34 -28 20 C-28 20.99 -28 21.98 -28 23 C-22.59280411 23.92037377 -17.48677955 24.08441199 -12 24 C-12 18.72 -12 13.44 -12 8 C-6.72 8 -1.44 8 4 8 C4 6.02 4 4.04 4 2 C3.34 2 2.68 2 2 2 C1.67 2.66 1.34 3.32 1 4 C0.505 2.02 0.505 2.02 0 0 Z " fill="#C63998" transform="translate(156,48)"/>
<path d="M0 0 C1.32 0 2.64 0 4 0 C4 0.99 4 1.98 4 3 C4.66 3.33 5.32 3.66 6 4 C6.72591638 6.44171872 7.19986792 8.26163694 6.52563477 10.75242615 C5.82314945 13.75619936 5.88876921 16.56382715 5.90234375 19.64868164 C5.90380402 20.30768967 5.90526428 20.96669769 5.9067688 21.64567566 C5.91056507 23.07197383 5.91667135 24.49826733 5.92483521 25.9245472 C5.93762053 28.18143278 5.94411977 30.43825947 5.94897461 32.69517517 C5.96039117 37.48430991 5.97963867 42.27339603 6 47.0625 C6.02359197 52.61591179 6.04398279 58.16929581 6.05593872 63.7227459 C6.06242483 65.94687994 6.07493143 68.17092889 6.08764648 70.39503479 C6.09127867 71.75692673 6.09463045 73.11881946 6.09765625 74.48071289 C6.10289307 75.66999893 6.10812988 76.85928497 6.11352539 78.08460999 C6 81 6 81 5 84 C5.27942455 85.67654729 5.62331656 87.34259285 6 89 C6.34403308 91.33177975 6.67949202 93.66487041 7 96 C9.64 96 12.28 96 15 96 C14.34 96.639375 13.68 97.27875 13 97.9375 C10.88397569 99.64082319 10.88397569 99.64082319 11 101 C11.33 101.66 11.66 102.32 12 103 C12.66 103 13.32 103 14 103 C14 105.97 14 108.94 14 112 C12.33333333 110.33333333 10.66666667 108.66666667 9 107 C8.50371094 106.61199219 8.00742188 106.22398437 7.49609375 105.82421875 C5.16309848 102.97954827 4.38925599 99.5997659 3.375 96.125 C3.1584375 95.41730469 2.941875 94.70960938 2.71875 93.98046875 C0.76278534 87.49680811 -0.1457962 81.61816942 -0.11352539 74.81323242 C-0.11367142 74.00295593 -0.11381744 73.19267944 -0.1139679 72.35784912 C-0.11327347 69.69036138 -0.10550312 67.02294423 -0.09765625 64.35546875 C-0.0957904 62.5017348 -0.09436728 60.64800036 -0.09336853 58.79426575 C-0.08955651 53.92317333 -0.07973746 49.05211088 -0.06866455 44.18103027 C-0.05842215 39.20727951 -0.05386485 34.2335239 -0.04882812 29.25976562 C-0.038114 19.50649727 -0.02105338 9.75325113 0 0 Z " fill="#F85445" transform="translate(2,96)"/>
<path d="M0 0 C1.72912376 0.24349686 1.72912376 0.24349686 3.49317932 0.49191284 C7.70204188 1.01547724 11.87102999 1.14156046 16.10913086 1.12939453 C16.87612808 1.13114685 17.64312531 1.13289917 18.43336487 1.13470459 C20.94388153 1.13907016 23.4543265 1.1362036 25.96484375 1.1328125 C27.72546909 1.13348713 29.48609434 1.13445848 31.24671936 1.13571167 C34.92742809 1.13718153 38.60811247 1.13505725 42.28881836 1.13037109 C46.98696555 1.12467846 51.68505555 1.1279544 56.38320065 1.13394356 C60.01648889 1.13757199 63.64976378 1.13640005 67.28305244 1.13381577 C69.01446095 1.13315259 70.74587071 1.13395344 72.47727776 1.13629532 C84.77168358 1.16802235 84.77168358 1.16802235 97 0 C96.625 2.4375 96.625 2.4375 96 5 C95.34 5.33 94.68 5.66 94 6 C94.99 6.99 94.99 6.99 96 8 C90.72 8 85.44 8 80 8 C80 7.34 80 6.68 80 6 C79.43031494 6.32524658 78.86062988 6.65049316 78.27368164 6.9855957 C75.82778625 8.07683326 74.27931378 8.24509168 71.62109375 8.23046875 C70.78690918 8.22926025 69.95272461 8.22805176 69.09326172 8.22680664 C68.21686035 8.21383545 67.34045898 8.20086426 66.4375 8.1875 C65.54305176 8.18032959 64.64860352 8.17315918 63.72705078 8.16577148 C46.91997853 7.95998926 46.91997853 7.95998926 43 6 C42.67 6.66 42.34 7.32 42 8 C28.14 8 14.28 8 0 8 C0 5.36 0 2.72 0 0 Z " fill="#FA553D" transform="translate(64,192)"/>
<path d="M0 0 C8.72694436 5.8179629 11.95658121 15.57537203 14.35896301 25.40452576 C15.57698682 32.23622707 15.38597485 39.10145466 15.328125 46.015625 C15.3250564 47.6416608 15.32318867 49.26769926 15.32244873 50.89373779 C15.31787493 54.28587069 15.30357033 57.67776235 15.28125 61.06982422 C15.25306182 65.37034698 15.24204284 69.67068037 15.2375679 73.97128677 C15.2323547 78.13192278 15.21787023 82.29251386 15.203125 86.453125 C15.20124428 87.2227784 15.19936356 87.99243179 15.19742584 88.78540802 C15.16447548 99.22555902 14.76423626 109.58747385 14 120 C13.67 120 13.34 120 13 120 C12.67 114.72 12.34 109.44 12 104 C11.34 104 10.68 104 10 104 C9.97494385 102.92032959 9.9498877 101.84065918 9.92407227 100.72827148 C9.80525958 95.63130671 9.68423162 90.53439583 9.5625 85.4375 C9.54043488 84.51106689 9.51836975 83.58463379 9.49563599 82.63012695 C9.20299508 70.41761616 8.85944183 58.20869498 8.4375 46 C8.08197802 35.66056856 7.86164995 25.34550963 8 15 C7.34 15 6.68 15 6 15 C5.525625 14.34 5.05125 13.68 4.5625 13 C4.046875 12.34 3.53125 11.68 3 11 C2.01 11 1.02 11 0 11 C0 7.37 0 3.74 0 0 Z " fill="#C633AC" transform="translate(208,16)"/>
<path d="M0 0 C0.66 0 1.32 0 2 0 C2.33 0.66 2.66 1.32 3 2 C3.33 1.34 3.66 0.68 4 0 C5.32 0.33 6.64 0.66 8 1 C7.125 5.75 7.125 5.75 6 8 C6.66 8 7.32 8 8 8 C7.87431641 9.10408203 7.87431641 9.10408203 7.74609375 10.23046875 C7.64425781 11.20628906 7.54242188 12.18210937 7.4375 13.1875 C7.33308594 14.15042969 7.22867188 15.11335938 7.12109375 16.10546875 C7.00241249 18.94233377 7.32234361 21.25423671 8 24 C7.34 24 6.68 24 6 24 C5.90566751 31.88200345 5.91757248 39.69562694 6.5 47.5625 C6.97553642 54.48189952 7.14439925 61.37705132 7.1875 68.3125 C7.20039063 69.3219165 7.21328125 70.33133301 7.2265625 71.37133789 C7.22785156 72.3174292 7.22914063 73.26352051 7.23046875 74.23828125 C7.23457764 75.08430908 7.23868652 75.93033691 7.24291992 76.80200195 C7 79 7 79 5 82 C5 83.32 5 84.64 5 86 C5.99 86.33 6.98 86.66 8 87 C7.67 89.97 7.34 92.94 7 96 C5.02 96 3.04 96 1 96 C1.00333092 94.37294128 1.00333092 94.37294128 1.00672913 92.7130127 C1.02703188 82.47306952 1.04200648 72.23313045 1.05181217 61.99317169 C1.05702288 56.7291632 1.06408757 51.46517099 1.07543945 46.20117188 C1.08633278 41.11779114 1.09229048 36.03442605 1.09487724 30.95103455 C1.09671989 29.01504775 1.10031807 27.07906177 1.10573006 25.14308167 C1.11302607 22.42414524 1.11398734 19.70527282 1.11352539 16.98632812 C1.11712067 16.19222534 1.12071594 15.39812256 1.12442017 14.57995605 C1.11537494 9.63549703 0.70182735 4.89573625 0 0 Z " fill="#D34FA1" transform="translate(192,64)"/>
<path d="M0 0 C2.05078125 0.03255208 4.1015625 0.06510417 6.15234375 0.09765625 C6.15234375 0.42765625 6.15234375 0.75765625 6.15234375 1.09765625 C7.09553467 1.05688965 8.03872559 1.01612305 9.01049805 0.97412109 C12.52327449 0.82751214 16.03615224 0.6907432 19.54956055 0.56054688 C21.06761962 0.50229069 22.58553537 0.44016144 24.10327148 0.37402344 C26.28993621 0.27941847 28.47674465 0.19893759 30.6640625 0.12109375 C31.97850342 0.06872559 33.29294434 0.01635742 34.6472168 -0.03759766 C38.0403047 0.09333295 40.09078055 0.75382579 43.15234375 2.09765625 C45.1856146 1.24773935 45.1856146 1.24773935 47.15234375 0.09765625 C49.90234375 -0.02734375 49.90234375 -0.02734375 52.15234375 0.09765625 C51.15234375 2.09765625 51.15234375 2.09765625 48.38671875 3.1328125 C46.66195312 3.64134766 46.66195312 3.64134766 44.90234375 4.16015625 C43.7628125 4.50175781 42.62328125 4.84335938 41.44921875 5.1953125 C36.30778354 6.60250626 31.78109477 7.22125088 26.43432617 7.21118164 C25.45299713 7.21140068 25.45299713 7.21140068 24.45184326 7.21162415 C22.30379849 7.21093119 20.155842 7.20316789 18.0078125 7.1953125 C16.51280261 7.19344613 15.0177921 7.19202326 13.52278137 7.19102478 C9.59862564 7.18721689 5.67450725 7.17740143 1.75036621 7.1663208 C-2.25821426 7.15606946 -6.2668008 7.15151919 -10.27539062 7.14648438 C-18.13282959 7.13577755 -25.99023827 7.11872197 -33.84765625 7.09765625 C-33.84765625 6.76765625 -33.84765625 6.43765625 -33.84765625 6.09765625 C-31.20765625 6.09765625 -28.56765625 6.09765625 -25.84765625 6.09765625 C-25.84765625 5.43765625 -25.84765625 4.77765625 -25.84765625 4.09765625 C-28.48765625 4.09765625 -31.12765625 4.09765625 -33.84765625 4.09765625 C-33.84765625 3.76765625 -33.84765625 3.43765625 -33.84765625 3.09765625 C-32.44688843 3.01463257 -32.44688843 3.01463257 -31.01782227 2.92993164 C-27.56428945 2.723034 -24.11106265 2.51199133 -20.65795898 2.2980957 C-19.161316 2.20625218 -17.66456958 2.11607856 -16.16772461 2.02758789 C-14.02037864 1.90035356 -11.87347214 1.76718426 -9.7265625 1.6328125 C-8.43306885 1.55426025 -7.1395752 1.47570801 -5.80688477 1.39477539 C-2.95486883 1.10842085 -2.53711573 0.13409703 0 0 Z " fill="#F95240" transform="translate(145.84765625,215.90234375)"/>
<path d="M0 0 C1.39712187 0.01154243 2.79425952 0.02131225 4.19140625 0.02929688 C22.38222786 0.19111393 22.38222786 0.19111393 26.625 2.3125 C26.625 3.3025 26.625 4.2925 26.625 5.3125 C12.52743346 6.04171791 -1.52013933 6.42452577 -15.63793945 6.27539062 C-16.72163818 6.26701172 -17.80533691 6.25863281 -18.921875 6.25 C-19.87932617 6.23839844 -20.83677734 6.22679687 -21.82324219 6.21484375 C-24.17074406 6.30468309 -26.13235177 6.6419495 -28.375 7.3125 C-28.705 9.6225 -29.035 11.9325 -29.375 14.3125 C-34.325 14.3125 -39.275 14.3125 -44.375 14.3125 C-31.73271451 1.67021451 -17.18729509 -0.36763181 0 0 Z " fill="#4E58C6" transform="translate(61.375,1.6875)"/>
<path d="M0 0 C0.33 0.66 0.66 1.32 1 2 C1.66 2 2.32 2 3 2 C2.97905273 2.6391333 2.95810547 3.2782666 2.93652344 3.93676758 C2.49174154 19.5477678 2.2484084 31.35342192 12.76953125 43.76953125 C15.62498359 46.62498359 18.66161923 48.7728171 22.1171875 50.84375 C24 52 24 52 26 54 C22.32307787 55.17661508 18.8361222 55.14475933 15 55 C14.505 54.505 14.505 54.505 14 54 C12.515 54.495 12.515 54.495 11 55 C11 52.36 11 49.72 11 47 C8.36 47 5.72 47 3 47 C3.185625 45.948125 3.37125 44.89625 3.5625 43.8125 C3.95803502 40.36569485 3.88784758 38.28503605 3 35 C2.814375 34.236875 2.62875 33.47375 2.4375 32.6875 C2.293125 32.130625 2.14875 31.57375 2 31 C0.02 31 -1.96 31 -4 31 C-4 29.02 -4 27.04 -4 25 C-4.33 25 -4.66 25 -5 25 C-5 19.06 -5 13.12 -5 7 C-4.01 6.67 -3.02 6.34 -2 6 C-0.77479736 2.99152582 -0.77479736 2.99152582 0 0 Z " fill="#FB6A48" transform="translate(69,97)"/>
<path d="M0 0 C0.77444458 -0.00335861 1.54888916 -0.00671722 2.34680176 -0.01017761 C4.90309254 -0.0196655 7.45931771 -0.02162946 10.015625 -0.02270508 C11.79394559 -0.02591852 13.57226591 -0.02928266 15.35058594 -0.03279114 C19.07617811 -0.03877654 22.80174711 -0.04063158 26.52734375 -0.04003906 C31.3023683 -0.03993733 36.07724453 -0.05360385 40.85223389 -0.07081127 C44.52393274 -0.08192469 48.19559562 -0.08395849 51.86730957 -0.08342934 C53.62797559 -0.08460989 55.38864253 -0.08903591 57.14929199 -0.0967617 C59.61005084 -0.10655084 62.07048603 -0.10368816 64.53125 -0.09765625 C65.2586438 -0.10327576 65.9860376 -0.10889526 66.73547363 -0.11468506 C70.41033031 -0.09177633 73.14230244 0.11710888 76.265625 2.14526367 C73.59355888 3.14728847 71.95434433 3.09967533 69.0949707 2.6809082 C62.27110936 1.77000748 55.36720228 2.00175281 48.49609375 2.01245117 C46.96771733 2.01177664 45.43934102 2.01080537 43.91096497 2.009552 C40.72294076 2.00808429 37.53494474 2.01020115 34.34692383 2.01489258 C30.2602501 2.02061364 26.17364171 2.01729005 22.08697033 2.01132011 C18.9377442 2.00771009 15.78853362 2.00885471 12.63930702 2.01144791 C11.13180852 2.0121147 9.6243086 2.0112974 8.11681175 2.00896835 C6.01558036 2.00643196 3.91445584 2.01029526 1.81323242 2.01586914 C0.61824631 2.01666473 -0.57673981 2.01746033 -1.80793762 2.01828003 C-4.79778002 2.01372978 -4.79778002 2.01372978 -7.734375 3.14526367 C-8.43588652 4.46059778 -9.09963425 5.79643959 -9.734375 7.14526367 C-10.94140625 8.76635742 -10.94140625 8.76635742 -12.734375 10.14526367 C-15.43359375 10.43823242 -15.43359375 10.43823242 -18.421875 10.33276367 C-19.41574219 10.30569336 -20.40960938 10.27862305 -21.43359375 10.25073242 C-22.19285156 10.21592773 -22.95210937 10.18112305 -23.734375 10.14526367 C-24.00370021 14.79579239 -24.00370021 14.79579239 -22.734375 19.14526367 C-23.064375 20.13526367 -23.394375 21.12526367 -23.734375 22.14526367 C-24.394375 22.14526367 -25.054375 22.14526367 -25.734375 22.14526367 C-26.064375 23.13526367 -26.394375 24.12526367 -26.734375 25.14526367 C-28.054375 25.14526367 -29.374375 25.14526367 -30.734375 25.14526367 C-30.78335938 26.03729492 -30.83234375 26.92932617 -30.8828125 27.84838867 C-30.95757812 29.01885742 -31.03234375 30.18932617 -31.109375 31.39526367 C-31.17898437 32.55541992 -31.24859375 33.71557617 -31.3203125 34.91088867 C-31.69685808 37.85220701 -32.2117873 39.64475379 -33.734375 42.14526367 C-34.28902954 29.86582844 -33.83139365 19.20519594 -25.734375 9.14526367 C-18.60876041 2.22323808 -9.62127871 -0.00599432 0 0 Z " fill="#A234B6" transform="translate(79.734375,45.854736328125)"/>
<path d="M0 0 C4.39671431 0.76768028 6.13917396 1.21079189 8.9375 4.6875 C10.01093647 8.53633471 10.55642732 12.06719499 9.109375 15.85546875 C7.24408891 18.77153266 5.15012506 19.53580423 1.9375 20.6875 C-2.79239124 20.77048055 -4.48532439 20.21555428 -8 17 C-10.31220762 13.28645442 -11.01764713 11.94224631 -10.0625 7.6875 C-7.67497005 3.38994609 -5.13135903 0.26289695 0 0 Z " fill="#FAF6FA" transform="translate(156.0625,58.3125)"/>
<path d="M0 0 C7.72089982 0.32170416 12.28632991 4.07758605 17.4375 9.625 C18.89166154 11.83532554 19.61531255 13.40335972 20 16 C17.69 16.33 15.38 16.66 13 17 C12.67 21.95 12.34 26.9 12 32 C9.36 32 6.72 32 4 32 C4 31.01 4 30.02 4 29 C5.32 28.67 6.64 28.34 8 28 C9.18051797 21.34888791 9.18051797 21.34888791 7.6875 14.9375 C5.16520599 12.04153281 4.12855354 12.01475205 0.1875 11.5625 C-2.41177659 11.56721738 -3.5699915 11.63218725 -5.56640625 13.33984375 C-6.76085154 14.85518479 -7.88471737 16.42548335 -9 18 C-9.66 18 -10.32 18 -11 18 C-11.33 19.32 -11.66 20.64 -12 22 C-12 17.38 -12 12.76 -12 8 C-6.72 8 -1.44 8 4 8 C4 6.02 4 4.04 4 2 C3.34 2 2.68 2 2 2 C1.67 2.66 1.34 3.32 1 4 C0.67 2.68 0.34 1.36 0 0 Z " fill="#C03BB3" transform="translate(156,48)"/>
<path d="M0 0 C0 0.33 0 0.66 0 1 C-5.28 1 -10.56 1 -16 1 C-15 -1 -14 -3 -13 -5 C-16.66582312 -6.67716515 -19.50364482 -7.24588457 -23.5246582 -7.22705078 C-24.60540115 -7.22689972 -25.6861441 -7.22674866 -26.79963684 -7.22659302 C-27.9550145 -7.21627045 -29.11039215 -7.20594788 -30.30078125 -7.1953125 C-32.08804878 -7.19106766 -32.08804878 -7.19106766 -33.91142273 -7.18673706 C-37.71188456 -7.17555433 -41.51210956 -7.1504528 -45.3125 -7.125 C-47.89127263 -7.11496775 -50.47004897 -7.10584233 -53.04882812 -7.09765625 C-59.36596603 -7.0756212 -65.68296609 -7.04216232 -72 -7 C-72 -7.33 -72 -7.66 -72 -8 C-69.36 -8.33 -66.72 -8.66 -64 -9 C-64 -9.66 -64 -10.32 -64 -11 C-59.68196097 -11.34044073 -55.36299203 -11.66086079 -51.04223633 -11.96435547 C-49.578634 -12.06980278 -48.115386 -12.18031525 -46.65258789 -12.29638672 C-29.24161513 -13.67015129 -13.41298604 -12.34383498 0 0 Z " fill="#8639CA" transform="translate(208,15)"/>
<path d="M0 0 C1.01513672 0.15847412 2.03027344 0.31694824 3.07617188 0.48022461 C9.61673108 1.29278259 16.19977455 1.23589343 22.78125 1.31640625 C24.20471753 1.33701323 25.62817945 1.35801058 27.05163574 1.37937927 C30.77347232 1.43421385 34.49536053 1.48379111 38.21728516 1.53222656 C42.02511109 1.58272607 45.83286331 1.63826266 49.640625 1.69335938 C57.09368734 1.80046761 64.54681154 1.90201487 72 2 C72 2.33 72 2.66 72 3 C56.16 3.495 56.16 3.495 40 4 C42.64 4.33 45.28 4.66 48 5 C48 5.33 48 5.66 48 6 C46.35 6 44.7 6 43 6 C42.67 6.66 42.34 7.32 42 8 C28.14 8 14.28 8 0 8 C0 5.36 0 2.72 0 0 Z " fill="#FCAC5D" transform="translate(64,192)"/>
<path d="M0 0 C-2.82985443 1.88656962 -4.92365323 2.67966861 -8.125 3.6875 C-18.11906913 7.28694706 -24.92827466 13.69964132 -30 23 C-32.27276834 28.54030458 -33.90674904 34.11573749 -35 40 C-35.66 40 -36.32 40 -37 40 C-37 42.64 -37 45.28 -37 48 C-38.98 48 -40.96 48 -43 48 C-43 45.36 -43 42.72 -43 40 C-42.195625 39.71125 -41.39125 39.4225 -40.5625 39.125 C-37.8673532 38.26737432 -37.8673532 38.26737432 -37 36 C-37.99 35.67 -38.98 35.34 -40 35 C-38.625 33.5 -38.625 33.5 -37 32 C-36.34 32 -35.68 32 -35 32 C-35 26.72 -35 21.44 -35 16 C-32.36 16 -29.72 16 -27 16 C-27 13.36 -27 10.72 -27 8 C-24.36 8 -21.72 8 -19 8 C-19 5.36 -19 2.72 -19 0 C-18.09636719 0.01160156 -17.19273438 0.02320313 -16.26171875 0.03515625 C-14.49248047 0.04869141 -14.49248047 0.04869141 -12.6875 0.0625 C-10.92986328 0.07990234 -10.92986328 0.07990234 -9.13671875 0.09765625 C-0.51252847 -0.17084282 -0.51252847 -0.17084282 0 0 Z " fill="#754BC5" transform="translate(67,32)"/>
<path d="M0 0 C0 4.95 0 9.9 0 15 C-2.31 15.33 -4.62 15.66 -7 16 C-7.72889429 20.73781291 -8.02122944 25.19549798 -7.96484375 29.98828125 C-7.91727536 35.77123819 -7.9410062 41.3079083 -9 47 C-10.65 47 -12.3 47 -14 47 C-14.63449181 30.62658623 -14.15637213 14.06188001 -2.37890625 1.234375 C-1 0 -1 0 0 0 Z " fill="#5162CC" transform="translate(16,17)"/>
<path d="M0 0 C0 1.32 0 2.64 0 4 C0.66 4 1.32 4 2 4 C2 4.66 2 5.32 2 6 C2.99 6.66 3.98 7.32 5 8 C-18.43 7.67 -41.86 7.34 -66 7 C-66 6.67 -66 6.34 -66 6 C-55.44 5.67 -44.88 5.34 -34 5 C-34 4.34 -34 3.68 -34 3 C-31.36 3 -28.72 3 -26 3 C-26 2.34 -26 1.68 -26 1 C-17.31126982 0.10884819 -8.73139464 -0.11624638 0 0 Z " fill="#9B49C8" transform="translate(154,24)"/>
<path d="M0 0 C0.33 0 0.66 0 1 0 C1.268125 1.258125 1.53625 2.51625 1.8125 3.8125 C2.85521851 8.10026119 2.85521851 8.10026119 6 11 C8.30988315 11.74386068 10.64315944 12.42190703 13 13 C13 13.33 13 13.66 13 14 C11.02 14.66 9.04 15.32 7 16 C7 20.62 7 25.24 7 30 C4.62377769 27.02972211 2.45069068 24.21991864 0.3125 21.125 C-2.60999881 17.18111768 -5.99535459 14.41788552 -9.94921875 11.54296875 C-11.81041825 10.1426377 -13.40230338 8.68899357 -15 7 C-10.32798795 5.79431947 -5.78503708 5.90617574 -1 6 C-0.67 4.02 -0.34 2.04 0 0 Z " fill="#D73F87" transform="translate(145,66)"/>
<path d="M0 0 C0.66 0 1.32 0 2 0 C2.02505615 0.96599121 2.0501123 1.93198242 2.07592773 2.92724609 C2.6911097 27.97823982 2.6911097 27.97823982 4 53 C3.01 53 2.02 53 1 53 C1 51.02 1 49.04 1 47 C0.505 49.475 0.505 49.475 0 52 C-0.99 51.67 -1.98 51.34 -3 51 C-2.96744792 49.046875 -2.93489583 47.09375 -2.90234375 45.140625 C-2.91825212 43.02652341 -2.91825212 43.02652341 -3.51367188 41.1640625 C-4.05891658 38.73783307 -4.02200087 36.7146817 -3.87890625 34.234375 C-3.83056641 33.34492188 -3.78222656 32.45546875 -3.73242188 31.5390625 C-3.67634766 30.61867187 -3.62027344 29.69828125 -3.5625 28.75 C-3.48418945 27.34621094 -3.48418945 27.34621094 -3.40429688 25.9140625 C-3.27493175 23.60901113 -3.13997966 21.30442711 -3 19 C-2.34 19 -1.68 19 -1 19 C-0.979375 17.72125 -0.95875 16.4425 -0.9375 15.125 C-0.92589844 14.40570313 -0.91429687 13.68640625 -0.90234375 12.9453125 C-0.87350758 10.91814596 -0.87350758 10.91814596 -2 9 C-1.66015625 6.8359375 -1.66015625 6.8359375 -1.0625 4.375 C-0.86785156 3.55773437 -0.67320313 2.74046875 -0.47265625 1.8984375 C-0.31667969 1.27195312 -0.16070313 0.64546875 0 0 Z " fill="#F85240" transform="translate(28,101)"/>
<path d="M0 0 C3.63 0 7.26 0 11 0 C11 0.66 11 1.32 11 2 C11.66 1.34 12.32 0.68 13 0 C15.8203125 -0.1953125 15.8203125 -0.1953125 19.125 -0.125 C20.22070312 -0.10695312 21.31640625 -0.08890625 22.4453125 -0.0703125 C23.28835937 -0.04710937 24.13140625 -0.02390625 25 0 C25 0.33 25 0.66 25 1 C27.31 1.33 29.62 1.66 32 2 C32 1.34 32 0.68 32 0 C37.71084339 -0.049623 43.42155985 -0.08582503 49.13256836 -0.10986328 C51.07334582 -0.1198898 53.0141083 -0.13351443 54.95483398 -0.15087891 C57.75247916 -0.17527489 60.54992371 -0.18651681 63.34765625 -0.1953125 C64.2083522 -0.20563507 65.06904816 -0.21595764 65.95582581 -0.22659302 C71.03179193 -0.22752775 75.18941137 0.35957509 80 2 C80 1.34 80 0.68 80 0 C84.62 0 89.24 0 94 0 C90.61054005 3.38945995 87.18918284 3.11674747 82.51428223 3.14663696 C81.79317261 3.14618378 81.07206299 3.14573059 80.32910156 3.14526367 C79.17707245 3.15030159 79.17707245 3.15030159 78.00177002 3.15544128 C75.46470518 3.16493345 72.92770649 3.16689372 70.390625 3.16796875 C68.62188693 3.17118324 66.85314913 3.17454746 65.08441162 3.17805481 C61.37560409 3.18404224 57.66681984 3.18589518 53.95800781 3.18530273 C49.21924874 3.1852013 44.48064013 3.1988362 39.74191666 3.21607494 C36.08721235 3.22722805 32.43254398 3.2292209 28.7778244 3.22869301 C27.03162875 3.2298688 25.28543205 3.23426795 23.53925323 3.24202538 C21.08888929 3.25188939 18.63884635 3.24892183 16.18847656 3.24291992 C15.47546387 3.24853943 14.76245117 3.25415894 14.02783203 3.25994873 C9.02773975 3.22903127 4.77499825 2.34810923 0 1 C0 0.67 0 0.34 0 0 Z " fill="#FE7442" transform="translate(64,176)"/>
<path d="M0 0 C0.99 0.33 1.98 0.66 3 1 C5.63804589 0.60602665 5.63804589 0.60602665 8 0 C8 2.64 8 5.28 8 8 C11.37817425 8.84454356 13.67465243 9.10844919 17 8 C16.67 10.31 16.34 12.62 16 15 C24.69226941 16.2968286 24.69226941 16.2968286 33 14 C33.33 13.34 33.66 12.68 34 12 C33.34 12 32.68 12 32 12 C32.33 11.01 32.66 10.02 33 9 C34.65 9 36.3 9 38 9 C38.68707555 11.49064888 39 13.37886292 39 16 C33.93297681 18.48409329 29.75090298 19.52266593 24.0625 19.4375 C23.00808716 19.42722778 23.00808716 19.42722778 21.93237305 19.41674805 C16.40642824 19.24556493 12.38016153 18.36849985 8 15 C7.071875 14.29875 6.14375 13.5975 5.1875 12.875 C2.17678343 8.91805822 1.14364792 4.78844455 0 0 Z " fill="#F65249" transform="translate(88,120)"/>
<path d="M0 0 C1.32 0 2.64 0 4 0 C4 0.99 4 1.98 4 3 C4.66 3.33 5.32 3.66 6 4 C6.72902699 6.4521817 7.19453957 8.27230388 6.52563477 10.77441406 C5.84441432 13.65876409 5.8883669 16.33378174 5.90234375 19.296875 C5.90556641 20.50214844 5.90878906 21.70742187 5.91210938 22.94921875 C5.92048828 24.20347656 5.92886719 25.45773438 5.9375 26.75 C5.94201172 28.01972656 5.94652344 29.28945312 5.95117188 30.59765625 C5.96295444 33.73181836 5.97940584 36.86588541 6 40 C5.34 40 4.68 40 4 40 C3.67 37.36 3.34 34.72 3 32 C2.34 32 1.68 32 1 32 C1 37.28 1 42.56 1 48 C0.67 48 0.34 48 0 48 C0 32.16 0 16.32 0 0 Z " fill="#F6474E" transform="translate(2,96)"/>
<path d="M0 0 C0.33 0 0.66 0 1 0 C1.33 2.64 1.66 5.28 2 8 C2.33 8 2.66 8 3 8 C3.76712208 17.4383413 4.12798852 26.84347895 4.1875 36.3125 C4.20039063 37.32062744 4.21328125 38.32875488 4.2265625 39.36743164 C4.22785156 40.31481201 4.22914063 41.26219238 4.23046875 42.23828125 C4.23457764 43.08430908 4.23868652 43.93033691 4.24291992 44.80200195 C4 47 4 47 2 50 C2 51.32 2 52.64 2 54 C2.99 54.33 3.98 54.66 5 55 C4.67 57.97 4.34 60.94 4 64 C2.02 64 0.04 64 -2 64 C-1.34 42.88 -0.68 21.76 0 0 Z " fill="#D73C8A" transform="translate(195,96)"/>
<path d="M0 0 C0.33 0.66 0.66 1.32 1 2 C13.21 2 25.42 2 38 2 C38 2.33 38 2.66 38 3 C35.36 3.33 32.72 3.66 30 4 C30 4.66 30 5.32 30 6 C24.68792752 6.74668723 19.5957861 7.11933785 14.21875 7.09765625 C13.51979614 7.0962413 12.82084229 7.09482635 12.10070801 7.09336853 C9.90042571 7.0878367 7.70025077 7.07529777 5.5 7.0625 C3.99479315 7.05747616 2.48958468 7.05291482 0.984375 7.04882812 C-2.67711735 7.03788977 -6.33854817 7.02067359 -10 7 C-10 5.68 -10 4.36 -10 3 C-6.21812119 1.16308743 -4.05431692 0.84162374 0 2 C0 1.34 0 0.68 0 0 Z " fill="#FCC14F" transform="translate(90,216)"/>
<path d="M0 0 C1.1446875 0.16242188 2.289375 0.32484375 3.46875 0.4921875 C7.82858756 1.03524825 12.11089765 1.14898417 16.5 1.125 C17.56154297 1.13080078 17.56154297 1.13080078 18.64453125 1.13671875 C23.50882959 1.12782607 28.18380836 0.68337854 33 0 C32.67 2.64 32.34 5.28 32 8 C26.06 8 20.12 8 14 8 C13.67 7.34 13.34 6.68 13 6 C12.484375 6.33 11.96875 6.66 11.4375 7 C8.1641151 8.34292714 5.50360855 8.25952656 2 8 C0 6 0 6 -0.125 2.875 C-0.08375 1.92625 -0.0425 0.9775 0 0 Z " fill="#FA6B44" transform="translate(96,152)"/>
<path d="M0 0 C0.33 0 0.66 0 1 0 C1.33 29.04 1.66 58.08 2 88 C1.34 88 0.68 88 0 88 C-0.13277344 86.87980469 -0.26554688 85.75960937 -0.40234375 84.60546875 C-0.58056569 83.13279271 -0.75896011 81.66013753 -0.9375 80.1875 C-1.02451172 79.44951172 -1.11152344 78.71152344 -1.20117188 77.95117188 C-1.58216546 74.83266879 -2.00369374 71.98891878 -3 69 C-3.08358958 66.78910055 -3.10731764 64.57573922 -3.09765625 62.36328125 C-3.09443359 61.06455078 -3.09121094 59.76582031 -3.08789062 58.42773438 C-3.07953531 57.05598892 -3.07107037 55.68424413 -3.0625 54.3125 C-3.05748335 52.92903805 -3.05292073 51.54557437 -3.04882812 50.16210938 C-3.03702529 46.77469605 -3.02056019 43.38736967 -3 40 C-2.67 40 -2.34 40 -2 40 C-2 45.28 -2 50.56 -2 56 C-1.34 56 -0.68 56 0 56 C0 37.52 0 19.04 0 0 Z " fill="#CE399A" transform="translate(220,64)"/>
<path d="M0 0 C14.19 0 28.38 0 43 0 C43 0.66 43 1.32 43 2 C40.36 2.33 37.72 2.66 35 3 C35 3.99 35 4.98 35 6 C27.08 6 19.16 6 11 6 C11 4.68 11 3.36 11 2 C7.37 1.67 3.74 1.34 0 1 C0 0.67 0 0.34 0 0 Z " fill="#6448C7" transform="translate(77,2)"/>
<path d="M0 0 C0 0.99 0 1.98 0 3 C-4.99296295 5.9445679 -9.33557626 6.63495936 -15 7 C-15.33 9.31 -15.66 11.62 -16 14 C-20.95 14 -25.9 14 -31 14 C-22.58530919 5.58530919 -12.24481907 0 0 0 Z " fill="#4969CB" transform="translate(48,2)"/>
<path d="M0 0 C0.66 0 1.32 0 2 0 C2.33 5.28 2.66 10.56 3 16 C4.32 16 5.64 16 7 16 C6.67658015 23.45482748 5.25296745 30.23628278 2 37 C1.01 37.495 1.01 37.495 0 38 C0 25.46 0 12.92 0 0 Z " fill="#DB4283" transform="translate(216,160)"/>
<path d="M0 0 C7.59882836 2.32398775 12.5842056 5.27975313 17 12 C18.4375 15.5 18.4375 15.5 19 18 C15.7 18 12.4 18 9 18 C9.33 16.68 9.66 15.36 10 14 C9.61432869 11.31850007 9.61432869 11.31850007 9 9 C8.4225 9.2475 7.845 9.495 7.25 9.75 C5 10 5 10 2.75 8.25 C1 6 1 6 1 3 C0.34 2.34 -0.32 1.68 -1 1 C-0.67 0.67 -0.34 0.34 0 0 Z " fill="#E34874" transform="translate(119,86)"/>
<path d="M0 0 C0.99 0.33 1.98 0.66 3 1 C2.67 1.66 2.34 2.32 2 3 C2.66 3 3.32 3 4 3 C4 2.34 4 1.68 4 1 C5.9375 1.75 5.9375 1.75 8 3 C8.75 5.125 8.75 5.125 9 7 C6.69 7.33 4.38 7.66 2 8 C1.67 12.95 1.34 17.9 1 23 C-1.64 23 -4.28 23 -7 23 C-7 22.01 -7 21.02 -7 20 C-5.68 19.67 -4.36 19.34 -3 19 C-1.81948203 12.34888791 -1.81948203 12.34888791 -3.3125 5.9375 C-4.86175156 3.91047847 -4.86175156 3.91047847 -7 3 C-8.70702735 2.93003986 -10.41668003 2.91559846 -12.125 2.9375 C-13.03507813 2.94652344 -13.94515625 2.95554688 -14.8828125 2.96484375 C-15.93082031 2.98224609 -15.93082031 2.98224609 -17 3 C-16.67 2.34 -16.34 1.68 -16 1 C-10.55306686 0.90311779 -5.36095333 0.87137825 0 2 C0 1.34 0 0.68 0 0 Z " fill="#C737A7" transform="translate(167,57)"/>
<path d="M0 0 C2 2 2 2 2.1953125 4.1640625 C2.17210937 4.97617188 2.14890625 5.78828125 2.125 6.625 C2.10695312 7.44226563 2.08890625 8.25953125 2.0703125 9.1015625 C2.04710937 9.72804687 2.02390625 10.35453125 2 11 C0.329375 11.2784375 0.329375 11.2784375 -1.375 11.5625 C-2.57125 12.036875 -3.7675 12.51125 -5 13 C-6.54086322 16.51400668 -6.54086322 16.51400668 -7 20 C-11.29 20 -15.58 20 -20 20 C-20 19.34 -20 18.68 -20 18 C-18.516662 17.06284078 -16.9855331 16.20092526 -15.4375 15.375 C-8.67076494 11.46447889 -4.59778131 6.17612414 0 0 Z " fill="#F04C5A" transform="translate(150,132)"/>
<path d="M0 0 C1.134375 0.020625 2.26875 0.04125 3.4375 0.0625 C3.4375 1.0525 3.4375 2.0425 3.4375 3.0625 C5.7475 3.0625 8.0575 3.0625 10.4375 3.0625 C10.9325 4.0525 10.9325 4.0525 11.4375 5.0625 C9.3120802 5.74567065 7.89758339 6.18493997 5.70965576 5.60267639 C2.72064639 4.89207709 -0.09451246 4.8976051 -3.16699219 4.85717773 C-3.82106552 4.84727814 -4.47513885 4.83737854 -5.14903259 4.82717896 C-7.30244374 4.79569149 -9.45587692 4.77085728 -11.609375 4.74609375 C-13.10582032 4.72551319 -14.60225996 4.70451643 -16.09869385 4.68312073 C-20.03102009 4.62801382 -23.96339781 4.57855453 -27.89581299 4.53027344 C-31.91105716 4.47997514 -35.92622689 4.42433261 -39.94140625 4.36914062 C-47.81504116 4.26169832 -55.68873849 4.16022264 -63.5625 4.0625 C-63.5625 3.7325 -63.5625 3.4025 -63.5625 3.0625 C-62.82556412 3.03966446 -62.08862823 3.01682892 -61.32936096 2.99330139 C-54.39820916 2.77767239 -47.46721711 2.5574487 -40.53637791 2.33200932 C-36.97281326 2.21626096 -33.40920966 2.10231582 -29.84545898 1.99243164 C-25.75225937 1.8661446 -21.65934537 1.73212294 -17.56640625 1.59765625 C-16.28101456 1.55906998 -14.99562286 1.5204837 -13.67127991 1.48072815 C-12.49013107 1.44076218 -11.30898224 1.4007962 -10.09204102 1.35961914 C-9.04613297 1.32630997 -8.00022491 1.29300079 -6.92262268 1.25868225 C-3.5693137 0.97994263 -3.82837531 0.06716448 0 0 Z " fill="#E7D2ED" transform="translate(148.5625,41.9375)"/>
<path d="M0 0 C0.33 0.66 0.66 1.32 1 2 C1.66 2 2.32 2 3 2 C2.75953392 3.88937633 2.51887536 5.77872833 2.27734375 7.66796875 C2.10141471 9.1472594 1.94534134 10.62915606 1.81640625 12.11328125 C1.23608666 18.59154282 -0.31263658 24.72810202 -2 31 C-2.66 31 -3.32 31 -4 31 C-4 29.02 -4 27.04 -4 25 C-4.33 25 -4.66 25 -5 25 C-5 19.06 -5 13.12 -5 7 C-4.01 6.67 -3.02 6.34 -2 6 C-0.77479736 2.99152582 -0.77479736 2.99152582 0 0 Z " fill="#F14D56" transform="translate(69,97)"/>
<path d="M0 0 C0.66 0 1.32 0 2 0 C2.66 0.99 3.32 1.98 4 3 C4.66 3.66 5.32 4.32 6 5 C6.13886885 7.32605322 5.99582776 9.5803156 5.875 11.90625 C5.78090338 14.2233765 5.78090338 14.2233765 8 16 C11.58343976 16.16677282 11.58343976 16.16677282 15 16 C14.34 16.639375 13.68 17.27875 13 17.9375 C10.88397569 19.64082319 10.88397569 19.64082319 11 21 C11.33 21.66 11.66 22.32 12 23 C12.66 23 13.32 23 14 23 C14 25.97 14 28.94 14 32 C12.33333333 30.33333333 10.66666667 28.66666667 9 27 C8.50371094 26.608125 8.00742188 26.21625 7.49609375 25.8125 C5.18958904 23.01819664 4.39155811 19.72926476 3.375 16.3125 C3.1584375 15.62994141 2.941875 14.94738281 2.71875 14.24414062 C1.26821269 9.50303257 0.49821103 4.93228921 0 0 Z " fill="#FB7E46" transform="translate(2,176)"/>
<path d="M0 0 C0.33 0 0.66 0 1 0 C1.01030746 0.8363649 1.02061493 1.6727298 1.03123474 2.53443909 C1.12940764 10.43489366 1.23194931 18.33527704 1.33933926 26.23561192 C1.39439052 30.29677818 1.44778092 34.35795184 1.49731445 38.41918945 C1.54522194 42.34201396 1.59757217 46.26475679 1.65294075 50.18748283 C1.67324541 51.68049002 1.69197716 53.17351949 1.70907402 54.66656685 C1.73338358 56.76550427 1.76339849 58.86429117 1.79467773 60.96313477 C1.81022202 62.15560318 1.8257663 63.34807159 1.84178162 64.57667542 C2.00483026 68.10451093 2.44506047 71.51408563 3 75 C2.01 74.67 1.02 74.34 0 74 C0 74.66 0 75.32 0 76 C-0.66 76 -1.32 76 -2 76 C-1.67 73.36 -1.34 70.72 -1 68 C-1.66 68 -2.32 68 -3 68 C-3.495 60.575 -3.495 60.575 -4 53 C-3.01 52.505 -3.01 52.505 -2 52 C-2 54.64 -2 57.28 -2 60 C-1.34 60 -0.68 60 0 60 C0 40.2 0 20.4 0 0 Z " fill="#F9CFD2" transform="translate(45,84)"/>
<path d="M0 0 C1.65 0 3.3 0 5 0 C6.68630642 3.37261284 6.14239629 7.16958963 6.125 10.875 C6.12886719 11.69097656 6.13273438 12.50695312 6.13671875 13.34765625 C6.13542969 14.13785156 6.13414063 14.92804688 6.1328125 15.7421875 C6.13168457 16.4626123 6.13055664 17.18303711 6.12939453 17.92529297 C5.99634791 20.05855744 5.58204873 21.94751238 5 24 C3.68 24 2.36 24 1 24 C-0.32915021 16.02509872 -0.08801359 8.05813281 0 0 Z " fill="#B138A6" transform="translate(2,64)"/>
<path d="M0 0 C4.41080354 -0.02490464 8.82156871 -0.04295604 13.23242188 -0.05493164 C14.72982497 -0.05992943 16.22722327 -0.0667299 17.72460938 -0.07543945 C19.88933505 -0.08770623 22.05399565 -0.09327397 24.21875 -0.09765625 C26.1668457 -0.10551147 26.1668457 -0.10551147 28.15429688 -0.11352539 C32.18086673 0.0053392 36.01415096 0.43973231 40 1 C40 1.66 40 2.32 40 3 C41.32 3.66 42.64 4.32 44 5 C22.27659574 5.19148936 22.27659574 5.19148936 13 4 C13 3.67 13 3.34 13 3 C8.71 2.34 4.42 1.68 0 1 C0 0.67 0 0.34 0 0 Z " fill="#FC8544" transform="translate(96,195)"/>
<path d="M0 0 C10.89 0 21.78 0 33 0 C33 0.33 33 0.66 33 1 C30.03 1 27.06 1 24 1 C24 1.66 24 2.32 24 3 C21.36 3 18.72 3 16 3 C16 3.66 16 4.32 16 5 C18.64 5 21.28 5 24 5 C24 5.33 24 5.66 24 6 C13.14700916 6.28435784 2.74631163 5.47317858 -8 4 C-8 3.67 -8 3.34 -8 3 C-0.08 2.505 -0.08 2.505 8 2 C5.36 1.67 2.72 1.34 0 1 C0 0.67 0 0.34 0 0 Z " fill="#8538C5" transform="translate(104,24)"/>
<path d="M0 0 C0 1.32 0 2.64 0 4 C-6.85983809 5.05728087 -13.56783224 5.11639843 -20.5 5.0625 C-21.60859375 5.05798828 -22.7171875 5.05347656 -23.859375 5.04882812 C-26.57297399 5.03713158 -29.28645761 5.02074086 -32 5 C-32 4.67 -32 4.34 -32 4 C-29.36 4 -26.72 4 -24 4 C-24 3.34 -24 2.68 -24 2 C-26.64 2 -29.28 2 -32 2 C-32 1.67 -32 1.34 -32 1 C-28.08621899 0.68858988 -24.17187987 0.38569692 -20.25683594 0.09057617 C-18.27243976 -0.06078835 -16.2885568 -0.21883285 -14.3046875 -0.37695312 C-13.05429688 -0.47041016 -11.80390625 -0.56386719 -10.515625 -0.66015625 C-9.36352539 -0.74918213 -8.21142578 -0.83820801 -7.02441406 -0.92993164 C-4.39199639 -0.99091839 -2.47975995 -0.81150943 0 0 Z " fill="#FD8D3F" transform="translate(144,218)"/>
<path d="M0 0 C1.32 0 2.64 0 4 0 C4 15.84 4 31.68 4 48 C3.67 48 3.34 48 3 48 C3 36.45 3 24.9 3 13 C2.34 13 1.68 13 1 13 C1 13.99 1 14.98 1 16 C-0.32 16.33 -1.64 16.66 -3 17 C-3 15.35 -3 13.7 -3 12 C-2.34 11.67 -1.68 11.34 -1 11 C-1 10.01 -1 9.02 -1 8 C-1.33 8 -1.66 8 -2 8 C-2.20086443 4.28400809 -2.1519437 3.22791555 0 0 Z " fill="#EC7082" transform="translate(27,88)"/>
<path d="M0 0 C2.64 0.33 5.28 0.66 8 1 C8 1.33 8 1.66 8 2 C10.64 2.33 13.28 2.66 16 3 C16 3.66 16 4.32 16 5 C18.64 5 21.28 5 24 5 C23.67 5.99 23.34 6.98 23 8 C15.41 8 7.82 8 0 8 C0 5.36 0 2.72 0 0 Z " fill="#FCB850" transform="translate(64,192)"/>
<path d="M0 0 C6.33905533 4.22603689 9.23336873 9.99780945 12 17 C12.39321947 18.98909265 12.74518844 20.98848759 13 23 C11.35 23.33 9.7 23.66 8 24 C8 21.03 8 18.06 8 15 C7.34 15 6.68 15 6 15 C5.525625 14.34 5.05125 13.68 4.5625 13 C4.046875 12.34 3.53125 11.68 3 11 C2.01 11 1.02 11 0 11 C0 7.37 0 3.74 0 0 Z " fill="#BA32B3" transform="translate(208,16)"/>
<path d="M0 0 C1.98 0.495 1.98 0.495 4 1 C3.125 5.75 3.125 5.75 2 8 C2.66 8 3.32 8 4 8 C3.87431641 9.10408203 3.87431641 9.10408203 3.74609375 10.23046875 C3.64425781 11.20628906 3.54242188 12.18210937 3.4375 13.1875 C3.33308594 14.15042969 3.22867188 15.11335938 3.12109375 16.10546875 C3.00241249 18.94233377 3.32234361 21.25423671 4 24 C3.34 24 2.68 24 2 24 C2 25.98 2 27.96 2 30 C1.67 30 1.34 30 1 30 C-1.02316783 24.14640769 -1.27311532 18.91430308 -1.1875 12.75 C-1.18685547 11.8528125 -1.18621094 10.955625 -1.18554688 10.03125 C-1.14103084 3.42309253 -1.14103084 3.42309253 0 0 Z " fill="#C837A9" transform="translate(196,64)"/>
<path d="M0 0 C0.763125 0.061875 1.52625 0.12375 2.3125 0.1875 C1.6525 0.826875 0.9925 1.46625 0.3125 2.125 C-3.54403744 5.9704235 -7.09583422 10.09674419 -10.6875 14.1875 C-13.1625 13.1975 -13.1625 13.1975 -15.6875 12.1875 C-15.6875 9.5475 -15.6875 6.9075 -15.6875 4.1875 C-15.00042969 4.15011719 -14.31335938 4.11273438 -13.60546875 4.07421875 C-12.70441406 4.00847656 -11.80335937 3.94273438 -10.875 3.875 C-9.98167969 3.81699219 -9.08835937 3.75898437 -8.16796875 3.69921875 C-4.47273312 2.93689455 -3.76706639 0.26281859 0 0 Z " fill="#D8417D" transform="translate(87.6875,75.8125)"/>
<path d="M0 0 C-0.804375 0.268125 -1.60875 0.53625 -2.4375 0.8125 C-3.283125 1.204375 -4.12875 1.59625 -5 2 C-5.33 2.99 -5.66 3.98 -6 5 C-11.28 4.67 -16.56 4.34 -22 4 C-22 3.67 -22 3.34 -22 3 C-37.84 2.67 -53.68 2.34 -70 2 C-70 1.67 -70 1.34 -70 1 C-69.20708557 0.98969254 -68.41417114 0.97938507 -67.597229 0.96876526 C-60.12260033 0.87076356 -52.64805368 0.76824531 -45.17355728 0.66066074 C-41.33090281 0.60551043 -37.48824062 0.5521032 -33.64550781 0.50268555 C-29.93665809 0.4549254 -26.22789881 0.40257864 -22.51915741 0.34705925 C-21.1046143 0.32668841 -19.69004644 0.30796675 -18.27545929 0.29092598 C-16.29328191 0.26676528 -14.31118596 0.23618277 -12.32910156 0.20532227 C-10.63699554 0.18200584 -10.63699554 0.18200584 -8.91070557 0.15821838 C-6.08113809 0.0981435 -6.08113809 0.0981435 -3.72943115 -0.57533264 C-2 -1 -2 -1 0 0 Z " fill="#FBDECF" transform="translate(158,178)"/>
<path d="M0 0 C2.64 0 5.28 0 8 0 C6.20406163 7.02048636 1.78626817 10.88870419 -4 15 C-4.99 15 -5.98 15 -7 15 C-7.33 12.69 -7.66 10.38 -8 8 C-5.36 8 -2.72 8 0 8 C0 5.36 0 2.72 0 0 Z " fill="#EF4D5A" transform="translate(168,160)"/>
<path d="M0 0 C0.33 0 0.66 0 1 0 C1 2.64 1 5.28 1 8 C1.66 8 2.32 8 3 8 C3.05434116 10.5419589 3.0938339 13.08273682 3.125 15.625 C3.14175781 16.33785156 3.15851562 17.05070312 3.17578125 17.78515625 C3.21722081 22.30206875 2.571387 25.71439908 1 30 C0.73366136 31.78396635 0.52077069 33.57716154 0.375 35.375 C0.30023438 36.24898437 0.22546875 37.12296875 0.1484375 38.0234375 C0.07496094 39.00183594 0.07496094 39.00183594 0 40 C-0.33 40 -0.66 40 -1 40 C-1.02490464 35.58919646 -1.04295604 31.17843129 -1.05493164 26.76757812 C-1.05992943 25.27017503 -1.0667299 23.77277673 -1.07543945 22.27539062 C-1.08770623 20.11066495 -1.09327397 17.94600435 -1.09765625 15.78125 C-1.10289307 14.48251953 -1.10812988 13.18378906 -1.11352539 11.84570312 C-0.9946608 7.81913327 -0.56026769 3.98584904 0 0 Z " fill="#FC5438" transform="translate(3,136)"/>
<path d="M0 0 C2.475 0.495 2.475 0.495 5 1 C7.58476417 6.16952834 5.93847483 13.48646037 5 19 C3.35 19 1.7 19 0 19 C0 12.73 0 6.46 0 0 Z " fill="#7F3BBA" transform="translate(2,45)"/>
<path d="M0 0 C3.76315147 2.04492797 7.22192036 4.47964678 10.4296875 7.3203125 C10.4296875 7.6503125 10.4296875 7.9803125 10.4296875 8.3203125 C5.1496875 8.3203125 -0.1303125 8.3203125 -5.5703125 8.3203125 C-4.5703125 6.3203125 -3.5703125 4.3203125 -2.5703125 2.3203125 C-3.3540625 2.0315625 -4.1378125 1.7428125 -4.9453125 1.4453125 C-7.5703125 0.3203125 -7.5703125 0.3203125 -9.5703125 -1.6796875 C-5.47216897 -3.04573534 -3.78367977 -1.77398757 0 0 Z " fill="#9D31BF" transform="translate(197.5703125,7.6796875)"/>
<path d="M0 0 C0.91058531 3.07322544 1.08886184 5.80097361 1 9 C0.32195312 8.73445312 -0.35609375 8.46890625 -1.0546875 8.1953125 C-7.31469818 5.81962978 -13.39396895 4.08906369 -20 3 C-19.67 2.34 -19.34 1.68 -19 1 C-12.67859027 -0.17063143 -6.41157971 -0.10607393 0 0 Z " fill="#F7F1F8" transform="translate(199,0)"/>
<path d="M0 0 C0.99 0 1.98 0 3 0 C3 4.62 3 9.24 3 14 C3.99 14.33 4.98 14.66 6 15 C5.67 17.97 5.34 20.94 5 24 C3.02 24 1.04 24 -1 24 C-0.67 16.08 -0.34 8.16 0 0 Z " fill="#DF427A" transform="translate(194,136)"/>
<path d="M0 0 C0.66 0.66 1.32 1.32 2 2 C-2.35157039 3.65648903 -5.97441656 4.27178259 -10.625 4.25 C-11.73101562 4.25515625 -12.83703125 4.2603125 -13.9765625 4.265625 C-16.88066911 4.01048385 -18.54484843 3.50901999 -21 2 C-21 1.34 -21 0.68 -21 0 C-23.64 0 -26.28 0 -29 0 C-29 -0.33 -29 -0.66 -29 -1 C-19.18222635 -1.93262548 -9.66411681 -2.60656778 0 0 Z " fill="#9136C3" transform="translate(189,4)"/>
<path d="M0 0 C2.31 0 4.62 0 7 0 C7 0.66 7 1.32 7 2 C6.34 2 5.68 2 5 2 C5 2.66 5 3.32 5 4 C5.66 4 6.32 4 7 4 C7 5.32 7 6.64 7 8 C9.64 8 12.28 8 15 8 C15 10.64 15 13.28 15 16 C12.0280615 14.87548273 9.66559313 13.77706209 7 12 C7 11.34 7 10.68 7 10 C6.401875 9.79375 5.80375 9.5875 5.1875 9.375 C2.1616573 7.47304173 1.35291498 5.24699596 0 2 C0 1.34 0 0.68 0 0 Z " fill="#F9914E" transform="translate(49,160)"/>
<path d="M0 0 C2.64 0 5.28 0 8 0 C7.47731534 2.76276177 6.89130413 5.3260876 6 8 C6.66 8.33 7.32 8.66 8 9 C8 11.31 8 13.62 8 16 C6.68 16 5.36 16 4 16 C3.67 17.98 3.34 19.96 3 22 C2.67 22 2.34 22 2 22 C1.93941406 20.99839844 1.87882813 19.99679688 1.81640625 18.96484375 C1.73191595 17.62238669 1.64727232 16.27993928 1.5625 14.9375 C1.48128906 13.62652344 1.40007812 12.31554687 1.31640625 10.96484375 C1.02101751 7.26336762 0.56734612 3.66629552 0 0 Z " fill="#E04C81" transform="translate(152,96)"/>
<path d="M0 0 C1 2 1 2 0.2578125 4.64453125 C-0.11601563 5.68996094 -0.48984375 6.73539063 -0.875 7.8125 C-2.1975711 11.53512145 -3.32315386 15.10453447 -4 19 C-4.66 19 -5.32 19 -6 19 C-6 21.64 -6 24.28 -6 27 C-7.98 27 -9.96 27 -12 27 C-12 24.36 -12 21.72 -12 19 C-11.195625 18.71125 -10.39125 18.4225 -9.5625 18.125 C-6.8673532 17.26737432 -6.8673532 17.26737432 -6 15 C-6.99 14.67 -7.98 14.34 -9 14 C-7.625 12.5 -7.625 12.5 -6 11 C-5.34 11 -4.68 11 -4 11 C-3.67 8.36 -3.34 5.72 -3 3 C-2.34 3 -1.68 3 -1 3 C-0.67 2.01 -0.34 1.02 0 0 Z " fill="#B23BA1" transform="translate(36,53)"/>
<path d="M0 0 C0.57878906 0.35835938 1.15757813 0.71671875 1.75390625 1.0859375 C0.9340625 1.35148437 0.11421875 1.61703125 -0.73046875 1.890625 C-2.34695312 2.42042969 -2.34695312 2.42042969 -3.99609375 2.9609375 C-5.0634375 3.30898437 -6.13078125 3.65703125 -7.23046875 4.015625 C-10.15525931 4.97482146 -10.15525931 4.97482146 -12.40234375 6.2109375 C-15.29247301 7.58252427 -18.10513699 7.20674353 -21.24609375 7.0859375 C-21.57609375 8.0759375 -21.90609375 9.0659375 -22.24609375 10.0859375 C-22.90609375 9.7559375 -23.56609375 9.4259375 -24.24609375 9.0859375 C-24.24609375 6.7759375 -24.24609375 4.4659375 -24.24609375 2.0859375 C-23.41207031 2.12074219 -22.57804687 2.15554687 -21.71875 2.19140625 C-15.2774965 2.34635049 -10.07116868 2.20698843 -4.1484375 -0.453125 C-2.24609375 -0.9140625 -2.24609375 -0.9140625 0 0 Z " fill="#C93B8B" transform="translate(104.24609375,69.9140625)"/>
<path d="M0 0 C0 0.66 0 1.32 0 2 C0.66 2 1.32 2 2 2 C2 3.65 2 5.3 2 7 C-1.38018531 8.04005702 -4.4780279 8.08004482 -8 8 C-8.12375 9.134375 -8.2475 10.26875 -8.375 11.4375 C-8.58125 12.613125 -8.7875 13.78875 -9 15 C-9.99 15.495 -9.99 15.495 -11 16 C-11 15.01 -11 14.02 -11 13 C-11.99 13 -12.98 13 -14 13 C-12.64138503 8.80665325 -10.87073026 6.57201604 -7.5625 3.6875 C-6.78003906 2.99011719 -5.99757813 2.29273437 -5.19140625 1.57421875 C-3 0 -3 0 0 0 Z " fill="#EA4C6D" transform="translate(102,88)"/>
<path d="M0 0 C1.670625 0.061875 1.670625 0.061875 3.375 0.125 C2.375 2.125 2.375 2.125 -0.28515625 3.16015625 C-6.41820613 5.01204158 -12.22975457 6.62341212 -18.625 7.125 C-18.625 6.465 -18.625 5.805 -18.625 5.125 C-21.265 5.125 -23.905 5.125 -26.625 5.125 C-23.1525307 2.81002047 -20.798209 2.51118761 -16.6875 1.9375 C-15.46160156 1.75832031 -14.23570312 1.57914063 -12.97265625 1.39453125 C-10.02218361 1.15697861 -8.39698851 1.42396346 -5.625 2.125 C-3.625 0.125 -3.625 0.125 0 0 Z " fill="#F54F55" transform="translate(194.625,215.875)"/>
<path d="M0 0 C0.66 0 1.32 0 2 0 C2.33 0.99 2.66 1.98 3 3 C3.66 2.01 4.32 1.02 5 0 C5.66 0 6.32 0 7 0 C7.33 5.94 7.66 11.88 8 18 C7.01 18 6.02 18 5 18 C5 16.02 5 14.04 5 12 C4.67 13.65 4.34 15.3 4 17 C3.01 16.67 2.02 16.34 1 16 C1.020625 14.7625 1.04125 13.525 1.0625 12.25 C1.06768454 9.30518305 0.81124056 6.83934195 0 4 C0 2.68 0 1.36 0 0 Z " fill="#FD5E41" transform="translate(24,136)"/>
<path d="M0 0 C4.95 0 9.9 0 15 0 C15.33 1.65 15.66 3.3 16 5 C10.06 5 4.12 5 -2 5 C-2.33 4.01 -2.66 3.02 -3 2 C-2.01 2 -1.02 2 0 2 C0 1.34 0 0.68 0 0 Z " fill="#F9563B" transform="translate(112,155)"/>
<path d="M0 0 C7.92 0 15.84 0 24 0 C24 0.33 24 0.66 24 1 C21.36 1.33 18.72 1.66 16 2 C16 2.66 16 3.32 16 4 C8.02509872 5.32915021 0.05813281 5.08801359 -8 5 C-8 4.67 -8 4.34 -8 4 C-5.36 4 -2.72 4 0 4 C0 2.68 0 1.36 0 0 Z " fill="#FCA24D" transform="translate(104,218)"/>
<path d="M0 0 C0.66 0 1.32 0 2 0 C3.2187375 3.79537631 3.11338128 7.42791621 3.09765625 11.390625 C3.09553383 12.44754547 3.09553383 12.44754547 3.09336853 13.52581787 C3.08778933 15.76725584 3.07524073 18.00859243 3.0625 20.25 C3.05748231 21.77343605 3.05291987 23.29687368 3.04882812 24.8203125 C3.03782674 28.54690772 3.02057646 32.27344396 3 36 C2.34 36 1.68 36 1 36 C0.67 33.36 0.34 30.72 0 28 C0.66 28 1.32 28 2 28 C2 25.36 2 22.72 2 20 C1.34 20 0.68 20 0 20 C0 13.4 0 6.8 0 0 Z " fill="#D042A0" transform="translate(176,68)"/>
<path d="M0 0 C5.77807024 -0.2358396 10.51324804 0.13216954 16 2 C16 1.34 16 0.68 16 0 C20.62 0 25.24 0 30 0 C27.00919496 2.99080504 24.80323244 2.9731138 20.60839844 3.11352539 C19.2887207 3.10828857 17.96904297 3.10305176 16.609375 3.09765625 C15.90476135 3.0962413 15.20014771 3.09482635 14.47418213 3.09336853 C12.23274416 3.08778933 9.99140757 3.07524073 7.75 3.0625 C6.22656395 3.05748231 4.70312632 3.05291987 3.1796875 3.04882812 C-0.54690772 3.03782674 -4.27344396 3.02057646 -8 3 C-8 2.67 -8 2.34 -8 2 C-5.36 2 -2.72 2 0 2 C0 1.34 0 0.68 0 0 Z " fill="#FC5B42" transform="translate(128,176)"/>
<path d="M0 0 C2.64 0 5.28 0 8 0 C8 0.66 8 1.32 8 2 C10.64 2.33 13.28 2.66 16 3 C16 3.33 16 3.66 16 4 C13.36 4 10.72 4 8 4 C8 4.99 8 5.98 8 7 C2.72 7 -2.56 7 -8 7 C-8 6.67 -8 6.34 -8 6 C-5.36 6 -2.72 6 0 6 C0 5.34 0 4.68 0 4 C-1.65 4 -3.3 4 -5 4 C-5 3.67 -5 3.34 -5 3 C-3.35 3 -1.7 3 0 3 C0 2.01 0 1.02 0 0 Z " fill="#FC6A41" transform="translate(144,216)"/>
<path d="M0 0 C0.33 0 0.66 0 1 0 C1 5.28 1 10.56 1 16 C-0.32 16 -1.64 16 -3 16 C-3.33 16.99 -3.66 17.98 -4 19 C-4.66 18.67 -5.32 18.34 -6 18 C-6 14.7 -6 11.4 -6 8 C-5.01 8 -4.02 8 -3 8 C-2.67 6.68 -2.34 5.36 -2 4 C-2 5.32 -2 6.64 -2 8 C-1.34 8 -0.68 8 0 8 C0 5.36 0 2.72 0 0 Z " fill="#C63F8C" transform="translate(30,72)"/>
<path d="M0 0 C0 0.99 0 1.98 0 3 C-8.0125322 4.03387512 -15.92905177 4.10466648 -24 4 C-24 3.67 -24 3.34 -24 3 C-21.36 3 -18.72 3 -16 3 C-16 2.34 -16 1.68 -16 1 C-18.64 1 -21.28 1 -24 1 C-24 0.67 -24 0.34 -24 0 C-15.96992764 -1.50563857 -8.08567124 -0.63782601 0 0 Z " fill="#FC693D" transform="translate(152,195)"/>
<path d="M0 0 C1.32 0 2.64 0 4 0 C4 0.99 4 1.98 4 3 C4.66 3.33 5.32 3.66 6 4 C6.75 6.375 6.75 6.375 7 9 C3.71428571 13.92857143 3.71428571 13.92857143 2 16 C1.34 16 0.68 16 0 16 C0 10.72 0 5.44 0 0 Z " fill="#E23D66" transform="translate(2,96)"/>
<path d="M0 0 C0.66 0 1.32 0 2 0 C2.08086376 2.93804996 2.1404283 5.87388075 2.1875 8.8125 C2.21263672 9.64587891 2.23777344 10.47925781 2.26367188 11.33789062 C2.27333984 12.14033203 2.28300781 12.94277344 2.29296875 13.76953125 C2.3086792 14.50792236 2.32438965 15.24631348 2.34057617 16.00708008 C1.91074167 18.52230522 0.92536938 19.39441516 -1 21 C-3.64069968 16.42348861 -3.54571359 12.16450691 -3 7 C-2.21987486 4.45219246 -1.2397414 2.37617101 0 0 Z " fill="#FC6E44" transform="translate(6,159)"/>
<path d="M0 0 C10.56 0 21.12 0 32 0 C32 0.99 32 1.98 32 3 C25.07 3 18.14 3 11 3 C11 2.67 11 2.34 11 2 C7.37 1.67 3.74 1.34 0 1 C0 0.67 0 0.34 0 0 Z " fill="#5A56CF" transform="translate(56,4)"/>
<path d="M0 0 C1.65 0 3.3 0 5 0 C5.33 0.99 5.66 1.98 6 3 C2.92416738 7.65195803 -1.41555547 11.8563809 -6 15 C-6.66 15 -7.32 15 -8 15 C-8 12.69 -8 10.38 -8 8 C-5.36 8 -2.72 8 0 8 C0 5.36 0 2.72 0 0 Z " fill="#E3466E" transform="translate(208,200)"/>
<path d="M0 0 C1.485 0.99 1.485 0.99 3 2 C3.328125 4.27734375 3.328125 4.27734375 3.25 6.9375 C3.23453125 7.81277344 3.2190625 8.68804687 3.203125 9.58984375 C3 12 3 12 2 15 C2.66 15 3.32 15 4 15 C4 12.69 4 10.38 4 8 C4.33 8 4.66 8 5 8 C5 12.29 5 16.58 5 21 C1 21 1 21 -1 20 C-1.11044961 13.26257354 -0.70132913 6.70019789 0 0 Z " fill="#E5436C" transform="translate(155,107)"/>
<path d="M0 0 C0.99 0.33 1.98 0.66 3 1 C-3 7 -3 7 -6.16015625 7.09765625 C-8.09181641 7.08025391 -8.09181641 7.08025391 -10.0625 7.0625 C-11.35285156 7.05347656 -12.64320313 7.04445312 -13.97265625 7.03515625 C-14.97167969 7.02355469 -15.97070312 7.01195312 -17 7 C-17.33 6.34 -17.66 5.68 -18 5 C-16.86820313 4.72285156 -15.73640625 4.44570312 -14.5703125 4.16015625 C-13.08851098 3.79439512 -11.60674182 3.42850289 -10.125 3.0625 C-9.37863281 2.88009766 -8.63226563 2.69769531 -7.86328125 2.50976562 C-3.82960875 1.54790308 -3.82960875 1.54790308 0 0 Z " fill="#FAF4F2" transform="translate(194,218)"/>
<path d="M0 0 C2.77089431 3.69452574 4.28887517 6.7593863 6 11 C6.391875 11.969375 6.78375 12.93875 7.1875 13.9375 C7.455625 14.618125 7.72375 15.29875 8 16 C5.36 16 2.72 16 0 16 C0 10.72 0 5.44 0 0 Z " fill="#FA8E4F" transform="translate(32,160)"/>
<path d="M0 0 C0.66 0 1.32 0 2 0 C3 8 4 16 5 24 C4.67 23.34 4.34 22.68 4 22 C2.68 21.67 1.36 21.34 0 21 C0 14.07 0 7.14 0 0 Z " fill="#FCF9F5" transform="translate(0,168)"/>
<path d="M0 0 C1.32 0.33 2.64 0.66 4 1 C3.55269531 1.50789063 3.10539062 2.01578125 2.64453125 2.5390625 C2.03996094 3.22742187 1.43539062 3.91578125 0.8125 4.625 C0.17441406 5.34945312 -0.46367188 6.07390625 -1.12109375 6.8203125 C-2.72167296 8.67711748 -4.24017105 10.57000459 -5.75 12.5 C-6.4925 13.325 -7.235 14.15 -8 15 C-8.99 15 -9.98 15 -11 15 C-11 12.36 -11 9.72 -11 7 C-8.36 7 -5.72 7 -3 7 C-2.87625 6.401875 -2.7525 5.80375 -2.625 5.1875 C-2 3 -2 3 0 0 Z " fill="#8041BA" transform="translate(43,41)"/>
<path d="M0 0 C0.33 0 0.66 0 1 0 C1 2.64 1 5.28 1 8 C2.32 8 3.64 8 5 8 C5.33 7.01 5.66 6.02 6 5 C6 8.63 6 12.26 6 16 C4 17 4 17 0 16 C0 10.72 0 5.44 0 0 Z " fill="#C83787" transform="translate(2,80)"/>
<path d="M0 0 C0.33 0.99 0.66 1.98 1 3 C0.67 3.66 0.34 4.32 0 5 C-4.29 5 -8.58 5 -13 5 C-13 4.34 -13 3.68 -13 3 C-8.1942374 -0.17180332 -5.81427302 -1.70173845 0 0 Z " fill="#F5534F" transform="translate(143,147)"/>
<path d="M0 0 C0.33 0 0.66 0 1 0 C1 2.64 1 5.28 1 8 C1.66 8 2.32 8 3 8 C3 15.92 3 23.84 3 32 C2.34 32 1.68 32 1 32 C1.33 26.72 1.66 21.44 2 16 C1.34 16 0.68 16 0 16 C0 10.72 0 5.44 0 0 Z " fill="#DB3C90" transform="translate(219,144)"/>
<path d="M0 0 C0.33 0 0.66 0 1 0 C1.85298376 3.67387495 2.10789471 7.0447393 2.0625 10.8125 C2.05347656 11.78832031 2.04445313 12.76414062 2.03515625 13.76953125 C2.02355469 14.50558594 2.01195312 15.24164063 2 16 C0.35 16 -1.3 16 -3 16 C-3.25 8.375 -3.25 8.375 -1 5 C-0.61500109 3.34450469 -0.27206865 1.6777567 0 0 Z " fill="#EF4C5C" transform="translate(6,104)"/>
<path d="M0 0 C1.65 0 3.3 0 5 0 C5 5.28 5 10.56 5 16 C4.67 16 4.34 16 4 16 C4 13.36 4 10.72 4 8 C3.01 8 2.02 8 1 8 C1 10.64 1 13.28 1 16 C0.67 16 0.34 16 0 16 C0 10.72 0 5.44 0 0 Z " fill="#9839AB" transform="translate(2,64)"/>
<path d="M0 0 C5.28 0 10.56 0 16 0 C16 2.64 16 5.28 16 8 C15.26394531 7.66226563 14.52789062 7.32453125 13.76953125 6.9765625 C12.30580078 6.30753906 12.30580078 6.30753906 10.8125 5.625 C9.84957031 5.18414062 8.88664063 4.74328125 7.89453125 4.2890625 C5.28468208 3.12678149 2.66024041 2.04075219 0 1 C0 0.67 0 0.34 0 0 Z " fill="#A62FB9" transform="translate(160,32)"/>
<path d="M0 0 C4.62 0 9.24 0 14 0 C13.34 1.32 12.68 2.64 12 4 C6.72 4 1.44 4 -4 4 C-4 3.34 -4 2.68 -4 2 C-2.68 2 -1.36 2 0 2 C0 1.34 0 0.68 0 0 Z " fill="#9732C6" transform="translate(140,24)"/>
<path d="M0 0 C0.66 0 1.32 0 2 0 C2 8.91 2 17.82 2 27 C1.67 27 1.34 27 1 27 C0.86722656 25.86820313 0.73445313 24.73640625 0.59765625 23.5703125 C0.4194658 22.08851821 0.24106971 20.60674864 0.0625 19.125 C-0.02451172 18.37863281 -0.11152344 17.63226563 -0.20117188 16.86328125 C-0.63326063 12.8046769 -0.63326063 12.8046769 -2 9 C-1.66015625 6.8359375 -1.66015625 6.8359375 -1.0625 4.375 C-0.86785156 3.55773437 -0.67320313 2.74046875 -0.47265625 1.8984375 C-0.23869141 0.95871094 -0.23869141 0.95871094 0 0 Z " fill="#F34953" transform="translate(28,101)"/>
<path d="M0 0 C0.33 0.66 0.66 1.32 1 2 C1.66 2 2.32 2 3 2 C2.67 2.99 2.34 3.98 2 5 C1.87625 5.639375 1.7525 6.27875 1.625 6.9375 C0.8740053 9.41578253 -0.36725641 11.01231215 -2 13 C-1.67 13.66 -1.34 14.32 -1 15 C-2.32 15.33 -3.64 15.66 -5 16 C-4.70887831 9.58076669 -3.54784971 5.37899794 0 0 Z " fill="#F7F2F2" transform="translate(77,89)"/>
<path d="M0 0 C2.64 0 5.28 0 8 0 C8.99 1.98 9.98 3.96 11 6 C11.99 6 12.98 6 14 6 C14 6.99 14 7.98 14 9 C7.70814354 8.84270359 4.17535427 5.32371711 0 1 C0 0.67 0 0.34 0 0 Z " fill="#FBB554" transform="translate(16,208)"/>
<path d="M0 0 C4.62 2.31 9.24 4.62 14 7 C14 7.33 14 7.66 14 8 C9.38 8 4.76 8 0 8 C0 5.36 0 2.72 0 0 Z " fill="#F9B151" transform="translate(48,184)"/>
<path d="M0 0 C0.33 0 0.66 0 1 0 C1.06058594 1.02480469 1.12117188 2.04960938 1.18359375 3.10546875 C1.26805026 4.46615695 1.35269567 5.82683343 1.4375 7.1875 C1.47681641 7.86103516 1.51613281 8.53457031 1.55664062 9.22851562 C1.78927565 12.89699102 2.17207011 16.41694206 3 20 C1.02 20.33 -0.96 20.66 -3 21 C-2.85904936 19.3745692 -2.71207913 17.74965949 -2.5625 16.125 C-2.48128906 15.22007813 -2.40007812 14.31515625 -2.31640625 13.3828125 C-2 11 -2 11 -1 9 C-0.77532169 7.46331135 -0.59203195 5.92031946 -0.4375 4.375 C-0.35371094 3.55773437 -0.26992187 2.74046875 -0.18359375 1.8984375 C-0.12300781 1.27195312 -0.06242187 0.64546875 0 0 Z " fill="#F7625B" transform="translate(70,107)"/>
<path d="M0 0 C-0.99 0.495 -0.99 0.495 -2 1 C-1.67 1.99 -1.34 2.98 -1 4 C-1.33 4.66 -1.66 5.32 -2 6 C-4.97 5.67 -7.94 5.34 -11 5 C-11 4.34 -11 3.68 -11 3 C-14.3 3 -17.6 3 -21 3 C-21 2.67 -21 2.34 -21 2 C-20.11957031 1.95101562 -19.23914063 1.90203125 -18.33203125 1.8515625 C-17.17058594 1.77679688 -16.00914063 1.70203125 -14.8125 1.625 C-13.08966797 1.52058594 -13.08966797 1.52058594 -11.33203125 1.4140625 C-8.03100566 1.14819157 -8.03100566 1.14819157 -5.26171875 -0.1015625 C-3 -1 -3 -1 0 0 Z " fill="#FAF4F1" transform="translate(128,137)"/>
<path d="M0 0 C2.64 0 5.28 0 8 0 C8 3.96 8 7.92 8 12 C7.34 12 6.68 12 6 12 C4 8 2 4 0 0 Z " fill="#C238AD" transform="translate(184,48)"/>
<path d="M0 0 C0 1.32 0 2.64 0 4 C-4.29 4 -8.58 4 -13 4 C-13 3.34 -13 2.68 -13 2 C-13.99 1.34 -14.98 0.68 -16 0 C-14.08416353 -0.1958009 -12.16727461 -0.38132214 -10.25 -0.5625 C-8.64898437 -0.71912109 -8.64898437 -0.71912109 -7.015625 -0.87890625 C-4.35858796 -0.98560074 -2.50039428 -0.81930395 0 0 Z " fill="#FC7B46" transform="translate(144,218)"/>
<path d="M0 0 C0.928125 0.2784375 0.928125 0.2784375 1.875 0.5625 C4.04160178 1.23686176 4.04160178 1.23686176 6 0 C6 0.66 6 1.32 6 2 C6.66 2 7.32 2 8 2 C8 4.97 8 7.94 8 11 C6.33333333 9.33333333 4.66666667 7.66666667 3 6 C2.401875 5.46375 1.80375 4.9275 1.1875 4.375 C0 3 0 3 0 0 Z " fill="#FAA156" transform="translate(8,197)"/>
<path d="M0 0 C3.63 0 7.26 0 11 0 C11 0.66 11 1.32 11 2 C11.66 1.34 12.32 0.68 13 0 C15.8203125 -0.1953125 15.8203125 -0.1953125 19.125 -0.125 C20.22070312 -0.10695312 21.31640625 -0.08890625 22.4453125 -0.0703125 C23.28835937 -0.04710937 24.13140625 -0.02390625 25 0 C24.67 0.66 24.34 1.32 24 2 C21.44351584 2.3733852 19.00902812 2.6126492 16.4375 2.75 C15.71111328 2.79310303 14.98472656 2.83620605 14.23632812 2.88061523 C9.11500695 3.11543814 4.87021331 2.72486721 0 1 C0 0.67 0 0.34 0 0 Z " fill="#FAA259" transform="translate(64,176)"/>
<path d="M0 0 C4.62 0.66 9.24 1.32 14 2 C15 6 15 6 15 8 C9.3723345 6.34921812 4.67132966 4.59333051 0 1 C0 0.67 0 0.34 0 0 Z " fill="#FCF3E9" transform="translate(49,184)"/>
<path d="M0 0 C2.10388569 -0.05402274 4.20816714 -0.09280256 6.3125 -0.125 C8.07013672 -0.15980469 8.07013672 -0.15980469 9.86328125 -0.1953125 C13 0 13 0 16 2 C9.14016191 3.05728087 2.43216776 3.11639843 -4.5 3.0625 C-5.60859375 3.05798828 -6.7171875 3.05347656 -7.859375 3.04882812 C-10.57297399 3.03713158 -13.28645761 3.02074086 -16 3 C-16 2.67 -16 2.34 -16 2 C-10.72 2 -5.44 2 0 2 C0 1.34 0 0.68 0 0 Z " fill="#FE883C" transform="translate(96,176)"/>
<path d="M0 0 C2 2 2 2 2 5 C0.68 5 -0.64 5 -2 5 C-2.04898438 5.89203125 -2.09796875 6.7840625 -2.1484375 7.703125 C-2.22320312 8.87359375 -2.29796875 10.0440625 -2.375 11.25 C-2.44460937 12.41015625 -2.51421875 13.5703125 -2.5859375 14.765625 C-2.96248308 17.70694334 -3.4774123 19.49949011 -5 22 C-5.05420701 19.43721301 -5.09377007 16.87558517 -5.125 14.3125 C-5.15013672 13.2306543 -5.15013672 13.2306543 -5.17578125 12.12695312 C-5.21352105 7.99444537 -5.09236267 4.62352873 -3 1 C-2.01 0.67 -1.02 0.34 0 0 Z " fill="#BC4096" transform="translate(51,66)"/>
<path d="M0 0 C2.51100916 1.25550458 2.84591575 2.31919616 4.0625 4.8125 C4.57490234 5.84310547 4.57490234 5.84310547 5.09765625 6.89453125 C5.98944572 8.97537335 6.70368922 10.75259667 7 13 C6.01 14.485 6.01 14.485 5 16 C0.80720136 11.0734616 -0.5546903 8.20741402 -0.17578125 1.72265625 C-0.11777344 1.15417969 -0.05976562 0.58570312 0 0 Z " fill="#F65B41" transform="translate(72,127)"/>
<path d="M0 0 C0.66 0 1.32 0 2 0 C2.89337974 4.91358857 3.38740735 9.14407429 2 14 C1.34 14 0.68 14 0 14 C0 13.34 0 12.68 0 12 C-0.66 12 -1.32 12 -2 12 C-1.85904936 10.3745692 -1.71207913 8.74965949 -1.5625 7.125 C-1.48128906 6.22007813 -1.40007812 5.31515625 -1.31640625 4.3828125 C-1 2 -1 2 0 0 Z " fill="#614EC4" transform="translate(5,34)"/>
<path d="M0 0 C4.51290803 3.33562767 6.68206814 5.33289301 8 11 C7.34 11 6.68 11 6 11 C5.34 10.34 4.68 9.68 4 9 C3.67 9.66 3.34 10.32 3 11 C2.01 11 1.02 11 0 11 C0 7.37 0 3.74 0 0 Z " fill="#AD2FB7" transform="translate(208,16)"/>
<path d="M0 0 C0 2.31 0 4.62 0 7 C-4.29 7 -8.58 7 -13 7 C-11.71106389 4.42212778 -10.80050191 4.40163434 -8.125 3.5 C-5.67316706 2.66764343 -2.26002618 0 0 0 Z " fill="#F15053" transform="translate(176,185)"/>
<path d="M0 0 C2.4375 0.375 2.4375 0.375 5 1 C6.4783226 3.95664519 6.06032783 6.74229737 6 10 C4.35 10.33 2.7 10.66 1 11 C1.33 8.36 1.66 5.72 2 3 C1.34 3 0.68 3 0 3 C0 2.01 0 1.02 0 0 Z " fill="#7A49C3" transform="translate(2,45)"/>
<path d="M0 0 C1.79244141 0.01740234 1.79244141 0.01740234 3.62109375 0.03515625 C5.41740234 0.04869141 5.41740234 0.04869141 7.25 0.0625 C8.17683594 0.07410156 9.10367188 0.08570313 10.05859375 0.09765625 C10.38859375 0.75765625 10.71859375 1.41765625 11.05859375 2.09765625 C6.2802847 5.01125933 3.50753244 5.29642276 -1.94140625 4.09765625 C-1.94140625 3.43765625 -1.94140625 2.77765625 -1.94140625 2.09765625 C-2.60140625 1.76765625 -3.26140625 1.43765625 -3.94140625 1.09765625 C-2.94140625 0.09765625 -2.94140625 0.09765625 0 0 Z " fill="#FCCE5B" transform="translate(33.94140625,215.90234375)"/>
<path d="M0 0 C1.32 0 2.64 0 4 0 C4.5497272 5.63470383 2.95047835 8.38987758 0 13 C-0.33 13 -0.66 13 -1 13 C-1.02686553 11.02090602 -1.04633375 9.04171029 -1.0625 7.0625 C-1.07410156 5.96035156 -1.08570313 4.85820312 -1.09765625 3.72265625 C-1 1 -1 1 0 0 Z " fill="#F6F4F4" transform="translate(186,162)"/>
<path d="M0 0 C1.98 1.32 3.96 2.64 6 4 C5.67 5.32 5.34 6.64 5 8 C4.34 8 3.68 8 3 8 C2.67 8.66 2.34 9.32 2 10 C1.34 9.01 0.68 8.02 0 7 C-0.99 7 -1.98 7 -3 7 C-1.125 1.125 -1.125 1.125 0 0 Z " fill="#A637A4" transform="translate(51,60)"/>
<path d="M0 0 C-0.1875 1.875 -0.1875 1.875 -1 4 C-3.89105597 5.68644932 -5.48102512 6.06919665 -8.8125 5.625 C-9.534375 5.41875 -10.25625 5.2125 -11 5 C-11 4.34 -11 3.68 -11 3 C-4.5 0 -4.5 0 0 0 Z " fill="#F6F3F7" transform="translate(64,34)"/>
<path d="M0 0 C0.33 0 0.66 0 1 0 C1 4.29 1 8.58 1 13 C-1.31 13 -3.62 13 -6 13 C-4.02 8.71 -2.04 4.42 0 0 Z " fill="#E6476C" transform="translate(191,163)"/>
<path d="M0 0 C2.31 0 4.62 0 7 0 C6.67 0.66 6.34 1.32 6 2 C5.01 2 4.02 2 3 2 C3.185625 2.5775 3.37125 3.155 3.5625 3.75 C4.04023546 6.20692525 3.75729364 7.64397534 3 10 C2.34 10 1.68 10 1 10 C0.67 11.32 0.34 12.64 0 14 C0 9.38 0 4.76 0 0 Z " fill="#C136A1" transform="translate(144,56)"/>
<path d="M0 0 C0.33 0 0.66 0 1 0 C1.33 1.65 1.66 3.3 2 5 C2.33 5 2.66 5 3 5 C3.43177893 11.26079448 2.92739438 14.09075703 -1 19 C-2.2887476 16.4225048 -1.71668849 15.75433225 -1 13 C-0.7801777 10.75292759 -0.59516013 8.50228762 -0.4375 6.25 C-0.35371094 5.07953125 -0.26992187 3.9090625 -0.18359375 2.703125 C-0.12300781 1.81109375 -0.06242188 0.9190625 0 0 Z " fill="#F9F1F2" transform="translate(179,139)"/>
<path d="M0 0 C0.33 0 0.66 0 1 0 C0.85936865 2.29199177 0.71234057 4.58359186 0.5625 6.875 C0.48128906 8.15117188 0.40007812 9.42734375 0.31640625 10.7421875 C0 14 0 14 -1 16 C-1.66 16 -2.32 16 -3 16 C-3 14.02 -3 12.04 -3 10 C-3.33 10 -3.66 10 -4 10 C-4 8.35 -4 6.7 -4 5 C-2.68 4.34 -1.36 3.68 0 3 C0 2.01 0 1.02 0 0 Z " fill="#F75145" transform="translate(68,112)"/>
<path d="M0 0 C0.33 0.66 0.66 1.32 1 2 C1.66 2 2.32 2 3 2 C3 3.98 3 5.96 3 8 C0.36 8 -2.28 8 -5 8 C-5 7.01 -5 6.02 -5 5 C-3.68 4.67 -2.36 4.34 -1 4 C-0.67 2.68 -0.34 1.36 0 0 Z " fill="#D24297" transform="translate(165,72)"/>
<path d="M0 0 C1 2 1 2 0.00390625 5.4765625 C-0.46900047 6.86197936 -0.94981644 8.24471547 -1.4375 9.625 C-1.68048828 10.33140625 -1.92347656 11.0378125 -2.17382812 11.765625 C-2.77587205 13.51273287 -3.38708017 15.25667786 -4 17 C-4.66 17 -5.32 17 -6 17 C-6 16.34 -6 15.68 -6 15 C-6.99 14.67 -7.98 14.34 -9 14 C-7.625 12.5 -7.625 12.5 -6 11 C-5.34 11 -4.68 11 -4 11 C-3.67 8.36 -3.34 5.72 -3 3 C-2.34 3 -1.68 3 -1 3 C-0.67 2.01 -0.34 1.02 0 0 Z " fill="#963DA8" transform="translate(36,53)"/>
<path d="M0 0 C0.99 0 1.98 0 3 0 C3.66 0.66 4.32 1.32 5 2 C8.58343976 2.16677282 8.58343976 2.16677282 12 2 C9.16569547 5.2542015 7.31392226 6.5206753 3 7 C0 2.25 0 2.25 0 0 Z " fill="#FB8F47" transform="translate(5,190)"/>
<path d="M0 0 C0.88945313 0.07863281 1.77890625 0.15726563 2.6953125 0.23828125 C3.77425781 0.46064453 3.77425781 0.46064453 4.875 0.6875 C5.205 1.3475 5.535 2.0075 5.875 2.6875 C1.48914671 3.38923653 -2.68290643 3.79584375 -7.125 3.6875 C-7.455 2.6975 -7.785 1.7075 -8.125 0.6875 C-4.98117176 -0.36044275 -3.25296561 -0.31770947 0 0 Z " fill="#FC6142" transform="translate(117.125,156.3125)"/>
<path d="M0 0 C4.95 0 9.9 0 15 0 C15 1.32 15 2.64 15 4 C9.76119922 3.44854729 5.02649303 2.57077907 0 1 C0 0.67 0 0.34 0 0 Z " fill="#7942CD" transform="translate(73,27)"/>
<path d="M0 0 C0.66 0.33 1.32 0.66 2 1 C1.03644647 10.41002278 1.03644647 10.41002278 0 15 C-0.33 15 -0.66 15 -1 15 C-1.41815082 13.25519803 -1.80873982 11.50377443 -2.1875 9.75 C-2.40792969 8.77546875 -2.62835938 7.8009375 -2.85546875 6.796875 C-3 4 -3 4 -1.55078125 1.640625 C-1.03902344 1.09921875 -0.52726563 0.5578125 0 0 Z " fill="#F6EDF7" transform="translate(223,30)"/>
<path d="M0 0 C0.33 0 0.66 0 1 0 C1.02685938 2.14576637 1.04633088 4.29162645 1.0625 6.4375 C1.07410156 7.63246094 1.08570313 8.82742187 1.09765625 10.05859375 C1 13 1 13 0 14 C-0.23287008 15.68183948 -0.41264166 17.3712416 -0.5625 19.0625 C-0.64628906 19.98160156 -0.73007812 20.90070313 -0.81640625 21.84765625 C-0.87699219 22.55792969 -0.93757812 23.26820313 -1 24 C-1.33 24 -1.66 24 -2 24 C-2.26305952 15.7574683 -1.60614551 8.08808989 0 0 Z " fill="#FD633B" transform="translate(4,152)"/>
<path d="M0 0 C0.33 0 0.66 0 1 0 C1 8.58 1 17.16 1 26 C0.34 26 -0.32 26 -1 26 C-1.33 23.36 -1.66 20.72 -2 18 C-1.34 18 -0.68 18 0 18 C0 12.06 0 6.12 0 0 Z " fill="#D43487" transform="translate(178,78)"/>
<path d="M0 0 C3.96 0 7.92 0 12 0 C12 0.33 12 0.66 12 1 C9.36 1 6.72 1 4 1 C4 1.99 4 2.98 4 4 C-1.28 4 -6.56 4 -12 4 C-12 3.67 -12 3.34 -12 3 C-11.21753906 2.95101562 -10.43507812 2.90203125 -9.62890625 2.8515625 C-8.61699219 2.77679688 -7.60507813 2.70203125 -6.5625 2.625 C-5.55316406 2.55539063 -4.54382813 2.48578125 -3.50390625 2.4140625 C-2.26447266 2.20910156 -2.26447266 2.20910156 -1 2 C-0.67 1.34 -0.34 0.68 0 0 Z " fill="#F96534" transform="translate(148,219)"/>
<path d="M0 0 C0.66 0.66 1.32 1.32 2 2 C-0.64 2.33 -3.28 2.66 -6 3 C-6.33 3.99 -6.66 4.98 -7 6 C-8.65 5.67 -10.3 5.34 -12 5 C-12.33 4.01 -12.66 3.02 -13 2 C-8.52169972 0.56694391 -4.76082745 -0.44286767 0 0 Z " fill="#9845BD" transform="translate(78,46)"/>
<path d="M0 0 C2.24469451 0.91190715 3.42203265 1.99783754 5 3.8125 C2 5.8125 2 5.8125 -0.6875 5.4375 C-1.450625 5.23125 -2.21375 5.025 -3 4.8125 C-3 4.1525 -3 3.4925 -3 2.8125 C-3.66 2.4825 -4.32 2.1525 -5 1.8125 C-2 -0.1875 -2 -0.1875 0 0 Z " fill="#9337B1" transform="translate(65,49.1875)"/>
<path d="M0 0 C2.125 0.25 2.125 0.25 4 1 C4.99 0.67 5.98 0.34 7 0 C7 0.99 7 1.98 7 3 C2.8794254 4.99785435 -0.45194365 5.17835515 -5 5 C-2.75 2.4375 -2.75 2.4375 0 0 Z " fill="#4069C1" transform="translate(22,11)"/>
<path d="M0 0 C0.33 0.99 0.66 1.98 1 3 C-0.14453125 4.71875 -0.14453125 4.71875 -1.8125 6.5 C-3.78396895 8.63536779 -5.37344861 10.56017292 -7 13 C-8.32 12.34 -9.64 11.68 -11 11 C-10.28972656 10.37351563 -9.57945312 9.74703125 -8.84765625 9.1015625 C-7.46900391 7.87566406 -7.46900391 7.87566406 -6.0625 6.625 C-5.14597656 5.81289062 -4.22945312 5.00078125 -3.28515625 4.1640625 C-0.96398605 2.21290653 -0.96398605 2.21290653 0 0 Z " fill="#F6EEF1" transform="translate(213,203)"/>
<path d="M0 0 C-0.33 0.66 -0.66 1.32 -1 2 C-7.93 2 -14.86 2 -22 2 C-22 1.67 -22 1.34 -22 1 C-21.03578125 0.93941406 -20.0715625 0.87882813 -19.078125 0.81640625 C-17.81484375 0.73261719 -16.5515625 0.64882812 -15.25 0.5625 C-13.99703125 0.48128906 -12.7440625 0.40007812 -11.453125 0.31640625 C-1.77464789 -0.57042254 -1.77464789 -0.57042254 0 0 Z " fill="#FB7465" transform="translate(129,153)"/>
<path d="M0 0 C0.99 0 1.98 0 3 0 C3 2.64 3 5.28 3 8 C1.33333333 8 -0.33333333 8 -2 8 C-2.20086443 4.28400809 -2.1519437 3.22791555 0 0 Z " fill="#D83E79" transform="translate(27,88)"/>
<path d="M0 0 C5.28 0 10.56 0 16 0 C16 0.33 16 0.66 16 1 C14.35 1 12.7 1 11 1 C10.67 1.66 10.34 2.32 10 3 C3.375 3.125 3.375 3.125 0 2 C0 1.34 0 0.68 0 0 Z " fill="#FC9C4E" transform="translate(96,197)"/>
<path d="M0 0 C1.32 0.66 2.64 1.32 4 2 C2.68 4.97 1.36 7.94 0 11 C-0.99 11 -1.98 11 -3 11 C-2.67 10.01 -2.34 9.02 -2 8 C-1.835 6.80375 -1.67 5.6075 -1.5 4.375 C-1 1 -1 1 0 0 Z " fill="#E94867" transform="translate(73,88)"/>
<path d="M0 0 C0.33 0 0.66 0 1 0 C1.36552803 1.41377782 1.71695495 2.83120576 2.0625 4.25 C2.25972656 5.03890625 2.45695313 5.8278125 2.66015625 6.640625 C3.01497267 9.10394822 2.76877544 10.65604132 2 13 C2 12.34 2 11.68 2 11 C0.68 10.34 -0.64 9.68 -2 9 C-1.34 6.03 -0.68 3.06 0 0 Z " fill="#FBEDE3" transform="translate(2,179)"/>
<path d="M0 0 C0.99 0 1.98 0 3 0 C3 2.64 3 5.28 3 8 C-0.37503669 6.8141763 -2.64722731 5.72426311 -5 3 C-3.02 2.67 -1.04 2.34 1 2 C0.67 1.34 0.34 0.68 0 0 Z " fill="#FA9E56" transform="translate(61,168)"/>
<path d="M0 0 C0.33 0 0.66 0 1 0 C1.05447047 1.41623216 1.09300508 2.83308191 1.125 4.25 C1.14820313 5.03890625 1.17140625 5.8278125 1.1953125 6.640625 C0.9828378 9.20731941 0.28654105 10.7916067 -1 13 C-2.0013988 9.99580359 -2.51421457 7.12290635 -3 4 C-2.34 4 -1.68 4 -1 4 C-0.67 2.68 -0.34 1.36 0 0 Z " fill="#EC5B78" transform="translate(139,108)"/>
<path d="M0 0 C2.1796875 0.015625 2.1796875 0.015625 4.875 0.25 C6.20144531 0.35054688 6.20144531 0.35054688 7.5546875 0.453125 C10.29612041 1.06622501 11.25586336 1.85159327 13 4 C11.22992286 4.08114106 9.45877902 4.13925505 7.6875 4.1875 C6.70136719 4.22230469 5.71523437 4.25710937 4.69921875 4.29296875 C2 4 2 4 0.14453125 2.48828125 C-0.23316406 1.99714844 -0.61085938 1.50601563 -1 1 C-0.67 0.67 -0.34 0.34 0 0 Z " fill="#D557A8" transform="translate(104,67)"/>
<path d="M0 0 C2.5 2.3125 2.5 2.3125 5 5 C5 5.99 5 6.98 5 8 C3.35 8 1.7 8 0 8 C0 5.36 0 2.72 0 0 Z " fill="#FAA350" transform="translate(40,176)"/>
<path d="M0 0 C0.33 0 0.66 0 1 0 C1 3.96 1 7.92 1 12 C0.01 12.33 -0.98 12.66 -2 13 C-3 12 -3 12 -3.09765625 10.15234375 C-3.06510417 8.1015625 -3.03255208 6.05078125 -3 4 C-2.67 5.32 -2.34 6.64 -2 8 C-1.34 8 -0.68 8 0 8 C0 5.36 0 2.72 0 0 Z " fill="#BE348F" transform="translate(30,72)"/>
<path d="M0 0 C2.22825644 2.22825644 2.69239369 3.65761628 3.625 6.625 C3.88539063 7.44226562 4.14578125 8.25953125 4.4140625 9.1015625 C4.60742188 9.72804688 4.80078125 10.35453125 5 11 C4.34 11 3.68 11 3 11 C2.34 9.68 1.68 8.36 1 7 C0.34 7.66 -0.32 8.32 -1 9 C-1.97812643 5.95694001 -2.04560527 4.0322553 -1 1 C-0.67 0.67 -0.34 0.34 0 0 Z " fill="#FAEBF8" transform="translate(187,53)"/>
<path d="M0 0 C0.33 0 0.66 0 1 0 C1 2.64 1 5.28 1 8 C-0.32 8 -1.64 8 -3 8 C-3.33 7.01 -3.66 6.02 -4 5 C-2.125 2.3125 -2.125 2.3125 0 0 Z " fill="#4866C3" transform="translate(15,17)"/>
<path d="M0 0 C1.46373047 0.16628906 1.46373047 0.16628906 2.95703125 0.3359375 C3.69308594 0.43132813 4.42914063 0.52671875 5.1875 0.625 C5.1875 0.955 5.1875 1.285 5.1875 1.625 C0.2375 2.285 -4.7125 2.945 -9.8125 3.625 C-10.1425 2.965 -10.4725 2.305 -10.8125 1.625 C-6.91531829 -0.24165742 -4.27165815 -0.51465761 0 0 Z " fill="#EFF5F6" transform="translate(47.8125,0.375)"/>
<path d="M0 0 C0.66 0.99 1.32 1.98 2 3 C-0.31 5.31 -2.62 7.62 -5 10 C-6 7 -6 7 -5.3125 5 C-3.82522999 2.73368379 -2.24230766 1.49487177 0 0 Z " fill="#FAEAEA" transform="translate(144,136)"/>
<path d="M0 0 C5.44693314 -0.09688221 10.63904667 -0.12862175 16 1 C15.34 2.32 14.68 3.64 14 5 C13.38125 4.505 12.7625 4.01 12.125 3.5 C7.73970259 1.39505724 3.78286739 1.74924773 -1 2 C-0.67 1.34 -0.34 0.68 0 0 Z " fill="#BE2B9B" transform="translate(151,58)"/>
<path d="M0 0 C-1 2 -1 2 -3.28515625 2.8515625 C-4.20167969 3.10679687 -5.11820313 3.36203125 -6.0625 3.625 C-7.44115234 4.01558594 -7.44115234 4.01558594 -8.84765625 4.4140625 C-9.55792969 4.60742188 -10.26820313 4.80078125 -11 5 C-11.33 4.34 -11.66 3.68 -12 3 C-7.89542386 0.01485372 -5.02254631 -0.2954439 0 0 Z " fill="#EA5068" transform="translate(198,216)"/>
<path d="M0 0 C2.31 0 4.62 0 7 0 C7 0.66 7 1.32 7 2 C6.34 2 5.68 2 5 2 C4.67 3.32 4.34 4.64 4 6 C2.62437146 4.71034824 1.29233607 3.37310707 0 2 C0 1.34 0 0.68 0 0 Z " fill="#F88244" transform="translate(49,160)"/>
<path d="M0 0 C3.375 0.3125 3.375 0.3125 7 1 C7.66 1.99 8.32 2.98 9 4 C8.01 4.33 7.02 4.66 6 5 C5.34 5.66 4.68 6.32 4 7 C4 5.35 4 3.7 4 2 C3.34 2 2.68 2 2 2 C1.67 2.66 1.34 3.32 1 4 C0.67 2.68 0.34 1.36 0 0 Z " fill="#B532B2" transform="translate(156,48)"/>
<path d="M0 0 C0.66 0 1.32 0 2 0 C2 1.32 2 2.64 2 4 C3.32 4.66 4.64 5.32 6 6 C5.34 7.98 4.68 9.96 4 12 C1.78600697 8.20458337 0.99019802 4.24370579 0 0 Z " fill="#FDF3ED" transform="translate(32,156)"/>
<path d="M0 0 C2.31 0 4.62 0 7 0 C6.01 0.495 6.01 0.495 5 1 C5 2.65 5 4.3 5 6 C2.525 5.01 2.525 5.01 0 4 C0 2.68 0 1.36 0 0 Z " fill="#DE4374" transform="translate(72,84)"/>
<path d="M0 0 C2.31 0 4.62 0 7 0 C7 2.31 7 4.62 7 7 C5.83040013 6.02433888 4.66438823 5.044375 3.5 4.0625 C2.8503125 3.51722656 2.200625 2.97195312 1.53125 2.41015625 C1.0259375 1.94480469 0.520625 1.47945312 0 1 C0 0.67 0 0.34 0 0 Z " fill="#B429B4" transform="translate(177,40)"/>
<path d="M0 0 C0.99 0 1.98 0 3 0 C3 3.3 3 6.6 3 10 C2.01 10.495 2.01 10.495 1 11 C0.67 7.37 0.34 3.74 0 0 Z " fill="#CA399A" transform="translate(165,63)"/>
<path d="M0 0 C-0.61875 0.28875 -1.2375 0.5775 -1.875 0.875 C-4.13325765 1.93720042 -4.13325765 1.93720042 -6 4 C-7 5 -8 6 -9 7 C-9.66 5.35 -10.32 3.7 -11 2 C-7.17679443 0.57741188 -4.08718695 -0.24042276 0 0 Z " fill="#C940AE" transform="translate(157,56)"/>
<path d="M0 0 C1.2065625 0.0309375 1.2065625 0.0309375 2.4375 0.0625 C2.7675 1.0525 3.0975 2.0425 3.4375 3.0625 C1.7875 2.7325 0.1375 2.4025 -1.5625 2.0625 C-1.2325 3.3825 -0.9025 4.7025 -0.5625 6.0625 C-1.5525 6.0625 -2.5425 6.0625 -3.5625 6.0625 C-3.605221 4.39638095 -3.60313832 2.72867115 -3.5625 1.0625 C-2.5625 0.0625 -2.5625 0.0625 0 0 Z " fill="#FD6A3D" transform="translate(83.5625,145.9375)"/>
<path d="M0 0 C-0.99 1.485 -0.99 1.485 -2 3 C-2.99 3 -3.98 3 -5 3 C-5 2.34 -5 1.68 -5 1 C-8.3 1 -11.6 1 -15 1 C-15 0.67 -15 0.34 -15 0 C-12.87562788 -0.19448477 -10.75046809 -0.38038289 -8.625 -0.5625 C-7.44164063 -0.66691406 -6.25828125 -0.77132812 -5.0390625 -0.87890625 C-2 -1 -2 -1 0 0 Z " fill="#FDCBCA" transform="translate(122,139)"/>
<path d="M0 0 C-0.33 0.66 -0.66 1.32 -1 2 C-5.29 1.67 -9.58 1.34 -14 1 C-14 0.67 -14 0.34 -14 0 C-9.20699867 -1.39151652 -4.84864218 -0.68662689 0 0 Z " fill="#C4368B" transform="translate(123,69)"/>
<path d="M0 0 C1.65 0 3.3 0 5 0 C5.33 0.99 5.66 1.98 6 3 C5.01 3.99 4.02 4.98 3 6 C0 2.25 0 2.25 0 0 Z " fill="#E8477A" transform="translate(208,200)"/>
<path d="M0 0 C0.33 0 0.66 0 1 0 C1.33 5.94 1.66 11.88 2 18 C1.01 18 0.02 18 -1 18 C-0.505 9.09 -0.505 9.09 0 0 Z " fill="#F96B40" transform="translate(30,136)"/>
<path d="M0 0 C0.66 0.66 1.32 1.32 2 2 C0.68 4.64 -0.64 7.28 -2 10 C-2.33 10 -2.66 10 -3 10 C-3.36923077 3.47692308 -3.36923077 3.47692308 -1.5 1.0625 C-1.005 0.711875 -0.51 0.36125 0 0 Z " fill="#F7F3EF" transform="translate(88,96)"/>
<path d="M0 0 C-2.46115371 2.27183419 -3.73620199 2.9736202 -7.125 3.3125 C-10 3 -10 3 -12 1 C-7.9472484 0.01751476 -4.16138263 -0.08159574 0 0 Z " fill="#E75A83" transform="translate(116,85)"/>
<path d="M0 0 C0.99 0 1.98 0 3 0 C2.67 2.64 2.34 5.28 2 8 C1.34 8 0.68 8 0 8 C0 5.36 0 2.72 0 0 Z " fill="#DC417E" transform="translate(3,96)"/>
<path d="M0 0 C0.33 0.99 0.66 1.98 1 3 C1.66 3.33 2.32 3.66 3 4 C3 4.66 3 5.32 3 6 C0.36 5.34 -2.28 4.68 -5 4 C-5 3.34 -5 2.68 -5 2 C-3.35 1.34 -1.7 0.68 0 0 Z " fill="#D04894" transform="translate(127,68)"/>
<path d="M0 0 C1.65 0 3.3 0 5 0 C5 2.97 5 5.94 5 9 C2.3534665 6.3534665 1.40058003 3.43778736 0 0 Z " fill="#F6E0F6" transform="translate(215,24)"/>
<path d="M0 0 C-3.28463659 2.18975773 -6.20696275 2.99806563 -10 4 C-10 3.01 -10 2.02 -10 1 C-6.21812119 -0.83691257 -4.05431692 -1.15837626 0 0 Z " fill="#ECF2F7" transform="translate(36,4)"/>
<path d="M0 0 C0.33 0 0.66 0 1 0 C1.33 2.31 1.66 4.62 2 7 C1.01 6.67 0.02 6.34 -1 6 C-1 6.66 -1 7.32 -1 8 C-1.66 8 -2.32 8 -3 8 C-2.45276317 4.62537285 -1.9451 2.91765 0 0 Z " fill="#FCF4EC" transform="translate(46,152)"/>
<path d="M0 0 C-1.1875 2 -1.1875 2 -3 4 C-5.6875 4.25 -5.6875 4.25 -8 4 C-7.67 3.01 -7.34 2.02 -7 1 C-4.53721199 -0.231394 -2.7204945 -0.07159196 0 0 Z " fill="#D24486" transform="translate(90,76)"/>
<path d="M0 0 C1.98 0.66 3.96 1.32 6 2 C6 2.99 6 3.98 6 5 C4.02 5 2.04 5 0 5 C0 3.33333333 0 1.66666667 0 0 Z " fill="#F4ECF6" transform="translate(166,35)"/>
<path d="M0 0 C2.3125 -0.25 2.3125 -0.25 5 0 C6.8125 2 6.8125 2 8 4 C6.02 4 4.04 4 2 4 C1.34 2.68 0.68 1.36 0 0 Z " fill="#A736C4" transform="translate(200,12)"/>
<path d="M0 0 C-0.33 0.99 -0.66 1.98 -1 3 C-2.32 3 -3.64 3 -5 3 C-5 2.34 -5 1.68 -5 1 C-6.32 0.67 -7.64 0.34 -9 0 C-3.375 -1.125 -3.375 -1.125 0 0 Z " fill="#F75A4A" transform="translate(161,193)"/>
<path d="M0 0 C3.125 -0.1875 3.125 -0.1875 6 0 C4.35 1.65 2.7 3.3 1 5 C0.01 4.34 -0.98 3.68 -2 3 C-1.34 2.01 -0.68 1.02 0 0 Z " fill="#F65761" transform="translate(127,130)"/>
<path d="M0 0 C3 2 3 2 4 5 C1.69 4.67 -0.62 4.34 -3 4 C-2.01 2.68 -1.02 1.36 0 0 Z " fill="#F5ECF2" transform="translate(154,74)"/>
<path d="M0 0 C1.22589844 0.01353516 1.22589844 0.01353516 2.4765625 0.02734375 C3.41628906 0.04474609 3.41628906 0.04474609 4.375 0.0625 C-0.79833569 2.69776912 -0.79833569 2.69776912 -3.625 3.0625 C-4.615 2.4025 -5.605 1.7425 -6.625 1.0625 C-4.21954362 -0.14022819 -2.67503047 -0.03821472 0 0 Z " fill="#FD5D53" transform="translate(107.625,135.9375)"/>
<path d="M0 0 C2.97 0.495 2.97 0.495 6 1 C6.33 2.65 6.66 4.3 7 6 C6.01 6.495 6.01 6.495 5 7 C3.35 4.69 1.7 2.38 0 0 Z " fill="#F8F3F5" transform="translate(130,91)"/>
<path d="M0 0 C3.875 1.75 3.875 1.75 5 4 C4.34 4 3.68 4 3 4 C2.67 4.99 2.34 5.98 2 7 C0 5 0 5 -0.125 2.375 C-0.08375 1.59125 -0.0425 0.8075 0 0 Z " fill="#F2E3F3" transform="translate(160,60)"/>
<path d="M0 0 C0.99 0 1.98 0 3 0 C3 0.66 3 1.32 3 2 C5.64 2 8.28 2 11 2 C11 2.33 11 2.66 11 3 C7.37 3 3.74 3 0 3 C0 2.01 0 1.02 0 0 Z " fill="#485FC3" transform="translate(45,5)"/>
<path d="M0 0 C0.66 0.33 1.32 0.66 2 1 C2 1.66 2 2.32 2 3 C-1.37462715 2.45276317 -3.08235 1.9451 -6 0 C-3.4832097 -1.25839515 -2.62168527 -0.81927665 0 0 Z " fill="#4262C4" transform="translate(40,5)"/>
<path d="M0 0 C0.33 0.99 0.66 1.98 1 3 C-0.32 3.99 -1.64 4.98 -3 6 C-3.66 5.34 -4.32 4.68 -5 4 C-3.35 2.68 -1.7 1.36 0 0 Z " fill="#F9E5E4" transform="translate(182,176)"/>
<path d="M0 0 C0.66 0.33 1.32 0.66 2 1 C2.75 3.375 2.75 3.375 3 6 C2.01 7.485 2.01 7.485 1 9 C1 7.68 1 6.36 1 5 C0.34 5 -0.32 5 -1 5 C-0.67 3.35 -0.34 1.7 0 0 Z " fill="#DF476F" transform="translate(6,99)"/>
<path d="M0 0 C2.50037734 2.17424117 3.43628586 3.73045798 4 7 C3.34 7 2.68 7 2 7 C0.61061923 5.03852126 -0.7260411 3.03833424 -2 1 C-1.34 0.67 -0.68 0.34 0 0 Z " fill="#FAEFF8" transform="translate(212,16)"/>
<path d="M0 0 C0.99 0.33 1.98 0.66 3 1 C3 2.32 3 3.64 3 5 C0.525 4.01 0.525 4.01 -2 3 C-1.34 2.01 -0.68 1.02 0 0 Z " fill="#F6F4F5" transform="translate(204,8)"/>
</svg>
