<?xml version="1.0" encoding="UTF-8"?>
<svg version="1.1" xmlns="http://www.w3.org/2000/svg" width="1000" height="800">
<path d="M0 0 C330 0 660 0 1000 0 C1000 264 1000 528 1000 800 C670 800 340 800 0 800 C0 536 0 272 0 0 Z " fill="#FEFEFE" transform="translate(0,0)"/>
<path d="M0 0 C1.05452362 -0.00540298 2.10904724 -0.01080597 3.19552612 -0.01637268 C6.66766764 -0.0288402 10.13897689 -0.01238233 13.61108398 0.00561523 C16.03051293 0.00546021 18.44994213 0.00397072 20.86936951 0.00120544 C25.9340211 -0.00017763 30.99838918 0.01236567 36.06298828 0.03515625 C42.55182701 0.06355535 49.04019533 0.060798 55.52906895 0.04806614 C60.52280184 0.04110881 65.51642616 0.0488987 70.51014519 0.06132317 C72.90272543 0.06583604 75.29531734 0.06617591 77.68789864 0.06225777 C81.03175859 0.05934473 84.37497181 0.07585741 87.71875 0.09765625 C89.19874229 0.09090378 89.19874229 0.09090378 90.70863342 0.08401489 C97.27937591 0.1551201 101.68335592 1.09654415 106.66967773 5.68920898 C108.82206257 9.41449043 109.01163666 12.29384293 108.29467773 16.50170898 C106.79749791 19.70995146 105.01949237 22.23103012 102.29467773 24.50170898 C99.29467773 25.50170898 99.29467773 25.50170898 90.29467773 25.50170898 C90.62467773 36.06170898 90.95467773 46.62170898 91.29467773 57.50170898 C93.95530273 58.63608398 96.61592773 59.77045898 99.35717773 60.93920898 C112.14266238 66.54749072 123.72797401 73.3202202 134.29467773 82.50170898 C135.11323242 83.1990918 135.93178711 83.89647461 136.77514648 84.61499023 C162.11997645 106.73768677 177.90526751 136.42856569 183.29467773 169.50170898 C183.47772461 170.53811523 183.66077148 171.57452148 183.84936523 172.64233398 C188.04511776 209.00552256 178.28982774 245.94345896 156.04077148 275.10327148 C133.17837755 303.88921842 100.16969915 324.69099165 63.29467773 329.50170898 C57.07555384 330.01658424 50.84295624 329.98874905 44.60717773 329.93920898 C43.77018341 329.93550293 42.93318909 329.93179687 42.0708313 329.92797852 C29.46940036 329.84857385 17.38231574 329.39082025 5.29467773 325.50170898 C4.44212402 325.22794434 3.58957031 324.95417969 2.71118164 324.67211914 C-26.30474196 315.02454678 -57.08829474 295.65945515 -72.70532227 268.50170898 C-72.70532227 267.84170898 -72.70532227 267.18170898 -72.70532227 266.50170898 C-44.77159572 264.23970621 -44.77159572 264.23970621 -38.27563477 269.07983398 C-35.53393644 271.7344879 -33.2855715 274.75174715 -31.04760742 277.8347168 C-18.70283565 293.16576475 8.58283816 302.15717398 27.29467773 304.50170898 C32.01890589 304.7300619 36.74131204 304.77179477 41.47021484 304.796875 C42.96217396 304.80830825 44.45409505 304.82862026 45.94580078 304.85839844 C75.38840033 305.44365389 103.19390073 292.91508516 124.73754883 273.1184082 C139.68505913 258.74115532 149.58462914 240.26902582 155.29467773 220.50170898 C155.81868164 218.74600586 155.81868164 218.74600586 156.35327148 216.95483398 C164.15230905 188.34757587 158.454786 157.99704466 144.37719727 132.39331055 C129.82741707 106.96893145 105.52123944 87.33510879 77.33129883 78.9152832 C73.68293912 77.94945953 70.00821363 77.16938239 66.29467773 76.50170898 C66.29467773 74.19170898 66.29467773 71.88170898 66.29467773 69.50170898 C60.02467773 69.50170898 53.75467773 69.50170898 47.29467773 69.50170898 C47.29467773 66.86170898 47.29467773 64.22170898 47.29467773 61.50170898 C53.23467773 61.50170898 59.17467773 61.50170898 65.29467773 61.50170898 C65.29467773 59.52170898 65.29467773 57.54170898 65.29467773 55.50170898 C55.39467773 55.50170898 45.49467773 55.50170898 35.29467773 55.50170898 C35.29467773 52.86170898 35.29467773 50.22170898 35.29467773 47.50170898 C45.52467773 47.50170898 55.75467773 47.50170898 66.29467773 47.50170898 C66.29467773 45.19170898 66.29467773 42.88170898 66.29467773 40.50170898 C60.02467773 40.50170898 53.75467773 40.50170898 47.29467773 40.50170898 C47.29467773 38.19170898 47.29467773 35.88170898 47.29467773 33.50170898 C53.56467773 33.50170898 59.83467773 33.50170898 66.29467773 33.50170898 C66.29467773 30.86170898 66.29467773 28.22170898 66.29467773 25.50170898 C51.77467773 25.50170898 37.25467773 25.50170898 22.29467773 25.50170898 C22.29467773 42.33170898 22.29467773 59.16170898 22.29467773 76.50170898 C17.01467773 77.82170898 11.73467773 79.14170898 6.29467773 80.50170898 C-8.32512369 85.70978074 -24.83659587 93.9152583 -34.81347656 106.07006836 C-38.28840901 110.22605234 -40.92386766 113.10342655 -46.32421875 114.31079102 C-50.37322711 114.48377599 -54.29192322 114.38120976 -58.33032227 114.12670898 C-59.72990087 114.07643443 -61.12965525 114.03082704 -62.52954102 113.98999023 C-65.9260352 113.87286975 -69.31334653 113.70912048 -72.70532227 113.50170898 C-63.48296333 89.37495716 -33.71697099 70.47349678 -11.13500977 60.34936523 C-7.75704293 58.99693202 -5.39231571 58.50170898 -1.70532227 58.50170898 C-1.70532227 47.61170898 -1.70532227 36.72170898 -1.70532227 25.50170898 C-5.00532227 25.50170898 -8.30532227 25.50170898 -11.70532227 25.50170898 C-16.64809233 23.16512677 -18.85797611 20.63322608 -20.70532227 15.50170898 C-21.12400279 12.08248474 -20.93392097 10.06648225 -19.64282227 6.87670898 C-14.20510366 0.21111844 -8.04662749 -0.07900832 0 0 Z " fill="#045D9F" transform="translate(518.705322265625,234.498291015625)"/>
<path d="M0 0 C2.44921875 1.875 2.44921875 1.875 3.54949284 3.77294922 C5.27636131 6.50864262 6.75103752 8.05405657 9.44921875 9.875 C15.78440897 11.1146651 22.07697761 10.94552481 28.51147461 10.875 C30.47308959 10.88260955 32.43469361 10.89373132 34.39627075 10.90809631 C39.71221234 10.93709276 45.02696612 10.91700914 50.34286571 10.8880806 C55.90162497 10.86618732 61.46019093 10.88947442 67.01893616 10.90795898 C77.54094324 10.93608829 88.06249441 10.92361396 98.58448845 10.89653492 C110.5651405 10.86768013 122.54559666 10.88411556 134.52625072 10.90434647 C159.16735264 10.944942 183.80815463 10.92869058 208.44921875 10.875 C208.73821045 10.09020264 209.02720215 9.30540527 209.32495117 8.49682617 C210.65829194 5.38743496 212.07131217 4.19965282 214.76171875 2.1875 C215.52097656 1.60613281 216.28023437 1.02476562 217.0625 0.42578125 C223.30896998 -3.63289073 229.16240182 -3.86760555 236.44921875 -3.125 C244.11180333 -1.04701096 250.73949844 3.66285167 254.82421875 10.5 C258.41873079 17.965525 258.38658321 24.81583503 255.69921875 32.625 C252.19823466 41.35314784 246.95445205 45.36174132 238.57421875 49.1875 C230.65510692 50.9297046 224.77529448 50.26529562 217.6484375 46.3046875 C213.30347241 43.48007431 210.64143401 40.50409741 208.44921875 35.875 C182.62363699 35.81872846 156.79838472 35.80804411 130.97276974 35.85165405 C118.98148332 35.87083965 106.99053825 35.8750986 94.99926758 35.84423828 C84.54782425 35.81737866 74.09682308 35.81850484 63.64539629 35.85325909 C58.11109358 35.87068443 52.57758297 35.87408049 47.04331779 35.84396362 C41.83333738 35.81605363 36.62476234 35.82558403 31.41485977 35.86373711 C29.50369757 35.87115094 27.59242586 35.86492684 25.68136406 35.84398079 C15.81438076 35.37269624 15.81438076 35.37269624 6.8680439 38.63696289 C4.98930409 40.69735057 4.98930409 40.69735057 3.71314335 42.92211914 C1.10863798 46.94632176 -3.6849013 48.3288888 -8.11328125 49.625 C-15.96536867 50.4303423 -22.38679233 49.72228616 -28.984375 45.2109375 C-35.46273017 39.87081551 -39.00418316 34.88644144 -39.921875 26.47265625 C-40.25766856 16.93815432 -38.71763066 11.14433946 -32.36328125 4.125 C-22.98998484 -4.55324265 -11.33199387 -5.69566184 0 0 Z " fill="#2AB3FB" transform="translate(389.55078125,450.125)"/>
<path d="M0 0 C5.35672282 2.93571286 7.84077541 5.31678228 10.1953125 11.203125 C59.0353125 11.203125 107.8753125 11.203125 158.1953125 11.203125 C158.8553125 9.553125 159.5153125 7.903125 160.1953125 6.203125 C164.75702234 0.97942561 170.29867623 -2.33724556 177.17578125 -3.1484375 C184.94339813 -3.49447436 190.85469941 -2.42139949 197.1953125 2.203125 C199.86926887 4.66478237 202.07410726 7.25700661 204.1953125 10.203125 C204.8346875 11.09 205.4740625 11.976875 206.1328125 12.890625 C208.64745709 20.73039931 208.10764549 28.17440324 204.6953125 35.640625 C201.7603533 40.90546887 198.42805265 44.25838459 193.1953125 47.203125 C192.61523438 47.574375 192.03515625 47.945625 191.4375 48.328125 C185.51597377 50.63896451 176.69727609 50.04020556 170.61328125 48.5859375 C166.67449157 46.8301851 164.77474865 44.62825027 162.37231445 41.11157227 C159.08697894 37.32861999 156.74589534 36.56982772 151.78198242 36.18725586 C149.15512666 36.13965134 146.55072327 36.13492727 143.92578125 36.16796875 C142.47796825 36.15711666 141.03017736 36.14286586 139.58242798 36.12548828 C135.66458759 36.08912406 131.74843885 36.10310938 127.83057022 36.12852097 C123.72318343 36.14883178 119.61593765 36.1299757 115.50854492 36.11743164 C108.61187842 36.10289311 101.71589815 36.12201447 94.81933594 36.16015625 C86.8554558 36.20369336 78.89321418 36.18958942 70.92937374 36.14554501 C64.08147922 36.109194 57.23407685 36.10414056 50.38611698 36.12505436 C46.30062581 36.1375016 42.21590383 36.13926093 38.13046265 36.11276245 C34.28834046 36.08958109 30.448322 36.10580159 26.60642624 36.1519165 C25.20002098 36.16245822 23.79343739 36.15951742 22.38710403 36.14181519 C14.67337396 35.87590483 14.67337396 35.87590483 7.90219116 38.96511841 C6.0374504 41.04497504 6.0374504 41.04497504 4.61552429 43.24537659 C1.97292983 46.88816785 -1.52450383 48.2054419 -5.8046875 49.203125 C-14.3640422 50.27421878 -21.51950669 50.12311945 -28.71484375 45.046875 C-34.68337307 39.78118185 -38.22122258 34.09808859 -39.17578125 26.08984375 C-39.35838569 17.29260619 -38.02414094 11.63918283 -31.90234375 5.203125 C-22.29830929 -3.64512172 -12.08642664 -5.51856136 0 0 Z " fill="#82CF06" transform="translate(391.8046875,351.796875)"/>
<path d="M0 0 C2.4140625 1.875 2.4140625 1.875 3.70198822 3.77171326 C6.15745995 7.27436617 8.05687358 9.51856421 12.28294373 10.62844849 C15.88930847 10.91709462 19.42318632 10.95584528 23.04101562 10.91015625 C24.4198654 10.92100953 25.79869197 10.93526099 27.17747498 10.95263672 C30.90733311 10.98898765 34.6354135 10.97502177 38.36530113 10.94960403 C42.27649951 10.92928599 46.18755023 10.94815128 50.09875488 10.96069336 C56.6658855 10.97522986 63.23229534 10.95611612 69.79931641 10.91796875 C77.38150368 10.87443172 84.96196995 10.88853583 92.54411554 10.93257999 C99.06505597 10.96893705 105.58547962 10.9739816 112.1064887 10.95307064 C115.99637386 10.94062659 119.88545123 10.93885485 123.77528381 10.96536255 C127.43359084 10.98855312 131.08968941 10.97230828 134.74775887 10.9262085 C136.72275417 10.91066281 138.6979373 10.93428781 140.6728363 10.95922852 C147.10324802 10.94906561 147.10324802 10.94906561 152.66139221 8.13058472 C154.5180958 6.06195562 154.5180958 6.06195562 155.95294952 3.88157654 C158.61839904 0.22105983 162.17958653 -1.6981657 166.4140625 -3.125 C174.2900796 -4.3276891 181.55420883 -3.22938304 188.4140625 0.875 C193.96187339 5.1469089 198.22163182 9.84653837 199.4140625 16.875 C200.21837184 24.59819767 200.34466111 31.33898014 195.96484375 37.9765625 C190.8178397 44.27742892 185.14940019 48.39398376 176.953125 49.2265625 C169.04323554 49.52653835 162.54252129 49.24773363 156.4140625 43.875 C156.07473379 43.32269431 155.73540508 42.77038862 155.38579369 42.2013464 C153.2040354 38.89307896 151.53456233 37.13569172 147.59994888 36.22027779 C143.95032972 35.9712848 140.35578608 35.94423304 136.69775391 35.98852539 C135.29785185 35.98063114 133.89796426 35.96966636 132.49810791 35.95587158 C128.70891495 35.92719495 124.92096014 35.94135357 121.13176775 35.96331334 C117.16785803 35.97896516 113.20418943 35.95507305 109.24032593 35.93540955 C101.73928082 35.90419008 94.23869353 35.90843656 86.73761976 35.92548412 C78.19583249 35.94316568 69.65429005 35.92122024 61.11253858 35.89597714 C43.54628106 35.84495044 25.98036206 35.84358673 8.4140625 35.875 C7.98480469 36.78765625 7.98480469 36.78765625 7.546875 37.71875 C5.04548274 42.48002079 0.87855017 45.9070294 -3.95703125 48.13671875 C-11.77814522 50.33313857 -20.99294868 50.36364846 -28.2109375 46.4375 C-34.33264026 42.0884115 -38.20135977 35.93162368 -40.5859375 28.875 C-41.62416284 19.85457467 -40.15396632 12.80533833 -34.5234375 5.6875 C-25.04042776 -4.34984017 -12.27492285 -6.24589714 0 0 Z " fill="#FD9A05" transform="translate(337.5859375,401.125)"/>
<path d="M0 0 C0.33 0.66 0.66 1.32 1 2 C1.66 2 2.32 2 3 2 C2.67 3.98 2.34 5.96 2 8 C2.99 8.66 3.98 9.32 5 10 C4.40380045 14.86896303 3.43023178 19.32790951 2 24 C1.67 24 1.34 24 1 24 C1 22.35 1 20.7 1 19 C0.01 19 -0.98 19 -2 19 C-3.65725255 21.98305458 -4.41339835 24.64799057 -5 28 C-5.4375 30.25 -5.4375 30.25 -6 32 C-6.99 32.495 -6.99 32.495 -8 33 C-8 31.35 -8 29.7 -8 28 C-8.78375 28.185625 -9.5675 28.37125 -10.375 28.5625 C-13 29 -13 29 -15 28 C-15 29.65 -15 31.3 -15 33 C-13.02 33 -11.04 33 -9 33 C-9 33.33 -9 33.66 -9 34 C-59.49 34 -109.98 34 -162 34 C-161.505 33.01 -161.505 33.01 -161 32 C-160.58307147 28.58399407 -160.58307147 28.58399407 -161 25 C-161.680625 24.38125 -162.36125 23.7625 -163.0625 23.125 C-163.701875 22.42375 -164.34125 21.7225 -165 21 C-164.67 18.03 -164.34 15.06 -164 12 C-177.86 12 -191.72 12 -206 12 C-206 11.67 -206 11.34 -206 11 C-204.98840191 11.00037703 -203.97680382 11.00075405 -202.93455124 11.0011425 C-178.33974113 11.00894068 -153.74515156 10.98241181 -129.15041733 10.9197216 C-117.25664423 10.89020303 -105.3630502 10.8719096 -93.46923828 10.87988281 C-83.10465917 10.88680257 -72.74035706 10.87282306 -62.37584615 10.83356392 C-56.88593277 10.81350372 -51.39645465 10.80403351 -45.90651703 10.81957626 C-40.74186945 10.83386823 -35.57805509 10.82027199 -30.41351509 10.78504753 C-28.51561787 10.77706217 -26.61764591 10.77936973 -24.71977806 10.79260826 C-22.13215588 10.80913539 -19.54734652 10.78898881 -16.9598999 10.75949097 C-15.82760173 10.77987012 -15.82760173 10.77987012 -14.67242885 10.80066097 C-12.30415117 10.81287808 -12.30415117 10.81287808 -9 10 C-6.60114784 7.18786272 -6.60114784 7.18786272 -5 4 C-2.25 1.625 -2.25 1.625 0 0 Z " fill="#25B1FC" transform="translate(606,451)"/>
<path d="M0 0 C6.47127054 4.01965458 11.38020165 8.71020718 13.61328125 16.21875 C15.45349476 25.21343845 12.99254772 33.39672965 8.28125 41.13671875 C1.56531631 47.47954501 -6.02781863 50.84050539 -15.30859375 50.64453125 C-22.34325478 49.63220117 -28.50073942 45.70710664 -32.96875 40.26171875 C-33.95875 38.28171875 -33.95875 38.28171875 -34.96875 36.26171875 C-100.63875 36.26171875 -166.30875 36.26171875 -233.96875 36.26171875 C-233.96875 35.93171875 -233.96875 35.60171875 -233.96875 35.26171875 C-170.60875 34.93171875 -107.24875 34.60171875 -41.96875 34.26171875 C-42.29875 32.61171875 -42.62875 30.96171875 -42.96875 29.26171875 C-40.30208333 29.26171875 -37.63541667 29.26171875 -34.96875 29.26171875 C-34.63875 30.58171875 -34.30875 31.90171875 -33.96875 33.26171875 C-33.40612205 31.09158238 -32.9267409 28.98165806 -32.59375 26.76171875 C-31.87852601 23.90082279 -31.0530839 22.34605265 -28.96875 20.26171875 C-27.64875 20.26171875 -26.32875 20.26171875 -24.96875 20.26171875 C-23.97875 17.29171875 -22.98875 14.32171875 -21.96875 11.26171875 C-23.94875 10.27171875 -23.94875 10.27171875 -25.96875 9.26171875 C-25.30875 7.28171875 -24.64875 5.30171875 -23.96875 3.26171875 C-24.62875 3.26171875 -25.28875 3.26171875 -25.96875 3.26171875 C-25.96875 2.27171875 -25.96875 1.28171875 -25.96875 0.26171875 C-17.69255746 -4.25256809 -8.4101989 -4.34222226 0 0 Z " fill="#33B6FA" transform="translate(632.96875,449.73828125)"/>
<path d="M0 0 C5.80494658 3.47321174 10.9358886 8.38481325 12.91796875 14.99609375 C14.32575845 23.2939311 14.63507464 31.2783279 9.875 38.4921875 C4.72799595 44.79305392 -0.94044356 48.90960876 -9.13671875 49.7421875 C-18.38409171 50.09288628 -24.23805365 48.9156371 -31.328125 43.015625 C-32.73828125 41.703125 -32.73828125 41.703125 -34.67578125 39.390625 C-34.67578125 38.730625 -34.67578125 38.070625 -34.67578125 37.390625 C-34.01578125 37.390625 -33.35578125 37.390625 -32.67578125 37.390625 C-32.67578125 35.740625 -32.67578125 34.090625 -32.67578125 32.390625 C-30.69578125 31.400625 -28.71578125 30.410625 -26.67578125 29.390625 C-25.89344283 23.77680414 -25.89344283 23.77680414 -27.90625 18.75 C-29.69139146 17.23719186 -29.69139146 17.23719186 -32.67578125 15.390625 C-33.66578125 14.730625 -34.65578125 14.070625 -35.67578125 13.390625 C-38.29855041 13.09961455 -38.29855041 13.09961455 -41.30006409 13.16357422 C-42.47086517 13.16371521 -43.64166626 13.1638562 -44.84794617 13.16400146 C-46.77668327 13.17950043 -46.77668327 13.17950043 -48.74438477 13.1953125 C-50.11102074 13.19915048 -51.47765954 13.20207826 -52.84429932 13.2041626 C-55.78761048 13.21048712 -58.73080707 13.22302767 -61.67407417 13.24029541 C-66.3249387 13.26730561 -70.97576493 13.2791208 -75.62669373 13.28857422 C-85.49727387 13.31078686 -95.36776289 13.34986687 -105.23828125 13.390625 C-115.89685392 13.43462603 -126.55538935 13.47578792 -137.2140345 13.49746132 C-141.84074807 13.50744793 -146.46728785 13.52719894 -151.09393132 13.55432129 C-153.96749963 13.56920161 -156.84104373 13.57586392 -159.71464539 13.5802536 C-161.68950925 13.5858052 -163.66433678 13.6014043 -165.6391449 13.61724854 C-167.39111679 13.61746002 -167.39111679 13.61746002 -169.17848206 13.61767578 C-170.19777581 13.622117 -171.21706957 13.62655823 -172.26725101 13.63113403 C-174.67578125 13.390625 -174.67578125 13.390625 -176.67578125 11.390625 C-175.95555755 11.39284561 -175.23533384 11.39506622 -174.49328518 11.39735413 C-156.95739124 11.44867102 -139.42203451 11.45581382 -121.88611507 11.41397095 C-113.40576066 11.3947977 -104.92588868 11.39049965 -96.44555664 11.42138672 C-89.0528375 11.44827456 -81.66074333 11.44708243 -74.26804739 11.41236591 C-70.35447958 11.39496308 -66.442031 11.39148986 -62.52851677 11.42166138 C-58.84169382 11.44964108 -55.15685267 11.43996051 -51.47013855 11.40188789 C-49.47831457 11.39097826 -47.48639577 11.41955446 -45.49476624 11.44944763 C-39.02345866 11.46276532 -39.02345866 11.46276532 -33.42160225 8.6484375 C-31.56444643 6.58022603 -31.56444643 6.58022603 -30.13298893 4.3984375 C-23.16691549 -5.19976152 -9.75748804 -4.46236168 0 0 Z " fill="#FC9A05" transform="translate(523.67578125,400.609375)"/>
<path d="M0 0 C3.13888597 1.74197041 5.5995351 3.7560974 8.203125 6.22265625 C7.543125 6.88265625 6.883125 7.54265625 6.203125 8.22265625 C-0.546875 5.34765625 -0.546875 5.34765625 -2.796875 4.22265625 C-2.6525 5.11726563 -2.508125 6.011875 -2.359375 6.93359375 C0.53671448 25.7983988 0.53671448 25.7983988 -1.84765625 30.1328125 C-3.59376987 32.31159145 -5.28861502 33.96852626 -7.796875 35.22265625 C-13.61121428 35.76148511 -18.91523044 34.93091135 -24.53515625 33.46484375 C-27.31342129 33.16734387 -28.53439336 33.61019718 -30.796875 35.22265625 C-31.61272068 38.28174038 -31.61272068 38.28174038 -31.796875 41.22265625 C-36.75477334 37.11956797 -38.43631083 32.32664341 -39.15625 26.12890625 C-39.47302527 18.59669426 -38.5991741 13.14742044 -33.796875 7.22265625 C-24.05029661 -3.02425984 -13.22445655 -5.95100545 0 0 Z " fill="#83CD09" transform="translate(391.796875,351.77734375)"/>
<path d="M0 0 C0.80566406 0.09023438 1.61132812 0.18046875 2.44140625 0.2734375 C4.4375 0.625 4.4375 0.625 5.4375 1.625 C5.67005814 6.15988372 5.67005814 6.15988372 4.4375 8.625 C5.4275 8.955 6.4175 9.285 7.4375 9.625 C7.7675 11.275 8.0975 12.925 8.4375 14.625 C7.4475 14.955 6.4575 15.285 5.4375 15.625 C5.746875 16.5325 6.05625 17.44 6.375 18.375 C8.63441969 25.28616612 8.63441969 25.28616612 7.4375 29.625 C7.7675 29.955 8.0975 30.285 8.4375 30.625 C8.78318689 36.02381588 8.55332647 41.32482429 7.4375 46.625 C6.7775 46.625 6.1175 46.625 5.4375 46.625 C5.4375 50.255 5.4375 53.885 5.4375 57.625 C2.1375 57.625 -1.1625 57.625 -4.5625 57.625 C-4.5625 58.285 -4.5625 58.945 -4.5625 59.625 C-5.2225 59.625 -5.8825 59.625 -6.5625 59.625 C-8.5625 56.625 -8.5625 56.625 -8.1875 53.9375 C-7.98125 53.174375 -7.775 52.41125 -7.5625 51.625 C-6.2425 51.625 -4.9225 51.625 -3.5625 51.625 C-4.201875 51.109375 -4.84125 50.59375 -5.5 50.0625 C-8.18961759 46.88386103 -8.28318433 44.74490615 -8.5625 40.625 C-8.665625 39.408125 -8.76875 38.19125 -8.875 36.9375 C-8.5625 33.625 -8.5625 33.625 -6.5625 31.1875 C-5.9025 30.671875 -5.2425 30.15625 -4.5625 29.625 C-5.0575 29.026875 -5.5525 28.42875 -6.0625 27.8125 C-7.5625 25.625 -7.5625 25.625 -7.5625 22.625 C-5.0625 20.9375 -5.0625 20.9375 -2.5625 19.625 C-3.366875 18.985625 -4.17125 18.34625 -5 17.6875 C-7.5625 15.625 -7.5625 15.625 -8.5625 14.625 C-8.60313832 12.95882885 -8.605221 11.29111905 -8.5625 9.625 C-7.5725 9.625 -6.5825 9.625 -5.5625 9.625 C-5.913125 9.068125 -6.26375 8.51125 -6.625 7.9375 C-7.79426473 5.05331368 -7.51184202 3.55213788 -6.5625 0.625 C-4.06581711 -0.62334144 -2.74920849 -0.32655125 0 0 Z " fill="#E4E4E4" transform="translate(23.5625,594.375)"/>
<path d="M0 0 C1.64630328 0.14042877 3.29204179 0.28749329 4.9375 0.4375 C6.31228516 0.55931641 6.31228516 0.55931641 7.71484375 0.68359375 C10 1 10 1 11 2 C10.63935007 5.18574108 10.22735551 8.23525873 9.3125 11.3125 C9.209375 11.869375 9.10625 12.42625 9 13 C9.66 13.66 10.32 14.32 11 15 C11.2117572 17.47388875 11.30399471 19.83311124 11.30078125 22.30859375 C11.30506638 23.03111832 11.3093515 23.75364288 11.31376648 24.49806213 C11.31951237 26.02709912 11.32000812 27.55616344 11.31567383 29.08520508 C11.31251671 31.42511674 11.33595758 33.76376067 11.36132812 36.10351562 C11.36360139 37.58854007 11.36430449 39.07356792 11.36328125 40.55859375 C11.372491 41.2586705 11.38170074 41.95874725 11.39118958 42.68003845 C11.34475918 47.55507991 11.34475918 47.55507991 9.47729492 49.96508789 C8.74603394 50.47736938 8.74603394 50.47736938 8 51 C8.66 51.33 9.32 51.66 10 52 C10 53.65 10 55.3 10 57 C4.34979382 56.39891424 -0.66164461 54.92471317 -6 53 C-6.25 50.6875 -6.25 50.6875 -6 48 C-5.34 47.54625 -4.68 47.0925 -4 46.625 C-3.34 46.08875 -2.68 45.5525 -2 45 C-1.66619186 41.37436186 -1.66619186 41.37436186 -2 38 C-3.65 38 -5.3 38 -7 38 C-6.67 36.68 -6.34 35.36 -6 34 C-3.525 33.505 -3.525 33.505 -1 33 C-1 32.34 -1 31.68 -1 31 C-1.66 31 -2.32 31 -3 31 C-2.8453125 29.3603125 -2.8453125 29.3603125 -2.6875 27.6875 C-2.790625 26.470625 -2.89375 25.25375 -3 24 C-5.3726974 21.99135641 -5.3726974 21.99135641 -8 21 C-7.67 19.68 -7.34 18.36 -7 17 C-5.68 16.67 -4.36 16.34 -3 16 C-2.23681405 11.17867673 -2.23681405 11.17867673 -2.0625 6.3125 C-1.99152016 3.68624595 -1.22720849 2.2859766 0 0 Z " fill="#EAEAEA" transform="translate(21,728)"/>
<path d="M0 0 C-0.00523682 0.59538574 -0.01047363 1.19077148 -0.01586914 1.80419922 C-0.03661999 4.49445547 -0.04965407 7.18469489 -0.0625 9.875 C-0.07087891 10.81214844 -0.07925781 11.74929688 -0.08789062 12.71484375 C-0.09111328 13.61074219 -0.09433594 14.50664063 -0.09765625 15.4296875 C-0.10289307 16.25710449 -0.10812988 17.08452148 -0.11352539 17.93701172 C-0.13352138 20.06411757 -0.13352138 20.06411757 1 22 C1.24108953 25.82825869 1.18519253 29.66499262 1.1875 33.5 C1.19974609 34.57121094 1.21199219 35.64242187 1.22460938 36.74609375 C1.22750977 38.27943359 1.22750977 38.27943359 1.23046875 39.84375 C1.23457764 40.78412109 1.23868652 41.72449219 1.24291992 42.69335938 C1 45 1 45 -1 47 C-2.32 47 -3.64 47 -5 47 C-5 45.02 -5 43.04 -5 41 C-5.66 40.67 -6.32 40.34 -7 40 C-7.226875 40.804375 -7.45375 41.60875 -7.6875 42.4375 C-9 45 -9 45 -11.5 45.9375 C-12.325 45.958125 -13.15 45.97875 -14 46 C-16 44 -16 44 -16.3125 40.8125 C-16.02558349 37.31211862 -15.30457626 35.33530141 -13.80078125 32.2421875 C-11.95721645 27.08020607 -11.63898624 21.42010679 -11 16 C-11.66 16 -12.32 16 -13 16 C-13 14.35 -13 12.7 -13 11 C-14.32 10.67 -15.64 10.34 -17 10 C-17 9.01 -17 8.02 -17 7 C-13.535 6.505 -13.535 6.505 -10 6 C-10.66 5.34 -11.32 4.68 -12 4 C-11.67 3.01 -11.34 2.02 -11 1 C-9.68 1.99 -8.36 2.98 -7 4 C-6.401875 3.34 -5.80375 2.68 -5.1875 2 C-3 0 -3 0 0 0 Z " fill="#DCDCDC" transform="translate(31,678)"/>
<path d="M0 0 C4.30619632 2.23590963 7.26400997 4.40473228 9 9 C9.29338391 13.88084135 8.74119071 17.05848747 5.6875 20.9375 C1.62845441 24.0525815 0.32864536 25.02108961 -4.9375 24.9375 C-9.24868093 24.2711536 -11.24886425 22.39846181 -14 19 C-16.50304378 15.24543433 -16.45280074 13.45254066 -16 9 C-12.32317126 1.9187002 -8.0382172 -0.98714948 0 0 Z " fill="#F2F8FA" transform="translate(624,461)"/>
<path d="M0 0 C3.676999 2.03649176 6.76247686 4.91617364 8 9 C8.52599303 13.83913587 7.63330294 16.91384027 5 21 C1.32856875 24.23949816 -2.13705243 24.46527873 -6.8515625 24.28515625 C-11.06012304 23.72656549 -13.20875284 21.98223786 -15.8125 18.75 C-17.35025658 15.1888795 -17.47290668 12.85081154 -17 9 C-13.32221351 1.91685566 -8.17276895 -1.72731712 0 0 Z " fill="#FDFAF5" transform="translate(328,412)"/>
<path d="M0 0 C3.32255304 2.07500439 6.23284064 4.46568128 8 8 C8.40156418 13.2203344 7.90046338 16.59929694 5 21 C1.39537678 24.1805499 -2.12319564 24.56954504 -6.77734375 24.4296875 C-10.58350909 23.69387346 -12.35670706 21.77545759 -15 19 C-16.85110583 15.29778834 -16.46454795 11.04093083 -16 7 C-12.3923675 0.81548715 -7.12018454 -1.56167616 0 0 Z " fill="#FBFDF8" transform="translate(577,363)"/>
<path d="M0 0 C3.4792124 1.27125068 5.46485319 2.37566205 7.875 5.1875 C9.36471426 8.91178565 9.59427565 12.04083927 9 16 C7.33500284 19.74624361 5.4361807 21.81723041 2 24 C-2.0605564 24.80407057 -6.22072831 24.93064111 -9.94921875 22.98046875 C-13.95659732 19.76874404 -14.85253607 17.26397653 -15.4375 12.25 C-15.41253207 7.74744944 -13.51128348 5.53249625 -10.5078125 2.34765625 C-7.20947747 -0.60033749 -4.30059855 -0.28670657 0 0 Z " fill="#FCFAF7" transform="translate(514,412)"/>
<path d="M0 0 C4.22187936 1.62379976 6.62521542 3.16485939 9 7 C9.80503292 11.06541625 9.95254041 15.23956421 7.9453125 18.94921875 C5.6586151 21.74331942 3.69652858 23.79302351 0.046875 24.23828125 C-5.47526891 24.41671787 -8.72548737 23.857487 -13 20 C-15.32396089 16.09152033 -15.61695986 12.47295896 -15 8 C-10.88846352 1.64351415 -7.67903562 -0.51193571 0 0 Z " fill="#F9FBF7" transform="translate(382,363)"/>
<path d="M0 0 C3.78580423 2.03850997 7.05061257 4.10122513 9 8 C9.55335968 12.9011857 9.5327637 15.00795724 7.1875 19.375 C4.91262233 22.10485321 3.30924564 23.78592369 -0.26953125 24.37109375 C-4.71840499 24.48727018 -7.99151799 24.56508745 -11.5625 21.6875 C-14.85458634 18.05776378 -15.45285147 15.01838201 -15.42578125 10.13671875 C-14.64365115 6.21171725 -11.91214543 3.60282428 -9 1 C-5.89046621 -0.5547669 -3.43733239 -0.28644437 0 0 Z " fill="#F9FCFD" transform="translate(379,461)"/>
<path d="M0 0 C2.33944736 0.28730055 4.6739143 0.61936779 7 1 C7 1.66 7 2.32 7 3 C9.97 3.495 9.97 3.495 13 4 C13 4.66 13 5.32 13 6 C13.66 6 14.32 6 15 6 C15 7.32 15 8.64 15 10 C14.01 10.495 14.01 10.495 13 11 C13.515625 11.515625 14.03125 12.03125 14.5625 12.5625 C16.57265701 15.9710271 15.79727396 18.23106857 15 22 C14.34 22 13.68 22 13 22 C13.33 22.763125 13.66 23.52625 14 24.3125 C15 27 15 27 15 30 C14.34 30 13.68 30 13 30 C13 30.66 13 31.32 13 32 C12.01 31.67 11.02 31.34 10 31 C9.67 30.34 9.34 29.68 9 29 C8.01 30.32 7.02 31.64 6 33 C1.25 32.25 1.25 32.25 -1 30 C-0.94140625 27.65234375 -0.94140625 27.65234375 -0.5625 24.9375 C-0.33879286 23.29619603 -0.14262095 21.65032811 0 20 C-0.33 19.67 -0.66 19.34 -1 19 C-1.0983721 17.66956375 -1.13078592 16.33406656 -1.1328125 15 C-1.13410156 14.195625 -1.13539062 13.39125 -1.13671875 12.5625 C-1.13285156 11.716875 -1.12898437 10.87125 -1.125 10 C-1.12886719 9.154375 -1.13273438 8.30875 -1.13671875 7.4375 C-1.13542969 6.633125 -1.13414063 5.82875 -1.1328125 5 C-1.13168457 4.2575 -1.13055664 3.515 -1.12939453 2.75 C-1 1 -1 1 0 0 Z " fill="#E1E1E1" transform="translate(16,559)"/>
<path d="M0 0 C0.80566406 0.09023438 1.61132812 0.18046875 2.44140625 0.2734375 C4.4375 0.625 4.4375 0.625 5.4375 1.625 C5.67005814 6.15988372 5.67005814 6.15988372 4.4375 8.625 C5.4275 8.955 6.4175 9.285 7.4375 9.625 C7.7675 11.275 8.0975 12.925 8.4375 14.625 C7.4475 14.955 6.4575 15.285 5.4375 15.625 C5.7675 16.553125 6.0975 17.48125 6.4375 18.4375 C7.45914759 21.6940017 7.90606504 23.52052526 6.5625 26.6875 C5.4375 28.625 5.4375 28.625 3.4375 30.625 C0.625 31.0625 0.625 31.0625 -2.5625 30.625 C-5.4375 28.3125 -5.4375 28.3125 -7.5625 25.625 C-7.5625 24.635 -7.5625 23.645 -7.5625 22.625 C-5.0625 20.9375 -5.0625 20.9375 -2.5625 19.625 C-3.366875 18.985625 -4.17125 18.34625 -5 17.6875 C-7.5625 15.625 -7.5625 15.625 -8.5625 14.625 C-8.60313832 12.95882885 -8.605221 11.29111905 -8.5625 9.625 C-7.5725 9.625 -6.5825 9.625 -5.5625 9.625 C-5.913125 9.068125 -6.26375 8.51125 -6.625 7.9375 C-7.79426473 5.05331368 -7.51184202 3.55213788 -6.5625 0.625 C-4.06581711 -0.62334144 -2.74920849 -0.32655125 0 0 Z " fill="#E3E3E3" transform="translate(23.5625,594.375)"/>
<path d="M0 0 C1.09658936 3.28976808 0.79953138 4.71303767 0 8 C0.99 8.66 1.98 9.32 3 10 C2.50886719 10.54140625 2.01773438 11.0828125 1.51171875 11.640625 C-0.3667612 14.57241283 -0.31060725 16.30299691 -0.1875 19.75 C-0.16042969 20.73484375 -0.13335937 21.7196875 -0.10546875 22.734375 C-0.07066406 23.48203125 -0.03585937 24.2296875 0 25 C-0.99 24.67 -1.98 24.34 -3 24 C-2.93039062 23.40832031 -2.86078125 22.81664062 -2.7890625 22.20703125 C-2.36121767 17.50192453 -2.36121767 17.50192453 -4.23046875 13.359375 C-6.01561021 11.84656686 -6.01561021 11.84656686 -9 10 C-9.99 9.34 -10.98 8.68 -12 8 C-14.62276916 7.70898955 -14.62276916 7.70898955 -17.62428284 7.77294922 C-18.79508392 7.77309021 -19.96588501 7.7732312 -21.17216492 7.77337646 C-23.10090202 7.78887543 -23.10090202 7.78887543 -25.06860352 7.8046875 C-26.43523949 7.80852548 -27.80187829 7.81145326 -29.16851807 7.8135376 C-32.11182923 7.81986212 -35.05502582 7.83240267 -37.99829292 7.84967041 C-42.64915745 7.87668061 -47.29998368 7.8884958 -51.95091248 7.89794922 C-61.82149262 7.92016186 -71.69198164 7.95924187 -81.5625 8 C-92.22107267 8.04400103 -102.8796081 8.08516292 -113.53825325 8.10683632 C-118.16496682 8.11682293 -122.7915066 8.13657394 -127.41815007 8.16369629 C-130.29171838 8.17857661 -133.16526248 8.18523892 -136.03886414 8.1896286 C-138.013728 8.1951802 -139.98855553 8.2107793 -141.96336365 8.22662354 C-143.71533554 8.22683502 -143.71533554 8.22683502 -145.50270081 8.22705078 C-146.52199456 8.231492 -147.54128832 8.23593323 -148.59146976 8.24050903 C-151 8 -151 8 -153 6 C-152.27608912 5.99761165 -151.55217825 5.99522329 -150.80633068 5.99276257 C-133.20514929 5.93366829 -115.60411548 5.85815419 -98.00308514 5.76428509 C-89.49140853 5.71928839 -80.97977412 5.67988275 -72.46801758 5.65356445 C-65.05056956 5.63061565 -57.63325466 5.59725279 -50.21591216 5.55129844 C-46.28719299 5.52732392 -42.358606 5.50862297 -38.42981529 5.50238609 C-34.73369789 5.49635421 -31.0379189 5.4764239 -27.34192657 5.44572449 C-25.33509248 5.43270493 -23.32817944 5.43451937 -21.32130432 5.4367218 C-20.13078461 5.42418365 -18.94026489 5.41164551 -17.71366882 5.39872742 C-16.67665172 5.39411845 -15.63963461 5.38950949 -14.57119274 5.38476086 C-11.66249458 4.9494947 -10.77249392 4.28767114 -9 2 C-8.773125 2.61875 -8.54625 3.2375 -8.3125 3.875 C-6.62070165 6.61410209 -5.00755839 7.05024472 -2 8 C-2.04125 7.05125 -2.0825 6.1025 -2.125 5.125 C-2 2 -2 2 0 0 Z " fill="#FCA011" transform="translate(500,406)"/>
<path d="M0 0 C0.05394705 2.60444348 0.09364469 5.20776998 0.125 7.8125 C0.14175781 8.55048828 0.15851562 9.28847656 0.17578125 10.04882812 C0.21074628 13.91246426 0.19397555 15.70903668 -2 19 C-3.9453125 19.29296875 -3.9453125 19.29296875 -6.125 19.1875 C-7.40375 19.125625 -8.6825 19.06375 -10 19 C-10.33 18.01 -10.66 17.02 -11 16 C-11.66 16 -12.32 16 -13 16 C-13 14.35 -13 12.7 -13 11 C-14.32 10.67 -15.64 10.34 -17 10 C-17 9.01 -17 8.02 -17 7 C-13.535 6.505 -13.535 6.505 -10 6 C-10.66 5.34 -11.32 4.68 -12 4 C-11.67 3.01 -11.34 2.02 -11 1 C-9.68 1.99 -8.36 2.98 -7 4 C-6.401875 3.34 -5.80375 2.68 -5.1875 2 C-3 0 -3 0 0 0 Z " fill="#E6E6E6" transform="translate(31,678)"/>
<path d="M0 0 C1.64630328 0.14042877 3.29204179 0.28749329 4.9375 0.4375 C6.31228516 0.55931641 6.31228516 0.55931641 7.71484375 0.68359375 C10 1 10 1 11 2 C10.63897132 5.1890867 10.19233161 8.2691399 9.375 11.375 C9.25125 11.91125 9.1275 12.4475 9 13 C9.33 13.33 9.66 13.66 10 14 C10.04080783 15.99958364 10.04254356 18.00045254 10 20 C9.34 20.33 8.68 20.66 8 21 C7.5359375 19.5459375 7.5359375 19.5459375 7.0625 18.0625 C6.30476658 15.15934208 6.30476658 15.15934208 5 14 C3.33382885 13.95936168 1.66611905 13.957279 0 14 C-0.66 15.65 -1.32 17.3 -2 19 C-3.65 19 -5.3 19 -7 19 C-7.33 19.66 -7.66 20.32 -8 21 C-7.67 19.68 -7.34 18.36 -7 17 C-5.68 16.67 -4.36 16.34 -3 16 C-2.23681405 11.17867673 -2.23681405 11.17867673 -2.0625 6.3125 C-1.99152016 3.68624595 -1.22720849 2.2859766 0 0 Z " fill="#DCDCDC" transform="translate(21,728)"/>
<path d="M0 0 C0 4.62 0 9.24 0 14 C-3.3 14 -6.6 14 -10 14 C-10 14.66 -10 15.32 -10 16 C-10.66 16 -11.32 16 -12 16 C-14 13 -14 13 -13.625 10.3125 C-13.41875 9.549375 -13.2125 8.78625 -13 8 C-11.68 8 -10.36 8 -9 8 C-9.66 7.4225 -10.32 6.845 -11 6.25 C-13 4 -13 4 -13 0 C-7.94359054 -0.7713167 -5.14808788 -1.02961758 0 0 Z " fill="#DEDEDE" transform="translate(29,638)"/>
<path d="M0 0 C2.33944736 0.28730055 4.6739143 0.61936779 7 1 C7 1.66 7 2.32 7 3 C9.97 3.495 9.97 3.495 13 4 C13 4.66 13 5.32 13 6 C13.66 6 14.32 6 15 6 C15 7.32 15 8.64 15 10 C11.53058454 9.54177532 8.32604951 9.10868317 5 8 C5.66 10.31 6.32 12.62 7 15 C5.02 15 3.04 15 1 15 C0.34 16.32 -0.32 17.64 -1 19 C-1.02683987 16.02077407 -1.04676037 13.04178705 -1.0625 10.0625 C-1.07087891 9.21236328 -1.07925781 8.36222656 -1.08789062 7.48632812 C-1.09111328 6.67744141 -1.09433594 5.86855469 -1.09765625 5.03515625 C-1.10289307 4.2862915 -1.10812988 3.53742676 -1.11352539 2.76586914 C-1 1 -1 1 0 0 Z " fill="#DDDDDD" transform="translate(16,559)"/>
<path d="M0 0 C4.56454251 0.54339792 7.9728176 1.79463821 12 4 C12.66 3.34 13.32 2.68 14 2 C15.06775224 3.96466413 16.06553465 5.96855359 17 8 C16.67 8.66 16.34 9.32 16 10 C14.88625 9.79375 13.7725 9.5875 12.625 9.375 C11.42875 9.25125 10.2325 9.1275 9 9 C6.4345406 11.5654594 6.45953913 13.47686668 6 17 C1.99608436 13.68641465 0.16525906 9.98691379 -1 5 C-0.6875 2 -0.6875 2 0 0 Z " fill="#89D012" transform="translate(354,376)"/>
<path d="M0 0 C0.66 0 1.32 0 2 0 C2 0.66 2 1.32 2 2 C3.98 2 5.96 2 8 2 C8 1.34 8 0.68 8 0 C8.66 0 9.32 0 10 0 C10 1.32 10 2.64 10 4 C7.36 4 4.72 4 2 4 C3.66003685 7.22337893 3.66003685 7.22337893 6.5625 7.625 C7.7690625 7.810625 7.7690625 7.810625 9 8 C10 9 10 9 10.0625 12.0625 C10.041875 13.031875 10.02125 14.00125 10 15 C9.01 14.67 8.02 14.34 7 14 C7 12.68 7 11.36 7 10 C6.34 9.67 5.68 9.34 5 9 C4.773125 9.804375 4.54625 10.60875 4.3125 11.4375 C3 14 3 14 0.5 14.9375 C-0.325 14.958125 -1.15 14.97875 -2 15 C-4 13 -4 13 -4.1875 9.625 C-4.04410663 6.85272822 -3.83710258 4.61594556 -3 2 C-2.01 2 -1.02 2 0 2 C0 1.34 0 0.68 0 0 Z " fill="#D5D5D5" transform="translate(19,709)"/>
<path d="M0 0 C6.6 0 13.2 0 20 0 C20.33 0.99 20.66 1.98 21 3 C20.67 3.66 20.34 4.32 20 5 C13.07 5 6.14 5 -1 5 C-0.67 3.35 -0.34 1.7 0 0 Z " fill="#A8A8A8" transform="translate(14,668)"/>
<path d="M0 0 C-2.125 2.5625 -2.125 2.5625 -5 5 C-8.1875 4.6875 -8.1875 4.6875 -11 4 C-13.5654594 6.5654594 -13.54046087 8.47686668 -14 12 C-13.34 12.33 -12.68 12.66 -12 13 C-13.65 13.33 -15.3 13.66 -17 14 C-16.67 13.01 -16.34 12.02 -16 11 C-16.66 11 -17.32 11 -18 11 C-18.33 10.01 -18.66 9.02 -19 8 C-19.66 7.67 -20.32 7.34 -21 7 C-20.9375 5.1875 -20.9375 5.1875 -20 3 C-13.75785622 -0.97227332 -7.18740448 -0.29181943 0 0 Z " fill="#89D112" transform="translate(579,349)"/>
<path d="M0 0 C0.80566406 0.09023438 1.61132812 0.18046875 2.44140625 0.2734375 C4.4375 0.625 4.4375 0.625 5.4375 1.625 C5.6875 4.0625 5.6875 4.0625 5.4375 6.625 C1.74263897 9.08824069 -0.19543092 9.01491688 -4.5625 8.625 C-6.5625 7.4375 -6.5625 7.4375 -7.5625 5.625 C-7.375 3 -7.375 3 -6.5625 0.625 C-4.06581711 -0.62334144 -2.74920849 -0.32655125 0 0 Z " fill="#565656" transform="translate(23.5625,594.375)"/>
<path d="M0 0 C2.31243792 -0.02685412 4.6249627 -0.04632841 6.9375 -0.0625 C8.22527344 -0.07410156 9.51304688 -0.08570313 10.83984375 -0.09765625 C14 0 14 0 15 1 C15.1875 3.9375 15.1875 3.9375 15 7 C13 9 13 9 10 9.3125 C9.01 9.209375 8.02 9.10625 7 9 C5 6 5 6 5 3 C3.35 3 1.7 3 0 3 C0 2.01 0 1.02 0 0 Z " fill="#656565" transform="translate(14,763)"/>
<path d="M0 0 C2.625 0.25 2.625 0.25 4.4375 1.375 C5.625 3.25 5.625 3.25 5.625 9.25 C0.675 9.25 -4.275 9.25 -9.375 9.25 C-9.375 8.26 -9.375 7.27 -9.375 6.25 C-7.725 6.25 -6.075 6.25 -4.375 6.25 C-4.230625 5.445625 -4.08625 4.64125 -3.9375 3.8125 C-3.17394875 0.33409987 -3.17394875 0.33409987 0 0 Z " fill="#656565" transform="translate(23.375,740.75)"/>
<path d="M0 0 C4.875 0.875 4.875 0.875 6 2 C6.1875 4.4375 6.1875 4.4375 6 7 C4 9 4 9 1.90625 9.265625 C1.1121875 9.26046875 0.318125 9.2553125 -0.5 9.25 C-1.2940625 9.25515625 -2.088125 9.2603125 -2.90625 9.265625 C-5 9 -5 9 -7 7 C-7.125 4.375 -7.125 4.375 -7 2 C-2.25 0.875 -2.25 0.875 0 2 C0 1.34 0 0.68 0 0 Z " fill="#515151" transform="translate(23,572)"/>
<path d="M0 0 C1.65 1.32 3.3 2.64 5 4 C5 3.34 5 2.68 5 2 C5.99 2.33 6.98 2.66 8 3 C7.34 4.32 6.68 5.64 6 7 C6.66 7 7.32 7 8 7 C8.25 10.3125 8.25 10.3125 8 14 C6 15.9375 6 15.9375 4 17 C4 14.33333333 4 11.66666667 4 9 C2.54263913 8.80508548 1.08405407 8.61930642 -0.375 8.4375 C-1.59316406 8.28087891 -1.59316406 8.28087891 -2.8359375 8.12109375 C-5.04899186 7.81762672 -5.04899186 7.81762672 -7 9 C-8.13350534 11.01669827 -8.13350534 11.01669827 -9 13 C-9.24360427 10.07674878 -9.19608294 8.37152557 -7.8125 5.75 C-5.59691281 3.61081236 -4.01802393 3.32627286 -1 3 C-0.67 2.01 -0.34 1.02 0 0 Z " fill="#E9E9E9" transform="translate(24,587)"/>
<path d="M0 0 C0 0.99 0 1.98 0 3 C-0.99 3.33 -1.98 3.66 -3 4 C-3.33 5.65 -3.66 7.3 -4 9 C-2.68 9 -1.36 9 0 9 C0 9.99 0 10.98 0 12 C-0.67546875 11.79503906 -1.3509375 11.59007812 -2.046875 11.37890625 C-2.93890625 11.10949219 -3.8309375 10.84007812 -4.75 10.5625 C-5.63171875 10.29566406 -6.5134375 10.02882813 -7.421875 9.75390625 C-9.60565835 9.11531506 -11.78835498 8.53224167 -14 8 C-14 6.68 -14 5.36 -14 4 C-12.0429132 3.32968281 -10.08428887 2.66385317 -8.125 2 C-7.03445312 1.62875 -5.94390625 1.2575 -4.8203125 0.875 C-2 0 -2 0 0 0 Z " fill="#545454" transform="translate(29,773)"/>
<path d="M0 0 C4.875 0.875 4.875 0.875 6 2 C6.1875 4.4375 6.1875 4.4375 6 7 C4 9 4 9 1.1875 9.4375 C-3.03036531 8.85857731 -4.40130534 7.28658443 -7 4 C-7 3.01 -7 2.02 -7 1 C-6.34 1 -5.68 1 -5 1 C-4.34 1.99 -3.68 2.98 -3 4 C-2.01 2.68 -1.02 1.36 0 0 Z " fill="#575757" transform="translate(23,616)"/>
<path d="M0 0 C2.8125 2.3125 2.8125 2.3125 5 5 C5 5.99 5 6.98 5 8 C4.01 7.67 3.02 7.34 2 7 C1.67 6.34 1.34 5.68 1 5 C0.01 6.32 -0.98 7.64 -2 9 C-6.875 8.125 -6.875 8.125 -8 7 C-8.25 4.5625 -8.25 4.5625 -8 2 C-4.72942857 -0.18038095 -3.79480531 -0.63246755 0 0 Z " fill="#4D4D4D" transform="translate(24,583)"/>
<path d="M0 0 C3 0.25 3 0.25 5 2.25 C5.25 4.75 5.25 4.75 5 7.25 C3 9.25 3 9.25 0 9.5 C-3 9.25 -3 9.25 -5 7.25 C-5.25 4.75 -5.25 4.75 -5 2.25 C-3 0.25 -3 0.25 0 0 Z " fill="#585858" transform="translate(24,751.75)"/>
<path d="M0 0 C3 0.25 3 0.25 5 2.25 C5.25 4.75 5.25 4.75 5 7.25 C3 9.25 3 9.25 0 9.5 C-3 9.25 -3 9.25 -5 7.25 C-5.25 4.75 -5.25 4.75 -5 2.25 C-3 0.25 -3 0.25 0 0 Z " fill="#595959" transform="translate(24,698.75)"/>
<path d="M0 0 C1.65 0.99 3.3 1.98 5 3 C6.65 2.01 8.3 1.02 10 0 C9.125 3.875 9.125 3.875 8 5 C8.66 5.33 9.32 5.66 10 6 C10 6.99 10 7.98 10 9 C5.05 9 0.1 9 -5 9 C-5 8.01 -5 7.02 -5 6 C-1.535 5.505 -1.535 5.505 2 5 C1.34 4.34 0.68 3.68 0 3 C0 2.01 0 1.02 0 0 Z " fill="#5F5F5F" transform="translate(19,679)"/>
<path d="M0 0 C0 0.99 0 1.98 0 3 C-0.99 3 -1.98 3 -3 3 C-3 4.65 -3 6.3 -3 8 C-6.93370357 7.43804235 -9.83175607 6.44407389 -13 4 C-13 2.68 -13 1.36 -13 0 C-4.57142857 -1.28571429 -4.57142857 -1.28571429 0 0 Z " fill="#575757" transform="translate(29,638)"/>
<path d="M0 0 C0 0.99 0 1.98 0 3 C-0.99 3 -1.98 3 -3 3 C-3 4.65 -3 6.3 -3 8 C-6.93370357 7.43804235 -9.83175607 6.44407389 -13 4 C-13 2.68 -13 1.36 -13 0 C-4.57142857 -1.28571429 -4.57142857 -1.28571429 0 0 Z " fill="#575757" transform="translate(29,606)"/>
<path d="M0 0 C1.2065625 0.0309375 1.2065625 0.0309375 2.4375 0.0625 C2.7675 1.7125 3.0975 3.3625 3.4375 5.0625 C3.7675 3.7425 4.0975 2.4225 4.4375 1.0625 C5.0975 1.0625 5.7575 1.0625 6.4375 1.0625 C6.5625 3.4375 6.5625 3.4375 6.4375 6.0625 C4.4375 8.0625 4.4375 8.0625 1.4375 8.3125 C-1.5625 8.0625 -1.5625 8.0625 -3.5625 6.0625 C-3.75 3.5 -3.75 3.5 -3.5625 1.0625 C-2.5625 0.0625 -2.5625 0.0625 0 0 Z " fill="#515151" transform="translate(22.5625,730.9375)"/>
<path d="M0 0 C0 0.66 0 1.32 0 2 C1.32 1.67 2.64 1.34 4 1 C4 1.66 4 2.32 4 3 C4.99 3 5.98 3 7 3 C7 3.66 7 4.32 7 5 C6.01 5.495 6.01 5.495 5 6 C5.66 6.66 6.32 7.32 7 8 C5.35 8.33 3.7 8.66 2 9 C2 8.34 2 7.68 2 7 C0.68 7.33 -0.64 7.66 -2 8 C-2 7.34 -2 6.68 -2 6 C-2.66 5.67 -3.32 5.34 -4 5 C-3.34 5 -2.68 5 -2 5 C-2 4.34 -2 3.68 -2 3 C-2.99 3 -3.98 3 -5 3 C-5 2.34 -5 1.68 -5 1 C-2 0 -2 0 0 0 Z " fill="#757575" transform="translate(21,654)"/>
<path d="M0 0 C0.66 0 1.32 0 2 0 C2.33 1.98 2.66 3.96 3 6 C2.01 6.66 1.02 7.32 0 8 C0.33 9.32 0.66 10.64 1 12 C0.01 12.495 0.01 12.495 -1 13 C-1 12.34 -1 11.68 -1 11 C-1.99 11 -2.98 11 -4 11 C-4 10.34 -4 9.68 -4 9 C-5.32 9.33 -6.64 9.66 -8 10 C-8 9.34 -8 8.68 -8 8 C-8.66 8 -9.32 8 -10 8 C-10 7.34 -10 6.68 -10 6 C-6.7 6 -3.4 6 0 6 C0 4.02 0 2.04 0 0 Z " fill="#EBEBEB" transform="translate(29,646)"/>
<path d="M0 0 C4.70588235 0.70588235 4.70588235 0.70588235 6 2 C6.04080783 3.99958364 6.04254356 6.00045254 6 8 C5.01 7.67 4.02 7.34 3 7 C3 5.68 3 4.36 3 3 C2.34 2.67 1.68 2.34 1 2 C0.773125 2.804375 0.54625 3.60875 0.3125 4.4375 C-1 7 -1 7 -3.5 7.9375 C-4.325 7.958125 -5.15 7.97875 -6 8 C-8 6 -8 6 -8.125 3.375 C-8.08375 2.59125 -8.0425 1.8075 -8 1 C-7.34 1 -6.68 1 -6 1 C-5.814375 1.9590625 -5.814375 1.9590625 -5.625 2.9375 C-5.315625 3.9584375 -5.315625 3.9584375 -5 5 C-4.34 5.33 -3.68 5.66 -3 6 C-2.690625 5.195625 -2.38125 4.39125 -2.0625 3.5625 C-1 1 -1 1 0 0 Z " fill="#545454" transform="translate(23,716)"/>
<path d="M0 0 C5.45454545 0.45454545 5.45454545 0.45454545 8 3 C8.33 2.01 8.66 1.02 9 0 C9.66 0 10.32 0 11 0 C11 2.64 11 5.28 11 8 C8.53199953 6.84826645 6.95216435 5.95216435 5 4 C3.68 4 2.36 4 1 4 C1 5.32 1 6.64 1 8 C0.01 7.67 -0.98 7.34 -2 7 C-2.125 4.625 -2.125 4.625 -2 2 C-1.34 1.34 -0.68 0.68 0 0 Z " fill="#626262" transform="translate(18,627)"/>
<path d="M0 0 C4.14752537 0.67257168 6.66630887 1.7139407 9.75 4.6875 C11.54582766 8.00978118 10.76135036 10.40088922 10 14 C9.34 13.67 8.68 13.34 8 13 C7.26924352 10.6859378 6.59861742 8.35171131 6 6 C4.35 5.67 2.7 5.34 1 5 C0.67 3.35 0.34 1.7 0 0 Z " fill="#E7E7E7" transform="translate(21,567)"/>
<path d="M0 0 C0 6.27 0 12.54 0 19 C-0.66 19.33 -1.32 19.66 -2 20 C-2.02707139 17.75006641 -2.04642829 15.50003905 -2.0625 13.25 C-2.07410156 11.99703125 -2.08570313 10.7440625 -2.09765625 9.453125 C-2.02021027 6.71463499 -1.82780815 4.58119707 -1 2 C-1.99 2 -2.98 2 -4 2 C-4.33 2.99 -4.66 3.98 -5 5 C-7.0625 6.1875 -7.0625 6.1875 -9 7 C-10.32 5.35 -11.64 3.7 -13 2 C-12.13375 2.04125 -11.2675 2.0825 -10.375 2.125 C-6.74014063 1.99037558 -3.44420491 0 0 0 Z " fill="#EFEFEF" transform="translate(32,676)"/>
<path d="M0 0 C6.10419901 1.2457549 9.54831603 3.69715653 14 8 C13.34 8.66 12.68 9.32 12 10 C6.88226093 8.09339133 3.61567067 6.27306534 0 2 C0 1.34 0 0.68 0 0 Z " fill="#8CD21A" transform="translate(386,350)"/>
<path d="M0 0 C3.3 0 6.6 0 10 0 C11.99795425 3.99590851 12.3757916 5.67839666 12 10 C11.34 10.66 10.68 11.32 10 12 C9.01 9.36 8.02 6.72 7 4 C4.69 4 2.38 4 0 4 C0 2.68 0 1.36 0 0 Z " fill="#E6E6E6" transform="translate(20,696)"/>
<path d="M0 0 C3.96 0 7.92 0 12 0 C12 0.66 12 1.32 12 2 C11.34 2 10.68 2 10 2 C10 4.31 10 6.62 10 9 C8.8944811 8.06409496 7.79064547 7.12620142 6.6875 6.1875 C6.07261719 5.66542969 5.45773437 5.14335937 4.82421875 4.60546875 C3.15530589 3.13668249 1.57203741 1.57203741 0 0 Z " fill="#24AEF7" transform="translate(615,448)"/>
<path d="M0 0 C4.85963179 0.60745397 8.7405518 2.72758967 13 5 C13 5.66 13 6.32 13 7 C8.87248551 6.39301257 5.6678852 4.96189209 2 3 C2 4.98 2 6.96 2 9 C1.34 9 0.68 9 0 9 C0 6.03 0 3.06 0 0 Z " fill="#565656" transform="translate(16,562)"/>
<path d="M0 0 C4.29 0 8.58 0 13 0 C13 0.99 13 1.98 13 3 C9.7 3 6.4 3 3 3 C3 3.66 3 4.32 3 5 C2.34 5 1.68 5 1 5 C0.67 3.35 0.34 1.7 0 0 Z " fill="#5F5F5F" transform="translate(16,649)"/>
<path d="M0 0 C1.5 1.3125 1.5 1.3125 3 3 C3 4.66666667 3 6.33333333 3 8 C0.98177083 7.96744792 -1.03645833 7.93489583 -3.0546875 7.90234375 C-5.08185404 7.87350758 -5.08185404 7.87350758 -7 9 C-8.13350534 11.01669827 -8.13350534 11.01669827 -9 13 C-9.24360427 10.07674878 -9.19608294 8.37152557 -7.8125 5.75 C-5.59691281 3.61081236 -4.01802393 3.32627286 -1 3 C-0.67 2.01 -0.34 1.02 0 0 Z " fill="#DBDBDB" transform="translate(24,587)"/>
<path d="M0 0 C1.42098605 2.66434884 1.19767261 4.90991085 1 7.875 C0.34 7.545 -0.32 7.215 -1 6.875 C-1.33 5.555 -1.66 4.235 -2 2.875 C-6.29 2.545 -10.58 2.215 -15 1.875 C-14 -0.125 -14 -0.125 -12.4375 -0.75 C-3.71812081 -2.09144295 -3.71812081 -2.09144295 0 0 Z " fill="#DEDEDE" transform="translate(30,761.125)"/>
<path d="M0 0 C0.99 0.33 1.98 0.66 3 1 C2.360625 1.845625 1.72125 2.69125 1.0625 3.5625 C-1.1966273 6.90728565 -1.67791759 9.97396992 -2 14 C-2.99 13.34 -3.98 12.68 -5 12 C-5.1875 8.375 -5.1875 8.375 -5 5 C-4.34 5 -3.68 5 -3 5 C-2.67 4.01 -2.34 3.02 -2 2 C-1.34 2 -0.68 2 0 2 C0 1.34 0 0.68 0 0 Z " fill="#8BD317" transform="translate(369,364)"/>
<path d="M0 0 C-2.34783473 3.52175209 -4.26181186 4.16905071 -8 6 C-9.81554159 7.56102491 -9.81554159 7.56102491 -11 9 C-11.33 8.01 -11.66 7.02 -12 6 C-8.82704876 1.18181478 -5.86396796 -2.09427427 0 0 Z " fill="#F2F9E6" transform="translate(573,364)"/>
<path d="M0 0 C1.17949219 0.01804687 2.35898437 0.03609375 3.57421875 0.0546875 C4.92966797 0.08949219 4.92966797 0.08949219 6.3125 0.125 C4.6625 1.775 3.0125 3.425 1.3125 5.125 C-2.3175 4.135 -5.9475 3.145 -9.6875 2.125 C-6.05554504 -0.29630331 -4.30400652 -0.08522785 0 0 Z " fill="#8ED31D" transform="translate(572.6875,348.875)"/>
<path d="M0 0 C1.2065625 0.0309375 1.2065625 0.0309375 2.4375 0.0625 C2.1075 1.0525 1.7775 2.0425 1.4375 3.0625 C0.4475 3.0625 -0.5425 3.0625 -1.5625 3.0625 C-1.8925 4.3825 -2.2225 5.7025 -2.5625 7.0625 C-0.5825 7.0625 1.3975 7.0625 3.4375 7.0625 C3.4375 7.3925 3.4375 7.7225 3.4375 8.0625 C-0.8525 8.0625 -5.1425 8.0625 -9.5625 8.0625 C-9.5625 7.4025 -9.5625 6.7425 -9.5625 6.0625 C-7.9125 6.0625 -6.2625 6.0625 -4.5625 6.0625 C-4.418125 5.258125 -4.27375 4.45375 -4.125 3.625 C-3.347189 0.08163876 -3.347189 0.08163876 0 0 Z " fill="#515151" transform="translate(23.5625,740.9375)"/>
<path d="M0 0 C0.66 0 1.32 0 2 0 C1.67 1.32 1.34 2.64 1 4 C-0.76774419 4.53122363 -2.53934083 5.04964073 -4.3125 5.5625 C-5.29863281 5.85253906 -6.28476562 6.14257812 -7.30078125 6.44140625 C-10 7 -10 7 -13 6 C-7.81454918 1.06147541 -7.81454918 1.06147541 -3.6875 0.75 C-2.3571875 0.87375 -2.3571875 0.87375 -1 1 C-0.67 0.67 -0.34 0.34 0 0 Z " fill="#E0E0E0" transform="translate(28,770)"/>
<path d="M0 0 C0 1.98 0 3.96 0 6 C-0.721875 5.484375 -1.44375 4.96875 -2.1875 4.4375 C-4.87266239 2.78385384 -4.87266239 2.78385384 -7.6875 3.0625 C-10.15432176 3.80221521 -10.15432176 3.80221521 -11.3125 6.0625 C-11.6528125 7.0215625 -11.6528125 7.0215625 -12 8 C-11.51681957 1.47706422 -11.51681957 1.47706422 -9.375 -0.5 C-6.07635587 -1.1944514 -3.28249631 -0.63124929 0 0 Z " fill="#E7E7E7" transform="translate(27,625)"/>
<path d="M0 0 C0.66 0 1.32 0 2 0 C2.66 0.99 3.32 1.98 4 3 C4.99 2.01 5.98 1.02 7 0 C7 1.98 7 3.96 7 6 C7.99 6 8.98 6 10 6 C10 6.66 10 7.32 10 8 C3.52864939 7.51159618 3.52864939 7.51159618 1.0625 5.125 C0 3 0 3 0 0 Z " fill="#656565" transform="translate(16,617)"/>
<path d="M0 0 C3 0 3 0 4.6875 1.5 C5.120625 1.995 5.55375 2.49 6 3 C5.67 2.01 5.34 1.02 5 0 C7.97 0.495 7.97 0.495 11 1 C11 2.32 11 3.64 11 5 C8.875 5.75 8.875 5.75 6 6 C2.6875 4.1875 2.6875 4.1875 0 2 C0 1.34 0 0.68 0 0 Z " fill="#86D010" transform="translate(556,394)"/>
<path d="M0 0 C2.875 -0.5 2.875 -0.5 6 0 C8.375 2.5 8.375 2.5 10 5 C6.52128379 6.15957207 5.65780355 5.77456651 2.3125 4.5625 C1.50425781 4.27503906 0.69601562 3.98757813 -0.13671875 3.69140625 C-0.75160156 3.46324219 -1.36648438 3.23507812 -2 3 C-1.34 2.01 -0.68 1.02 0 0 Z " fill="#1567A5" transform="translate(596,310)"/>
<path d="M0 0 C2.31 0.33 4.62 0.66 7 1 C7 1.66 7 2.32 7 3 C4.69 3.66 2.38 4.32 0 5 C-0.33 6.32 -0.66 7.64 -1 9 C-2.65 9 -4.3 9 -6 9 C-6.33 9.66 -6.66 10.32 -7 11 C-6.67 9.68 -6.34 8.36 -6 7 C-5.38125 6.95875 -4.7625 6.9175 -4.125 6.875 C-3.42375 6.58625 -2.7225 6.2975 -2 6 C-0.6954344 3.00384054 -0.6954344 3.00384054 0 0 Z " fill="#E4E4E4" transform="translate(20,738)"/>
<path d="M0 0 C0.66 0 1.32 0 2 0 C2 0.66 2 1.32 2 2 C3.98 2 5.96 2 8 2 C8 1.34 8 0.68 8 0 C8.66 0 9.32 0 10 0 C10 1.32 10 2.64 10 4 C7.36 4 4.72 4 2 4 C2 4.66 2 5.32 2 6 C1.34 6 0.68 6 0 6 C0 5.34 0 4.68 0 4 C-0.99 4 -1.98 4 -3 4 C-3 3.34 -3 2.68 -3 2 C-2.01 2 -1.02 2 0 2 C0 1.34 0 0.68 0 0 Z " fill="#4E4E4E" transform="translate(19,709)"/>
<path d="M0 0 C0.99 0.66 1.98 1.32 3 2 C2.50886719 2.54140625 2.01773437 3.0828125 1.51171875 3.640625 C-0.3667612 6.57241283 -0.31060725 8.30299691 -0.1875 11.75 C-0.14689453 13.22726562 -0.14689453 13.22726562 -0.10546875 14.734375 C-0.07066406 15.48203125 -0.03585937 16.2296875 0 17 C-0.99 16.67 -1.98 16.34 -3 16 C-3.55353075 4.29384966 -3.55353075 4.29384966 0 0 Z " fill="#FBA21C" transform="translate(500,414)"/>
<path d="M0 0 C0.66 0 1.32 0 2 0 C2.33 1.32 2.66 2.64 3 4 C4.98491642 3.73323796 4.98491642 3.73323796 7 3 C7.33 2.01 7.66 1.02 8 0 C8.66 0 9.32 0 10 0 C10.125 2.375 10.125 2.375 10 5 C8 7 8 7 5 7.3125 C3.515 7.1578125 3.515 7.1578125 2 7 C0 4 0 4 0 0 Z " fill="#565656" transform="translate(19,690)"/>
<path d="M0 0 C0 0.99 0 1.98 0 3 C-6.75 4.125 -6.75 4.125 -9 3 C-9 2.01 -9 1.02 -9 0 C-5.93109813 -1.53445094 -3.29905734 -0.54984289 0 0 Z " fill="#CBCBCB" transform="translate(27,597)"/>
<path d="M0 0 C0.33 0.66 0.66 1.32 1 2 C1.99 2 2.98 2 4 2 C6.1875 4 6.1875 4 8 6 C3.03083364 5.48594831 -1.29026351 4.76615118 -6 3 C-2.25 0 -2.25 0 0 0 Z " fill="#236EA8" transform="translate(524,555)"/>
<path d="M0 0 C2.1875 3 2.1875 3 4 6 C3.34 6.66 2.68 7.32 2 8 C1.34 7.67 0.68 7.34 0 7 C0 6.34 0 5.68 0 5 C-2.97 4.505 -2.97 4.505 -6 4 C-5.67 3.01 -5.34 2.02 -5 1 C-3 0 -3 0 0 0 Z " fill="#ECF4F7" transform="translate(598,486)"/>
<path d="M0 0 C2.64 0 5.28 0 8 0 C8.125 2.875 8.125 2.875 8 6 C6 8 6 8 2.875 8.125 C1.451875 8.063125 1.451875 8.063125 0 8 C-0.33 6.68 -0.66 5.36 -1 4 C1.97 4.495 1.97 4.495 5 5 C5.33 3.68 5.66 2.36 6 1 C4.02 1 2.04 1 0 1 C0 0.67 0 0.34 0 0 Z " fill="#515151" transform="translate(21,764)"/>
<path d="M0 0 C-0.99 0.495 -0.99 0.495 -2 1 C-2 2.65 -2 4.3 -2 6 C-6.875 7 -6.875 7 -8 7 C-8.1875 4.625 -8.1875 4.625 -8 2 C-4.77208445 -0.1519437 -3.71599191 -0.20086443 0 0 Z " fill="#919191" transform="translate(24,583)"/>
<path d="M0 0 C1.65 0.33 3.3 0.66 5 1 C5.33 2.65 5.66 4.3 6 6 C0.25 5.25 0.25 5.25 -2 3 C-1.34 2.01 -0.68 1.02 0 0 Z " fill="#81C90A" transform="translate(380,358)"/>
<path d="M0 0 C1.32 0.66 2.64 1.32 4 2 C4.75 5.625 4.75 5.625 5 9 C2.69 9 0.38 9 -2 9 C-1.34 6.03 -0.68 3.06 0 0 Z " fill="#DBDBDB" transform="translate(18,565)"/>
<path d="M0 0 C1.98 0 3.96 0 6 0 C6.66 1.32 7.32 2.64 8 4 C7.34 4 6.68 4 6 4 C5.67 5.65 5.34 7.3 5 9 C4.67 9 4.34 9 4 9 C4 7.02 4 5.04 4 3 C2.68 3 1.36 3 0 3 C0 2.01 0 1.02 0 0 Z " fill="#D7D7D7" transform="translate(21,728)"/>
<path d="M0 0 C0.66 0 1.32 0 2 0 C2.33 0.99 2.66 1.98 3 3 C3.66 3.33 4.32 3.66 5 4 C5 5.65 5 7.3 5 9 C4.34 9 3.68 9 3 9 C3 8.01 3 7.02 3 6 C1.68 6 0.36 6 -1 6 C-1.042721 4.33388095 -1.04063832 2.66617115 -1 1 C-0.67 0.67 -0.34 0.34 0 0 Z " fill="#DEDEDE" transform="translate(26,776)"/>
<path d="M0 0 C4.875 0.875 4.875 0.875 6 2 C6.04063832 3.66617115 6.042721 5.33388095 6 7 C3 7 3 7 0 6 C0.185625 5.38125 0.37125 4.7625 0.5625 4.125 C1.23686176 1.95839822 1.23686176 1.95839822 0 0 Z " fill="#9E9E9E" transform="translate(23,572)"/>
<path d="M0 0 C2.33944736 0.28730055 4.6739143 0.61936779 7 1 C5 1.66666667 3 2.33333333 1 3 C1.01160156 3.65226563 1.02320313 4.30453125 1.03515625 4.9765625 C1.08470994 9.7761914 0.99413751 14.27784685 0 19 C-0.33 19 -0.66 19 -1 19 C-1.02683987 16.02077407 -1.04676037 13.04178705 -1.0625 10.0625 C-1.07087891 9.21236328 -1.07925781 8.36222656 -1.08789062 7.48632812 C-1.09111328 6.67744141 -1.09433594 5.86855469 -1.09765625 5.03515625 C-1.10289307 4.2862915 -1.10812988 3.53742676 -1.11352539 2.76586914 C-1 1 -1 1 0 0 Z " fill="#ECECEC" transform="translate(16,559)"/>
<path d="M0 0 C0.33 0 0.66 0 1 0 C1 2.64 1 5.28 1 8 C1.99 8.33 2.98 8.66 4 9 C4.33 10.65 4.66 12.3 5 14 C2.525 13.01 2.525 13.01 0 12 C0 8.04 0 4.08 0 0 Z " fill="#F0F6F7" transform="translate(609,280)"/>
<path d="M0 0 C1.2065625 0.0309375 1.2065625 0.0309375 2.4375 0.0625 C2.4375 2.0425 2.4375 4.0225 2.4375 6.0625 C1.81875 5.876875 1.2 5.69125 0.5625 5.5 C-1.60410178 4.82563824 -1.60410178 4.82563824 -3.5625 6.0625 C-3.605221 4.39638095 -3.60313832 2.72867115 -3.5625 1.0625 C-2.5625 0.0625 -2.5625 0.0625 0 0 Z " fill="#7E7E7E" transform="translate(22.5625,730.9375)"/>
<path d="M0 0 C0.33 0.66 0.66 1.32 1 2 C1.99 2 2.98 2 4 2 C4 2.66 4 3.32 4 4 C3.01 4.495 3.01 4.495 2 5 C2.66 5.66 3.32 6.32 4 7 C2.35 7.33 0.7 7.66 -1 8 C-1 7.34 -1 6.68 -1 6 C-1.99 6.33 -2.98 6.66 -4 7 C-4 6.34 -4 5.68 -4 5 C-3.01 5 -2.02 5 -1 5 C-1.33 4.01 -1.66 3.02 -2 2 C-1.34 2 -0.68 2 0 2 C0 1.34 0 0.68 0 0 Z " fill="#595959" transform="translate(24,655)"/>
<path d="M0 0 C1.093125 0.33 2.18625 0.66 3.3125 1 C6.84578884 2.13086649 6.84578884 2.13086649 10 2 C10.33 1.34 10.66 0.68 11 0 C11.66 0.66 12.32 1.32 13 2 C12.67 2.66 12.34 3.32 12 4 C8.04 4 4.08 4 0 4 C0 2.68 0 1.36 0 0 Z " fill="#D5D5D5" transform="translate(16,634)"/>
<path d="M0 0 C1.65 0.33 3.3 0.66 5 1 C4.67 2.32 4.34 3.64 4 5 C2.35 4.67 0.7 4.34 -1 4 C-0.67 2.68 -0.34 1.36 0 0 Z " fill="#CFCFCF" transform="translate(22,754)"/>
<path d="M0 0 C1.65 0.33 3.3 0.66 5 1 C4.67 2.32 4.34 3.64 4 5 C2.35 4.67 0.7 4.34 -1 4 C-0.67 2.68 -0.34 1.36 0 0 Z " fill="#CDCDCD" transform="translate(22,701)"/>
<path d="M0 0 C2.25 0.25 2.25 0.25 4 1 C4 1.66 4 2.32 4 3 C3.071875 3.4021875 3.071875 3.4021875 2.125 3.8125 C-0.2995233 4.95556848 -0.2995233 4.95556848 -2 8 C-2.66 6.68 -3.32 5.36 -4 4 C-2.25 1.9375 -2.25 1.9375 0 0 Z " fill="#D5D5D5" transform="translate(22,613)"/>
<path d="M0 0 C0 1.32 0 2.64 0 4 C-2.97 3.505 -2.97 3.505 -6 3 C-6 2.34 -6 1.68 -6 1 C-6.66 0.67 -7.32 0.34 -8 0 C-4.71023192 -1.09658936 -3.28696233 -0.79953138 0 0 Z " fill="#929292" transform="translate(23,777)"/>
<path d="M0 0 C1.89213369 2.38573379 3.02391783 4.07175348 4 7 C3.34 7.66 2.68 8.32 2 9 C2 8.34 2 7.68 2 7 C0.68 6.67 -0.64 6.34 -2 6 C-1.49396008 3.83125748 -1.00016187 2.00032373 0 0 Z " fill="#FBF7EF" transform="translate(298,433)"/>
<path d="M0 0 C1.98 0 3.96 0 6 0 C6 1.32 6 2.64 6 4 C5.01 4.33 4.02 4.66 3 5 C2.01 4.34 1.02 3.68 0 3 C0 2.01 0 1.02 0 0 Z " fill="#8D8D8D" transform="translate(18,640)"/>
<path d="M0 0 C7.57142857 3 7.57142857 3 10 6 C9.01 6.495 9.01 6.495 8 7 C4.996433 5.7985732 2.45213931 4.10183369 0 2 C0 1.34 0 0.68 0 0 Z " fill="#FC9D12" transform="translate(331,399)"/>
<path d="M0 0 C1.32 0.33 2.64 0.66 4 1 C3.67 3.31 3.34 5.62 3 8 C2.34 8 1.68 8 1 8 C0.67 5.36 0.34 2.72 0 0 Z " fill="#E7E7E7" transform="translate(28,729)"/>
<path d="M0 0 C0.928125 0.2784375 0.928125 0.2784375 1.875 0.5625 C4.04160178 1.23686176 4.04160178 1.23686176 6 0 C5.67 1.32 5.34 2.64 5 4 C3.68 4.33 2.36 4.66 1 5 C0.67 3.35 0.34 1.7 0 0 Z " fill="#D4D4D4" transform="translate(21,690)"/>
<path d="M0 0 C5.53846154 0.61538462 5.53846154 0.61538462 7.875 2.5625 C8.431875 3.2740625 8.431875 3.2740625 9 4 C8.01 4.33 7.02 4.66 6 5 C6 4.34 6 3.68 6 3 C4.68 3.33 3.36 3.66 2 4 C2 3.34 2 2.68 2 2 C1.34 2 0.68 2 0 2 C0 1.34 0 0.68 0 0 Z " fill="#E2E2E2" transform="translate(19,652)"/>
<path d="M0 0 C2.475 0.495 2.475 0.495 5 1 C5.33 2.32 5.66 3.64 6 5 C4.35 5.66 2.7 6.32 1 7 C1.020625 6.21625 1.04125 5.4325 1.0625 4.625 C1.18684063 2.01885039 1.18684063 2.01885039 0 0 Z " fill="#196AA7" transform="translate(534,537)"/>
<path d="M0 0 C2.6875 0.3125 2.6875 0.3125 5 1 C3.68 2.32 2.36 3.64 1 5 C-0.32 4.34 -1.64 3.68 -3 3 C-1.8125 1.4375 -1.8125 1.4375 0 0 Z " fill="#EBEFF1" transform="translate(598,314)"/>
<path d="M0 0 C1.98 0 3.96 0 6 0 C5.67 1.32 5.34 2.64 5 4 C3.35 3.67 1.7 3.34 0 3 C0 2.01 0 1.02 0 0 Z " fill="#D2D2D2" transform="translate(21,766)"/>
<path d="M0 0 C0.66 0 1.32 0 2 0 C2.33 1.32 2.66 2.64 3 4 C4.32 4 5.64 4 7 4 C6.67 4.99 6.34 5.98 6 7 C1.125 6.125 1.125 6.125 0 5 C-0.04063832 3.33382885 -0.042721 1.66611905 0 0 Z " fill="#4D4D4D" transform="translate(15,717)"/>
<path d="M0 0 C2.97 0.33 5.94 0.66 9 1 C7.68 2.32 6.36 3.64 5 5 C3.35 3.35 1.7 1.7 0 0 Z " fill="#E2E2E2" transform="translate(19,678)"/>
<path d="M0 0 C1.32 0.33 2.64 0.66 4 1 C4 1.99 4 2.98 4 4 C2.02 4 0.04 4 -2 4 C-2.33 4.99 -2.66 5.98 -3 7 C-3 5.35 -3 3.7 -3 2 C-2.01 2 -1.02 2 0 2 C0 1.34 0 0.68 0 0 Z " fill="#E4E4E4" transform="translate(18,602)"/>
<path d="M0 0 C2.88575819 0.39803561 3.82189513 0.79009069 5.75 3.0625 C6.1625 3.701875 6.575 4.34125 7 5 C6.34 5.66 5.68 6.32 5 7 C3.29115995 5.37660195 1.62553283 3.70680947 0 2 C0 1.34 0 0.68 0 0 Z " fill="#FA9D13" transform="translate(489,438)"/>
<path d="M0 0 C-0.66 0 -1.32 0 -2 0 C-2 0.66 -2 1.32 -2 2 C-1.34 2.33 -0.68 2.66 0 3 C-1.32 3.33 -2.64 3.66 -4 4 C-4.99 2.35 -5.98 0.7 -7 -1 C-3.51418144 -2.2020064 -3.32007656 -2.21338437 0 0 Z " fill="#F0F7E7" transform="translate(375,381)"/>
<path d="M0 0 C1.65 0 3.3 0 5 0 C5 1.32 5 2.64 5 4 C4.01 4.33 3.02 4.66 2 5 C1.34 4.67 0.68 4.34 0 4 C0 2.68 0 1.36 0 0 Z " fill="#959595" transform="translate(19,608)"/>
<path d="M0 0 C1.9375 0.3125 1.9375 0.3125 4 1 C4.33 1.99 4.66 2.98 5 4 C3.02 4 1.04 4 -1 4 C-0.67 2.68 -0.34 1.36 0 0 Z " fill="#D5D5D5" transform="translate(22,743)"/>
<path d="M0 0 C0.99 0 1.98 0 3 0 C2.67 2.97 2.34 5.94 2 9 C1.34 9 0.68 9 0 9 C0 6.03 0 3.06 0 0 Z " fill="#4E4E4E" transform="translate(16,562)"/>
<path d="M0 0 C2 2 2 2 2 5 C0.68 5.33 -0.64 5.66 -2 6 C-2.66 4.68 -3.32 3.36 -4 2 C-2.68 1.34 -1.36 0.68 0 0 Z " fill="#F7FBF2" transform="translate(358,391)"/>
<path d="M0 0 C1.0625 1.875 1.0625 1.875 2 4 C1.67 4.66 1.34 5.32 1 6 C0.34 6 -0.32 6 -1 6 C-1.33 6.66 -1.66 7.32 -2 8 C-2.33 6.02 -2.66 4.04 -3 2 C-2.01 1.34 -1.02 0.68 0 0 Z " fill="#1163A2" transform="translate(676,386)"/>
<path d="M0 0 C0.94875 0.165 1.8975 0.33 2.875 0.5 C5.80168901 1.0526635 5.80168901 1.0526635 8 1 C7.67 1.99 7.34 2.98 7 4 C5.02 4 3.04 4 1 4 C0.67 2.68 0.34 1.36 0 0 Z " fill="#4E4E4E" transform="translate(20,757)"/>
<path d="M0 0 C0.94875 0.165 1.8975 0.33 2.875 0.5 C5.80168901 1.0526635 5.80168901 1.0526635 8 1 C7.67 1.99 7.34 2.98 7 4 C5.02 4 3.04 4 1 4 C0.67 2.68 0.34 1.36 0 0 Z " fill="#4D4D4D" transform="translate(20,704)"/>
<path d="M0 0 C0.66 0 1.32 0 2 0 C2 2.64 2 5.28 2 8 C0.68 7.34 -0.64 6.68 -2 6 C-1.34 5.67 -0.68 5.34 0 5 C0 3.35 0 1.7 0 0 Z " fill="#474747" transform="translate(27,627)"/>
<path d="M0 0 C1.32 0 2.64 0 4 0 C4 1.65 4 3.3 4 5 C3.01 5 2.02 5 1 5 C0.34 3.68 -0.32 2.36 -1 1 C-0.67 0.67 -0.34 0.34 0 0 Z " fill="#939393" transform="translate(17,573)"/>
<path d="M0 0 C0.33 0 0.66 0 1 0 C1 1.98 1 3.96 1 6 C1.99 6 2.98 6 4 6 C4 6.66 4 7.32 4 8 C2.35 8 0.7 8 -1 8 C-1 5.16032769 -0.59732819 2.76264289 0 0 Z " fill="#4A4A4A" transform="translate(22,617)"/>
<path d="M0 0 C0.66 0.33 1.32 0.66 2 1 C1.3125 2.9375 1.3125 2.9375 0 5 C-2.625 5.75 -2.625 5.75 -5 6 C-5.33 5.34 -5.66 4.68 -6 4 C-4.02 2.68 -2.04 1.36 0 0 Z " fill="#1566A3" transform="translate(626,521)"/>
<path d="M0 0 C0 1.65 0 3.3 0 5 C-1.32 5.33 -2.64 5.66 -4 6 C-4 4.35 -4 2.7 -4 1 C-2 0 -2 0 0 0 Z " fill="#36B7FC" transform="translate(606,487)"/>
<path d="M0 0 C0.99 0 1.98 0 3 0 C4.42944945 2.35438733 5.08661261 3.48032433 4.625 6.25 C4.41875 6.8275 4.2125 7.405 4 8 C0 2.25 0 2.25 0 0 Z " fill="#90D423" transform="translate(355,385)"/>
<path d="M0 0 C4.455 1.98 4.455 1.98 9 4 C6.07175348 4.97608217 4.04386724 5.08226668 1 5 C0.67 3.35 0.34 1.7 0 0 Z " fill="#1866A4" transform="translate(623,298)"/>
<path d="M0 0 C2.3125 -0.25 2.3125 -0.25 5 0 C6.8125 2 6.8125 2 8 4 C5.33333333 3.33333333 2.66666667 2.66666667 0 2 C0 1.34 0 0.68 0 0 Z " fill="#595959" transform="translate(19,628)"/>
<path d="M0 0 C0.99 0.33 1.98 0.66 3 1 C2.67 2.32 2.34 3.64 2 5 C1.01 5 0.02 5 -1 5 C-0.67 3.35 -0.34 1.7 0 0 Z " fill="#CECECE" transform="translate(24,618)"/>
<path d="M0 0 C-0.33 0.99 -0.66 1.98 -1 3 C-3.31 3 -5.62 3 -8 3 C-8 2.34 -8 1.68 -8 1 C-2.25 0 -2.25 0 0 0 Z " fill="#4D4D4D" transform="translate(27,600)"/>
<path d="M0 0 C2.475 0.99 2.475 0.99 5 2 C2 4 2 4 0 5 C-1.13350534 7.01669827 -1.13350534 7.01669827 -2 9 C-2.20140476 5.37471432 -1.85776765 3.13498292 0 0 Z " fill="#E6E6E6" transform="translate(17,591)"/>
<path d="M0 0 C2 3 2 3 2 6 C-1.39914975 4.86695008 -2.05254451 3.87481525 -4 1 C-2 0 -2 0 0 0 Z " fill="#646464" transform="translate(27,585)"/>
<path d="M0 0 C0 0.66 0 1.32 0 2 C-2.99531539 2.99843846 -4.17255732 3.00732761 -7.1875 2.5625 C-8.445625 2.376875 -9.70375 2.19125 -11 2 C-11 1.67 -11 1.34 -11 1 C-9.5437328 0.63743142 -8.08488815 0.28520207 -6.625 -0.0625 C-5.40683594 -0.35833984 -5.40683594 -0.35833984 -4.1640625 -0.66015625 C-2 -1 -2 -1 0 0 Z " fill="#94D528" transform="translate(581,386)"/>
<path d="M0 0 C0.66 0 1.32 0 2 0 C1.67 1.65 1.34 3.3 1 5 C0.34 5 -0.32 5 -1 5 C-1.33 5.66 -1.66 6.32 -2 7 C-1.125 1.125 -1.125 1.125 0 0 Z " fill="#EBF4DE" transform="translate(369,368)"/>
<path d="M0 0 C4 0 4 0 5.75 1.5 C6.1625 1.995 6.575 2.49 7 3 C6.67 3.66 6.34 4.32 6 5 C3.69 4.01 1.38 3.02 -1 2 C-0.67 1.34 -0.34 0.68 0 0 Z " fill="#E2EBEF" transform="translate(616,293)"/>
</svg>
