<?xml version="1.0" encoding="UTF-8"?>
<svg version="1.1" xmlns="http://www.w3.org/2000/svg" width="225" height="225">
<path d="M0 0 C74.25 0 148.5 0 225 0 C225 74.25 225 148.5 225 225 C150.75 225 76.5 225 0 225 C0 150.75 0 76.5 0 0 Z " fill="#2D78B6" transform="translate(0,0)"/>
<path d="M0 0 C1.06226807 0.0141394 1.06226807 0.0141394 2.14599609 0.02856445 C10.4595213 0.2689117 16.18651377 2.30154818 22.125 8.375 C27.89841334 17.22503492 28.41515376 26.47790513 28.3203125 36.75 C28.3174826 37.9150708 28.31465271 39.0801416 28.31173706 40.28051758 C28.30059807 43.97878562 28.27550479 47.67680592 28.25 51.375 C28.2399621 53.89192357 28.23083766 56.40885096 28.22265625 58.92578125 C28.20238628 65.07569163 28.1632247 71.22507052 28.125 77.375 C20.205 77.375 12.285 77.375 4.125 77.375 C4.06441406 74.05179687 4.00382812 70.72859375 3.94140625 67.3046875 C3.87955637 64.07777773 3.81619374 60.85090095 3.75268555 57.62402344 C3.70943663 55.38544668 3.66775464 53.14683906 3.62768555 50.90820312 C3.56973926 47.68610344 3.50611534 44.46415761 3.44140625 41.2421875 C3.42469376 40.24508759 3.40798126 39.24798767 3.39076233 38.22067261 C3.29152901 31.237287 3.29152901 31.237287 2.125 24.375 C-1.39129864 22.19854324 -4.86441222 22.05149289 -8.9375 22 C-9.95972656 21.97164062 -10.98195312 21.94328125 -12.03515625 21.9140625 C-14.95144758 22.17210495 -14.95144758 22.17210495 -17.18359375 24.0234375 C-20.94550812 29.25362791 -20.08241627 36.58743122 -20.19140625 42.8046875 C-20.21218735 43.79501984 -20.23296844 44.78535217 -20.25437927 45.80569458 C-20.3195032 48.95372918 -20.37858629 52.10184367 -20.4375 55.25 C-20.48072059 57.3906331 -20.52433599 59.53125826 -20.56835938 61.671875 C-20.67588558 66.90616948 -20.77523514 72.14052886 -20.875 77.375 C-28.795 77.375 -36.715 77.375 -44.875 77.375 C-44.875 52.295 -44.875 27.215 -44.875 1.375 C-37.285 1.375 -29.695 1.375 -21.875 1.375 C-21.545 4.015 -21.215 6.655 -20.875 9.375 C-20.43929687 8.97667969 -20.00359375 8.57835938 -19.5546875 8.16796875 C-18.95914063 7.63816406 -18.36359375 7.10835938 -17.75 6.5625 C-17.16992188 6.04042969 -16.58984375 5.51835938 -15.9921875 4.98046875 C-10.84088865 1.07422552 -6.3953658 -0.13087276 0 0 Z " fill="#F8FAFC" transform="translate(140.875,91.625)"/>
<path d="M0 0 C7.92 0 15.84 0 24 0 C24 24.75 24 49.5 24 75 C16.08 75 8.16 75 0 75 C0 50.25 0 25.5 0 0 Z " fill="#F9FBFC" transform="translate(58,94)"/>
<path d="M0 0 C3.60250698 1.38900785 6.35803369 3.27519932 8.9375 6.1875 C10.81063322 11.14579382 10.88023783 15.91522619 8.8125 20.8125 C3.92331484 26.71324071 3.92331484 26.71324071 -0.59375 27.38671875 C-5.00034691 27.55848126 -8.08144387 27.49755124 -12 25.375 C-15.21958695 21.55174049 -16.81350798 18.49193615 -17.4375 13.5 C-16.74645309 7.9716247 -14.37443276 5.16063211 -10.1875 1.625 C-6.33997539 -0.33648313 -4.27096387 -0.59943353 0 0 Z " fill="#F8FAFC" transform="translate(73,56)"/>
</svg>
