<?xml version="1.0" encoding="UTF-8"?>
<svg version="1.1" xmlns="http://www.w3.org/2000/svg" width="500" height="500">
<path d="M0 0 C165 0 330 0 500 0 C500 165 500 330 500 500 C335 500 170 500 0 500 C0 335 0 170 0 0 Z " fill="#E6E7E7" transform="translate(0,0)"/>
<path d="M0 0 C0 0.66 0 1.32 0 2 C0.52855087 2.15642471 1.05710175 2.31284943 1.60166931 2.47401428 C7.9004697 4.44299659 13.59669472 7.14163277 19.44140625 10.18359375 C20.40852036 10.68037125 21.37563446 11.17714874 22.37205505 11.6889801 C25.43866593 13.26583037 28.5006532 14.85142232 31.5625 16.4375 C33.62143643 17.49864541 35.68067861 18.55919778 37.74023438 19.61914062 C40.64909185 21.11634128 43.55749622 22.61434895 46.46351624 24.11705017 C56.55237761 29.36394624 56.55237761 29.36394624 66.90039062 34.06591797 C72.10265312 36.38031987 77.16226688 39.0085456 82.25 41.5625 C82.86783356 41.87169373 83.48566711 42.18088745 84.1222229 42.49945068 C92.76398809 46.82487121 101.36574192 51.2191846 109.87402344 55.80297852 C114.15184694 58.09337554 118.47818763 60.15804747 122.93286133 62.08349609 C124.98942475 62.99531127 126.99580067 63.97887045 129 65 C129 65.66 129 66.32 129 67 C128.30664551 67.21092285 127.61329102 67.4218457 126.89892578 67.63916016 C108.80815284 73.1252392 108.80815284 73.1252392 90.87353516 79.09619141 C85.90117385 80.80455532 81.22291142 81.83935302 76 83 C75.67 93.56 75.34 104.12 75 115 C73 115 73 115 70.9375 113 C70.49019531 112.54109375 70.04289063 112.0821875 69.58203125 111.609375 C64.07339238 106.00552509 58.34671648 101.36632749 51.625 97.3125 C51.03734863 96.95639648 50.44969727 96.60029297 49.84423828 96.23339844 C24.20563168 81.21224023 -4.84648189 78.45590995 -33.44726562 85.31103516 C-50.75000688 89.9809219 -67.00992925 99.67886714 -79.5 112.5 C-80.7375 113.7375 -80.7375 113.7375 -82 115 C-82.66 115 -83.32 115 -84 115 C-84 104.44 -84 93.88 -84 83 C-87.3 82.34 -90.6 81.68 -94 81 C-99.61 79.02 -105.22 77.04 -111 75 C-111 91.5 -111 108 -111 125 C-109.02 125.66 -107.04 126.32 -105 127 C-102.06247085 129.54585859 -101.99978359 131.00227234 -101.625 134.9375 C-101.76354998 138.64371197 -102.61847525 141.06889262 -105 144 C-105.66 144 -106.32 144 -107 144 C-107 155.55 -107 167.1 -107 179 C-110.96 179 -114.92 179 -119 179 C-119.0093457 177.99622314 -119.01869141 176.99244629 -119.02832031 175.95825195 C-119.06830231 172.2211529 -119.13408256 168.48487002 -119.20751953 164.74829102 C-119.23568186 163.13348911 -119.25692 161.51855057 -119.27099609 159.90356445 C-119.29249258 157.57692763 -119.33917211 155.25192523 -119.390625 152.92578125 C-119.39185364 152.20787918 -119.39308228 151.48997711 -119.39434814 150.75032043 C-119.53614492 145.85807815 -120.70432002 143.54692921 -124 140 C-125.0365991 135.5487215 -124.54046463 131.96082601 -122.3125 128 C-120 126 -120 126 -115 125 C-115 107.84 -115 90.68 -115 73 C-118.465 72.505 -118.465 72.505 -122 72 C-123.40570697 71.6444415 -124.80353047 71.25340753 -126.18359375 70.80859375 C-126.88291016 70.58623047 -127.58222656 70.36386719 -128.30273438 70.13476562 C-129.00720703 69.90466797 -129.71167969 69.67457031 -130.4375 69.4375 C-131.53481445 69.08655273 -131.53481445 69.08655273 -132.65429688 68.72851562 C-134.43780179 68.15732778 -136.21913583 67.57936877 -138 67 C-138 66.34 -138 65.68 -138 65 C-117.20972518 54.5105855 -117.20972518 54.5105855 -107.3125 49.9375 C-100.61791897 46.83354791 -94.09503813 43.46255656 -87.58178711 39.99633789 C-73.63793917 32.59495071 -59.49618432 25.57266479 -45.1706543 18.94140625 C-39.75693995 16.41137565 -34.4673747 13.67236719 -29.1875 10.875 C-28.38554199 10.45154297 -27.58358398 10.02808594 -26.75732422 9.59179688 C-23.29669157 7.76083495 -19.8447063 5.91781054 -16.4140625 4.03125 C-10.60141019 0.92726438 -6.61962356 -0.76380272 0 0 Z " fill="#112146" transform="translate(258,104)"/>
<path d="M0 0 C0.24532471 0.54712646 0.49064941 1.09425293 0.7434082 1.65795898 C23.08201045 51.05458648 61.4298353 90.63476569 112.68212891 110.01416016 C117.74636979 111.81608555 122.85239777 113.45383376 128 115 C125.57909548 120.5719231 121.08482741 124.60829908 117 129 C116.46503906 129.62390625 115.93007813 130.2478125 115.37890625 130.890625 C111.59138756 135.10116526 107.17953825 137.95544341 102.375 140.875 C101.72901855 141.26888916 101.08303711 141.66277832 100.41748047 142.06860352 C97.00603458 144.0698268 93.98881067 145.7597102 90 146 C88.11328125 145.36328125 88.11328125 145.36328125 86.3125 144.3125 C83.3795518 142.66686063 80.46925998 141.36658244 77.3203125 140.19140625 C72.08951288 138.12453224 67.3602614 135.54552433 62.5625 132.625 C61.28366943 131.85095825 61.28366943 131.85095825 59.97900391 131.0612793 C46.74237536 122.90676627 34.30148357 113.67839797 23 103 C21.65070436 101.82770322 20.29666328 100.66084179 18.9375 99.5 C10.76647947 92.34625512 3.71544263 84.52213531 -3 76 C-3.79277344 75.01257813 -4.58554688 74.02515625 -5.40234375 73.0078125 C-11.77075581 64.93914509 -17.45197662 56.49993496 -22.88232422 47.7734375 C-23.82200681 46.28242519 -24.81355618 44.8242801 -25.81640625 43.375 C-27.36927663 40.25900927 -27.44298876 38.45871997 -27 35 C-26.05598955 32.29325398 -24.82214697 29.79036973 -23.5 27.25 C-23.1397876 26.54552734 -22.7795752 25.84105469 -22.40844727 25.11523438 C-19.26158642 19.14570569 -15.49535247 14.03371803 -11 9 C-10.34386719 8.22527344 -9.68773437 7.45054687 -9.01171875 6.65234375 C-3.34490741 0 -3.34490741 0 0 0 Z " fill="#028D4B" transform="translate(198,227)"/>
<path d="M0 0 C0.53367188 1.06476563 1.06734375 2.12953125 1.6171875 3.2265625 C19.60243731 38.5139744 48.52328565 66.52352738 86.53515625 79.22265625 C87.34855469 79.47917969 88.16195312 79.73570312 89 80 C89.61525776 93.69090509 89.05039223 105.20015346 84 118 C83.505 119.485 83.505 119.485 83 121 C76.70419728 120.47475017 71.51449667 118.96188553 65.6875 116.5625 C64.82084717 116.20833008 63.95419434 115.85416016 63.0612793 115.48925781 C32.7314686 102.8131285 6.18309121 83.03618766 -14 57 C-14.42925781 56.4524707 -14.85851562 55.90494141 -15.30078125 55.34082031 C-25.19047129 42.65095146 -35.5807884 27.66811385 -40 12 C-39 9 -39 9 -36.078125 7.5 C-34.80805331 6.98502404 -33.5314506 6.48596985 -32.25 6 C-31.57549805 5.73944824 -30.90099609 5.47889648 -30.20605469 5.21044922 C-20.21461582 1.46190141 -10.70472195 -0.57921341 0 0 Z " fill="#F47F21" transform="translate(252,206)"/>
<path d="M0 0 C3.34096473 3.11368822 5.87560248 6.5618988 8.4375 10.3125 C21.51757583 28.93547792 37.91135562 46.19763648 56 60 C56.99902344 60.804375 57.99804688 61.60875 59.02734375 62.4375 C70.76990218 71.83550228 83.71212682 79.03114914 97 86 C97 86.66 97 87.32 97 88 C71.63294694 89.01243227 48.53673957 83.64556988 29.0625 66.3984375 C12.90680217 50.82613987 1.19457426 31.03354991 -0.234375 8.265625 C-0.24738516 5.49446137 -0.19170179 2.76370081 0 0 Z " fill="#059CDF" transform="translate(166,293)"/>
<path d="M0 0 C19.85207073 2.65304171 38.34755496 14.7793277 50.73046875 30.32421875 C65 49.1659545 65 49.1659545 65 59 C37.35825366 51.0098077 13.93478144 24.88179585 0 1 C0 0.67 0 0.34 0 0 Z " fill="#EC2427" transform="translate(272,208)"/>
</svg>
