<?xml version="1.0" encoding="UTF-8"?>
<svg version="1.1" xmlns="http://www.w3.org/2000/svg" width="980" height="980">
<path d="M0 0 C323.4 0 646.8 0 980 0 C980 323.4 980 646.8 980 980 C656.6 980 333.2 980 0 980 C0 656.6 0 333.2 0 0 Z " fill="#333333" transform="translate(0,0)"/>
<path d="M0 0 C10.6661774 7.64828532 15.26138729 15.53795764 19 28 C19 38.89 19 49.78 19 61 C49.69 61 80.38 61 112 61 C112 50.44 112 39.88 112 29 C115.93160539 15.89464869 120.61106566 6.54236653 132.66015625 -0.5703125 C142.30513978 -5.54195349 152.84361403 -6.88668357 163.4375 -4.09375 C175.79053933 0.82225545 184.45931545 8.84937598 190 21 C193.6675242 33.8363347 192 47.6500104 192 61 C222.69 61 253.38 61 285 61 C285 49.45 285 37.9 285 26 C290.9806736 11.64638336 295.62745663 3.75042449 309.625 -2.9375 C319.7527396 -6.8288198 330.30140898 -6.07980869 340.34375 -2.2734375 C344.36224205 -0.34692513 347.62849398 2.11688971 351 5 C351.886875 5.61875 352.77375 6.2375 353.6875 6.875 C359.22285173 11.96153942 363.32466496 19.60811628 364.26342773 27.10321045 C364.34353088 29.29368917 364.33844357 31.46482231 364.29296875 33.65625 C364.28872391 34.44398804 364.28447906 35.23172607 364.28010559 36.04333496 C364.26347617 38.5292559 364.22585614 41.01432919 364.1875 43.5 C364.17243271 45.19790486 364.15874791 46.89582258 364.14648438 48.59375 C364.11362466 52.72948719 364.06195474 56.8646005 364 61 C364.6064183 60.99111755 365.21283661 60.98223511 365.83763123 60.9730835 C372.18096437 60.88420732 378.52411902 60.82409935 384.86791992 60.78027344 C387.23159985 60.76022718 389.59523061 60.73298281 391.95874023 60.69824219 C395.36714857 60.64941729 398.77489803 60.62696052 402.18359375 60.609375 C403.23083115 60.58872986 404.27806854 60.56808472 405.35704041 60.54681396 C412.7302884 60.54458713 419.30686381 61.56428209 424.88157654 66.75042725 C429.86136817 72.14996713 431.24891253 76.88632014 431.26006222 84.2403059 C431.26386789 84.96232635 431.26767356 85.68434679 431.27159455 86.42824665 C431.28192397 88.85443316 431.2780017 91.2803863 431.27415466 93.70658875 C431.27860634 95.46094438 431.28392015 97.215298 431.29002339 98.96964866 C431.30422235 103.79613167 431.30586632 108.62255035 431.30542648 113.44905126 C431.30707302 118.65235249 431.32013652 123.85562709 431.33161926 129.05891418 C431.35448127 140.43909152 431.36239119 151.81925021 431.36744571 163.19944739 C431.37070139 170.30447973 431.37722309 177.40950664 431.3844471 184.5145359 C431.40401474 204.18403671 431.42041794 223.85353247 431.42332363 243.52304363 C431.4235112 244.7820548 431.42369877 246.04106597 431.42389202 247.33822899 C431.42425828 249.89058769 431.42462198 252.44294639 431.42498314 254.99530508 C431.42516595 256.26231095 431.42534876 257.52931681 431.42553711 258.8347168 C431.42580793 260.73754372 431.42580793 260.73754372 431.42608423 262.67881159 C431.4296261 283.23533921 431.45664862 303.79176209 431.494035 324.34825339 C431.53210667 345.45031716 431.55148103 366.55232894 431.55178314 387.65442783 C431.55236798 399.50369178 431.56087669 411.35283079 431.58978081 423.20206261 C431.61427941 433.2917191 431.62158781 443.38120509 431.60653328 453.47088327 C431.59935818 458.61848399 431.60024794 463.76574792 431.62294388 468.913311 C431.64353243 473.62809628 431.64093453 478.34228582 431.62006903 483.05706463 C431.61657392 484.76031643 431.6214851 486.46361121 431.63577347 488.16680666 C431.77298948 505.65383145 431.77298948 505.65383145 426 513 C419.77466283 518.08010727 414.34183903 519.14845329 406.41002464 519.1398077 C405.51779817 519.14275912 404.6255717 519.14571055 403.70630807 519.14875141 C400.68915542 519.15747655 397.67204096 519.15902614 394.65487671 519.16062927 C392.48080625 519.16535791 390.30673668 519.1705085 388.13266814 519.17604691 C382.13679275 519.18998316 376.14092346 519.19754511 370.14503598 519.2040199 C365.00760669 519.21038226 359.87018745 519.22045355 354.73276441 519.23058056 C337.80455489 519.263935 320.87633934 519.28547148 303.94810766 519.30378041 C299.54191773 519.30854776 295.13572808 519.3135565 290.72953844 519.31858563 C263.38368443 519.34963087 236.03782799 519.37625115 208.69196129 519.39300442 C202.35535045 519.39694171 196.01873966 519.40095354 189.68212891 519.4050293 C188.89487745 519.40553096 188.107626 519.40603263 187.29651845 519.4065495 C161.77047257 519.42296855 136.24452253 519.46142631 110.7185238 519.5123164 C84.48078248 519.56453018 58.24309221 519.59731782 32.00529788 519.60458195 C28.29992493 519.60561056 24.59455207 519.60684688 20.88917923 519.60820198 C20.15992208 519.60846002 19.43066494 519.60871806 18.67930909 519.60898391 C6.94019063 519.61368006 -4.79880158 519.63861972 -16.53787278 519.67095341 C-28.33684627 519.70297832 -40.13566513 519.71246887 -51.93467696 519.70052146 C-58.32770583 519.69468306 -64.72033847 519.69864242 -71.11330795 519.7286911 C-76.964918 519.75597125 -82.81584875 519.75561636 -88.66747336 519.73318065 C-90.78530562 519.72994732 -92.90318269 519.73688625 -95.02094014 519.75497787 C-114.65490298 519.9125502 -114.65490298 519.9125502 -120.40850765 514.84042388 C-120.93370012 514.233084 -121.4588926 513.62574412 -122 513 C-122.79540389 512.11325947 -122.79540389 512.11325947 -123.60687655 511.20860499 C-128.66375103 504.06315673 -127.68433103 495.05432636 -127.61473083 486.70281982 C-127.61834608 484.93319562 -127.6241521 483.16357476 -127.63195282 481.39396405 C-127.64698466 476.54388726 -127.63090713 471.69434009 -127.6096462 466.84430504 C-127.59214717 461.6091316 -127.60353698 456.37401028 -127.61131287 451.13882446 C-127.62198132 440.88926922 -127.60604333 430.63991953 -127.5811746 420.39039561 C-127.55324496 408.4577617 -127.55190162 396.52516941 -127.55173159 384.59250823 C-127.5505444 363.30641979 -127.52557477 342.02042581 -127.48706055 320.734375 C-127.44969702 300.07095202 -127.42846367 279.40759772 -127.42553711 258.74414062 C-127.4253543 257.47089805 -127.42517149 256.19765547 -127.42498314 254.88582978 C-127.42480417 253.61480437 -127.4246252 252.34377896 -127.4244408 251.03423762 C-127.42407539 248.4752113 -127.42370302 245.91618498 -127.42332363 243.35715866 C-127.42313812 242.09518986 -127.4229526 240.83322105 -127.42276147 239.53301077 C-127.4191931 219.84968281 -127.40074452 200.16636548 -127.38083039 180.4830483 C-127.37380408 173.34484447 -127.36902353 166.20664315 -127.36586904 159.06843659 C-127.36082435 147.7493394 -127.3494214 136.43029003 -127.32456874 125.11121747 C-127.31333226 119.93799355 -127.30523318 114.76481671 -127.30570221 109.59157944 C-127.30600977 104.85948187 -127.29711309 100.12749579 -127.28073419 95.39542738 C-127.27640416 93.68028082 -127.27545469 91.96512184 -127.27816027 90.24997196 C-127.28131171 87.92462711 -127.27225651 85.59964155 -127.26006222 83.27433395 C-127.2581113 81.9809488 -127.25616037 80.68756364 -127.25415033 79.354985 C-127.00979249 76.12926854 -126.39278429 73.89580518 -125 71 C-124.34 71 -123.68 71 -123 71 C-122.773125 70.4225 -122.54625 69.845 -122.3125 69.25 C-120.18456832 65.60211711 -117.36763511 63.61640276 -113.54833984 61.89501953 C-108.50329681 60.62247737 -103.65869256 60.75435172 -98.4765625 60.8046875 C-97.37524994 60.8075174 -96.27393738 60.81034729 -95.13925171 60.81326294 C-91.63438892 60.82442522 -88.12978508 60.84952289 -84.625 60.875 C-82.24349328 60.88503489 -79.86198255 60.89415985 -77.48046875 60.90234375 C-71.65355803 60.92435163 -65.82679752 60.95779001 -60 61 C-60.0314209 59.44273193 -60.0314209 59.44273193 -60.06347656 57.85400391 C-60.13651958 53.95896495 -60.18203034 50.06398503 -60.21972656 46.16845703 C-60.23969699 44.49061869 -60.26688332 42.81284864 -60.30175781 41.13525391 C-60.57699913 27.54319023 -59.36365558 18.05885426 -50.26953125 7.328125 C-36.72410868 -6.56700727 -17.01887023 -9.59408059 0 0 Z " fill="#333333" transform="translate(338,233)"/>
<path d="M0 0 C10.6661774 7.64828532 15.26138729 15.53795764 19 28 C19 38.89 19 49.78 19 61 C49.69 61 80.38 61 112 61 C112 50.44 112 39.88 112 29 C115.93160539 15.89464869 120.61106566 6.54236653 132.66015625 -0.5703125 C142.30513978 -5.54195349 152.84361403 -6.88668357 163.4375 -4.09375 C175.79053933 0.82225545 184.45931545 8.84937598 190 21 C193.6675242 33.8363347 192 47.6500104 192 61 C222.69 61 253.38 61 285 61 C285 49.45 285 37.9 285 26 C290.9806736 11.64638336 295.62745663 3.75042449 309.625 -2.9375 C319.7527396 -6.8288198 330.30140898 -6.07980869 340.34375 -2.2734375 C344.36224205 -0.34692513 347.62849398 2.11688971 351 5 C351.886875 5.61875 352.77375 6.2375 353.6875 6.875 C359.22285173 11.96153942 363.32466496 19.60811628 364.26342773 27.10321045 C364.34353088 29.29368917 364.33844357 31.46482231 364.29296875 33.65625 C364.28872391 34.44398804 364.28447906 35.23172607 364.28010559 36.04333496 C364.26347617 38.5292559 364.22585614 41.01432919 364.1875 43.5 C364.17243271 45.19790486 364.15874791 46.89582258 364.14648438 48.59375 C364.11362466 52.72948719 364.06195474 56.8646005 364 61 C364.6064183 60.99111755 365.21283661 60.98223511 365.83763123 60.9730835 C372.18096437 60.88420732 378.52411902 60.82409935 384.86791992 60.78027344 C387.23159985 60.76022718 389.59523061 60.73298281 391.95874023 60.69824219 C395.36714857 60.64941729 398.77489803 60.62696052 402.18359375 60.609375 C403.23083115 60.58872986 404.27806854 60.56808472 405.35704041 60.54681396 C412.7302884 60.54458713 419.30686381 61.56428209 424.88157654 66.75042725 C429.86136817 72.14996713 431.24891253 76.88632014 431.26006222 84.2403059 C431.26386789 84.96232635 431.26767356 85.68434679 431.27159455 86.42824665 C431.28192397 88.85443316 431.2780017 91.2803863 431.27415466 93.70658875 C431.27860634 95.46094438 431.28392015 97.215298 431.29002339 98.96964866 C431.30422235 103.79613167 431.30586632 108.62255035 431.30542648 113.44905126 C431.30707302 118.65235249 431.32013652 123.85562709 431.33161926 129.05891418 C431.35448127 140.43909152 431.36239119 151.81925021 431.36744571 163.19944739 C431.37070139 170.30447973 431.37722309 177.40950664 431.3844471 184.5145359 C431.40401474 204.18403671 431.42041794 223.85353247 431.42332363 243.52304363 C431.4235112 244.7820548 431.42369877 246.04106597 431.42389202 247.33822899 C431.42425828 249.89058769 431.42462198 252.44294639 431.42498314 254.99530508 C431.42516595 256.26231095 431.42534876 257.52931681 431.42553711 258.8347168 C431.42580793 260.73754372 431.42580793 260.73754372 431.42608423 262.67881159 C431.4296261 283.23533921 431.45664862 303.79176209 431.494035 324.34825339 C431.53210667 345.45031716 431.55148103 366.55232894 431.55178314 387.65442783 C431.55236798 399.50369178 431.56087669 411.35283079 431.58978081 423.20206261 C431.61427941 433.2917191 431.62158781 443.38120509 431.60653328 453.47088327 C431.59935818 458.61848399 431.60024794 463.76574792 431.62294388 468.913311 C431.64353243 473.62809628 431.64093453 478.34228582 431.62006903 483.05706463 C431.61657392 484.76031643 431.6214851 486.46361121 431.63577347 488.16680666 C431.77298948 505.65383145 431.77298948 505.65383145 426 513 C419.77466283 518.08010727 414.34183903 519.14845329 406.41002464 519.1398077 C405.51779817 519.14275912 404.6255717 519.14571055 403.70630807 519.14875141 C400.68915542 519.15747655 397.67204096 519.15902614 394.65487671 519.16062927 C392.48080625 519.16535791 390.30673668 519.1705085 388.13266814 519.17604691 C382.13679275 519.18998316 376.14092346 519.19754511 370.14503598 519.2040199 C365.00760669 519.21038226 359.87018745 519.22045355 354.73276441 519.23058056 C337.80455489 519.263935 320.87633934 519.28547148 303.94810766 519.30378041 C299.54191773 519.30854776 295.13572808 519.3135565 290.72953844 519.31858563 C263.38368443 519.34963087 236.03782799 519.37625115 208.69196129 519.39300442 C202.35535045 519.39694171 196.01873966 519.40095354 189.68212891 519.4050293 C188.89487745 519.40553096 188.107626 519.40603263 187.29651845 519.4065495 C161.77047257 519.42296855 136.24452253 519.46142631 110.7185238 519.5123164 C84.48078248 519.56453018 58.24309221 519.59731782 32.00529788 519.60458195 C28.29992493 519.60561056 24.59455207 519.60684688 20.88917923 519.60820198 C20.15992208 519.60846002 19.43066494 519.60871806 18.67930909 519.60898391 C6.94019063 519.61368006 -4.79880158 519.63861972 -16.53787278 519.67095341 C-28.33684627 519.70297832 -40.13566513 519.71246887 -51.93467696 519.70052146 C-58.32770583 519.69468306 -64.72033847 519.69864242 -71.11330795 519.7286911 C-76.964918 519.75597125 -82.81584875 519.75561636 -88.66747336 519.73318065 C-90.78530562 519.72994732 -92.90318269 519.73688625 -95.02094014 519.75497787 C-114.65490298 519.9125502 -114.65490298 519.9125502 -120.40850765 514.84042388 C-120.93370012 514.233084 -121.4588926 513.62574412 -122 513 C-122.79540389 512.11325947 -122.79540389 512.11325947 -123.60687655 511.20860499 C-128.66375103 504.06315673 -127.68433103 495.05432636 -127.61473083 486.70281982 C-127.61834608 484.93319562 -127.6241521 483.16357476 -127.63195282 481.39396405 C-127.64698466 476.54388726 -127.63090713 471.69434009 -127.6096462 466.84430504 C-127.59214717 461.6091316 -127.60353698 456.37401028 -127.61131287 451.13882446 C-127.62198132 440.88926922 -127.60604333 430.63991953 -127.5811746 420.39039561 C-127.55324496 408.4577617 -127.55190162 396.52516941 -127.55173159 384.59250823 C-127.5505444 363.30641979 -127.52557477 342.02042581 -127.48706055 320.734375 C-127.44969702 300.07095202 -127.42846367 279.40759772 -127.42553711 258.74414062 C-127.4253543 257.47089805 -127.42517149 256.19765547 -127.42498314 254.88582978 C-127.42480417 253.61480437 -127.4246252 252.34377896 -127.4244408 251.03423762 C-127.42407539 248.4752113 -127.42370302 245.91618498 -127.42332363 243.35715866 C-127.42313812 242.09518986 -127.4229526 240.83322105 -127.42276147 239.53301077 C-127.4191931 219.84968281 -127.40074452 200.16636548 -127.38083039 180.4830483 C-127.37380408 173.34484447 -127.36902353 166.20664315 -127.36586904 159.06843659 C-127.36082435 147.7493394 -127.3494214 136.43029003 -127.32456874 125.11121747 C-127.31333226 119.93799355 -127.30523318 114.76481671 -127.30570221 109.59157944 C-127.30600977 104.85948187 -127.29711309 100.12749579 -127.28073419 95.39542738 C-127.27640416 93.68028082 -127.27545469 91.96512184 -127.27816027 90.24997196 C-127.28131171 87.92462711 -127.27225651 85.59964155 -127.26006222 83.27433395 C-127.2581113 81.9809488 -127.25616037 80.68756364 -127.25415033 79.354985 C-127.00979249 76.12926854 -126.39278429 73.89580518 -125 71 C-124.34 71 -123.68 71 -123 71 C-122.773125 70.4225 -122.54625 69.845 -122.3125 69.25 C-120.18456832 65.60211711 -117.36763511 63.61640276 -113.54833984 61.89501953 C-108.50329681 60.62247737 -103.65869256 60.75435172 -98.4765625 60.8046875 C-97.37524994 60.8075174 -96.27393738 60.81034729 -95.13925171 60.81326294 C-91.63438892 60.82442522 -88.12978508 60.84952289 -84.625 60.875 C-82.24349328 60.88503489 -79.86198255 60.89415985 -77.48046875 60.90234375 C-71.65355803 60.92435163 -65.82679752 60.95779001 -60 61 C-60.0314209 59.44273193 -60.0314209 59.44273193 -60.06347656 57.85400391 C-60.13651958 53.95896495 -60.18203034 50.06398503 -60.21972656 46.16845703 C-60.23969699 44.49061869 -60.26688332 42.81284864 -60.30175781 41.13525391 C-60.57699913 27.54319023 -59.36365558 18.05885426 -50.26953125 7.328125 C-36.72410868 -6.56700727 -17.01887023 -9.59408059 0 0 Z M-109 175 C-109.020625 228.769375 -109.04125 282.53875 -109.0625 337.9375 C-109.071604 354.94788818 -109.08070801 371.95827637 -109.09008789 389.48413086 C-109.09343125 404.66321554 -109.09343125 404.66321554 -109.09544373 419.84230042 C-109.0963796 426.63059329 -109.10006179 433.41887802 -109.10557556 440.20716858 C-109.111917 448.02593015 -109.11484158 455.84468385 -109.11344495 463.66344801 C-109.11283952 467.66763465 -109.1138348 471.67180368 -109.11921513 475.67598712 C-109.12404175 479.28982928 -109.12434954 482.90364119 -109.12090111 486.51748466 C-109.12026951 488.45745681 -109.12461462 490.39742856 -109.12908077 492.33739567 C-109.1270899 493.47533258 -109.12509903 494.6132695 -109.12304783 495.78568935 C-109.12342755 496.77562025 -109.12380727 497.76555116 -109.1241985 498.78547996 C-109.2481955 500.97393863 -109.2481955 500.97393863 -108 502 C-105.24474166 502.09989559 -102.51449297 502.13360173 -99.75871277 502.12584114 C-98.8799042 502.12729458 -98.00109564 502.12874802 -97.09565651 502.13024551 C-94.11217541 502.13393298 -91.12874452 502.13040646 -88.14526367 502.12698364 C-86.00021685 502.12813438 -83.85517022 502.12972158 -81.71012402 502.13171089 C-75.7854903 502.13591075 -69.86087256 502.13381057 -63.93623877 502.13072467 C-57.55853507 502.12847344 -51.18083424 502.13194879 -44.8031311 502.13470459 C-33.02119758 502.13890612 -21.23926978 502.1385253 -9.45733598 502.13579312 C1.42530399 502.13328175 12.30794208 502.13261891 23.19058228 502.13381577 C23.91126874 502.13389215 24.6319552 502.13396854 25.37448064 502.13404724 C28.29967069 502.13435855 31.22486073 502.13467695 34.15005078 502.135007 C61.61427937 502.13806891 89.0785047 502.13528793 116.54273279 502.1299101 C140.96566476 502.12516418 165.38859151 502.12558879 189.81152344 502.13037109 C217.22416482 502.13572082 244.63680332 502.1378518 272.04944515 502.13475883 C274.96943601 502.13443809 277.88942687 502.13412525 280.80941772 502.13381577 C281.88795421 502.13369715 281.88795421 502.13369715 282.98827932 502.13357614 C293.86650545 502.13243664 304.74472949 502.13377271 315.62295532 502.13629532 C327.98674052 502.13914805 340.35051868 502.13835696 352.71430326 502.13301457 C359.02921858 502.13037634 365.34412329 502.12937454 371.65903854 502.13266373 C377.42991063 502.13562421 383.20076217 502.13403806 388.97163236 502.12868617 C391.06918358 502.12756092 393.1667365 502.12815553 395.26428664 502.13056196 C398.09578737 502.13356344 400.92721593 502.13052409 403.75871277 502.12584114 C404.59005954 502.12818231 405.4214063 502.13052347 406.2779454 502.13293558 C409.93918841 502.46856625 409.93918841 502.46856625 413 501 C413.09735344 499.2641404 413.12371472 497.52427666 413.12304783 495.78568935 C413.1250387 494.64775244 413.12702957 493.50981552 413.12908077 492.33739567 C413.12471178 490.43962958 413.12471178 490.43962958 413.12025452 488.50352478 C413.12069152 487.16123942 413.12156767 485.81895414 413.12284851 484.47666931 C413.12510336 480.76354565 413.12106197 477.05045054 413.11607273 473.33733051 C413.11172504 469.2809838 413.11316608 465.22463854 413.11389065 461.16829014 C413.11442365 453.28404564 413.10979327 445.39981247 413.10338932 437.51557088 C413.09620703 428.40137066 413.09539554 419.28717731 413.09460449 410.17297363 C413.08934789 386.09448062 413.07538687 362.01599014 413.0625 337.9375 C413.0315625 257.2834375 413.0315625 257.2834375 413 175 C240.74 175 68.48 175 -109 175 Z " fill="#FCFCFA" transform="translate(338,233)"/>
<path d="M0 0 C0.33 0 0.66 0 1 0 C1 155.76 1 311.52 1 472 C-155.09 472 -311.18 472 -472 472 C-472 471.67 -472 471.34 -472 471 C-471.22624023 470.9498877 -470.45248047 470.89977539 -469.65527344 470.84814453 C-461.97689789 470.34649066 -454.30102918 469.81667003 -446.62646484 469.26025391 C-444.51000623 469.10836587 -442.39325401 468.9603043 -440.27587891 468.82177734 C-406.43308807 466.57699337 -372.09279107 458.1924462 -339.90234375 447.91943359 C-337.34661853 447.1098053 -334.78613988 446.32243436 -332.21875 445.55078125 C-324.25379379 443.15116554 -316.60699174 440.36718462 -309 437 C-306.98620819 436.11580826 -304.97172596 435.23320661 -302.95703125 434.35107422 C-301.62253147 433.76550924 -300.28909473 433.17751199 -298.95703125 432.58642578 C-295.42544191 431.02639877 -291.87693181 429.55673153 -288.27734375 428.16015625 C-255.89151558 415.2829341 -224.1234566 395.78559708 -196.73486328 374.35400391 C-195.00924892 373.00721848 -193.27095957 371.6788411 -191.52734375 370.35546875 C-181.30033658 362.58282502 -171.41954879 354.52925804 -162.01953125 345.7734375 C-159.8198438 343.72941796 -157.56670738 341.76130659 -155.2890625 339.8046875 C-150.16532033 335.3372749 -145.3693329 330.55336727 -140.5625 325.75 C-139.67240234 324.87214844 -138.78230469 323.99429687 -137.86523438 323.08984375 C-132.58001207 317.81620338 -127.69836549 312.38175941 -123.0612793 306.52880859 C-120.89323399 303.86901785 -118.60338078 301.3713774 -116.25 298.875 C-110.24098457 292.33577732 -104.95731611 285.28312967 -99.63916016 278.17871094 C-98.05926853 276.07877754 -96.46089254 273.99451442 -94.85546875 271.9140625 C-88.39013529 263.49337496 -82.58086213 254.84040795 -77.08007812 245.76318359 C-75.57854985 243.31199977 -74.00691811 240.9081209 -72.4375 238.5 C-65.17562074 227.06926413 -58.93208686 215.06817723 -52.6875 203.0625 C-52.0886499 201.91330078 -51.4897998 200.76410156 -50.87280273 199.58007812 C-45.87118722 189.90742779 -41.58278703 180.08852494 -37.5 170 C-35.38380525 164.77090444 -33.27149337 159.55503188 -30.921875 154.42578125 C-28.84056878 149.78294647 -27.25982781 145.04226052 -25.75 140.1875 C-25.45625488 139.2495459 -25.16250977 138.3115918 -24.85986328 137.34521484 C-23.89433895 134.23374301 -22.94411683 131.1180329 -22 128 C-21.49581543 126.33493408 -21.49581543 126.33493408 -20.98144531 124.63623047 C-16.15654207 108.5585251 -12.11425226 92.4925374 -9 76 C-8.81985352 75.06994141 -8.63970703 74.13988281 -8.45410156 73.18164062 C-3.74334503 48.83563307 -1.29935451 24.73205835 0 0 Z " fill="#FEFEFE" transform="translate(979,508)"/>
<path d="M0 0 C0.33 0 0.66 0 1 0 C1.0501123 0.77375977 1.10022461 1.54751953 1.15185547 2.34472656 C1.65350934 10.02310211 2.18332997 17.69897082 2.73974609 25.37353516 C2.89163413 27.48999377 3.0396957 29.60674599 3.17822266 31.72412109 C5.54949285 67.47384222 14.20696107 104.82217009 26.13476562 138.45507812 C26.97535357 140.92750724 27.70852644 143.41016873 28.421875 145.921875 C30.1586806 151.81095709 32.56795257 157.36986564 35 163 C35.48130371 164.13566406 35.96260742 165.27132812 36.45849609 166.44140625 C46.40217797 189.89535207 57.23808515 212.30046825 70.32324219 234.19335938 C71.8527663 236.75355291 73.36893202 239.32116564 74.8828125 241.890625 C80.89838312 252.01092517 87.51401982 261.58351158 94.53662109 271.02978516 C95.81127057 272.74590482 97.07281109 274.47174586 98.33203125 276.19921875 C107.31883129 288.42059988 117.02726718 300.12575406 127.40234375 311.19140625 C129.3836025 313.33354917 131.29535299 315.49880019 133.1953125 317.7109375 C137.5556014 322.71461545 142.23570633 327.38186969 146.9375 332.0625 C147.79279297 332.92166016 148.64808594 333.78082031 149.52929688 334.66601562 C154.5241481 339.65324694 159.62833837 344.42292489 165 349 C166.11791588 349.9731222 167.23513138 350.94704973 168.3515625 351.921875 C175.8441136 358.41127247 183.48939566 364.65149772 191.33691406 370.70605469 C192.89111884 371.91528624 194.42680239 373.14821828 195.9609375 374.3828125 C210.93578634 386.29194425 227.42649438 396.46847487 244 406 C244.96873047 406.56050049 244.96873047 406.56050049 245.95703125 407.13232422 C315.93885357 447.42539543 391.79604563 467.06559252 472 472 C472 472.33 472 472.66 472 473 C316.24 473 160.48 473 0 473 C0 316.91 0 160.82 0 0 Z " fill="#FEFEFE" transform="translate(0,507)"/>
<path d="M0 0 C157.08 0 314.16 0 476 0 C476 155.76 476 311.52 476 472 C475.67 472 475.34 472 475 472 C474.96036133 471.18249268 474.92072266 470.36498535 474.87988281 469.52270508 C471.55986557 403.72308155 456.7338636 339.48256765 428 280 C427.45496826 278.87029785 427.45496826 278.87029785 426.89892578 277.71777344 C424.98629892 273.77898896 423.02259975 269.86952749 421.015625 265.97802734 C419.93491862 263.87324775 418.87413597 261.75898715 417.8125 259.64453125 C405.96610944 236.32396601 391.47023802 214.17259105 375.28125 193.6328125 C373.93698013 191.91968809 372.60821192 190.1953084 371.28125 188.46875 C366.18897331 181.87136689 360.93801654 175.56404146 355.26953125 169.44921875 C353.28619538 167.30885456 351.35039811 165.14063092 349.4375 162.9375 C348.87546875 162.29425781 348.3134375 161.65101563 347.734375 160.98828125 C346.55363812 159.63468874 345.37669523 158.27777947 344.203125 156.91796875 C333.85269903 145.14335626 322.80015915 133.60134397 310.4375 123.93359375 C307.85666479 121.88629659 305.43126604 119.72232912 303 117.5 C292.93529362 108.37885984 282.21495494 100.42052456 271.16455078 92.55175781 C269.24147839 91.17311489 267.33409029 89.77669079 265.43359375 88.3671875 C256.42440247 81.72279346 246.94260626 75.97938333 237.28173828 70.33398438 C235.36872589 69.21557011 233.46243174 68.08703274 231.55859375 66.953125 C205.64401872 51.77412486 178.35763547 38.91610281 150 29 C149.35643555 28.77183594 148.71287109 28.54367188 148.04980469 28.30859375 C126.82723026 20.82188316 105.11782886 14.74480187 83.00195312 10.58105469 C80.02721742 10.00526817 77.06997386 9.37072176 74.109375 8.7265625 C49.73745082 3.66658138 24.78535108 2.64073653 0 1 C0 0.67 0 0.34 0 0 Z " fill="#FEFEFE" transform="translate(504,0)"/>
<path d="M0 0 C155.76 0 311.52 0 472 0 C472 0.33 472 0.66 472 1 C471.13536133 1.04487549 470.27072266 1.08975098 469.37988281 1.13598633 C453.64452091 1.97499666 438.03917982 2.85937055 422.49511719 5.57910156 C419.77511038 6.03793637 417.05023461 6.44046869 414.3203125 6.8359375 C365.94212294 13.94761738 320.02318802 28.85557318 276 50 C275.11119141 50.42249023 274.22238281 50.84498047 273.30664062 51.28027344 C243.28566576 65.59850165 215.46474867 83.73139382 189.29931641 104.20141602 C187.74795989 105.41492668 186.19284708 106.6236485 184.63427734 107.82788086 C168.17122342 120.54933162 153.11125306 134.8364075 138.375 149.5 C137.417146 150.45084473 137.417146 150.45084473 136.43994141 151.42089844 C132.66698607 155.20677145 129.0919821 159.11576534 125.59863281 163.16064453 C123.51718703 165.55551511 121.35221041 167.867904 119.1875 170.1875 C114.27442948 175.58818353 109.78265367 181.24517625 105.421875 187.09375 C104.4253826 188.42970684 103.42505054 189.76280424 102.421875 191.09375 C88.9642665 208.95337997 76.59120038 227.42367175 65.32128906 246.74072266 C64.13066617 248.77657341 62.92299574 250.80109599 61.7109375 252.82421875 C23.43130707 317.71664905 2.74342059 396.94574352 1 472 C0.67 472 0.34 472 0 472 C0 316.24 0 160.48 0 0 Z " fill="#FEFEFE" transform="translate(0,0)"/>
<path d="M0 0 C0.86536377 0.21519287 1.73072754 0.43038574 2.62231445 0.65209961 C10.39027361 2.62613544 18.02768205 4.96293288 25.67651367 7.35131836 C32.20685239 9.36988727 38.74352124 11.05171095 45.41479492 12.52758789 C50.18819226 13.60466514 54.60517767 15.11447415 59.15625 16.8828125 C62.73690618 18.10524082 66.37420726 18.93158937 70.0625 19.75 C76.2191615 21.12225967 82.19288392 22.78869749 88.1875 24.75 C96.16955352 27.35366592 104.21348568 29.54116248 112.34716797 31.61791992 C121.58788577 33.98429397 130.74556012 36.60861402 139.90820312 39.25830078 C142.61876889 40.03424016 145.33874857 40.77182946 148.0625 41.5 C151.80702433 42.50362643 155.49335141 43.63708908 159.1875 44.8125 C164.37460263 46.44237813 169.57309025 47.69987307 174.875 48.875 C189.21737138 52.10730708 189.21737138 52.10730708 193.0625 57.875 C193.73040309 63.99744495 193.73040309 63.99744495 191.48828125 66.94335938 C188.49733652 69.32503759 185.49404098 70.32162673 181.875 71.34375 C180.82203735 71.65644836 180.82203735 71.65644836 179.74780273 71.97546387 C171.19038317 74.4857352 162.5524245 76.70451648 153.91699219 78.92724609 C144.77077871 81.28776087 135.73573694 83.83957849 126.74609375 86.74414062 C122.87085752 87.93383404 119.00250193 88.92354443 115.0625 89.875 C109.65541334 91.1816032 104.35756525 92.66897739 99.0625 94.375 C93.22822653 96.25128875 87.37730475 97.84671887 81.41625977 99.28515625 C74.81519593 100.8952887 68.29913229 102.77607463 61.77294922 104.66381836 C56.69600242 106.12990588 51.61325177 107.54110823 46.5 108.875 C39.94514636 110.5992115 33.47044003 112.54162198 26.98754883 114.51464844 C19.49583801 116.77936841 11.95734419 118.85087211 4.39624023 120.87060547 C3.52555908 121.10408691 2.65487793 121.33756836 1.7578125 121.578125 C0.93571289 121.79791016 0.11361328 122.01769531 -0.73339844 122.24414062 C-3.11556624 122.89452834 -3.11556624 122.89452834 -6.0703125 124.046875 C-13.39208698 126.16161095 -19.43807874 124.42146084 -26.4375 122.125 C-28.21913186 121.5647734 -30.0016983 121.00751084 -31.78515625 120.453125 C-32.66059082 120.18048828 -33.53602539 119.90785156 -34.43798828 119.62695312 C-38.52525706 118.39733915 -42.65828814 117.41033885 -46.80688477 116.40844727 C-54.00779754 114.64806584 -61.11331252 112.57135453 -68.234375 110.515625 C-74.35559595 108.74898332 -80.48922785 107.02781711 -86.625 105.3125 C-87.69049072 105.01424316 -88.75598145 104.71598633 -89.85375977 104.40869141 C-94.42476319 103.1304884 -98.99657487 101.85579451 -103.57421875 100.6015625 C-112.46113351 98.16293147 -121.29684306 95.58155681 -130.125 92.9375 C-140.5907399 89.80824304 -151.09928605 86.94284867 -161.6796875 84.23046875 C-168.56165855 82.46589263 -175.40203831 80.56679207 -182.23730469 78.63037109 C-185.52082655 77.71181624 -188.81138028 76.82017889 -192.1015625 75.92578125 C-194.65116542 75.22180222 -197.20064448 74.51737444 -199.75 73.8125 C-200.97356201 73.4839502 -202.19712402 73.15540039 -203.45776367 72.81689453 C-204.61252197 72.49446777 -205.76728027 72.17204102 -206.95703125 71.83984375 C-207.98932861 71.5574585 -209.02162598 71.27507324 -210.08520508 70.98413086 C-213.88601465 69.50616476 -217.07549839 67.59900322 -218.9375 63.875 C-219.33406306 60.30593243 -219.27234354 58.43136853 -217.40234375 55.32421875 C-214.29986278 52.24140485 -211.32058896 51.45696906 -207.1875 50.5 C-205.55150407 50.08430435 -203.91611585 49.66621183 -202.28125 49.24609375 C-201.41113281 49.02679199 -200.54101562 48.80749023 -199.64453125 48.58154297 C-194.95824013 47.35840746 -190.32830626 45.94639677 -185.6875 44.5625 C-175.20122004 41.47021783 -164.65286049 38.64569156 -154.08203125 35.85839844 C-145.27233376 33.52522625 -136.51951208 31.04102997 -127.78222656 28.45141602 C-120.44720359 26.287498 -113.07830686 24.27672831 -105.6875 22.3125 C-98.06429966 20.28566116 -90.47974581 18.18532762 -82.9375 15.875 C-74.2351036 13.20987441 -65.46795603 10.83098125 -56.67358398 8.48925781 C-49.59561236 6.60123992 -42.54012545 4.64948213 -35.5 2.625 C-34.63826172 2.3787085 -33.77652344 2.13241699 -32.88867188 1.87866211 C-29.38660171 0.87605331 -25.89143948 -0.13901177 -22.40625 -1.19921875 C-21.4471875 -1.48410156 -20.488125 -1.76898438 -19.5 -2.0625 C-18.35724609 -2.41634766 -18.35724609 -2.41634766 -17.19140625 -2.77734375 C-11.56356614 -3.64541614 -5.4621307 -1.36107501 0 0 Z " fill="#FDFDFB" transform="translate(502.9375,447.125)"/>
<path d="M0 0 C16.17 0 32.34 0 49 0 C49.25 16.3125 49.25 16.3125 49.29785156 21.38793945 C49.52033045 33.85449186 51.7302479 43.83456903 60.1875 53.5 C69.35488102 61.64878313 78.13356379 65.31810034 90.41796875 65.15234375 C102.18479789 64.45808303 110.92895322 59.44141986 119 51 C130.76227387 36.20230061 127.45773236 18.43709983 128 0 C158.69 0 189.38 0 221 0 C221.33 9.9 221.66 19.8 222 30 C224.22039483 41.10197414 227.42467257 49.38639153 236 57 C246.76560379 64.06737599 256.94051192 66.68129084 269.78125 64.53515625 C280.60618137 61.64051479 289.33222786 55.52111247 295.24609375 45.9921875 C302.86320312 31.76242274 300.50039273 15.98743259 301 0 C331.69 0 362.38 0 394 0 C394.33 11.22 394.66 22.44 395 34 C399.62703412 46.72434383 405.00380445 55.56206962 416.953125 62.0625 C427.34906863 66.76327451 438.45529239 65.86460188 449.0234375 62.2578125 C458.0875984 58.42755028 465.56622918 51.04743532 469.3125 41.9375 C469.91277914 40.30506667 470.4725339 38.65739347 471 37 C471.33845947 35.94103516 471.67691895 34.88207031 472.02563477 33.79101562 C473.00372404 29.98551068 473.31311754 26.67393551 473.4140625 22.75390625 C473.44967285 21.5532251 473.4852832 20.35254395 473.52197266 19.11547852 C473.57297119 16.86175415 473.57297119 16.86175415 473.625 14.5625 C473.74875 9.756875 473.8725 4.95125 474 0 C489.84 0 505.68 0 522 0 C522 26.07 522 52.14 522 79 C349.74 79 177.48 79 0 79 C0 52.93 0 26.86 0 0 Z " fill="#353535" transform="translate(229,312)"/>
<path d="M0 0 C4.27340493 0.68950666 8.40056718 1.56145838 12.5859375 2.671875 C14.46514893 3.17025879 14.46514893 3.17025879 16.38232422 3.67871094 C17.71328903 4.03553554 19.04417964 4.39263703 20.375 4.75 C21.04984436 4.93018677 21.72468872 5.11037354 22.41998291 5.29602051 C29.94881317 7.3080953 37.45817316 9.35135015 44.875 11.75 C50.50329271 13.56949118 56.13792637 15.09052713 61.88037109 16.48803711 C79.03029487 20.67281769 96.25673766 25.41891255 113 31 C120.10113204 31.77670075 126.22016828 30.06482273 132.9375 27.9375 C135.06303787 27.29045298 137.1893705 26.64601216 139.31640625 26.00390625 C140.41227051 25.67148926 141.50813477 25.33907227 142.63720703 24.99658203 C149.18520789 23.05604628 155.79034435 21.32725125 162.39038086 19.57397461 C175.23636307 16.15526057 188.03535886 12.58107871 200.8046875 8.88671875 C202.16688919 8.49332306 202.16688919 8.49332306 203.55661011 8.09197998 C209.15085783 6.47632911 209.15085783 6.47632911 214.74267578 4.85229492 C217.51196954 4.04641954 220.28311857 3.24722862 223.0546875 2.44921875 C223.89627411 2.20241867 224.73786072 1.95561859 225.60494995 1.70133972 C226.38742096 1.47722916 227.16989197 1.25311859 227.97607422 1.0222168 C229.00050125 0.72507027 229.00050125 0.72507027 230.04562378 0.42192078 C232 0 232 0 236 0 C236.06953559 9.95315449 236.12282937 19.90625111 236.15543652 29.85959911 C236.17108697 34.48143791 236.19231393 39.10311042 236.22631836 43.72485352 C236.25893392 48.18578537 236.27685768 52.64655736 236.28463173 57.10759926 C236.29017129 58.80884632 236.30098876 60.51008472 236.31719017 62.21126366 C236.33899391 64.59570544 236.34196574 66.9794881 236.34057617 69.36401367 C236.351362 70.06604416 236.36214783 70.76807465 236.3732605 71.49137878 C236.34586136 75.84151956 235.61121805 78.51336622 233 82 C231.3359375 83.44921875 231.3359375 83.44921875 229.375 84.6875 C228.19164062 85.43580078 228.19164062 85.43580078 226.984375 86.19921875 C217.80485306 91.73817112 208.59390893 97.19060993 199.15234375 102.2734375 C185.94780518 109.50566308 172.97274793 117.1643584 159.97973633 124.76733398 C152.33450165 129.23619775 144.65642428 133.64473772 136.94921875 138.00585938 C136.15128906 138.45896484 135.35335937 138.91207031 134.53125 139.37890625 C133.76554688 139.81090332 132.99984375 140.24290039 132.2109375 140.68798828 C129.98792124 141.97158602 129.98792124 141.97158602 127.9140625 143.44873047 C123.91117812 146.22212969 120.90120368 147.77724206 115.95214844 147.42236328 C112.43368476 146.66111489 109.59528957 144.87183229 106.625 142.9375 C105.13407468 142.01488431 103.64179427 141.09445617 102.1484375 140.17578125 C100.92592285 139.41515381 100.92592285 139.41515381 99.67871094 138.63916016 C94.59722328 135.52968986 89.41667733 132.58991455 84.25 129.625 C82.00650319 128.33204378 79.76301359 127.03907507 77.51953125 125.74609375 C70.80158518 121.8820157 64.06988926 118.04227147 57.33642578 114.20532227 C51.39512991 110.81364662 45.49379498 107.35947975 39.61132812 103.86694336 C35.47511857 101.42242008 31.30815859 99.04181259 27.11328125 96.69921875 C25.57969971 95.84154907 25.57969971 95.84154907 24.01513672 94.96655273 C22.01833043 93.85283347 20.01880378 92.74397236 18.01611328 91.64086914 C11.54921782 88.03318238 5.26528387 84.26528387 0 79 C-0.1878075 76.47023465 -0.25191906 74.05092595 -0.22705078 71.52099609 C-0.22734283 70.75017197 -0.22763489 69.97934784 -0.22793579 69.18516541 C-0.22653974 66.63114255 -0.21096579 64.07740954 -0.1953125 61.5234375 C-0.19158334 59.75509806 -0.18873591 57.98675655 -0.18673706 56.21841431 C-0.17909293 51.55930905 -0.15943778 46.90032806 -0.1373291 42.24127197 C-0.11688744 37.48899008 -0.10773894 32.73668816 -0.09765625 27.984375 C-0.07619259 18.65619534 -0.04204728 9.32810799 0 0 Z " fill="#FDFDFB" transform="translate(372,551)"/>
<path d="M0 0 C0.33 0 0.66 0 1 0 C3.18137854 31.32040447 3.18137854 31.32040447 4 45 C2.68 44.67 1.36 44.34 0 44 C0 29.48 0 14.96 0 0 Z " fill="#E9E9E9" transform="translate(0,507)"/>
<path d="M0 0 C-1 3 -1 3 -3 4 C-4.35845193 4.08902493 -5.72115974 4.11760132 -7.08251953 4.11352539 C-8.34360031 4.11341209 -8.34360031 4.11341209 -9.63015747 4.11329651 C-10.99272171 4.10555458 -10.99272171 4.10555458 -12.3828125 4.09765625 C-13.31221649 4.0962413 -14.24162048 4.09482635 -15.19918823 4.09336853 C-18.17449124 4.08776053 -21.14971964 4.07520668 -24.125 4.0625 C-26.13932183 4.05748603 -28.15364484 4.05292295 -30.16796875 4.04882812 C-35.11200802 4.0377885 -40.05599135 4.02051849 -45 4 C-45 3.67 -45 3.34 -45 3 C-44.16339844 2.94465088 -43.32679688 2.88930176 -42.46484375 2.83227539 C-39.32620775 2.62351091 -36.18772069 2.4126568 -33.04931641 2.20043945 C-31.03688998 2.06498306 -29.02430535 1.93188356 -27.01171875 1.79882812 C-19.16219462 1.2828876 -19.16219462 1.2828876 -11.34375 0.4375 C-7.49182321 -0.06649042 -3.87611792 -0.06921639 0 0 Z " fill="#E1E1E1" transform="translate(552,976)"/>
<path d="M0 0 C5.90819071 -0.04945048 11.81626084 -0.08574364 17.72460938 -0.10986328 C19.73439635 -0.1199187 21.7441687 -0.13356485 23.75390625 -0.15087891 C26.64326588 -0.17514724 29.53243202 -0.18648771 32.421875 -0.1953125 C33.31992859 -0.20563507 34.21798218 -0.21595764 35.14324951 -0.22659302 C35.98381897 -0.22674408 36.82438843 -0.22689514 37.69042969 -0.22705078 C38.42767273 -0.231492 39.16491577 -0.23593323 39.92449951 -0.24050903 C42.30519726 0.03536626 43.93016431 0.82098568 46 2 C46 2.66 46 3.32 46 4 C30.82 3.01 15.64 2.02 0 1 C0 0.67 0 0.34 0 0 Z " fill="#DCDCDC" transform="translate(504,0)"/>
<path d="M0 0 C12.54 0 25.08 0 38 0 C38 0.33 38 0.66 38 1 C37.11441406 1.0501123 36.22882813 1.10022461 35.31640625 1.15185547 C12.5899447 2.3501241 12.5899447 2.3501241 -10 5 C-7 3 -7 3 -3.875 2.5 C-2.92625 2.335 -1.9775 2.17 -1 2 C-0.67 1.34 -0.34 0.68 0 0 Z " fill="#DEDEDE" transform="translate(434,0)"/>
<path d="M0 0 C0.33 0 0.66 0 1 0 C1.04934926 5.65998046 1.08569529 11.31983636 1.10986328 16.97998047 C1.11993582 18.90643494 1.13359443 20.83287408 1.15087891 22.75927734 C1.17507241 25.52445252 1.18647036 28.289426 1.1953125 31.0546875 C1.20563507 31.9193161 1.21595764 32.7839447 1.22659302 33.67477417 C1.22699106 35.78453521 1.12265243 37.89380718 1 40 C0.34 40.66 -0.32 41.32 -1 42 C-2.40128709 33.07579918 -1.70746421 24.32499647 -1.0625 15.375 C-0.9608288 13.87895769 -0.85991162 12.38286393 -0.75976562 10.88671875 C-0.51519375 7.25717863 -0.2604494 3.62843946 0 0 Z " fill="#F3F3F3" transform="translate(979,508)"/>
<path d="M0 0 C0.33 0 0.66 0 1 0 C1 14.19 1 28.38 1 43 C0.67 43 0.34 43 0 43 C-0.336485 37.84132639 -0.65745663 32.6820028 -0.96435547 27.52148438 C-1.07081561 25.76764258 -1.18144266 24.01404839 -1.29638672 22.26074219 C-1.46128153 19.73426692 -1.61095884 17.20726787 -1.7578125 14.6796875 C-1.81188263 13.90132538 -1.86595276 13.12296326 -1.92166138 12.3210144 C-2.17018166 7.74347126 -1.78556402 4.32262805 0 0 Z " fill="#F3F3F3" transform="translate(979,429)"/>
<path d="M0 0 C0.99 0.66 1.98 1.32 3 2 C1.64639283 4.70721435 0.29542607 4.77306151 -2.5 5.8125 C-4.93650334 6.77904911 -4.93650334 6.77904911 -7 8 C-8.2113453 10.6087705 -8.2113453 10.6087705 -8 13 C-8.99 13.33 -9.98 13.66 -11 14 C-11.66 13.67 -12.32 13.34 -13 13 C-13.33 13.99 -13.66 14.98 -14 16 C-15.32 15.67 -16.64 15.34 -18 15 C-12.23168342 9.62805961 -6.57365823 4.38243882 0 0 Z " fill="#3C3C3C" transform="translate(188,104)"/>
<path d="M0 0 C3.95251881 1.31750627 6.10482654 4.10482654 9 7 C7.875 8.5625 7.875 8.5625 6 10 C2.9375 9.9375 2.9375 9.9375 0 9 C-1.5 7.25 -1.5 7.25 -2 5 C-1.125 2.25 -1.125 2.25 0 0 Z " fill="#313130" transform="translate(498,570)"/>
<path d="M0 0 C2.31 0.33 4.62 0.66 7 1 C7.33 2.98 7.66 4.96 8 7 C6.51800098 6.55090939 5.03944764 6.09043436 3.5625 5.625 C2.73878906 5.36976563 1.91507812 5.11453125 1.06640625 4.8515625 C-1 4 -1 4 -2 2 C-1.34 2 -0.68 2 0 2 C0 1.34 0 0.68 0 0 Z " fill="#353535" transform="translate(301,938)"/>
<path d="M0 0 C0.99 0.33 1.98 0.66 3 1 C2.34 1 1.68 1 1 1 C1.33 1.99 1.66 2.98 2 4 C1.21625 4.433125 0.4325 4.86625 -0.375 5.3125 C-3.21698375 6.89220247 -3.21698375 6.89220247 -5 10 C-5.66 10 -6.32 10 -7 10 C-8.62514468 11.45833358 -8.62514468 11.45833358 -10 13 C-10 10 -10 10 -7.8125 7.51953125 C-6.884375 6.62621094 -5.95625 5.73289062 -5 4.8125 C-4.071875 3.91144531 -3.14375 3.01039063 -2.1875 2.08203125 C-1.1046875 1.05142578 -1.1046875 1.05142578 0 0 Z " fill="#F0F0F0" transform="translate(845,827)"/>
<path d="M0 0 C3.43595166 1.52708963 6.11912454 3.59927045 9 6 C8.34 6.66 7.68 7.32 7 8 C6.443125 7.649375 5.88625 7.29875 5.3125 6.9375 C2.46113217 5.78154007 0.91482778 6.19032562 -2 7 C-1.34 4.69 -0.68 2.38 0 0 Z " fill="#3B3B3B" transform="translate(634,367)"/>
<path d="M0 0 C0.99 0.66 1.98 1.32 3 2 C3 2.66 3 3.32 3 4 C-2.41538462 7.07692308 -2.41538462 7.07692308 -5.375 6.6875 C-5.91125 6.460625 -6.4475 6.23375 -7 6 C-6.67 4.68 -6.34 3.36 -6 2 C-4.02 2 -2.04 2 0 2 C0 1.34 0 0.68 0 0 Z " fill="#3A3A3A" transform="translate(699,928)"/>
<path d="M0 0 C0.33 0.99 0.66 1.98 1 3 C1.66 3 2.32 3 3 3 C3.33 2.01 3.66 1.02 4 0 C4.33 0.66 4.66 1.32 5 2 C4.67 2.99 4.34 3.98 4 5 C4.99 5.33 5.98 5.66 7 6 C6.34 7.32 5.68 8.64 5 10 C1.26115668 7.34345343 -0.64978174 5.41889613 -2 1 C-1.34 0.67 -0.68 0.34 0 0 Z " fill="#3B3B3B" transform="translate(192,873)"/>
<path d="M0 0 C0.66 0.33 1.32 0.66 2 1 C1.67 1.66 1.34 2.32 1 3 C3.475 3.99 3.475 3.99 6 5 C5.67 5.99 5.34 6.98 5 8 C2.08482708 6.92598892 0.22189824 6.22189824 -2 4 C-1.34 2.68 -0.68 1.36 0 0 Z M5 3 C7 4 7 4 7 4 Z " fill="#3E3E3E" transform="translate(239,905)"/>
<path d="M0 0 C0.68707555 2.49064888 1 4.37886292 1 7 C1.66 7.33 2.32 7.66 3 8 C2.34 9.32 1.68 10.64 1 12 C0.01 12 -0.98 12 -2 12 C-2.99 12.495 -2.99 12.495 -4 13 C-3.52140759 11.39566191 -3.04210442 9.79153584 -2.5625 8.1875 C-2.29566406 7.29417969 -2.02882813 6.40085937 -1.75390625 5.48046875 C-1.19612127 3.64526945 -0.60655425 1.81966274 0 0 Z " fill="#484847" transform="translate(701,346)"/>
<path d="M0 0 C0.33 1.98 0.66 3.96 1 6 C-5.0546875 6.1953125 -5.0546875 6.1953125 -7 6 C-7.66 5.34 -8.32 4.68 -9 4 C-2.25 0 -2.25 0 0 0 Z " fill="#414141" transform="translate(542,670)"/>
<path d="M0 0 C-1.0558098 2.78349856 -2.00518252 4.00409146 -4.375 5.875 C-5.674375 6.431875 -5.674375 6.431875 -7 7 C-9.1640625 6.0703125 -9.1640625 6.0703125 -11 5 C-9.54462432 4.16151196 -8.08559627 3.32936066 -6.625 2.5 C-5.81289063 2.0359375 -5.00078125 1.571875 -4.1640625 1.09375 C-2 0 -2 0 0 0 Z " fill="#EAEAEA" transform="translate(729,918)"/>
<path d="M0 0 C1.32 0.33 2.64 0.66 4 1 C3.67 1.66 3.34 2.32 3 3 C4.32 3.33 5.64 3.66 7 4 C6.67 5.65 6.34 7.3 6 9 C1.2 5.67692308 1.2 5.67692308 0.1875 2.25 C0.125625 1.5075 0.06375 0.765 0 0 Z " fill="#3F3F3F" transform="translate(152,841)"/>
<path d="M0 0 C0.66 0.99 1.32 1.98 2 3 C-0.42655726 7.46997391 -3.34880489 11.67440245 -8 14 C-6.6744419 10.37723685 -5.05653045 7.36494652 -2.875 4.1875 C-2.33617187 3.39730469 -1.79734375 2.60710938 -1.2421875 1.79296875 C-0.83226562 1.20128906 -0.42234375 0.60960937 0 0 Z " fill="#E5E5E5" transform="translate(902,754)"/>
<path d="M0 0 C1.125 1.6875 1.125 1.6875 2 4 C1.125 6.75 1.125 6.75 0 9 C-3.875 4.25 -3.875 4.25 -5 2 C-3.35 1.34 -1.7 0.68 0 0 Z " fill="#3D3D3D" transform="translate(85,756)"/>
<path d="M0 0 C0.99 0.66 1.98 1.32 3 2 C1.66876597 4.66246807 0.3235622 4.94601652 -2.375 6.125 C-3.16648438 6.47820312 -3.95796875 6.83140625 -4.7734375 7.1953125 C-7 8 -7 8 -10 8 C-6.7 5.36 -3.4 2.72 0 0 Z " fill="#464646" transform="translate(188,104)"/>
<path d="M0 0 C0.66 0.33 1.32 0.66 2 1 C0.65117186 5.04648443 -1.34826069 5.95502599 -5 8 C-5.99 7.67 -6.98 7.34 -8 7 C-7.67 6.01 -7.34 5.02 -7 4 C-5.01276732 3.29618843 -3.01222047 2.6288189 -1 2 C-0.67 1.34 -0.34 0.68 0 0 Z " fill="#3E3E3E" transform="translate(767,890)"/>
<path d="M0 0 C-0.33 0.66 -0.66 1.32 -1 2 C-3.02600175 2.22511131 -5.05459276 2.4440878 -7.08984375 2.55859375 C-9.40424812 2.86342704 -9.40424812 2.86342704 -11 6 C-11.66 6 -12.32 6 -13 6 C-11.9280096 2.5458087 -10.90283569 1.94781917 -7.625 0.1875 C-3.0098832 -1.32434861 -3.0098832 -1.32434861 0 0 Z " fill="#DFDFDE" transform="translate(298,499)"/>
<path d="M0 0 C3.82524236 1.450954 5.19090966 3.38181932 7 7 C7 7.66 7 8.32 7 9 C6.01 9.33 5.02 9.66 4 10 C1.60676196 7.60676196 1.55803891 6.26851362 1 3 C0.67 2.01 0.34 1.02 0 0 Z " fill="#3E3E3E" transform="translate(906,235)"/>
<path d="M0 0 C0 3.51716303 -0.82445585 4.37121748 -3 7 C-4.32 6.67 -5.64 6.34 -7 6 C-5.9024777 3.00675737 -5.32317108 2.15389099 -2.375 0.75 C-1.59125 0.5025 -0.8075 0.255 0 0 Z " fill="#414141" transform="translate(126,165)"/>
<path d="M0 0 C0.53625 0.226875 1.0725 0.45375 1.625 0.6875 C0.635 1.1825 0.635 1.1825 -0.375 1.6875 C-0.375 2.3475 -0.375 3.0075 -0.375 3.6875 C-2.6875 4.3125 -2.6875 4.3125 -5.375 4.6875 C-6.365 4.0275 -7.355 3.3675 -8.375 2.6875 C-2.95961538 -0.38942308 -2.95961538 -0.38942308 0 0 Z " fill="#414141" transform="translate(348.375,953.3125)"/>
<path d="M0 0 C0.66 0.33 1.32 0.66 2 1 C0.25 5.875 0.25 5.875 -2 7 C-4.625 6.0625 -4.625 6.0625 -7 5 C-4.702779 3.25728062 -2.40133271 1.60088848 0 0 Z " fill="#424242" transform="translate(564,656)"/>
<path d="M0 0 C0.66 0.99 1.32 1.98 2 3 C-0.97 5.475 -0.97 5.475 -4 8 C-5 3.25 -5 3.25 -5 1 C-3.68 1 -2.36 1 -1 1 C-0.67 0.67 -0.34 0.34 0 0 Z " fill="#3A3A3A" transform="translate(463,234)"/>
<path d="M0 0 C1.32 0.66 2.64 1.32 4 2 C1.36 3.98 -1.28 5.96 -4 8 C-3.6875 5.125 -3.6875 5.125 -3 2 C-2.01 1.34 -1.02 0.68 0 0 Z " fill="#424242" transform="translate(804,861)"/>
<path d="M0 0 C0.66 0.66 1.32 1.32 2 2 C0.02 4.97 0.02 4.97 -2 8 C-2.99 7.67 -3.98 7.34 -5 7 C-4.75 4.625 -4.75 4.625 -4 2 C-1.9375 0.6875 -1.9375 0.6875 0 0 Z " fill="#EDEDEB" transform="translate(765,739)"/>
<path d="M0 0 C0.66 0 1.32 0 2 0 C1.46930939 3.82097239 0.50298434 6.06171403 -2 9 C-2.66 7.68 -3.32 6.36 -4 5 C-2.71937515 3.2925002 -1.38232443 1.62626404 0 0 Z " fill="#3A3A3A" transform="translate(454,245)"/>
<path d="M0 0 C0.66 0.66 1.32 1.32 2 2 C1.34 2 0.68 2 0 2 C0 3.65 0 5.3 0 7 C-2.97 6.505 -2.97 6.505 -6 6 C-6 5.01 -6 4.02 -6 3 C-4.02 2.01 -2.04 1.02 0 0 Z " fill="#3A3A3A" transform="translate(278,48)"/>
<path d="M0 0 C0.66 0 1.32 0 2 0 C1.58578031 4.83256305 -0.46413986 6.82679218 -4 10 C-3.52651586 5.8333396 -2.95303159 3.07115285 0 0 Z " fill="#3C3C3C" transform="translate(871,792)"/>
<path d="M0 0 C0.66 0 1.32 0 2 0 C2.33 2.64 2.66 5.28 3 8 C1.02 8.99 1.02 8.99 -1 10 C-2.15837626 5.94568308 -1.83691257 3.78187881 0 0 Z " fill="#3C3C3C" transform="translate(52,269)"/>
<path d="M0 0 C0.66 0 1.32 0 2 0 C3.7143618 1.95927063 5.38405168 3.95880212 7 6 C6.34 6.66 5.68 7.32 5 8 C3.02 6.35 1.04 4.7 -1 3 C-0.67 2.01 -0.34 1.02 0 0 Z " fill="#3C3C3C" transform="translate(168,856)"/>
<path d="M0 0 C2 1 2 1 3.1875 3.375 C4 6 4 6 3 9 C0.5 6.6875 0.5 6.6875 -2 4 C-2 3.01 -2 2.02 -2 1 C-1.34 0.67 -0.68 0.34 0 0 Z " fill="#404040" transform="translate(123,809)"/>
<path d="M0 0 C0.93065133 2.60582371 1.14917407 3.64198224 0.0625 6.25 C-0.4634375 7.11625 -0.4634375 7.11625 -1 8 C-2.32 8 -3.64 8 -5 8 C-3.8141763 4.62496331 -2.72426311 2.35277269 0 0 Z " fill="#EBEBEB" transform="translate(461,240)"/>
<path d="M0 0 C0.5534764 2.07553648 1 3.84365964 1 6 C-1.31 6.66 -3.62 7.32 -6 8 C-4.26440562 4.942048 -2.61527381 2.36620011 0 0 Z " fill="#4B4B4B" transform="translate(118,171)"/>
<path d="M0 0 C2.31 0.33 4.62 0.66 7 1 C7 2.65 7 4.3 7 6 C4.36 4.68 1.72 3.36 -1 2 C-0.67 1.34 -0.34 0.68 0 0 Z " fill="#E8E8E6" transform="translate(461,681)"/>
<path d="M0 0 C2.00720923 0.28674418 4.0085944 0.61866701 6 1 C6 2.32 6 3.64 6 5 C4.35 4.67 2.7 4.34 1 4 C1 3.34 1 2.68 1 2 C0.34 1.67 -0.32 1.34 -1 1 C-0.67 0.67 -0.34 0.34 0 0 Z " fill="#31312F" transform="translate(546,557)"/>
<path d="M0 0 C-0.33 1.32 -0.66 2.64 -1 4 C-2.66611905 4.042721 -4.33382885 4.04063832 -6 4 C-6.33 3.67 -6.66 3.34 -7 3 C-8.32594105 2.63837971 -9.65938457 2.30271961 -11 2 C-9.5422647 1.664061 -8.08378894 1.33133376 -6.625 1 C-5.40683594 0.7215625 -5.40683594 0.7215625 -4.1640625 0.4375 C-2 0 -2 0 0 0 Z " fill="#505050" transform="translate(621,536)"/>
<path d="M0 0 C-1.75 1.125 -1.75 1.125 -4 2 C-6.25 1.125 -6.25 1.125 -8 0 C-4.94736336 -0.98120464 -3.05263664 -0.98120464 0 0 Z M-4 2 C-3.67 3.32 -3.34 4.64 -3 6 C-4.65 6 -6.3 6 -8 6 C-8 5.01 -8 4.02 -8 3 C-6 2 -6 2 -4 2 Z " fill="#434343" transform="translate(680,376)"/>
<path d="M0 0 C0.66 0 1.32 0 2 0 C2.33 2.97 2.66 5.94 3 9 C-1 7 -1 7 -2 4 C-1.0625 1.8125 -1.0625 1.8125 0 0 Z " fill="#464646" transform="translate(964,371)"/>
<path d="M0 0 C2.475 0.99 2.475 0.99 5 2 C2.82575883 4.50037734 1.26954202 5.43628586 -2 6 C-2.33 5.01 -2.66 4.02 -3 3 C-2.01 2.01 -1.02 1.02 0 0 Z " fill="#F0F0F0" transform="translate(679,369)"/>
<path d="M0 0 C2.375 0.25 2.375 0.25 5 1 C6.3125 3.0625 6.3125 3.0625 7 5 C6.34 5.66 5.68 6.32 5 7 C4.01 6.67 3.02 6.34 2 6 C0.8125 2.9375 0.8125 2.9375 0 0 Z " fill="#3A3A3A" transform="translate(881,200)"/>
<path d="M0 0 C1.98 0.495 1.98 0.495 4 1 C4.33 2.32 4.66 3.64 5 5 C4.01 5.495 4.01 5.495 3 6 C1.68 4.68 0.36 3.36 -1 2 C-0.67 1.34 -0.34 0.68 0 0 Z " fill="#F5F5F5" transform="translate(803,866)"/>
<path d="M0 0 C0.99 0.99 1.98 1.98 3 3 C1.03533587 4.06775224 -0.96855359 5.06553465 -3 6 C-3.66 5.67 -4.32 5.34 -5 5 C-4.67 4.01 -4.34 3.02 -4 2 C-3.01 2 -2.02 2 -1 2 C-0.67 1.34 -0.34 0.68 0 0 Z " fill="#EEEEEC" transform="translate(601,631)"/>
<path d="M0 0 C0.66 0.33 1.32 0.66 2 1 C2.66 1 3.32 1 4 1 C3.67 1.99 3.34 2.98 3 4 C-0.0625 5.1875 -0.0625 5.1875 -3 6 C-3 3 -3 3 -1.5 1.3125 C-0.7575 0.6628125 -0.7575 0.6628125 0 0 Z " fill="#474747" transform="translate(168,120)"/>
<path d="M0 0 C2.31 0.33 4.62 0.66 7 1 C7 1.66 7 2.32 7 3 C7.99 3.33 8.98 3.66 10 4 C9.67 4.66 9.34 5.32 9 6 C5.88802644 4.50164236 2.91164984 2.86022073 0 1 C0 0.67 0 0.34 0 0 Z " fill="#E1E1E1" transform="translate(770,88)"/>
<path d="M0 0 C-1.75 1.5625 -1.75 1.5625 -4 3 C-6.1875 2.8125 -6.1875 2.8125 -8 2 C-8.33 1.34 -8.66 0.68 -9 0 C-5.52176885 -1.15941038 -3.54104422 -0.70820884 0 0 Z " fill="#3D3D3B" transform="translate(376,540)"/>
<path d="M0 0 C0.66 1.32 1.32 2.64 2 4 C1.34 4.66 0.68 5.32 0 6 C-1.98 5.01 -3.96 4.02 -6 3 C-3.8614515 0.8614515 -2.86724686 0.57344937 0 0 Z " fill="#424242" transform="translate(694,497)"/>
<path d="M0 0 C2.01136276 2.55991624 3.62845496 5.04590299 5 8 C4.34 8.66 3.68 9.32 3 10 C2.67 9.01 2.34 8.02 2 7 C1.34 7 0.68 7 0 7 C0 4.69 0 2.38 0 0 Z " fill="#414141" transform="translate(281,355)"/>
<path d="M0 0 C1.99097846 2.98646769 2.94124926 5.59687262 4 9 C2.68 9.33 1.36 9.66 0 10 C-1 7 -1 7 0 4 C0 2.68 0 1.36 0 0 Z " fill="#424242" transform="translate(930,275)"/>
<path d="M0 0 C1.8125 0.1875 1.8125 0.1875 4 1 C5.75 3.5625 5.75 3.5625 7 6 C3.47190093 6 2.53184488 5.35723489 0 3 C0 2.01 0 1.02 0 0 Z " fill="#404040" transform="translate(876,192)"/>
<path d="M0 0 C0.66 0.99 1.32 1.98 2 3 C0.35 4.65 -1.3 6.3 -3 8 C-3.66 7.34 -4.32 6.68 -5 6 C-3.35 4.02 -1.7 2.04 0 0 Z " fill="#444444" transform="translate(111,179)"/>
<path d="M0 0 C-0.66 0 -1.32 0 -2 0 C-1.67 0.99 -1.34 1.98 -1 3 C-0.34 3.33 0.32 3.66 1 4 C0.67 4.66 0.34 5.32 0 6 C-1.98 5.01 -3.96 4.02 -6 3 C-6 2.01 -6 1.02 -6 0 C-3 -1 -3 -1 0 0 Z " fill="#3B3B3B" transform="translate(270,922)"/>
<path d="M0 0 C0.66 1.65 1.32 3.3 2 5 C1.01 5.33 0.02 5.66 -1 6 C-1 5.34 -1 4.68 -1 4 C-2.32 3.67 -3.64 3.34 -5 3 C-2.25 0 -2.25 0 0 0 Z " fill="#424242" transform="translate(578,649)"/>
<path d="M0 0 C-0.66 1.65 -1.32 3.3 -2 5 C-4.97 4.505 -4.97 4.505 -8 4 C-3.375 0 -3.375 0 0 0 Z " fill="#393939" transform="translate(595,640)"/>
<path d="M0 0 C0.33 0.66 0.66 1.32 1 2 C1.66 2.33 2.32 2.66 3 3 C-1.455 3.495 -1.455 3.495 -6 4 C-4 1 -4 1 -1.875 0.3125 C-1.25625 0.209375 -0.6375 0.10625 0 0 Z " fill="#3A3A3A" transform="translate(338,483)"/>
<path d="M0 0 C-1.5625 1.5625 -1.5625 1.5625 -4 3 C-7.75 2.6875 -7.75 2.6875 -11 2 C-11 1.67 -11 1.34 -11 1 C-6.87831311 -0.62950412 -4.29299643 -1.26264601 0 0 Z " fill="#434343" transform="translate(616,475)"/>
<path d="M0 0 C0.33 0 0.66 0 1 0 C2.10228696 4.40914783 2.07654536 8.48382401 2 13 C-0.43773135 10.56226865 -0.61487376 9.38911094 -1 6 C-0.5625 2.6875 -0.5625 2.6875 0 0 Z " fill="#595959" transform="translate(973,411)"/>
<path d="M0 0 C2.31 0.66 4.62 1.32 7 2 C6.67 2.99 6.34 3.98 6 5 C6 4.34 6 3.68 6 3 C4.68 3.99 3.36 4.98 2 6 C1.01 4.35 0.02 2.7 -1 1 C-0.67 0.67 -0.34 0.34 0 0 Z " fill="#ECECEA" transform="translate(288,362)"/>
<path d="M0 0 C1.5625 1.25 1.5625 1.25 3 3 C2.6875 5.1875 2.6875 5.1875 2 7 C1.01 7 0.02 7 -1 7 C-1.625 4.625 -1.625 4.625 -2 2 C-1.34 1.34 -0.68 0.68 0 0 Z " fill="#3E3E3E" transform="translate(626,355)"/>
<path d="M0 0 C1.61949011 2.57213134 2.04408751 3.67669159 1.625 6.75 C1.41875 7.4925 1.2125 8.235 1 9 C-0.32 8.34 -1.64 7.68 -3 7 C-2.01 4.69 -1.02 2.38 0 0 Z " fill="#444444" transform="translate(45,284)"/>
<path d="M0 0 C7.56634615 -0.37211538 7.56634615 -0.37211538 9.76171875 1.51171875 C10.17035156 2.00285156 10.57898438 2.49398437 11 3 C9.54077307 2.88590407 8.08259402 2.75834456 6.625 2.625 C5.40683594 2.52058594 5.40683594 2.52058594 4.1640625 2.4140625 C2 2 2 2 0 0 Z " fill="#444444" transform="translate(404,971)"/>
<path d="M0 0 C2.31 0 4.62 0 7 0 C7 1.32 7 2.64 7 4 C4.69 3.34 2.38 2.68 0 2 C0 1.34 0 0.68 0 0 Z " fill="#484848" transform="translate(302,941)"/>
<path d="M0 0 C-1 3 -1 3 -3.3125 4.25 C-6.16597407 5.04631835 -7.24802325 4.8214856 -10 4 C-8.71086513 3.32845067 -7.41859796 2.66291141 -6.125 2 C-5.40570312 1.62875 -4.68640625 1.2575 -3.9453125 0.875 C-2 0 -2 0 0 0 Z " fill="#E4E4E4" transform="translate(712,927)"/>
<path d="M0 0 C0.66 0 1.32 0 2 0 C1.67 2.31 1.34 4.62 1 7 C-0.32 7.33 -1.64 7.66 -3 8 C-1.125 2.25 -1.125 2.25 0 0 Z " fill="#E8E8E8" transform="translate(930,704)"/>
<path d="M0 0 C-0.99 0 -1.98 0 -3 0 C-3.66 1.32 -4.32 2.64 -5 4 C-6.98 3.34 -8.96 2.68 -11 2 C-11 1.67 -11 1.34 -11 1 C-3.57142857 -1.42857143 -3.57142857 -1.42857143 0 0 Z " fill="#535353" transform="translate(646,530)"/>
<path d="M0 0 C0.99 1.32 1.98 2.64 3 4 C2.34 5.32 1.68 6.64 1 8 C1 7.34 1 6.68 1 6 C0.01 5.67 -0.98 5.34 -2 5 C-1.34 3.35 -0.68 1.7 0 0 Z " fill="#3B3B3B" transform="translate(923,262)"/>
<path d="M0 0 C5.75 1.75 5.75 1.75 8 4 C5.69 4 3.38 4 1 4 C0.67 2.68 0.34 1.36 0 0 Z " fill="#393939" transform="translate(702,49)"/>
<path d="M0 0 C0.66 0.66 1.32 1.32 2 2 C1.34 2 0.68 2 0 2 C0 2.66 0 3.32 0 4 C-1.65 4.66 -3.3 5.32 -5 6 C-4.75 4.125 -4.75 4.125 -4 2 C-1.9375 0.75 -1.9375 0.75 0 0 Z " fill="#3D3D3D" transform="translate(525,679)"/>
<path d="M0 0 C-0.99 0.495 -0.99 0.495 -2 1 C-1.34 1.66 -0.68 2.32 0 3 C-1.98 3 -3.96 3 -6 3 C-6 2.01 -6 1.02 -6 0 C-3.50907189 -1.24546405 -2.58919267 -0.7767578 0 0 Z " fill="#E8E8E6" transform="translate(518,577)"/>
<path d="M0 0 C0 1.32 0 2.64 0 4 C-2.64 3.34 -5.28 2.68 -8 2 C-4.77208445 -0.1519437 -3.71599191 -0.20086443 0 0 Z " fill="#4A4A48" transform="translate(554,555)"/>
<path d="M0 0 C-3.08559304 2.26881841 -4.42209376 3.05451946 -8.3125 2.6875 C-9.199375 2.460625 -10.08625 2.23375 -11 2 C-7.00042393 -0.06874624 -4.43559483 -1.37656391 0 0 Z " fill="#565655" transform="translate(657,527)"/>
<path d="M0 0 C4.875 3.625 4.875 3.625 6 7 C3.50638429 5.79618552 1.31856917 4.54571278 -1 3 C-0.67 2.01 -0.34 1.02 0 0 Z " fill="#ECECEC" transform="translate(761,299)"/>
<path d="M0 0 C0.66 0.33 1.32 0.66 2 1 C2 1.33 2 1.66 2 2 C3.65 2 5.3 2 7 2 C4.36095629 3.41377341 1.92879371 4.37240135 -1 5 C-1 1 -1 1 0 0 Z " fill="#474746" transform="translate(221,292)"/>
<path d="M0 0 C1.5625 1.625 1.5625 1.625 3 4 C2.6875 7.25 2.6875 7.25 2 10 C1.67 10 1.34 10 1 10 C0.63883954 8.5225254 0.28624952 7.04295325 -0.0625 5.5625 C-0.25972656 4.73878906 -0.45695312 3.91507813 -0.66015625 3.06640625 C-0.82837891 2.04353516 -0.82837891 2.04353516 -1 1 C-0.67 0.67 -0.34 0.34 0 0 Z " fill="#454545" transform="translate(355,251)"/>
<path d="M0 0 C0.66 0.33 1.32 0.66 2 1 C2 2.32 2 3.64 2 5 C0.35 5.66 -1.3 6.32 -3 7 C-1.125 1.125 -1.125 1.125 0 0 Z " fill="#DFDFDF" transform="translate(283,247)"/>
<path d="M0 0 C0.66 0.66 1.32 1.32 2 2 C0.35 3.32 -1.3 4.64 -3 6 C-3.33 5.01 -3.66 4.02 -4 3 C-2.68 2.01 -1.36 1.02 0 0 Z " fill="#E9E9E9" transform="translate(822,850)"/>
<path d="M0 0 C0.99 1.32 1.98 2.64 3 4 C2.34 5.32 1.68 6.64 1 8 C-2 3.25 -2 3.25 -2 1 C-1.34 0.67 -0.68 0.34 0 0 Z " fill="#3C3C3C" transform="translate(65,728)"/>
<path d="M0 0 C0.99 0.99 1.98 1.98 3 3 C1.35 3.66 -0.3 4.32 -2 5 C-2.66 4.34 -3.32 3.68 -4 3 C-2.68 2.01 -1.36 1.02 0 0 Z " fill="#F1F1EF" transform="translate(568,650)"/>
<path d="M0 0 C0.99 0.99 1.98 1.98 3 3 C1 6 1 6 -2 7 C-1.34 4.69 -0.68 2.38 0 0 Z " fill="#E3E3E1" transform="translate(626,251)"/>
<path d="M0 0 C1.32 1.32 2.64 2.64 4 4 C3.67 4.66 3.34 5.32 3 6 C1.68 5.34 0.36 4.68 -1 4 C-0.67 2.68 -0.34 1.36 0 0 Z " fill="#EEEEEC" transform="translate(347,242)"/>
<path d="M0 0 C1 3 1 3 0.0625 5.1875 C-0.4634375 6.0846875 -0.4634375 6.0846875 -1 7 C-2.5 5.625 -2.5 5.625 -4 4 C-4 3.34 -4 2.68 -4 2 C-2.68 1.34 -1.36 0.68 0 0 Z " fill="#484848" transform="translate(691,233)"/>
<path d="M0 0 C1.98 0.99 1.98 0.99 4 2 C4 5.51716303 3.17554415 6.37121748 1 9 C-0.33470263 6.33059475 0.42666551 4.86667247 1 2 C0.67 1.34 0.34 0.68 0 0 Z " fill="#3A3A3A" transform="translate(872,186)"/>
<path d="M0 0 C0.625 1.875 0.625 1.875 1 4 C0.34 4.66 -0.32 5.32 -1 6 C-2.32 4.35 -3.64 2.7 -5 1 C-3.35 0.67 -1.7 0.34 0 0 Z " fill="#DDDDDD" transform="translate(862,165)"/>
<path d="M0 0 C0.66 0.66 1.32 1.32 2 2 C1.01 3.32 0.02 4.64 -1 6 C-2.32 5.34 -3.64 4.68 -5 4 C-3.35 2.68 -1.7 1.36 0 0 Z " fill="#3B3B3B" transform="translate(197,97)"/>
<path d="M0 0 C0.8353125 0.37125 0.8353125 0.37125 1.6875 0.75 C-0.67218744 2.84749995 -1.85866994 3.71905704 -5.0625 3.9375 C-6.17625 3.8446875 -6.17625 3.8446875 -7.3125 3.75 C-2.88173077 -0.31153846 -2.88173077 -0.31153846 0 0 Z " fill="#3F3F3F" transform="translate(225.3125,79.25)"/>
<path d="M0 0 C2.00720923 0.28674418 4.0085944 0.61866701 6 1 C2.25 4 2.25 4 0 4 C-0.33 3.01 -0.66 2.02 -1 1 C-0.67 0.67 -0.34 0.34 0 0 Z " fill="#E9E9E9" transform="translate(268,49)"/>
</svg>
