<?xml version="1.0" encoding="UTF-8"?>
<svg version="1.1" xmlns="http://www.w3.org/2000/svg" width="224" height="224">
<path d="M0 0 C73.92 0 147.84 0 224 0 C224 73.92 224 147.84 224 224 C150.08 224 76.16 224 0 224 C0 150.08 0 76.16 0 0 Z " fill="#000000" transform="translate(0,0)"/>
<path d="M0 0 C5.3889947 -0.27367932 10.77388358 -0.47228109 16.16821289 -0.60424805 C17.99900809 -0.6592865 19.82932584 -0.73415181 21.65844727 -0.82983398 C36.75733843 -1.59938772 36.75733843 -1.59938772 41.98754883 2.13061523 C44.3252701 4.9628882 46.157076 7.82687161 48 11 C49.31883202 12.78524626 50.65827404 14.55548197 52.01953125 16.30859375 C53.93725265 18.89369004 55.84708743 21.48446242 57.75585938 24.07617188 C58.37912109 24.91599609 59.00238281 25.75582031 59.64453125 26.62109375 C60.19471924 27.3680249 60.74490723 28.11495605 61.31176758 28.88452148 C63.07202944 31.09025815 64.96996907 33.04249984 67 35 C72.70797087 28.92501916 78.39063493 22.86861986 83.625 16.375 C84.35203125 15.49972656 85.0790625 14.62445313 85.828125 13.72265625 C88.06771885 10.98965189 88.06771885 10.98965189 90.109375 7.87109375 C95.56967129 0.49969375 95.56967129 0.49969375 100.29882812 -0.47265625 C105.90752885 -0.94325662 111.41166944 -0.56801307 117 0 C115.35584451 4.08577563 112.43207392 6.93452511 109.4375 10.0625 C105.65597402 14.07836454 102.00641818 18.12300027 98.5625 22.4375 C94.44756339 27.56986599 90.033354 32.36621702 85.51586914 37.14233398 C82.5173755 40.32041655 79.6767682 43.53899704 77 47 C78.31231816 50.65862057 79.89389437 53.45359409 82.2734375 56.51953125 C82.92699219 57.36837891 83.58054687 58.21722656 84.25390625 59.09179688 C84.95386719 59.98962891 85.65382813 60.88746094 86.375 61.8125 C87.84165769 63.71444915 89.30779965 65.6167961 90.7734375 67.51953125 C91.4962793 68.45490723 92.21912109 69.3902832 92.96386719 70.35400391 C95.67578323 73.87819408 98.34287699 77.43442315 101 81 C104.37852995 85.52890641 107.78602451 90.03356883 111.2265625 94.515625 C111.95488281 95.46566406 112.68320313 96.41570312 113.43359375 97.39453125 C114.86823687 99.26391471 116.30563375 101.13118882 117.74609375 102.99609375 C118.39964844 103.84816406 119.05320312 104.70023437 119.7265625 105.578125 C120.60175537 106.71362793 120.60175537 106.71362793 121.49462891 107.87207031 C122.89704683 109.8544697 123.98430103 111.79900714 125 114 C91.68689497 116.83381801 91.68689497 116.83381801 82.97216797 112.49121094 C78.47187531 108.63047966 75.85305912 103.79167163 73.30078125 98.50683594 C71.13883809 94.34038843 68.21124376 90.79763212 65.3125 87.125 C64.34583225 85.83925484 63.38325899 84.55041589 62.42578125 83.2578125 C60.62201835 80.83488853 58.81431498 78.41504134 57 76 C53.0316279 77.5632981 50.58425131 80.3211764 47.8125 83.4375 C47.32982666 83.97173584 46.84715332 84.50597168 46.34985352 85.05639648 C42.51308002 89.33794004 38.87892733 93.76918716 35.27734375 98.25 C31.98256458 102.22860126 28.4853545 106.00263567 24.96875 109.78515625 C22.97328212 111.83679121 22.97328212 111.83679121 22 114 C15.4 114 8.8 114 2 114 C5.61777763 109.17629649 8.89844002 104.84673554 12.9375 100.5 C18.00760902 94.99294251 22.94976312 89.39805395 27.81640625 83.7109375 C28.32550537 83.11635742 28.83460449 82.52177734 29.35913086 81.90917969 C30.40761881 80.68245689 31.45402374 79.45395052 32.49829102 78.22363281 C36.10598026 73.98655585 39.8487515 69.91692713 43.76953125 65.96484375 C45.20801765 64.05422083 45.20801765 64.05422083 45 61.6484375 C43.67487488 58.13892644 41.55991057 55.53512503 39.1875 52.6875 C38.18058245 51.44409052 37.17543924 50.19924253 36.171875 48.953125 C35.38780273 47.98342773 35.38780273 47.98342773 34.58789062 46.99414062 C31.96306771 43.6977763 29.45188673 40.31839687 26.9375 36.9375 C20.70944327 28.5931424 14.4324565 20.28858757 7.93359375 12.15234375 C7.4238501 11.51184082 6.91410645 10.87133789 6.38891602 10.21142578 C5.39763919 8.96805356 4.402181 7.72800073 3.40209961 6.49169922 C0 2.22227688 0 2.22227688 0 0 Z " fill="#F7F7F7" transform="translate(50,55)"/>
<path d="M0 0 C9.30813849 -1.26485803 9.30813849 -1.26485803 12.99462891 1.49121094 C14.7873552 3.69935738 16.30803278 5.96110909 17.8125 8.375 C19.00108159 10.13082168 20.1925646 11.88468226 21.38671875 13.63671875 C22.28076416 14.9812915 22.28076416 14.9812915 23.19287109 16.35302734 C25.98623166 20.44457223 29.04656118 24.30861606 32.125 28.1875 C37.98229981 35.65843007 43.70807324 43.21838766 49.38134766 50.82958984 C52.45671555 54.95327319 55.54077399 59.07044024 58.625 63.1875 C59.25873535 64.03497803 59.8924707 64.88245605 60.54541016 65.75561523 C63.36800612 69.52335206 66.2014573 73.27889802 69.10546875 76.984375 C69.56808105 77.57581299 70.03069336 78.16725098 70.50732422 78.77661133 C71.71422676 80.31244335 72.92903577 81.84205337 74.14453125 83.37109375 C75.90751826 85.86896798 77.01191083 88.11938026 78 91 C69.62342993 92.16896989 69.62342993 92.16896989 66.10400391 89.63476562 C64.33877564 87.59267018 62.82010472 85.48923642 61.3125 83.25 C60.72855469 82.44304687 60.14460938 81.63609375 59.54296875 80.8046875 C58.3033867 79.0903719 57.0765857 77.36675212 55.86181641 75.63476562 C52.83567662 71.35229768 49.65912743 67.18471704 46.5 63 C45.24585735 61.32179122 43.9919508 59.64340598 42.73828125 57.96484375 C37.43738828 50.89744721 31.9895378 43.94522043 26.54882812 36.98535156 C23.54130528 33.13018514 20.56219153 29.25344484 17.58984375 25.37109375 C15.59648069 22.76853736 13.58341166 20.18192713 11.56640625 17.59765625 C10.37752851 16.06516286 9.18872579 14.53261126 8 13 C7.43531006 12.28126709 6.87062012 11.56253418 6.28881836 10.82202148 C5.7603833 10.13825439 5.23194824 9.4544873 4.6875 8.75 C4.21699219 8.14671875 3.74648437 7.5434375 3.26171875 6.921875 C1.81137583 4.71268392 0.90901615 2.47525525 0 0 Z " fill="#0A0A0A" transform="translate(73,66)"/>
</svg>
